%TF.GenerationSoftware,KiCad,Pcbnew,(6.0.6)*%
%TF.CreationDate,2022-07-12T11:31:36+01:00*%
%TF.ProjectId,c64 tape interface,63363420-7461-4706-9520-696e74657266,rev?*%
%TF.SameCoordinates,Original*%
%TF.FileFunction,Legend,Bot*%
%TF.FilePolarity,Positive*%
%FSLAX46Y46*%
G04 Gerber Fmt 4.6, Leading zero omitted, Abs format (unit mm)*
G04 Created by KiCad (PCBNEW (6.0.6)) date 2022-07-12 11:31:36*
%MOMM*%
%LPD*%
G01*
G04 APERTURE LIST*
G04 Aperture macros list*
%AMRoundRect*
0 Rectangle with rounded corners*
0 $1 Rounding radius*
0 $2 $3 $4 $5 $6 $7 $8 $9 X,Y pos of 4 corners*
0 Add a 4 corners polygon primitive as box body*
4,1,4,$2,$3,$4,$5,$6,$7,$8,$9,$2,$3,0*
0 Add four circle primitives for the rounded corners*
1,1,$1+$1,$2,$3*
1,1,$1+$1,$4,$5*
1,1,$1+$1,$6,$7*
1,1,$1+$1,$8,$9*
0 Add four rect primitives between the rounded corners*
20,1,$1+$1,$2,$3,$4,$5,0*
20,1,$1+$1,$4,$5,$6,$7,0*
20,1,$1+$1,$6,$7,$8,$9,0*
20,1,$1+$1,$8,$9,$2,$3,0*%
G04 Aperture macros list end*
%ADD10C,0.120000*%
%ADD11C,0.150000*%
%ADD12R,1.700000X1.700000*%
%ADD13O,1.700000X1.700000*%
%ADD14R,1.800000X1.800000*%
%ADD15C,1.800000*%
%ADD16RoundRect,0.450000X0.450000X0.450000X-0.450000X0.450000X-0.450000X-0.450000X0.450000X-0.450000X0*%
%ADD17RoundRect,0.250000X0.350000X0.450000X-0.350000X0.450000X-0.350000X-0.450000X0.350000X-0.450000X0*%
%ADD18RoundRect,0.250000X0.337500X0.475000X-0.337500X0.475000X-0.337500X-0.475000X0.337500X-0.475000X0*%
%ADD19RoundRect,0.250000X-0.450000X0.350000X-0.450000X-0.350000X0.450000X-0.350000X0.450000X0.350000X0*%
%ADD20RoundRect,0.150000X0.150000X-0.825000X0.150000X0.825000X-0.150000X0.825000X-0.150000X-0.825000X0*%
%ADD21RoundRect,0.250000X0.450000X-0.350000X0.450000X0.350000X-0.450000X0.350000X-0.450000X-0.350000X0*%
%ADD22RoundRect,0.250000X-0.350000X-0.450000X0.350000X-0.450000X0.350000X0.450000X-0.350000X0.450000X0*%
%ADD23R,1.350000X1.350000*%
%ADD24O,1.350000X1.350000*%
%ADD25RoundRect,0.150000X-0.825000X-0.150000X0.825000X-0.150000X0.825000X0.150000X-0.825000X0.150000X0*%
%ADD26RoundRect,0.250000X-0.337500X-0.475000X0.337500X-0.475000X0.337500X0.475000X-0.337500X0.475000X0*%
%ADD27C,0.800000*%
G04 APERTURE END LIST*
D10*
X122555000Y-50800000D02*
X120911252Y-51335000D01*
D11*
%TO.C,R6*%
X124626666Y-61032380D02*
X124960000Y-60556190D01*
X125198095Y-61032380D02*
X125198095Y-60032380D01*
X124817142Y-60032380D01*
X124721904Y-60080000D01*
X124674285Y-60127619D01*
X124626666Y-60222857D01*
X124626666Y-60365714D01*
X124674285Y-60460952D01*
X124721904Y-60508571D01*
X124817142Y-60556190D01*
X125198095Y-60556190D01*
X123769523Y-60032380D02*
X123960000Y-60032380D01*
X124055238Y-60080000D01*
X124102857Y-60127619D01*
X124198095Y-60270476D01*
X124245714Y-60460952D01*
X124245714Y-60841904D01*
X124198095Y-60937142D01*
X124150476Y-60984761D01*
X124055238Y-61032380D01*
X123864761Y-61032380D01*
X123769523Y-60984761D01*
X123721904Y-60937142D01*
X123674285Y-60841904D01*
X123674285Y-60603809D01*
X123721904Y-60508571D01*
X123769523Y-60460952D01*
X123864761Y-60413333D01*
X124055238Y-60413333D01*
X124150476Y-60460952D01*
X124198095Y-60508571D01*
X124245714Y-60603809D01*
%TO.C,C5*%
X123356666Y-50797142D02*
X123404285Y-50844761D01*
X123547142Y-50892380D01*
X123642380Y-50892380D01*
X123785238Y-50844761D01*
X123880476Y-50749523D01*
X123928095Y-50654285D01*
X123975714Y-50463809D01*
X123975714Y-50320952D01*
X123928095Y-50130476D01*
X123880476Y-50035238D01*
X123785238Y-49940000D01*
X123642380Y-49892380D01*
X123547142Y-49892380D01*
X123404285Y-49940000D01*
X123356666Y-49987619D01*
X122451904Y-49892380D02*
X122928095Y-49892380D01*
X122975714Y-50368571D01*
X122928095Y-50320952D01*
X122832857Y-50273333D01*
X122594761Y-50273333D01*
X122499523Y-50320952D01*
X122451904Y-50368571D01*
X122404285Y-50463809D01*
X122404285Y-50701904D01*
X122451904Y-50797142D01*
X122499523Y-50844761D01*
X122594761Y-50892380D01*
X122832857Y-50892380D01*
X122928095Y-50844761D01*
X122975714Y-50797142D01*
%TO.C,R7*%
X130627380Y-64873333D02*
X130151190Y-64540000D01*
X130627380Y-64301904D02*
X129627380Y-64301904D01*
X129627380Y-64682857D01*
X129675000Y-64778095D01*
X129722619Y-64825714D01*
X129817857Y-64873333D01*
X129960714Y-64873333D01*
X130055952Y-64825714D01*
X130103571Y-64778095D01*
X130151190Y-64682857D01*
X130151190Y-64301904D01*
X129627380Y-65206666D02*
X129627380Y-65873333D01*
X130627380Y-65444761D01*
%TO.C,U2*%
X122232380Y-46228095D02*
X123041904Y-46228095D01*
X123137142Y-46275714D01*
X123184761Y-46323333D01*
X123232380Y-46418571D01*
X123232380Y-46609047D01*
X123184761Y-46704285D01*
X123137142Y-46751904D01*
X123041904Y-46799523D01*
X122232380Y-46799523D01*
X122327619Y-47228095D02*
X122280000Y-47275714D01*
X122232380Y-47370952D01*
X122232380Y-47609047D01*
X122280000Y-47704285D01*
X122327619Y-47751904D01*
X122422857Y-47799523D01*
X122518095Y-47799523D01*
X122660952Y-47751904D01*
X123232380Y-47180476D01*
X123232380Y-47799523D01*
%TO.C,C3*%
X129474166Y-60682142D02*
X129521785Y-60729761D01*
X129664642Y-60777380D01*
X129759880Y-60777380D01*
X129902738Y-60729761D01*
X129997976Y-60634523D01*
X130045595Y-60539285D01*
X130093214Y-60348809D01*
X130093214Y-60205952D01*
X130045595Y-60015476D01*
X129997976Y-59920238D01*
X129902738Y-59825000D01*
X129759880Y-59777380D01*
X129664642Y-59777380D01*
X129521785Y-59825000D01*
X129474166Y-59872619D01*
X129140833Y-59777380D02*
X128521785Y-59777380D01*
X128855119Y-60158333D01*
X128712261Y-60158333D01*
X128617023Y-60205952D01*
X128569404Y-60253571D01*
X128521785Y-60348809D01*
X128521785Y-60586904D01*
X128569404Y-60682142D01*
X128617023Y-60729761D01*
X128712261Y-60777380D01*
X128997976Y-60777380D01*
X129093214Y-60729761D01*
X129140833Y-60682142D01*
%TO.C,R2*%
X118942380Y-53173333D02*
X118466190Y-52840000D01*
X118942380Y-52601904D02*
X117942380Y-52601904D01*
X117942380Y-52982857D01*
X117990000Y-53078095D01*
X118037619Y-53125714D01*
X118132857Y-53173333D01*
X118275714Y-53173333D01*
X118370952Y-53125714D01*
X118418571Y-53078095D01*
X118466190Y-52982857D01*
X118466190Y-52601904D01*
X118037619Y-53554285D02*
X117990000Y-53601904D01*
X117942380Y-53697142D01*
X117942380Y-53935238D01*
X117990000Y-54030476D01*
X118037619Y-54078095D01*
X118132857Y-54125714D01*
X118228095Y-54125714D01*
X118370952Y-54078095D01*
X118942380Y-53506666D01*
X118942380Y-54125714D01*
%TO.C,R8*%
X119546666Y-63062380D02*
X119880000Y-62586190D01*
X120118095Y-63062380D02*
X120118095Y-62062380D01*
X119737142Y-62062380D01*
X119641904Y-62110000D01*
X119594285Y-62157619D01*
X119546666Y-62252857D01*
X119546666Y-62395714D01*
X119594285Y-62490952D01*
X119641904Y-62538571D01*
X119737142Y-62586190D01*
X120118095Y-62586190D01*
X118975238Y-62490952D02*
X119070476Y-62443333D01*
X119118095Y-62395714D01*
X119165714Y-62300476D01*
X119165714Y-62252857D01*
X119118095Y-62157619D01*
X119070476Y-62110000D01*
X118975238Y-62062380D01*
X118784761Y-62062380D01*
X118689523Y-62110000D01*
X118641904Y-62157619D01*
X118594285Y-62252857D01*
X118594285Y-62300476D01*
X118641904Y-62395714D01*
X118689523Y-62443333D01*
X118784761Y-62490952D01*
X118975238Y-62490952D01*
X119070476Y-62538571D01*
X119118095Y-62586190D01*
X119165714Y-62681428D01*
X119165714Y-62871904D01*
X119118095Y-62967142D01*
X119070476Y-63014761D01*
X118975238Y-63062380D01*
X118784761Y-63062380D01*
X118689523Y-63014761D01*
X118641904Y-62967142D01*
X118594285Y-62871904D01*
X118594285Y-62681428D01*
X118641904Y-62586190D01*
X118689523Y-62538571D01*
X118784761Y-62490952D01*
%TO.C,C2*%
X114466666Y-44397142D02*
X114514285Y-44444761D01*
X114657142Y-44492380D01*
X114752380Y-44492380D01*
X114895238Y-44444761D01*
X114990476Y-44349523D01*
X115038095Y-44254285D01*
X115085714Y-44063809D01*
X115085714Y-43920952D01*
X115038095Y-43730476D01*
X114990476Y-43635238D01*
X114895238Y-43540000D01*
X114752380Y-43492380D01*
X114657142Y-43492380D01*
X114514285Y-43540000D01*
X114466666Y-43587619D01*
X114085714Y-43587619D02*
X114038095Y-43540000D01*
X113942857Y-43492380D01*
X113704761Y-43492380D01*
X113609523Y-43540000D01*
X113561904Y-43587619D01*
X113514285Y-43682857D01*
X113514285Y-43778095D01*
X113561904Y-43920952D01*
X114133333Y-44492380D01*
X113514285Y-44492380D01*
%TO.C,J3*%
X141303333Y-42002380D02*
X141303333Y-42716666D01*
X141350952Y-42859523D01*
X141446190Y-42954761D01*
X141589047Y-43002380D01*
X141684285Y-43002380D01*
X140922380Y-42002380D02*
X140303333Y-42002380D01*
X140636666Y-42383333D01*
X140493809Y-42383333D01*
X140398571Y-42430952D01*
X140350952Y-42478571D01*
X140303333Y-42573809D01*
X140303333Y-42811904D01*
X140350952Y-42907142D01*
X140398571Y-42954761D01*
X140493809Y-43002380D01*
X140779523Y-43002380D01*
X140874761Y-42954761D01*
X140922380Y-42907142D01*
%TO.C,R3*%
X120816666Y-56712380D02*
X121150000Y-56236190D01*
X121388095Y-56712380D02*
X121388095Y-55712380D01*
X121007142Y-55712380D01*
X120911904Y-55760000D01*
X120864285Y-55807619D01*
X120816666Y-55902857D01*
X120816666Y-56045714D01*
X120864285Y-56140952D01*
X120911904Y-56188571D01*
X121007142Y-56236190D01*
X121388095Y-56236190D01*
X120483333Y-55712380D02*
X119864285Y-55712380D01*
X120197619Y-56093333D01*
X120054761Y-56093333D01*
X119959523Y-56140952D01*
X119911904Y-56188571D01*
X119864285Y-56283809D01*
X119864285Y-56521904D01*
X119911904Y-56617142D01*
X119959523Y-56664761D01*
X120054761Y-56712380D01*
X120340476Y-56712380D01*
X120435714Y-56664761D01*
X120483333Y-56617142D01*
%TO.C,U1*%
X134111904Y-57872380D02*
X134111904Y-58681904D01*
X134064285Y-58777142D01*
X134016666Y-58824761D01*
X133921428Y-58872380D01*
X133730952Y-58872380D01*
X133635714Y-58824761D01*
X133588095Y-58777142D01*
X133540476Y-58681904D01*
X133540476Y-57872380D01*
X132540476Y-58872380D02*
X133111904Y-58872380D01*
X132826190Y-58872380D02*
X132826190Y-57872380D01*
X132921428Y-58015238D01*
X133016666Y-58110476D01*
X133111904Y-58158095D01*
%TO.C,R4*%
X124626666Y-56712380D02*
X124960000Y-56236190D01*
X125198095Y-56712380D02*
X125198095Y-55712380D01*
X124817142Y-55712380D01*
X124721904Y-55760000D01*
X124674285Y-55807619D01*
X124626666Y-55902857D01*
X124626666Y-56045714D01*
X124674285Y-56140952D01*
X124721904Y-56188571D01*
X124817142Y-56236190D01*
X125198095Y-56236190D01*
X123769523Y-56045714D02*
X123769523Y-56712380D01*
X124007619Y-55664761D02*
X124245714Y-56379047D01*
X123626666Y-56379047D01*
%TO.C,C1*%
X117006666Y-63222142D02*
X117054285Y-63269761D01*
X117197142Y-63317380D01*
X117292380Y-63317380D01*
X117435238Y-63269761D01*
X117530476Y-63174523D01*
X117578095Y-63079285D01*
X117625714Y-62888809D01*
X117625714Y-62745952D01*
X117578095Y-62555476D01*
X117530476Y-62460238D01*
X117435238Y-62365000D01*
X117292380Y-62317380D01*
X117197142Y-62317380D01*
X117054285Y-62365000D01*
X117006666Y-62412619D01*
X116054285Y-63317380D02*
X116625714Y-63317380D01*
X116340000Y-63317380D02*
X116340000Y-62317380D01*
X116435238Y-62460238D01*
X116530476Y-62555476D01*
X116625714Y-62603095D01*
%TO.C,R1*%
X114466666Y-68397380D02*
X114800000Y-67921190D01*
X115038095Y-68397380D02*
X115038095Y-67397380D01*
X114657142Y-67397380D01*
X114561904Y-67445000D01*
X114514285Y-67492619D01*
X114466666Y-67587857D01*
X114466666Y-67730714D01*
X114514285Y-67825952D01*
X114561904Y-67873571D01*
X114657142Y-67921190D01*
X115038095Y-67921190D01*
X113514285Y-68397380D02*
X114085714Y-68397380D01*
X113800000Y-68397380D02*
X113800000Y-67397380D01*
X113895238Y-67540238D01*
X113990476Y-67635476D01*
X114085714Y-67683095D01*
%TO.C,R5*%
X124626666Y-54172380D02*
X124960000Y-53696190D01*
X125198095Y-54172380D02*
X125198095Y-53172380D01*
X124817142Y-53172380D01*
X124721904Y-53220000D01*
X124674285Y-53267619D01*
X124626666Y-53362857D01*
X124626666Y-53505714D01*
X124674285Y-53600952D01*
X124721904Y-53648571D01*
X124817142Y-53696190D01*
X125198095Y-53696190D01*
X123721904Y-53172380D02*
X124198095Y-53172380D01*
X124245714Y-53648571D01*
X124198095Y-53600952D01*
X124102857Y-53553333D01*
X123864761Y-53553333D01*
X123769523Y-53600952D01*
X123721904Y-53648571D01*
X123674285Y-53743809D01*
X123674285Y-53981904D01*
X123721904Y-54077142D01*
X123769523Y-54124761D01*
X123864761Y-54172380D01*
X124102857Y-54172380D01*
X124198095Y-54124761D01*
X124245714Y-54077142D01*
%TO.C,C4*%
X111291666Y-61317142D02*
X111339285Y-61364761D01*
X111482142Y-61412380D01*
X111577380Y-61412380D01*
X111720238Y-61364761D01*
X111815476Y-61269523D01*
X111863095Y-61174285D01*
X111910714Y-60983809D01*
X111910714Y-60840952D01*
X111863095Y-60650476D01*
X111815476Y-60555238D01*
X111720238Y-60460000D01*
X111577380Y-60412380D01*
X111482142Y-60412380D01*
X111339285Y-60460000D01*
X111291666Y-60507619D01*
X110434523Y-60745714D02*
X110434523Y-61412380D01*
X110672619Y-60364761D02*
X110910714Y-61079047D01*
X110291666Y-61079047D01*
D10*
%TO.C,R6*%
X124687064Y-62965000D02*
X124232936Y-62965000D01*
X124687064Y-61495000D02*
X124232936Y-61495000D01*
%TO.C,C5*%
X120911252Y-52805000D02*
X120388748Y-52805000D01*
X120911252Y-51335000D02*
X120388748Y-51335000D01*
%TO.C,R7*%
X129005000Y-64812936D02*
X129005000Y-65267064D01*
X127535000Y-64812936D02*
X127535000Y-65267064D01*
%TO.C,U2*%
X116820000Y-46990000D02*
X116820000Y-48940000D01*
X121940000Y-46990000D02*
X121940000Y-50440000D01*
X116820000Y-46990000D02*
X116820000Y-45040000D01*
X121940000Y-46990000D02*
X121940000Y-45040000D01*
%TO.C,C3*%
X129568752Y-57685000D02*
X129046248Y-57685000D01*
X129568752Y-59155000D02*
X129046248Y-59155000D01*
%TO.C,R2*%
X116105000Y-53567064D02*
X116105000Y-53112936D01*
X117575000Y-53567064D02*
X117575000Y-53112936D01*
%TO.C,R8*%
X119152936Y-60225000D02*
X119607064Y-60225000D01*
X119152936Y-61695000D02*
X119607064Y-61695000D01*
%TO.C,C2*%
X114561252Y-46455000D02*
X114038748Y-46455000D01*
X114561252Y-44985000D02*
X114038748Y-44985000D01*
%TO.C,J3*%
X142030000Y-43550000D02*
X140970000Y-43550000D01*
X142030000Y-45610000D02*
X139910000Y-45610000D01*
X142030000Y-65670000D02*
X139910000Y-65670000D01*
X142030000Y-44610000D02*
X142030000Y-43550000D01*
X139910000Y-45610000D02*
X139910000Y-65670000D01*
X142030000Y-45610000D02*
X142030000Y-65670000D01*
%TO.C,R3*%
X120422936Y-55345000D02*
X120877064Y-55345000D01*
X120422936Y-53875000D02*
X120877064Y-53875000D01*
%TO.C,U1*%
X130810000Y-57130000D02*
X132760000Y-57130000D01*
X130810000Y-47010000D02*
X128860000Y-47010000D01*
X130810000Y-47010000D02*
X132760000Y-47010000D01*
X130810000Y-57130000D02*
X127360000Y-57130000D01*
%TO.C,R4*%
X124232936Y-53875000D02*
X124687064Y-53875000D01*
X124232936Y-55345000D02*
X124687064Y-55345000D01*
%TO.C,C1*%
X114561252Y-65305000D02*
X114038748Y-65305000D01*
X114561252Y-66775000D02*
X114038748Y-66775000D01*
%TO.C,R1*%
X114072936Y-62765000D02*
X114527064Y-62765000D01*
X114072936Y-64235000D02*
X114527064Y-64235000D01*
%TO.C,R5*%
X124232936Y-52805000D02*
X124687064Y-52805000D01*
X124232936Y-51335000D02*
X124687064Y-51335000D01*
%TO.C,C4*%
X114038748Y-61695000D02*
X114561252Y-61695000D01*
X114038748Y-60225000D02*
X114561252Y-60225000D01*
%TD*%
%LPC*%
D12*
%TO.C,JP1*%
X124460000Y-43180000D03*
D13*
X124460000Y-45720000D03*
X124460000Y-48260000D03*
%TD*%
D14*
%TO.C,D1*%
X125730000Y-64770000D03*
D15*
X123190000Y-64770000D03*
%TD*%
D12*
%TO.C,J1*%
X110490000Y-66040000D03*
D13*
X110490000Y-63500000D03*
%TD*%
D12*
%TO.C,J2*%
X110490000Y-45720000D03*
D13*
X110490000Y-48260000D03*
%TD*%
D16*
%TO.C,RV1*%
X113030000Y-53340000D03*
D15*
X113030000Y-55840000D03*
X113030000Y-58340000D03*
%TD*%
D14*
%TO.C,D2*%
X120650000Y-64770000D03*
D15*
X118110000Y-64770000D03*
%TD*%
D17*
%TO.C,R6*%
X125460000Y-62230000D03*
X123460000Y-62230000D03*
%TD*%
D18*
%TO.C,C5*%
X121687500Y-52070000D03*
X119612500Y-52070000D03*
%TD*%
D19*
%TO.C,R7*%
X128270000Y-64040000D03*
X128270000Y-66040000D03*
%TD*%
D20*
%TO.C,U2*%
X121285000Y-49465000D03*
X120015000Y-49465000D03*
X118745000Y-49465000D03*
X117475000Y-49465000D03*
X117475000Y-44515000D03*
X118745000Y-44515000D03*
X120015000Y-44515000D03*
X121285000Y-44515000D03*
%TD*%
D18*
%TO.C,C3*%
X130345000Y-58420000D03*
X128270000Y-58420000D03*
%TD*%
D21*
%TO.C,R2*%
X116840000Y-54340000D03*
X116840000Y-52340000D03*
%TD*%
D22*
%TO.C,R8*%
X118380000Y-60960000D03*
X120380000Y-60960000D03*
%TD*%
D18*
%TO.C,C2*%
X115337500Y-45720000D03*
X113262500Y-45720000D03*
%TD*%
D23*
%TO.C,J3*%
X140970000Y-44610000D03*
D24*
X140970000Y-46610000D03*
X140970000Y-48610000D03*
X140970000Y-50610000D03*
X140970000Y-52610000D03*
X140970000Y-54610000D03*
X140970000Y-56610000D03*
X140970000Y-58610000D03*
X140970000Y-60610000D03*
X140970000Y-62610000D03*
X140970000Y-64610000D03*
%TD*%
D22*
%TO.C,R3*%
X119650000Y-54610000D03*
X121650000Y-54610000D03*
%TD*%
D25*
%TO.C,U1*%
X128335000Y-56515000D03*
X128335000Y-55245000D03*
X128335000Y-53975000D03*
X128335000Y-52705000D03*
X128335000Y-51435000D03*
X128335000Y-50165000D03*
X128335000Y-48895000D03*
X128335000Y-47625000D03*
X133285000Y-47625000D03*
X133285000Y-48895000D03*
X133285000Y-50165000D03*
X133285000Y-51435000D03*
X133285000Y-52705000D03*
X133285000Y-53975000D03*
X133285000Y-55245000D03*
X133285000Y-56515000D03*
%TD*%
D22*
%TO.C,R4*%
X123460000Y-54610000D03*
X125460000Y-54610000D03*
%TD*%
D18*
%TO.C,C1*%
X115337500Y-66040000D03*
X113262500Y-66040000D03*
%TD*%
D22*
%TO.C,R1*%
X113300000Y-63500000D03*
X115300000Y-63500000D03*
%TD*%
%TO.C,R5*%
X123460000Y-52070000D03*
X125460000Y-52070000D03*
%TD*%
D26*
%TO.C,C4*%
X113262500Y-60960000D03*
X115337500Y-60960000D03*
%TD*%
D27*
X123190000Y-58420000D03*
X135255000Y-64135000D03*
X135165500Y-53975000D03*
X109855000Y-42545000D03*
X125909503Y-48260000D03*
X135890000Y-43180000D03*
X117475000Y-57785000D03*
X109855000Y-55880000D03*
X128270000Y-59690000D03*
X137160000Y-50800000D03*
X137121076Y-53301076D03*
X130810000Y-48260000D03*
X135851076Y-49568924D03*
X135890000Y-58420000D03*
M02*
