%TF.GenerationSoftware,KiCad,Pcbnew,(6.0.6)*%
%TF.CreationDate,2022-07-12T11:31:36+01:00*%
%TF.ProjectId,c64 tape interface,63363420-7461-4706-9520-696e74657266,rev?*%
%TF.SameCoordinates,Original*%
%TF.FileFunction,Legend,Top*%
%TF.FilePolarity,Positive*%
%FSLAX46Y46*%
G04 Gerber Fmt 4.6, Leading zero omitted, Abs format (unit mm)*
G04 Created by KiCad (PCBNEW (6.0.6)) date 2022-07-12 11:31:36*
%MOMM*%
%LPD*%
G01*
G04 APERTURE LIST*
G04 Aperture macros list*
%AMRoundRect*
0 Rectangle with rounded corners*
0 $1 Rounding radius*
0 $2 $3 $4 $5 $6 $7 $8 $9 X,Y pos of 4 corners*
0 Add a 4 corners polygon primitive as box body*
4,1,4,$2,$3,$4,$5,$6,$7,$8,$9,$2,$3,0*
0 Add four circle primitives for the rounded corners*
1,1,$1+$1,$2,$3*
1,1,$1+$1,$4,$5*
1,1,$1+$1,$6,$7*
1,1,$1+$1,$8,$9*
0 Add four rect primitives between the rounded corners*
20,1,$1+$1,$2,$3,$4,$5,0*
20,1,$1+$1,$4,$5,$6,$7,0*
20,1,$1+$1,$6,$7,$8,$9,0*
20,1,$1+$1,$8,$9,$2,$3,0*%
G04 Aperture macros list end*
%ADD10C,0.150000*%
%ADD11C,0.010000*%
%ADD12C,0.120000*%
%ADD13R,1.700000X1.700000*%
%ADD14O,1.700000X1.700000*%
%ADD15R,1.800000X1.800000*%
%ADD16C,1.800000*%
%ADD17RoundRect,0.450000X0.450000X0.450000X-0.450000X0.450000X-0.450000X-0.450000X0.450000X-0.450000X0*%
%ADD18R,1.350000X1.350000*%
%ADD19O,1.350000X1.350000*%
%ADD20C,0.800000*%
G04 APERTURE END LIST*
D10*
X117475952Y-53157380D02*
X117475952Y-52633571D01*
X117428333Y-52538333D01*
X117333095Y-52490714D01*
X117142619Y-52490714D01*
X117047380Y-52538333D01*
X117475952Y-53109761D02*
X117380714Y-53157380D01*
X117142619Y-53157380D01*
X117047380Y-53109761D01*
X116999761Y-53014523D01*
X116999761Y-52919285D01*
X117047380Y-52824047D01*
X117142619Y-52776428D01*
X117380714Y-52776428D01*
X117475952Y-52728809D01*
X117952142Y-52490714D02*
X117952142Y-53157380D01*
X117952142Y-52585952D02*
X117999761Y-52538333D01*
X118095000Y-52490714D01*
X118237857Y-52490714D01*
X118333095Y-52538333D01*
X118380714Y-52633571D01*
X118380714Y-53157380D01*
X119285476Y-53157380D02*
X119285476Y-52157380D01*
X119285476Y-53109761D02*
X119190238Y-53157380D01*
X118999761Y-53157380D01*
X118904523Y-53109761D01*
X118856904Y-53062142D01*
X118809285Y-52966904D01*
X118809285Y-52681190D01*
X118856904Y-52585952D01*
X118904523Y-52538333D01*
X118999761Y-52490714D01*
X119190238Y-52490714D01*
X119285476Y-52538333D01*
X119666428Y-52490714D02*
X119904523Y-53157380D01*
X120142619Y-52490714D02*
X119904523Y-53157380D01*
X119809285Y-53395476D01*
X119761666Y-53443095D01*
X119666428Y-53490714D01*
X120952142Y-53157380D02*
X120952142Y-52157380D01*
X120952142Y-53109761D02*
X120856904Y-53157380D01*
X120666428Y-53157380D01*
X120571190Y-53109761D01*
X120523571Y-53062142D01*
X120475952Y-52966904D01*
X120475952Y-52681190D01*
X120523571Y-52585952D01*
X120571190Y-52538333D01*
X120666428Y-52490714D01*
X120856904Y-52490714D01*
X120952142Y-52538333D01*
X121571190Y-53157380D02*
X121475952Y-53109761D01*
X121428333Y-53062142D01*
X121380714Y-52966904D01*
X121380714Y-52681190D01*
X121428333Y-52585952D01*
X121475952Y-52538333D01*
X121571190Y-52490714D01*
X121714047Y-52490714D01*
X121809285Y-52538333D01*
X121856904Y-52585952D01*
X121904523Y-52681190D01*
X121904523Y-52966904D01*
X121856904Y-53062142D01*
X121809285Y-53109761D01*
X121714047Y-53157380D01*
X121571190Y-53157380D01*
X122237857Y-52490714D02*
X122761666Y-52490714D01*
X122237857Y-53157380D01*
X122761666Y-53157380D01*
X123142619Y-53062142D02*
X123190238Y-53109761D01*
X123142619Y-53157380D01*
X123095000Y-53109761D01*
X123142619Y-53062142D01*
X123142619Y-53157380D01*
X123618809Y-53157380D02*
X123618809Y-52157380D01*
X123618809Y-52538333D02*
X123714047Y-52490714D01*
X123904523Y-52490714D01*
X123999761Y-52538333D01*
X124047380Y-52585952D01*
X124095000Y-52681190D01*
X124095000Y-52966904D01*
X124047380Y-53062142D01*
X123999761Y-53109761D01*
X123904523Y-53157380D01*
X123714047Y-53157380D01*
X123618809Y-53109761D01*
X124666428Y-53157380D02*
X124571190Y-53109761D01*
X124523571Y-53014523D01*
X124523571Y-52157380D01*
X125190238Y-53157380D02*
X125095000Y-53109761D01*
X125047380Y-53062142D01*
X124999761Y-52966904D01*
X124999761Y-52681190D01*
X125047380Y-52585952D01*
X125095000Y-52538333D01*
X125190238Y-52490714D01*
X125333095Y-52490714D01*
X125428333Y-52538333D01*
X125475952Y-52585952D01*
X125523571Y-52681190D01*
X125523571Y-52966904D01*
X125475952Y-53062142D01*
X125428333Y-53109761D01*
X125333095Y-53157380D01*
X125190238Y-53157380D01*
X126380714Y-52490714D02*
X126380714Y-53300238D01*
X126333095Y-53395476D01*
X126285476Y-53443095D01*
X126190238Y-53490714D01*
X126047380Y-53490714D01*
X125952142Y-53443095D01*
X126380714Y-53109761D02*
X126285476Y-53157380D01*
X126095000Y-53157380D01*
X125999761Y-53109761D01*
X125952142Y-53062142D01*
X125904523Y-52966904D01*
X125904523Y-52681190D01*
X125952142Y-52585952D01*
X125999761Y-52538333D01*
X126095000Y-52490714D01*
X126285476Y-52490714D01*
X126380714Y-52538333D01*
X126809285Y-53109761D02*
X126904523Y-53157380D01*
X127095000Y-53157380D01*
X127190238Y-53109761D01*
X127237857Y-53014523D01*
X127237857Y-52966904D01*
X127190238Y-52871666D01*
X127095000Y-52824047D01*
X126952142Y-52824047D01*
X126856904Y-52776428D01*
X126809285Y-52681190D01*
X126809285Y-52633571D01*
X126856904Y-52538333D01*
X126952142Y-52490714D01*
X127095000Y-52490714D01*
X127190238Y-52538333D01*
X127666428Y-52490714D02*
X127666428Y-53490714D01*
X127666428Y-52538333D02*
X127761666Y-52490714D01*
X127952142Y-52490714D01*
X128047380Y-52538333D01*
X128095000Y-52585952D01*
X128142619Y-52681190D01*
X128142619Y-52966904D01*
X128095000Y-53062142D01*
X128047380Y-53109761D01*
X127952142Y-53157380D01*
X127761666Y-53157380D01*
X127666428Y-53109761D01*
X128714047Y-53157380D02*
X128618809Y-53109761D01*
X128571190Y-53062142D01*
X128523571Y-52966904D01*
X128523571Y-52681190D01*
X128571190Y-52585952D01*
X128618809Y-52538333D01*
X128714047Y-52490714D01*
X128856904Y-52490714D01*
X128952142Y-52538333D01*
X128999761Y-52585952D01*
X129047380Y-52681190D01*
X129047380Y-52966904D01*
X128999761Y-53062142D01*
X128952142Y-53109761D01*
X128856904Y-53157380D01*
X128714047Y-53157380D01*
X129333095Y-52490714D02*
X129714047Y-52490714D01*
X129475952Y-52157380D02*
X129475952Y-53014523D01*
X129523571Y-53109761D01*
X129618809Y-53157380D01*
X129714047Y-53157380D01*
X130047380Y-53062142D02*
X130095000Y-53109761D01*
X130047380Y-53157380D01*
X129999761Y-53109761D01*
X130047380Y-53062142D01*
X130047380Y-53157380D01*
X130952142Y-53109761D02*
X130856904Y-53157380D01*
X130666428Y-53157380D01*
X130571190Y-53109761D01*
X130523571Y-53062142D01*
X130475952Y-52966904D01*
X130475952Y-52681190D01*
X130523571Y-52585952D01*
X130571190Y-52538333D01*
X130666428Y-52490714D01*
X130856904Y-52490714D01*
X130952142Y-52538333D01*
X131523571Y-53157380D02*
X131428333Y-53109761D01*
X131380714Y-53062142D01*
X131333095Y-52966904D01*
X131333095Y-52681190D01*
X131380714Y-52585952D01*
X131428333Y-52538333D01*
X131523571Y-52490714D01*
X131666428Y-52490714D01*
X131761666Y-52538333D01*
X131809285Y-52585952D01*
X131856904Y-52681190D01*
X131856904Y-52966904D01*
X131809285Y-53062142D01*
X131761666Y-53109761D01*
X131666428Y-53157380D01*
X131523571Y-53157380D01*
X132285476Y-53157380D02*
X132285476Y-52490714D01*
X132285476Y-52585952D02*
X132333095Y-52538333D01*
X132428333Y-52490714D01*
X132571190Y-52490714D01*
X132666428Y-52538333D01*
X132714047Y-52633571D01*
X132714047Y-53157380D01*
X132714047Y-52633571D02*
X132761666Y-52538333D01*
X132856904Y-52490714D01*
X132999761Y-52490714D01*
X133095000Y-52538333D01*
X133142619Y-52633571D01*
X133142619Y-53157380D01*
X120277380Y-51792142D02*
X120229761Y-51839761D01*
X120086904Y-51887380D01*
X119991666Y-51887380D01*
X119848809Y-51839761D01*
X119753571Y-51744523D01*
X119705952Y-51649285D01*
X119658333Y-51458809D01*
X119658333Y-51315952D01*
X119705952Y-51125476D01*
X119753571Y-51030238D01*
X119848809Y-50935000D01*
X119991666Y-50887380D01*
X120086904Y-50887380D01*
X120229761Y-50935000D01*
X120277380Y-50982619D01*
X120658333Y-50982619D02*
X120705952Y-50935000D01*
X120801190Y-50887380D01*
X121039285Y-50887380D01*
X121134523Y-50935000D01*
X121182142Y-50982619D01*
X121229761Y-51077857D01*
X121229761Y-51173095D01*
X121182142Y-51315952D01*
X120610714Y-51887380D01*
X121229761Y-51887380D01*
X121658333Y-51887380D02*
X121658333Y-50887380D01*
X122229761Y-51887380D01*
X122229761Y-50887380D01*
X122753571Y-50887380D02*
X122658333Y-51077857D01*
X123039285Y-51220714D02*
X123420238Y-51220714D01*
X123182142Y-50887380D02*
X123182142Y-51744523D01*
X123229761Y-51839761D01*
X123325000Y-51887380D01*
X123420238Y-51887380D01*
X124134523Y-51839761D02*
X124039285Y-51887380D01*
X123848809Y-51887380D01*
X123753571Y-51839761D01*
X123705952Y-51744523D01*
X123705952Y-51363571D01*
X123753571Y-51268333D01*
X123848809Y-51220714D01*
X124039285Y-51220714D01*
X124134523Y-51268333D01*
X124182142Y-51363571D01*
X124182142Y-51458809D01*
X123705952Y-51554047D01*
X124610714Y-51887380D02*
X124610714Y-51220714D01*
X124610714Y-51411190D02*
X124658333Y-51315952D01*
X124705952Y-51268333D01*
X124801190Y-51220714D01*
X124896428Y-51220714D01*
X125086904Y-51220714D02*
X125467857Y-51220714D01*
X125229761Y-51887380D02*
X125229761Y-51030238D01*
X125277380Y-50935000D01*
X125372619Y-50887380D01*
X125467857Y-50887380D01*
X126229761Y-51887380D02*
X126229761Y-51363571D01*
X126182142Y-51268333D01*
X126086904Y-51220714D01*
X125896428Y-51220714D01*
X125801190Y-51268333D01*
X126229761Y-51839761D02*
X126134523Y-51887380D01*
X125896428Y-51887380D01*
X125801190Y-51839761D01*
X125753571Y-51744523D01*
X125753571Y-51649285D01*
X125801190Y-51554047D01*
X125896428Y-51506428D01*
X126134523Y-51506428D01*
X126229761Y-51458809D01*
X127134523Y-51839761D02*
X127039285Y-51887380D01*
X126848809Y-51887380D01*
X126753571Y-51839761D01*
X126705952Y-51792142D01*
X126658333Y-51696904D01*
X126658333Y-51411190D01*
X126705952Y-51315952D01*
X126753571Y-51268333D01*
X126848809Y-51220714D01*
X127039285Y-51220714D01*
X127134523Y-51268333D01*
X127944047Y-51839761D02*
X127848809Y-51887380D01*
X127658333Y-51887380D01*
X127563095Y-51839761D01*
X127515476Y-51744523D01*
X127515476Y-51363571D01*
X127563095Y-51268333D01*
X127658333Y-51220714D01*
X127848809Y-51220714D01*
X127944047Y-51268333D01*
X127991666Y-51363571D01*
X127991666Y-51458809D01*
X127515476Y-51554047D01*
%TO.C,JP1*%
X123626666Y-40302380D02*
X123626666Y-41016666D01*
X123579047Y-41159523D01*
X123483809Y-41254761D01*
X123340952Y-41302380D01*
X123245714Y-41302380D01*
X124102857Y-41302380D02*
X124102857Y-40302380D01*
X124483809Y-40302380D01*
X124579047Y-40350000D01*
X124626666Y-40397619D01*
X124674285Y-40492857D01*
X124674285Y-40635714D01*
X124626666Y-40730952D01*
X124579047Y-40778571D01*
X124483809Y-40826190D01*
X124102857Y-40826190D01*
X125626666Y-41302380D02*
X125055238Y-41302380D01*
X125340952Y-41302380D02*
X125340952Y-40302380D01*
X125245714Y-40445238D01*
X125150476Y-40540476D01*
X125055238Y-40588095D01*
%TO.C,D1*%
X123721904Y-68182380D02*
X123721904Y-67182380D01*
X123960000Y-67182380D01*
X124102857Y-67230000D01*
X124198095Y-67325238D01*
X124245714Y-67420476D01*
X124293333Y-67610952D01*
X124293333Y-67753809D01*
X124245714Y-67944285D01*
X124198095Y-68039523D01*
X124102857Y-68134761D01*
X123960000Y-68182380D01*
X123721904Y-68182380D01*
X125245714Y-68182380D02*
X124674285Y-68182380D01*
X124960000Y-68182380D02*
X124960000Y-67182380D01*
X124864761Y-67325238D01*
X124769523Y-67420476D01*
X124674285Y-67468095D01*
%TO.C,J1*%
X110156666Y-67822380D02*
X110156666Y-68536666D01*
X110109047Y-68679523D01*
X110013809Y-68774761D01*
X109870952Y-68822380D01*
X109775714Y-68822380D01*
X111156666Y-68822380D02*
X110585238Y-68822380D01*
X110870952Y-68822380D02*
X110870952Y-67822380D01*
X110775714Y-67965238D01*
X110680476Y-68060476D01*
X110585238Y-68108095D01*
%TO.C,J2*%
X110156666Y-42842380D02*
X110156666Y-43556666D01*
X110109047Y-43699523D01*
X110013809Y-43794761D01*
X109870952Y-43842380D01*
X109775714Y-43842380D01*
X110585238Y-42937619D02*
X110632857Y-42890000D01*
X110728095Y-42842380D01*
X110966190Y-42842380D01*
X111061428Y-42890000D01*
X111109047Y-42937619D01*
X111156666Y-43032857D01*
X111156666Y-43128095D01*
X111109047Y-43270952D01*
X110537619Y-43842380D01*
X111156666Y-43842380D01*
%TO.C,RV1*%
X112434761Y-62292380D02*
X112101428Y-61816190D01*
X111863333Y-62292380D02*
X111863333Y-61292380D01*
X112244285Y-61292380D01*
X112339523Y-61340000D01*
X112387142Y-61387619D01*
X112434761Y-61482857D01*
X112434761Y-61625714D01*
X112387142Y-61720952D01*
X112339523Y-61768571D01*
X112244285Y-61816190D01*
X111863333Y-61816190D01*
X112720476Y-61292380D02*
X113053809Y-62292380D01*
X113387142Y-61292380D01*
X114244285Y-62292380D02*
X113672857Y-62292380D01*
X113958571Y-62292380D02*
X113958571Y-61292380D01*
X113863333Y-61435238D01*
X113768095Y-61530476D01*
X113672857Y-61578095D01*
%TO.C,D2*%
X118641904Y-68182380D02*
X118641904Y-67182380D01*
X118880000Y-67182380D01*
X119022857Y-67230000D01*
X119118095Y-67325238D01*
X119165714Y-67420476D01*
X119213333Y-67610952D01*
X119213333Y-67753809D01*
X119165714Y-67944285D01*
X119118095Y-68039523D01*
X119022857Y-68134761D01*
X118880000Y-68182380D01*
X118641904Y-68182380D01*
X119594285Y-67277619D02*
X119641904Y-67230000D01*
X119737142Y-67182380D01*
X119975238Y-67182380D01*
X120070476Y-67230000D01*
X120118095Y-67277619D01*
X120165714Y-67372857D01*
X120165714Y-67468095D01*
X120118095Y-67610952D01*
X119546666Y-68182380D01*
X120165714Y-68182380D01*
%TO.C,G\u002A\u002A\u002A*%
G36*
X124666824Y-58037697D02*
G01*
X124581384Y-58011465D01*
X124498083Y-57986802D01*
X124449417Y-57973040D01*
X124244757Y-57911737D01*
X124078723Y-57848839D01*
X123947612Y-57782153D01*
X123847722Y-57709487D01*
X123775349Y-57628647D01*
X123730888Y-57547591D01*
X123706280Y-57471221D01*
X123682738Y-57368374D01*
X123663181Y-57254865D01*
X123650527Y-57146509D01*
X123647605Y-57096186D01*
X123638013Y-57032709D01*
X123608378Y-56973304D01*
X123563843Y-56916269D01*
X123521029Y-56864809D01*
X123497786Y-56825674D01*
X123489687Y-56783332D01*
X123490535Y-56763575D01*
X123597756Y-56763575D01*
X123599513Y-56787365D01*
X123606750Y-56831742D01*
X123622406Y-56871830D01*
X123652087Y-56915986D01*
X123701400Y-56972567D01*
X123775056Y-57049019D01*
X123846394Y-57121776D01*
X123889645Y-57167084D01*
X123906416Y-57187662D01*
X123898318Y-57186231D01*
X123866959Y-57165512D01*
X123827628Y-57137879D01*
X123766927Y-57096862D01*
X123733937Y-57080239D01*
X123723316Y-57085957D01*
X123725238Y-57098475D01*
X123735975Y-57141767D01*
X123751215Y-57208630D01*
X123761493Y-57255833D01*
X123809221Y-57437010D01*
X123868554Y-57580468D01*
X123942640Y-57689968D01*
X124034630Y-57769270D01*
X124147672Y-57822135D01*
X124257601Y-57848285D01*
X124341641Y-57867395D01*
X124439006Y-57897283D01*
X124506513Y-57922598D01*
X124600365Y-57958991D01*
X124699247Y-57992944D01*
X124793791Y-58021749D01*
X124874624Y-58042694D01*
X124932378Y-58053069D01*
X124954893Y-58052291D01*
X124953785Y-58039499D01*
X124921138Y-58019901D01*
X124909792Y-58015059D01*
X124862223Y-57990431D01*
X124840748Y-57968355D01*
X124850513Y-57955455D01*
X124862637Y-57954333D01*
X124890199Y-57963326D01*
X124945447Y-57987363D01*
X125018470Y-58022027D01*
X125052667Y-58039000D01*
X125130793Y-58076926D01*
X125195954Y-58106071D01*
X125237994Y-58121991D01*
X125246322Y-58123666D01*
X125281707Y-58136658D01*
X125305000Y-58153485D01*
X125344962Y-58176648D01*
X125410194Y-58203268D01*
X125484591Y-58227831D01*
X125552051Y-58244823D01*
X125584479Y-58249192D01*
X125628904Y-58246192D01*
X125687665Y-58236908D01*
X125688041Y-58236833D01*
X125744370Y-58213137D01*
X125812086Y-58166894D01*
X125852558Y-58131637D01*
X125904252Y-58079530D01*
X125928347Y-58045875D01*
X125929613Y-58021841D01*
X125920038Y-58006693D01*
X125905599Y-57981752D01*
X125911626Y-57976812D01*
X125963757Y-57973962D01*
X125993028Y-57937534D01*
X125995220Y-57931162D01*
X126015230Y-57888649D01*
X126050515Y-57830496D01*
X126093719Y-57767002D01*
X126137490Y-57708465D01*
X126174473Y-57665181D01*
X126197313Y-57647448D01*
X126197857Y-57647416D01*
X126224080Y-57630675D01*
X126266963Y-57585490D01*
X126320896Y-57519421D01*
X126380272Y-57440029D01*
X126439482Y-57354874D01*
X126492916Y-57271515D01*
X126534966Y-57197513D01*
X126541949Y-57183615D01*
X126591528Y-57077339D01*
X126620663Y-56995799D01*
X126629479Y-56926727D01*
X126618104Y-56857860D01*
X126586663Y-56776932D01*
X126546973Y-56694916D01*
X126507369Y-56618448D01*
X126475600Y-56561954D01*
X126455563Y-56532067D01*
X126450582Y-56530875D01*
X126432115Y-56552493D01*
X126407996Y-56557333D01*
X126387436Y-56554368D01*
X126376143Y-56539760D01*
X126372640Y-56504934D01*
X126375452Y-56441319D01*
X126379215Y-56390178D01*
X126392105Y-56223022D01*
X126288594Y-56241994D01*
X126219550Y-56255595D01*
X126119138Y-56276606D01*
X125997230Y-56302871D01*
X125863696Y-56332234D01*
X125728406Y-56362539D01*
X125601233Y-56391630D01*
X125566900Y-56399620D01*
X125493561Y-56415738D01*
X125434525Y-56426859D01*
X125406110Y-56430333D01*
X125388106Y-56411548D01*
X125360349Y-56360541D01*
X125326221Y-56285335D01*
X125289101Y-56193954D01*
X125252369Y-56094421D01*
X125219405Y-55994759D01*
X125211340Y-55968023D01*
X125191999Y-55932519D01*
X125157235Y-55931212D01*
X125151168Y-55933031D01*
X125100220Y-55946033D01*
X125033356Y-55959322D01*
X125020917Y-55961424D01*
X124968472Y-55972666D01*
X124941702Y-55992578D01*
X124928841Y-56034339D01*
X124923554Y-56070500D01*
X124910858Y-56165750D01*
X124907679Y-56077040D01*
X124901056Y-56018894D01*
X124888332Y-55980712D01*
X124883334Y-55975249D01*
X124869019Y-55947103D01*
X124862249Y-55895810D01*
X124862167Y-55889334D01*
X124862167Y-55851038D01*
X125206581Y-55851038D01*
X125217870Y-55901228D01*
X125243345Y-55979602D01*
X125284154Y-56090837D01*
X125298561Y-56128708D01*
X125332214Y-56211554D01*
X125362550Y-56277039D01*
X125385413Y-56316652D01*
X125394226Y-56324500D01*
X125405333Y-56337564D01*
X125401917Y-56345666D01*
X125397024Y-56356805D01*
X125402246Y-56362919D01*
X125422636Y-56363180D01*
X125463244Y-56356763D01*
X125529122Y-56342839D01*
X125625322Y-56320582D01*
X125756895Y-56289165D01*
X125777783Y-56284143D01*
X125903520Y-56254072D01*
X126024917Y-56225343D01*
X126131632Y-56200383D01*
X126213320Y-56181619D01*
X126244187Y-56174741D01*
X126313780Y-56157083D01*
X126348557Y-56140428D01*
X126349151Y-56138806D01*
X126428500Y-56138806D01*
X126526456Y-56124117D01*
X126591675Y-56112937D01*
X126641608Y-56101919D01*
X126653639Y-56098212D01*
X126671311Y-56086762D01*
X126683962Y-56064392D01*
X126691991Y-56025687D01*
X126695792Y-55965235D01*
X126695761Y-55877620D01*
X126692296Y-55757429D01*
X126687420Y-55636583D01*
X126671917Y-55276750D01*
X126619000Y-55283871D01*
X126571296Y-55297123D01*
X126540717Y-55317374D01*
X126536687Y-55336818D01*
X126546941Y-55343570D01*
X126558376Y-55362988D01*
X126558413Y-55410599D01*
X126546601Y-55489361D01*
X126522487Y-55602230D01*
X126485619Y-55752165D01*
X126482814Y-55763097D01*
X126459437Y-55862047D01*
X126441107Y-55954975D01*
X126430318Y-56028396D01*
X126428500Y-56056542D01*
X126428500Y-56138806D01*
X126349151Y-56138806D01*
X126355743Y-56120813D01*
X126353913Y-56114556D01*
X126341143Y-56077969D01*
X126334061Y-56056542D01*
X126320326Y-56014990D01*
X126297326Y-55943500D01*
X126269972Y-55867068D01*
X126241576Y-55802930D01*
X126220043Y-55767418D01*
X126197647Y-55718165D01*
X126181465Y-55630860D01*
X126176850Y-55581115D01*
X126237141Y-55581115D01*
X126243930Y-55688265D01*
X126274334Y-55790151D01*
X126317375Y-55878908D01*
X126354925Y-55946706D01*
X126383773Y-55996725D01*
X126398893Y-56020315D01*
X126399949Y-56021060D01*
X126403717Y-55999972D01*
X126410312Y-55948599D01*
X126417090Y-55889048D01*
X126429168Y-55807385D01*
X126448958Y-55703836D01*
X126472761Y-55597283D01*
X126479930Y-55568343D01*
X126499623Y-55481562D01*
X126511726Y-55408835D01*
X126514678Y-55360783D01*
X126512136Y-55349165D01*
X126493831Y-55334979D01*
X126457517Y-55333679D01*
X126392788Y-55345175D01*
X126379924Y-55348011D01*
X126313630Y-55364606D01*
X126277528Y-55382421D01*
X126260242Y-55410689D01*
X126251435Y-55452307D01*
X126237141Y-55581115D01*
X126176850Y-55581115D01*
X126175193Y-55563260D01*
X126163917Y-55397599D01*
X125941667Y-55456557D01*
X125748890Y-55508241D01*
X125593483Y-55551306D01*
X125471663Y-55587061D01*
X125379647Y-55616819D01*
X125313653Y-55641889D01*
X125269898Y-55663581D01*
X125244600Y-55683208D01*
X125234061Y-55701731D01*
X125229646Y-55754337D01*
X125234867Y-55783068D01*
X125234037Y-55811504D01*
X125221970Y-55816500D01*
X125208330Y-55824355D01*
X125206581Y-55851038D01*
X124862167Y-55851038D01*
X124862167Y-55816500D01*
X124604446Y-55816500D01*
X124616751Y-55906458D01*
X124629057Y-55996416D01*
X124592430Y-55904699D01*
X124555802Y-55812981D01*
X124386193Y-55826548D01*
X124288158Y-55835946D01*
X124167993Y-55849726D01*
X124045369Y-55865563D01*
X123991393Y-55873216D01*
X123766203Y-55906317D01*
X123753501Y-55983117D01*
X123744435Y-56058635D01*
X123740566Y-56131300D01*
X123743016Y-56177149D01*
X123754094Y-56187901D01*
X123772083Y-56176333D01*
X123792012Y-56161830D01*
X123800122Y-56163535D01*
X123794908Y-56186184D01*
X123774866Y-56234514D01*
X123738493Y-56313263D01*
X123708583Y-56376286D01*
X123669169Y-56460267D01*
X123637703Y-56529799D01*
X123618034Y-56576229D01*
X123613334Y-56590577D01*
X123631800Y-56596647D01*
X123678009Y-56594330D01*
X123697788Y-56591572D01*
X123751076Y-56584203D01*
X123837170Y-56573593D01*
X123946758Y-56560785D01*
X124070530Y-56546822D01*
X124199175Y-56532746D01*
X124323382Y-56519598D01*
X124433841Y-56508421D01*
X124481167Y-56503882D01*
X124603088Y-56491955D01*
X124690478Y-56481748D01*
X124751025Y-56471878D01*
X124792416Y-56460961D01*
X124822339Y-56447611D01*
X124834333Y-56440296D01*
X124869460Y-56420309D01*
X124881869Y-56429355D01*
X124883334Y-56458841D01*
X124878565Y-56488451D01*
X124857759Y-56507763D01*
X124811162Y-56522728D01*
X124761625Y-56533097D01*
X124691248Y-56544198D01*
X124592340Y-56556461D01*
X124478614Y-56568318D01*
X124375334Y-56577312D01*
X124141407Y-56596532D01*
X123949787Y-56614453D01*
X123800468Y-56631076D01*
X123693445Y-56646403D01*
X123628710Y-56660433D01*
X123607124Y-56671047D01*
X123598737Y-56705543D01*
X123597756Y-56763575D01*
X123490535Y-56763575D01*
X123492309Y-56722250D01*
X123496315Y-56679223D01*
X123501485Y-56607041D01*
X123499159Y-56548536D01*
X123486738Y-56489379D01*
X123461624Y-56415242D01*
X123436832Y-56351140D01*
X123403571Y-56256235D01*
X123375903Y-56157260D01*
X123355217Y-56062366D01*
X123342903Y-55979707D01*
X123341729Y-55951068D01*
X123396479Y-55951068D01*
X123407206Y-56084705D01*
X123424526Y-56190540D01*
X123456929Y-56304736D01*
X123476813Y-56356883D01*
X123535694Y-56495424D01*
X123562190Y-56418354D01*
X123567816Y-56398583D01*
X123592167Y-56398583D01*
X123602750Y-56409166D01*
X123613334Y-56398583D01*
X123602750Y-56388000D01*
X123592167Y-56398583D01*
X123567816Y-56398583D01*
X123573776Y-56377643D01*
X123575392Y-56340126D01*
X123564900Y-56294328D01*
X123540163Y-56228777D01*
X123516343Y-56172266D01*
X123477306Y-56079032D01*
X123454413Y-56017943D01*
X123445966Y-55982752D01*
X123450266Y-55967215D01*
X123459875Y-55964689D01*
X123473743Y-55983152D01*
X123498100Y-56032782D01*
X123528936Y-56104976D01*
X123548740Y-56155189D01*
X123589581Y-56256327D01*
X123621403Y-56318957D01*
X123646297Y-56342400D01*
X123666355Y-56325976D01*
X123683666Y-56269007D01*
X123700323Y-56170814D01*
X123709450Y-56102994D01*
X123719977Y-56018924D01*
X123727750Y-55953179D01*
X123731675Y-55915208D01*
X123731849Y-55909588D01*
X123711500Y-55911116D01*
X123659328Y-55917094D01*
X123585466Y-55926342D01*
X123563114Y-55929247D01*
X123396479Y-55951068D01*
X123341729Y-55951068D01*
X123340350Y-55917435D01*
X123348948Y-55883701D01*
X123356528Y-55880000D01*
X123362997Y-55863635D01*
X123348267Y-55820092D01*
X123338787Y-55800625D01*
X123294697Y-55694371D01*
X123285584Y-55618219D01*
X123352396Y-55618219D01*
X123352564Y-55672191D01*
X123364506Y-55738308D01*
X123384171Y-55803562D01*
X123407508Y-55854943D01*
X123430466Y-55879443D01*
X123433919Y-55880000D01*
X123458973Y-55877485D01*
X123517425Y-55870632D01*
X123600681Y-55860471D01*
X123700147Y-55848036D01*
X123704984Y-55847425D01*
X123806756Y-55834076D01*
X123894390Y-55821690D01*
X123958647Y-55811631D01*
X123990289Y-55805267D01*
X123990512Y-55805192D01*
X124019986Y-55800165D01*
X124084116Y-55792300D01*
X124175386Y-55782419D01*
X124286276Y-55771344D01*
X124381612Y-55762402D01*
X124500892Y-55751060D01*
X124604782Y-55740306D01*
X124686250Y-55730939D01*
X124738259Y-55723758D01*
X124753957Y-55720098D01*
X124750686Y-55697313D01*
X124716496Y-55662025D01*
X124658656Y-55620006D01*
X124584433Y-55577026D01*
X124555823Y-55562773D01*
X124383901Y-55493741D01*
X124224564Y-55455745D01*
X124082604Y-55449560D01*
X123979803Y-55469680D01*
X123910299Y-55488621D01*
X123873951Y-55487785D01*
X123872640Y-55467721D01*
X123892073Y-55444022D01*
X123960237Y-55404794D01*
X124061100Y-55389190D01*
X124192025Y-55397520D01*
X124231985Y-55403877D01*
X124365949Y-55434039D01*
X124492510Y-55474459D01*
X124605243Y-55521897D01*
X124697723Y-55573115D01*
X124763527Y-55624873D01*
X124796230Y-55673930D01*
X124798667Y-55689632D01*
X124813043Y-55736355D01*
X124838652Y-55771818D01*
X124863358Y-55793221D01*
X124889500Y-55801221D01*
X124929846Y-55796228D01*
X124997161Y-55778654D01*
X125002693Y-55777109D01*
X125092058Y-55750308D01*
X125145319Y-55728733D01*
X125167821Y-55709015D01*
X125164911Y-55687786D01*
X125158500Y-55678916D01*
X125147608Y-55648845D01*
X125154869Y-55638827D01*
X125171105Y-55612677D01*
X125190385Y-55559769D01*
X125199862Y-55525818D01*
X125242398Y-55403322D01*
X125307484Y-55270556D01*
X125385812Y-55144063D01*
X125468074Y-55040384D01*
X125479959Y-55028041D01*
X125542613Y-54969905D01*
X125591462Y-54938794D01*
X125638109Y-54927875D01*
X125650676Y-54927500D01*
X125713585Y-54937483D01*
X125758311Y-54962875D01*
X125772334Y-54991567D01*
X125754251Y-54998286D01*
X125710830Y-54995807D01*
X125635865Y-55006074D01*
X125556358Y-55057732D01*
X125473101Y-55150175D01*
X125431185Y-55210163D01*
X125389346Y-55280566D01*
X125348275Y-55360115D01*
X125312105Y-55439252D01*
X125284970Y-55508422D01*
X125271005Y-55558066D01*
X125272290Y-55577512D01*
X125294680Y-55574764D01*
X125350096Y-55560920D01*
X125431308Y-55537979D01*
X125531085Y-55507940D01*
X125585243Y-55491019D01*
X125705364Y-55453347D01*
X125823768Y-55416734D01*
X125928680Y-55384789D01*
X126008322Y-55361119D01*
X126024399Y-55356492D01*
X126096089Y-55332304D01*
X126150816Y-55306822D01*
X126175704Y-55286742D01*
X126185443Y-55255260D01*
X126331399Y-55255260D01*
X126345196Y-55264424D01*
X126391216Y-55255679D01*
X126401536Y-55252957D01*
X126434290Y-55237178D01*
X126431467Y-55208735D01*
X126426932Y-55199737D01*
X126399922Y-55171853D01*
X126369836Y-55185262D01*
X126343203Y-55225012D01*
X126331399Y-55255260D01*
X126185443Y-55255260D01*
X126186177Y-55252888D01*
X126196863Y-55206507D01*
X126280334Y-55206507D01*
X126292427Y-55215039D01*
X126312595Y-55202242D01*
X126334784Y-55176359D01*
X126335170Y-55165780D01*
X126311669Y-55165327D01*
X126287233Y-55186686D01*
X126280334Y-55206507D01*
X126196863Y-55206507D01*
X126200995Y-55188574D01*
X126217650Y-55105113D01*
X126225264Y-55063257D01*
X126250795Y-54874510D01*
X126257647Y-54707912D01*
X126246137Y-54567657D01*
X126216585Y-54457940D01*
X126173897Y-54387750D01*
X126142541Y-54343149D01*
X126107354Y-54278316D01*
X126092011Y-54244875D01*
X126063903Y-54187900D01*
X126038746Y-54151461D01*
X126027919Y-54144333D01*
X126006899Y-54128344D01*
X125968018Y-54085456D01*
X125917921Y-54023288D01*
X125889432Y-53985583D01*
X125836288Y-53916386D01*
X125791120Y-53862460D01*
X125760494Y-53831412D01*
X125752442Y-53826833D01*
X125730792Y-53809438D01*
X125720139Y-53786776D01*
X125695501Y-53756706D01*
X125649294Y-53724149D01*
X125598879Y-53699340D01*
X125561616Y-53692516D01*
X125560667Y-53692756D01*
X125536006Y-53695459D01*
X125479924Y-53699979D01*
X125403249Y-53705462D01*
X125380463Y-53706993D01*
X125291514Y-53715202D01*
X125211958Y-53726582D01*
X125157029Y-53738883D01*
X125151543Y-53740787D01*
X125083801Y-53757917D01*
X125027712Y-53763333D01*
X124967748Y-53773903D01*
X124898857Y-53800174D01*
X124881862Y-53809037D01*
X124823812Y-53836627D01*
X124787181Y-53839400D01*
X124771784Y-53830872D01*
X124743704Y-53821416D01*
X124702491Y-53836539D01*
X124664024Y-53860686D01*
X124610986Y-53891326D01*
X124569724Y-53905752D01*
X124559554Y-53905369D01*
X124526454Y-53910466D01*
X124479330Y-53934852D01*
X124473478Y-53938832D01*
X124429234Y-53965820D01*
X124396598Y-53967864D01*
X124356991Y-53948285D01*
X124280762Y-53927091D01*
X124182227Y-53938367D01*
X124065507Y-53981512D01*
X124038952Y-53994627D01*
X123967719Y-54039134D01*
X123887543Y-54101126D01*
X123810096Y-54170285D01*
X123747050Y-54236297D01*
X123713452Y-54282313D01*
X123629387Y-54439269D01*
X123567695Y-54570570D01*
X123525642Y-54684645D01*
X123500496Y-54789924D01*
X123489525Y-54894837D01*
X123488874Y-54975125D01*
X123492620Y-55053344D01*
X123500633Y-55097570D01*
X123515083Y-55116092D01*
X123526348Y-55118324D01*
X123547499Y-55122799D01*
X123532659Y-55136251D01*
X123522410Y-55153738D01*
X123527667Y-55188842D01*
X123550298Y-55248598D01*
X123579798Y-55313826D01*
X123645935Y-55459301D01*
X123692926Y-55573116D01*
X123722594Y-55660385D01*
X123736763Y-55726224D01*
X123738550Y-55759075D01*
X123736766Y-55827083D01*
X123695428Y-55737152D01*
X123632309Y-55649631D01*
X123534914Y-55586489D01*
X123431063Y-55553463D01*
X123387586Y-55547218D01*
X123366273Y-55560519D01*
X123354852Y-55603469D01*
X123352396Y-55618219D01*
X123285584Y-55618219D01*
X123284771Y-55611434D01*
X123308883Y-55550308D01*
X123316743Y-55541590D01*
X123350883Y-55512785D01*
X123386135Y-55501537D01*
X123435471Y-55506873D01*
X123509581Y-55527132D01*
X123603057Y-55555264D01*
X123522219Y-55394840D01*
X123480982Y-55317712D01*
X123442476Y-55253817D01*
X123413386Y-55214016D01*
X123407432Y-55208350D01*
X123390565Y-55174616D01*
X123377365Y-55108608D01*
X123368102Y-55020247D01*
X123363045Y-54919457D01*
X123362463Y-54816159D01*
X123366624Y-54720277D01*
X123375799Y-54641732D01*
X123390256Y-54590446D01*
X123390655Y-54589662D01*
X123413488Y-54533101D01*
X123422834Y-54485672D01*
X123435178Y-54446467D01*
X123466976Y-54389642D01*
X123496777Y-54347037D01*
X123534570Y-54295284D01*
X123556964Y-54260136D01*
X123559733Y-54250166D01*
X123558007Y-54235449D01*
X123574959Y-54199372D01*
X123603348Y-54154042D01*
X123635933Y-54111569D01*
X123653500Y-54093377D01*
X123686596Y-54050710D01*
X123698000Y-54014955D01*
X123713762Y-53978596D01*
X123745769Y-53943250D01*
X123930834Y-53943250D01*
X123941417Y-53953833D01*
X123952000Y-53943250D01*
X123941417Y-53932666D01*
X123930834Y-53943250D01*
X123745769Y-53943250D01*
X123752982Y-53935285D01*
X123766792Y-53923883D01*
X123769165Y-53922083D01*
X123867334Y-53922083D01*
X123877917Y-53932666D01*
X123884973Y-53925610D01*
X123973167Y-53925610D01*
X123987359Y-53926836D01*
X124020220Y-53910756D01*
X124057180Y-53886276D01*
X124083667Y-53862303D01*
X124087831Y-53855517D01*
X124081494Y-53846654D01*
X124049321Y-53863557D01*
X124036079Y-53872948D01*
X123995197Y-53904658D01*
X123973995Y-53924003D01*
X123973167Y-53925610D01*
X123884973Y-53925610D01*
X123888500Y-53922083D01*
X123877917Y-53911500D01*
X123867334Y-53922083D01*
X123769165Y-53922083D01*
X123880157Y-53837909D01*
X123897433Y-53825455D01*
X124126523Y-53825455D01*
X124129418Y-53826833D01*
X124148735Y-53811932D01*
X124153084Y-53805666D01*
X124158477Y-53785878D01*
X124155582Y-53784500D01*
X124136266Y-53799400D01*
X124131917Y-53805666D01*
X124126523Y-53825455D01*
X123897433Y-53825455D01*
X123968997Y-53773866D01*
X124041258Y-53726523D01*
X124104883Y-53690650D01*
X124107836Y-53689250D01*
X125645334Y-53689250D01*
X125655917Y-53699833D01*
X125666500Y-53689250D01*
X125655917Y-53678666D01*
X125645334Y-53689250D01*
X124107836Y-53689250D01*
X124162666Y-53663260D01*
X124233512Y-53632210D01*
X124293924Y-53605739D01*
X124304619Y-53601055D01*
X125080889Y-53601055D01*
X125083795Y-53613639D01*
X125095000Y-53615166D01*
X125112423Y-53607422D01*
X125109111Y-53601055D01*
X125083991Y-53598522D01*
X125080889Y-53601055D01*
X124304619Y-53601055D01*
X124322417Y-53593261D01*
X124349303Y-53583416D01*
X124692834Y-53583416D01*
X124703417Y-53594000D01*
X124714000Y-53583416D01*
X124703417Y-53572833D01*
X124692834Y-53583416D01*
X124349303Y-53583416D01*
X124508264Y-53525210D01*
X124694086Y-53486118D01*
X124891446Y-53474452D01*
X125111110Y-53488588D01*
X125350803Y-53525607D01*
X125555716Y-53579316D01*
X125730569Y-53651171D01*
X125837232Y-53712801D01*
X125908945Y-53763554D01*
X125967922Y-53811724D01*
X126003839Y-53848691D01*
X126008169Y-53855488D01*
X126030096Y-53891449D01*
X126070494Y-53951922D01*
X126122822Y-54027263D01*
X126160603Y-54080288D01*
X126226904Y-54176924D01*
X126270046Y-54252493D01*
X126295275Y-54317323D01*
X126305737Y-54366038D01*
X126317934Y-54444601D01*
X126333530Y-54541736D01*
X126346705Y-54621723D01*
X126358840Y-54714106D01*
X126360039Y-54795922D01*
X126349896Y-54887570D01*
X126340252Y-54944514D01*
X126325571Y-55034474D01*
X126321051Y-55089202D01*
X126326481Y-55114510D01*
X126333964Y-55118000D01*
X126365612Y-55129140D01*
X126415901Y-55157210D01*
X126438767Y-55172068D01*
X126494266Y-55205190D01*
X126536023Y-55214455D01*
X126581241Y-55204243D01*
X126633691Y-55193057D01*
X126668568Y-55207260D01*
X126674138Y-55212447D01*
X126689195Y-55230916D01*
X126700949Y-55256175D01*
X126709995Y-55293717D01*
X126716927Y-55349038D01*
X126722341Y-55427633D01*
X126726830Y-55534997D01*
X126730990Y-55676625D01*
X126732991Y-55756205D01*
X126742614Y-56150993D01*
X126650267Y-56174246D01*
X126583197Y-56188732D01*
X126527040Y-56196861D01*
X126514377Y-56197500D01*
X126481932Y-56201109D01*
X126474060Y-56217519D01*
X126490637Y-56255101D01*
X126512974Y-56292437D01*
X126539338Y-56337915D01*
X126543407Y-56364071D01*
X126525182Y-56387568D01*
X126512974Y-56398758D01*
X126482101Y-56433250D01*
X126474803Y-56467389D01*
X126492660Y-56511547D01*
X126537258Y-56576101D01*
X126540742Y-56580747D01*
X126611183Y-56681851D01*
X126671309Y-56782123D01*
X126714777Y-56870286D01*
X126732731Y-56922097D01*
X126732754Y-56986486D01*
X126711582Y-57075914D01*
X126672434Y-57180838D01*
X126618530Y-57291714D01*
X126592789Y-57336883D01*
X126551519Y-57396054D01*
X126488093Y-57475058D01*
X126410681Y-57564194D01*
X126327457Y-57653762D01*
X126315204Y-57666402D01*
X126235522Y-57751397D01*
X126164047Y-57833689D01*
X126107644Y-57904949D01*
X126073177Y-57956850D01*
X126069187Y-57964916D01*
X126016519Y-58050379D01*
X125932048Y-58136896D01*
X125811291Y-58229008D01*
X125802824Y-58234791D01*
X125721120Y-58276165D01*
X125630535Y-58291977D01*
X125523995Y-58282036D01*
X125394427Y-58246150D01*
X125327834Y-58221912D01*
X125242437Y-58188439D01*
X125168277Y-58158195D01*
X125117136Y-58136030D01*
X125105584Y-58130417D01*
X125062301Y-58116206D01*
X124993498Y-58102272D01*
X124931407Y-58093700D01*
X124834527Y-58078440D01*
X124799884Y-58070750D01*
X124989167Y-58070750D01*
X124999750Y-58081333D01*
X125010334Y-58070750D01*
X124999750Y-58060166D01*
X124989167Y-58070750D01*
X124799884Y-58070750D01*
X124727722Y-58054732D01*
X124666824Y-58037697D01*
G37*
D11*
X124666824Y-58037697D02*
X124581384Y-58011465D01*
X124498083Y-57986802D01*
X124449417Y-57973040D01*
X124244757Y-57911737D01*
X124078723Y-57848839D01*
X123947612Y-57782153D01*
X123847722Y-57709487D01*
X123775349Y-57628647D01*
X123730888Y-57547591D01*
X123706280Y-57471221D01*
X123682738Y-57368374D01*
X123663181Y-57254865D01*
X123650527Y-57146509D01*
X123647605Y-57096186D01*
X123638013Y-57032709D01*
X123608378Y-56973304D01*
X123563843Y-56916269D01*
X123521029Y-56864809D01*
X123497786Y-56825674D01*
X123489687Y-56783332D01*
X123490535Y-56763575D01*
X123597756Y-56763575D01*
X123599513Y-56787365D01*
X123606750Y-56831742D01*
X123622406Y-56871830D01*
X123652087Y-56915986D01*
X123701400Y-56972567D01*
X123775056Y-57049019D01*
X123846394Y-57121776D01*
X123889645Y-57167084D01*
X123906416Y-57187662D01*
X123898318Y-57186231D01*
X123866959Y-57165512D01*
X123827628Y-57137879D01*
X123766927Y-57096862D01*
X123733937Y-57080239D01*
X123723316Y-57085957D01*
X123725238Y-57098475D01*
X123735975Y-57141767D01*
X123751215Y-57208630D01*
X123761493Y-57255833D01*
X123809221Y-57437010D01*
X123868554Y-57580468D01*
X123942640Y-57689968D01*
X124034630Y-57769270D01*
X124147672Y-57822135D01*
X124257601Y-57848285D01*
X124341641Y-57867395D01*
X124439006Y-57897283D01*
X124506513Y-57922598D01*
X124600365Y-57958991D01*
X124699247Y-57992944D01*
X124793791Y-58021749D01*
X124874624Y-58042694D01*
X124932378Y-58053069D01*
X124954893Y-58052291D01*
X124953785Y-58039499D01*
X124921138Y-58019901D01*
X124909792Y-58015059D01*
X124862223Y-57990431D01*
X124840748Y-57968355D01*
X124850513Y-57955455D01*
X124862637Y-57954333D01*
X124890199Y-57963326D01*
X124945447Y-57987363D01*
X125018470Y-58022027D01*
X125052667Y-58039000D01*
X125130793Y-58076926D01*
X125195954Y-58106071D01*
X125237994Y-58121991D01*
X125246322Y-58123666D01*
X125281707Y-58136658D01*
X125305000Y-58153485D01*
X125344962Y-58176648D01*
X125410194Y-58203268D01*
X125484591Y-58227831D01*
X125552051Y-58244823D01*
X125584479Y-58249192D01*
X125628904Y-58246192D01*
X125687665Y-58236908D01*
X125688041Y-58236833D01*
X125744370Y-58213137D01*
X125812086Y-58166894D01*
X125852558Y-58131637D01*
X125904252Y-58079530D01*
X125928347Y-58045875D01*
X125929613Y-58021841D01*
X125920038Y-58006693D01*
X125905599Y-57981752D01*
X125911626Y-57976812D01*
X125963757Y-57973962D01*
X125993028Y-57937534D01*
X125995220Y-57931162D01*
X126015230Y-57888649D01*
X126050515Y-57830496D01*
X126093719Y-57767002D01*
X126137490Y-57708465D01*
X126174473Y-57665181D01*
X126197313Y-57647448D01*
X126197857Y-57647416D01*
X126224080Y-57630675D01*
X126266963Y-57585490D01*
X126320896Y-57519421D01*
X126380272Y-57440029D01*
X126439482Y-57354874D01*
X126492916Y-57271515D01*
X126534966Y-57197513D01*
X126541949Y-57183615D01*
X126591528Y-57077339D01*
X126620663Y-56995799D01*
X126629479Y-56926727D01*
X126618104Y-56857860D01*
X126586663Y-56776932D01*
X126546973Y-56694916D01*
X126507369Y-56618448D01*
X126475600Y-56561954D01*
X126455563Y-56532067D01*
X126450582Y-56530875D01*
X126432115Y-56552493D01*
X126407996Y-56557333D01*
X126387436Y-56554368D01*
X126376143Y-56539760D01*
X126372640Y-56504934D01*
X126375452Y-56441319D01*
X126379215Y-56390178D01*
X126392105Y-56223022D01*
X126288594Y-56241994D01*
X126219550Y-56255595D01*
X126119138Y-56276606D01*
X125997230Y-56302871D01*
X125863696Y-56332234D01*
X125728406Y-56362539D01*
X125601233Y-56391630D01*
X125566900Y-56399620D01*
X125493561Y-56415738D01*
X125434525Y-56426859D01*
X125406110Y-56430333D01*
X125388106Y-56411548D01*
X125360349Y-56360541D01*
X125326221Y-56285335D01*
X125289101Y-56193954D01*
X125252369Y-56094421D01*
X125219405Y-55994759D01*
X125211340Y-55968023D01*
X125191999Y-55932519D01*
X125157235Y-55931212D01*
X125151168Y-55933031D01*
X125100220Y-55946033D01*
X125033356Y-55959322D01*
X125020917Y-55961424D01*
X124968472Y-55972666D01*
X124941702Y-55992578D01*
X124928841Y-56034339D01*
X124923554Y-56070500D01*
X124910858Y-56165750D01*
X124907679Y-56077040D01*
X124901056Y-56018894D01*
X124888332Y-55980712D01*
X124883334Y-55975249D01*
X124869019Y-55947103D01*
X124862249Y-55895810D01*
X124862167Y-55889334D01*
X124862167Y-55851038D01*
X125206581Y-55851038D01*
X125217870Y-55901228D01*
X125243345Y-55979602D01*
X125284154Y-56090837D01*
X125298561Y-56128708D01*
X125332214Y-56211554D01*
X125362550Y-56277039D01*
X125385413Y-56316652D01*
X125394226Y-56324500D01*
X125405333Y-56337564D01*
X125401917Y-56345666D01*
X125397024Y-56356805D01*
X125402246Y-56362919D01*
X125422636Y-56363180D01*
X125463244Y-56356763D01*
X125529122Y-56342839D01*
X125625322Y-56320582D01*
X125756895Y-56289165D01*
X125777783Y-56284143D01*
X125903520Y-56254072D01*
X126024917Y-56225343D01*
X126131632Y-56200383D01*
X126213320Y-56181619D01*
X126244187Y-56174741D01*
X126313780Y-56157083D01*
X126348557Y-56140428D01*
X126349151Y-56138806D01*
X126428500Y-56138806D01*
X126526456Y-56124117D01*
X126591675Y-56112937D01*
X126641608Y-56101919D01*
X126653639Y-56098212D01*
X126671311Y-56086762D01*
X126683962Y-56064392D01*
X126691991Y-56025687D01*
X126695792Y-55965235D01*
X126695761Y-55877620D01*
X126692296Y-55757429D01*
X126687420Y-55636583D01*
X126671917Y-55276750D01*
X126619000Y-55283871D01*
X126571296Y-55297123D01*
X126540717Y-55317374D01*
X126536687Y-55336818D01*
X126546941Y-55343570D01*
X126558376Y-55362988D01*
X126558413Y-55410599D01*
X126546601Y-55489361D01*
X126522487Y-55602230D01*
X126485619Y-55752165D01*
X126482814Y-55763097D01*
X126459437Y-55862047D01*
X126441107Y-55954975D01*
X126430318Y-56028396D01*
X126428500Y-56056542D01*
X126428500Y-56138806D01*
X126349151Y-56138806D01*
X126355743Y-56120813D01*
X126353913Y-56114556D01*
X126341143Y-56077969D01*
X126334061Y-56056542D01*
X126320326Y-56014990D01*
X126297326Y-55943500D01*
X126269972Y-55867068D01*
X126241576Y-55802930D01*
X126220043Y-55767418D01*
X126197647Y-55718165D01*
X126181465Y-55630860D01*
X126176850Y-55581115D01*
X126237141Y-55581115D01*
X126243930Y-55688265D01*
X126274334Y-55790151D01*
X126317375Y-55878908D01*
X126354925Y-55946706D01*
X126383773Y-55996725D01*
X126398893Y-56020315D01*
X126399949Y-56021060D01*
X126403717Y-55999972D01*
X126410312Y-55948599D01*
X126417090Y-55889048D01*
X126429168Y-55807385D01*
X126448958Y-55703836D01*
X126472761Y-55597283D01*
X126479930Y-55568343D01*
X126499623Y-55481562D01*
X126511726Y-55408835D01*
X126514678Y-55360783D01*
X126512136Y-55349165D01*
X126493831Y-55334979D01*
X126457517Y-55333679D01*
X126392788Y-55345175D01*
X126379924Y-55348011D01*
X126313630Y-55364606D01*
X126277528Y-55382421D01*
X126260242Y-55410689D01*
X126251435Y-55452307D01*
X126237141Y-55581115D01*
X126176850Y-55581115D01*
X126175193Y-55563260D01*
X126163917Y-55397599D01*
X125941667Y-55456557D01*
X125748890Y-55508241D01*
X125593483Y-55551306D01*
X125471663Y-55587061D01*
X125379647Y-55616819D01*
X125313653Y-55641889D01*
X125269898Y-55663581D01*
X125244600Y-55683208D01*
X125234061Y-55701731D01*
X125229646Y-55754337D01*
X125234867Y-55783068D01*
X125234037Y-55811504D01*
X125221970Y-55816500D01*
X125208330Y-55824355D01*
X125206581Y-55851038D01*
X124862167Y-55851038D01*
X124862167Y-55816500D01*
X124604446Y-55816500D01*
X124616751Y-55906458D01*
X124629057Y-55996416D01*
X124592430Y-55904699D01*
X124555802Y-55812981D01*
X124386193Y-55826548D01*
X124288158Y-55835946D01*
X124167993Y-55849726D01*
X124045369Y-55865563D01*
X123991393Y-55873216D01*
X123766203Y-55906317D01*
X123753501Y-55983117D01*
X123744435Y-56058635D01*
X123740566Y-56131300D01*
X123743016Y-56177149D01*
X123754094Y-56187901D01*
X123772083Y-56176333D01*
X123792012Y-56161830D01*
X123800122Y-56163535D01*
X123794908Y-56186184D01*
X123774866Y-56234514D01*
X123738493Y-56313263D01*
X123708583Y-56376286D01*
X123669169Y-56460267D01*
X123637703Y-56529799D01*
X123618034Y-56576229D01*
X123613334Y-56590577D01*
X123631800Y-56596647D01*
X123678009Y-56594330D01*
X123697788Y-56591572D01*
X123751076Y-56584203D01*
X123837170Y-56573593D01*
X123946758Y-56560785D01*
X124070530Y-56546822D01*
X124199175Y-56532746D01*
X124323382Y-56519598D01*
X124433841Y-56508421D01*
X124481167Y-56503882D01*
X124603088Y-56491955D01*
X124690478Y-56481748D01*
X124751025Y-56471878D01*
X124792416Y-56460961D01*
X124822339Y-56447611D01*
X124834333Y-56440296D01*
X124869460Y-56420309D01*
X124881869Y-56429355D01*
X124883334Y-56458841D01*
X124878565Y-56488451D01*
X124857759Y-56507763D01*
X124811162Y-56522728D01*
X124761625Y-56533097D01*
X124691248Y-56544198D01*
X124592340Y-56556461D01*
X124478614Y-56568318D01*
X124375334Y-56577312D01*
X124141407Y-56596532D01*
X123949787Y-56614453D01*
X123800468Y-56631076D01*
X123693445Y-56646403D01*
X123628710Y-56660433D01*
X123607124Y-56671047D01*
X123598737Y-56705543D01*
X123597756Y-56763575D01*
X123490535Y-56763575D01*
X123492309Y-56722250D01*
X123496315Y-56679223D01*
X123501485Y-56607041D01*
X123499159Y-56548536D01*
X123486738Y-56489379D01*
X123461624Y-56415242D01*
X123436832Y-56351140D01*
X123403571Y-56256235D01*
X123375903Y-56157260D01*
X123355217Y-56062366D01*
X123342903Y-55979707D01*
X123341729Y-55951068D01*
X123396479Y-55951068D01*
X123407206Y-56084705D01*
X123424526Y-56190540D01*
X123456929Y-56304736D01*
X123476813Y-56356883D01*
X123535694Y-56495424D01*
X123562190Y-56418354D01*
X123567816Y-56398583D01*
X123592167Y-56398583D01*
X123602750Y-56409166D01*
X123613334Y-56398583D01*
X123602750Y-56388000D01*
X123592167Y-56398583D01*
X123567816Y-56398583D01*
X123573776Y-56377643D01*
X123575392Y-56340126D01*
X123564900Y-56294328D01*
X123540163Y-56228777D01*
X123516343Y-56172266D01*
X123477306Y-56079032D01*
X123454413Y-56017943D01*
X123445966Y-55982752D01*
X123450266Y-55967215D01*
X123459875Y-55964689D01*
X123473743Y-55983152D01*
X123498100Y-56032782D01*
X123528936Y-56104976D01*
X123548740Y-56155189D01*
X123589581Y-56256327D01*
X123621403Y-56318957D01*
X123646297Y-56342400D01*
X123666355Y-56325976D01*
X123683666Y-56269007D01*
X123700323Y-56170814D01*
X123709450Y-56102994D01*
X123719977Y-56018924D01*
X123727750Y-55953179D01*
X123731675Y-55915208D01*
X123731849Y-55909588D01*
X123711500Y-55911116D01*
X123659328Y-55917094D01*
X123585466Y-55926342D01*
X123563114Y-55929247D01*
X123396479Y-55951068D01*
X123341729Y-55951068D01*
X123340350Y-55917435D01*
X123348948Y-55883701D01*
X123356528Y-55880000D01*
X123362997Y-55863635D01*
X123348267Y-55820092D01*
X123338787Y-55800625D01*
X123294697Y-55694371D01*
X123285584Y-55618219D01*
X123352396Y-55618219D01*
X123352564Y-55672191D01*
X123364506Y-55738308D01*
X123384171Y-55803562D01*
X123407508Y-55854943D01*
X123430466Y-55879443D01*
X123433919Y-55880000D01*
X123458973Y-55877485D01*
X123517425Y-55870632D01*
X123600681Y-55860471D01*
X123700147Y-55848036D01*
X123704984Y-55847425D01*
X123806756Y-55834076D01*
X123894390Y-55821690D01*
X123958647Y-55811631D01*
X123990289Y-55805267D01*
X123990512Y-55805192D01*
X124019986Y-55800165D01*
X124084116Y-55792300D01*
X124175386Y-55782419D01*
X124286276Y-55771344D01*
X124381612Y-55762402D01*
X124500892Y-55751060D01*
X124604782Y-55740306D01*
X124686250Y-55730939D01*
X124738259Y-55723758D01*
X124753957Y-55720098D01*
X124750686Y-55697313D01*
X124716496Y-55662025D01*
X124658656Y-55620006D01*
X124584433Y-55577026D01*
X124555823Y-55562773D01*
X124383901Y-55493741D01*
X124224564Y-55455745D01*
X124082604Y-55449560D01*
X123979803Y-55469680D01*
X123910299Y-55488621D01*
X123873951Y-55487785D01*
X123872640Y-55467721D01*
X123892073Y-55444022D01*
X123960237Y-55404794D01*
X124061100Y-55389190D01*
X124192025Y-55397520D01*
X124231985Y-55403877D01*
X124365949Y-55434039D01*
X124492510Y-55474459D01*
X124605243Y-55521897D01*
X124697723Y-55573115D01*
X124763527Y-55624873D01*
X124796230Y-55673930D01*
X124798667Y-55689632D01*
X124813043Y-55736355D01*
X124838652Y-55771818D01*
X124863358Y-55793221D01*
X124889500Y-55801221D01*
X124929846Y-55796228D01*
X124997161Y-55778654D01*
X125002693Y-55777109D01*
X125092058Y-55750308D01*
X125145319Y-55728733D01*
X125167821Y-55709015D01*
X125164911Y-55687786D01*
X125158500Y-55678916D01*
X125147608Y-55648845D01*
X125154869Y-55638827D01*
X125171105Y-55612677D01*
X125190385Y-55559769D01*
X125199862Y-55525818D01*
X125242398Y-55403322D01*
X125307484Y-55270556D01*
X125385812Y-55144063D01*
X125468074Y-55040384D01*
X125479959Y-55028041D01*
X125542613Y-54969905D01*
X125591462Y-54938794D01*
X125638109Y-54927875D01*
X125650676Y-54927500D01*
X125713585Y-54937483D01*
X125758311Y-54962875D01*
X125772334Y-54991567D01*
X125754251Y-54998286D01*
X125710830Y-54995807D01*
X125635865Y-55006074D01*
X125556358Y-55057732D01*
X125473101Y-55150175D01*
X125431185Y-55210163D01*
X125389346Y-55280566D01*
X125348275Y-55360115D01*
X125312105Y-55439252D01*
X125284970Y-55508422D01*
X125271005Y-55558066D01*
X125272290Y-55577512D01*
X125294680Y-55574764D01*
X125350096Y-55560920D01*
X125431308Y-55537979D01*
X125531085Y-55507940D01*
X125585243Y-55491019D01*
X125705364Y-55453347D01*
X125823768Y-55416734D01*
X125928680Y-55384789D01*
X126008322Y-55361119D01*
X126024399Y-55356492D01*
X126096089Y-55332304D01*
X126150816Y-55306822D01*
X126175704Y-55286742D01*
X126185443Y-55255260D01*
X126331399Y-55255260D01*
X126345196Y-55264424D01*
X126391216Y-55255679D01*
X126401536Y-55252957D01*
X126434290Y-55237178D01*
X126431467Y-55208735D01*
X126426932Y-55199737D01*
X126399922Y-55171853D01*
X126369836Y-55185262D01*
X126343203Y-55225012D01*
X126331399Y-55255260D01*
X126185443Y-55255260D01*
X126186177Y-55252888D01*
X126196863Y-55206507D01*
X126280334Y-55206507D01*
X126292427Y-55215039D01*
X126312595Y-55202242D01*
X126334784Y-55176359D01*
X126335170Y-55165780D01*
X126311669Y-55165327D01*
X126287233Y-55186686D01*
X126280334Y-55206507D01*
X126196863Y-55206507D01*
X126200995Y-55188574D01*
X126217650Y-55105113D01*
X126225264Y-55063257D01*
X126250795Y-54874510D01*
X126257647Y-54707912D01*
X126246137Y-54567657D01*
X126216585Y-54457940D01*
X126173897Y-54387750D01*
X126142541Y-54343149D01*
X126107354Y-54278316D01*
X126092011Y-54244875D01*
X126063903Y-54187900D01*
X126038746Y-54151461D01*
X126027919Y-54144333D01*
X126006899Y-54128344D01*
X125968018Y-54085456D01*
X125917921Y-54023288D01*
X125889432Y-53985583D01*
X125836288Y-53916386D01*
X125791120Y-53862460D01*
X125760494Y-53831412D01*
X125752442Y-53826833D01*
X125730792Y-53809438D01*
X125720139Y-53786776D01*
X125695501Y-53756706D01*
X125649294Y-53724149D01*
X125598879Y-53699340D01*
X125561616Y-53692516D01*
X125560667Y-53692756D01*
X125536006Y-53695459D01*
X125479924Y-53699979D01*
X125403249Y-53705462D01*
X125380463Y-53706993D01*
X125291514Y-53715202D01*
X125211958Y-53726582D01*
X125157029Y-53738883D01*
X125151543Y-53740787D01*
X125083801Y-53757917D01*
X125027712Y-53763333D01*
X124967748Y-53773903D01*
X124898857Y-53800174D01*
X124881862Y-53809037D01*
X124823812Y-53836627D01*
X124787181Y-53839400D01*
X124771784Y-53830872D01*
X124743704Y-53821416D01*
X124702491Y-53836539D01*
X124664024Y-53860686D01*
X124610986Y-53891326D01*
X124569724Y-53905752D01*
X124559554Y-53905369D01*
X124526454Y-53910466D01*
X124479330Y-53934852D01*
X124473478Y-53938832D01*
X124429234Y-53965820D01*
X124396598Y-53967864D01*
X124356991Y-53948285D01*
X124280762Y-53927091D01*
X124182227Y-53938367D01*
X124065507Y-53981512D01*
X124038952Y-53994627D01*
X123967719Y-54039134D01*
X123887543Y-54101126D01*
X123810096Y-54170285D01*
X123747050Y-54236297D01*
X123713452Y-54282313D01*
X123629387Y-54439269D01*
X123567695Y-54570570D01*
X123525642Y-54684645D01*
X123500496Y-54789924D01*
X123489525Y-54894837D01*
X123488874Y-54975125D01*
X123492620Y-55053344D01*
X123500633Y-55097570D01*
X123515083Y-55116092D01*
X123526348Y-55118324D01*
X123547499Y-55122799D01*
X123532659Y-55136251D01*
X123522410Y-55153738D01*
X123527667Y-55188842D01*
X123550298Y-55248598D01*
X123579798Y-55313826D01*
X123645935Y-55459301D01*
X123692926Y-55573116D01*
X123722594Y-55660385D01*
X123736763Y-55726224D01*
X123738550Y-55759075D01*
X123736766Y-55827083D01*
X123695428Y-55737152D01*
X123632309Y-55649631D01*
X123534914Y-55586489D01*
X123431063Y-55553463D01*
X123387586Y-55547218D01*
X123366273Y-55560519D01*
X123354852Y-55603469D01*
X123352396Y-55618219D01*
X123285584Y-55618219D01*
X123284771Y-55611434D01*
X123308883Y-55550308D01*
X123316743Y-55541590D01*
X123350883Y-55512785D01*
X123386135Y-55501537D01*
X123435471Y-55506873D01*
X123509581Y-55527132D01*
X123603057Y-55555264D01*
X123522219Y-55394840D01*
X123480982Y-55317712D01*
X123442476Y-55253817D01*
X123413386Y-55214016D01*
X123407432Y-55208350D01*
X123390565Y-55174616D01*
X123377365Y-55108608D01*
X123368102Y-55020247D01*
X123363045Y-54919457D01*
X123362463Y-54816159D01*
X123366624Y-54720277D01*
X123375799Y-54641732D01*
X123390256Y-54590446D01*
X123390655Y-54589662D01*
X123413488Y-54533101D01*
X123422834Y-54485672D01*
X123435178Y-54446467D01*
X123466976Y-54389642D01*
X123496777Y-54347037D01*
X123534570Y-54295284D01*
X123556964Y-54260136D01*
X123559733Y-54250166D01*
X123558007Y-54235449D01*
X123574959Y-54199372D01*
X123603348Y-54154042D01*
X123635933Y-54111569D01*
X123653500Y-54093377D01*
X123686596Y-54050710D01*
X123698000Y-54014955D01*
X123713762Y-53978596D01*
X123745769Y-53943250D01*
X123930834Y-53943250D01*
X123941417Y-53953833D01*
X123952000Y-53943250D01*
X123941417Y-53932666D01*
X123930834Y-53943250D01*
X123745769Y-53943250D01*
X123752982Y-53935285D01*
X123766792Y-53923883D01*
X123769165Y-53922083D01*
X123867334Y-53922083D01*
X123877917Y-53932666D01*
X123884973Y-53925610D01*
X123973167Y-53925610D01*
X123987359Y-53926836D01*
X124020220Y-53910756D01*
X124057180Y-53886276D01*
X124083667Y-53862303D01*
X124087831Y-53855517D01*
X124081494Y-53846654D01*
X124049321Y-53863557D01*
X124036079Y-53872948D01*
X123995197Y-53904658D01*
X123973995Y-53924003D01*
X123973167Y-53925610D01*
X123884973Y-53925610D01*
X123888500Y-53922083D01*
X123877917Y-53911500D01*
X123867334Y-53922083D01*
X123769165Y-53922083D01*
X123880157Y-53837909D01*
X123897433Y-53825455D01*
X124126523Y-53825455D01*
X124129418Y-53826833D01*
X124148735Y-53811932D01*
X124153084Y-53805666D01*
X124158477Y-53785878D01*
X124155582Y-53784500D01*
X124136266Y-53799400D01*
X124131917Y-53805666D01*
X124126523Y-53825455D01*
X123897433Y-53825455D01*
X123968997Y-53773866D01*
X124041258Y-53726523D01*
X124104883Y-53690650D01*
X124107836Y-53689250D01*
X125645334Y-53689250D01*
X125655917Y-53699833D01*
X125666500Y-53689250D01*
X125655917Y-53678666D01*
X125645334Y-53689250D01*
X124107836Y-53689250D01*
X124162666Y-53663260D01*
X124233512Y-53632210D01*
X124293924Y-53605739D01*
X124304619Y-53601055D01*
X125080889Y-53601055D01*
X125083795Y-53613639D01*
X125095000Y-53615166D01*
X125112423Y-53607422D01*
X125109111Y-53601055D01*
X125083991Y-53598522D01*
X125080889Y-53601055D01*
X124304619Y-53601055D01*
X124322417Y-53593261D01*
X124349303Y-53583416D01*
X124692834Y-53583416D01*
X124703417Y-53594000D01*
X124714000Y-53583416D01*
X124703417Y-53572833D01*
X124692834Y-53583416D01*
X124349303Y-53583416D01*
X124508264Y-53525210D01*
X124694086Y-53486118D01*
X124891446Y-53474452D01*
X125111110Y-53488588D01*
X125350803Y-53525607D01*
X125555716Y-53579316D01*
X125730569Y-53651171D01*
X125837232Y-53712801D01*
X125908945Y-53763554D01*
X125967922Y-53811724D01*
X126003839Y-53848691D01*
X126008169Y-53855488D01*
X126030096Y-53891449D01*
X126070494Y-53951922D01*
X126122822Y-54027263D01*
X126160603Y-54080288D01*
X126226904Y-54176924D01*
X126270046Y-54252493D01*
X126295275Y-54317323D01*
X126305737Y-54366038D01*
X126317934Y-54444601D01*
X126333530Y-54541736D01*
X126346705Y-54621723D01*
X126358840Y-54714106D01*
X126360039Y-54795922D01*
X126349896Y-54887570D01*
X126340252Y-54944514D01*
X126325571Y-55034474D01*
X126321051Y-55089202D01*
X126326481Y-55114510D01*
X126333964Y-55118000D01*
X126365612Y-55129140D01*
X126415901Y-55157210D01*
X126438767Y-55172068D01*
X126494266Y-55205190D01*
X126536023Y-55214455D01*
X126581241Y-55204243D01*
X126633691Y-55193057D01*
X126668568Y-55207260D01*
X126674138Y-55212447D01*
X126689195Y-55230916D01*
X126700949Y-55256175D01*
X126709995Y-55293717D01*
X126716927Y-55349038D01*
X126722341Y-55427633D01*
X126726830Y-55534997D01*
X126730990Y-55676625D01*
X126732991Y-55756205D01*
X126742614Y-56150993D01*
X126650267Y-56174246D01*
X126583197Y-56188732D01*
X126527040Y-56196861D01*
X126514377Y-56197500D01*
X126481932Y-56201109D01*
X126474060Y-56217519D01*
X126490637Y-56255101D01*
X126512974Y-56292437D01*
X126539338Y-56337915D01*
X126543407Y-56364071D01*
X126525182Y-56387568D01*
X126512974Y-56398758D01*
X126482101Y-56433250D01*
X126474803Y-56467389D01*
X126492660Y-56511547D01*
X126537258Y-56576101D01*
X126540742Y-56580747D01*
X126611183Y-56681851D01*
X126671309Y-56782123D01*
X126714777Y-56870286D01*
X126732731Y-56922097D01*
X126732754Y-56986486D01*
X126711582Y-57075914D01*
X126672434Y-57180838D01*
X126618530Y-57291714D01*
X126592789Y-57336883D01*
X126551519Y-57396054D01*
X126488093Y-57475058D01*
X126410681Y-57564194D01*
X126327457Y-57653762D01*
X126315204Y-57666402D01*
X126235522Y-57751397D01*
X126164047Y-57833689D01*
X126107644Y-57904949D01*
X126073177Y-57956850D01*
X126069187Y-57964916D01*
X126016519Y-58050379D01*
X125932048Y-58136896D01*
X125811291Y-58229008D01*
X125802824Y-58234791D01*
X125721120Y-58276165D01*
X125630535Y-58291977D01*
X125523995Y-58282036D01*
X125394427Y-58246150D01*
X125327834Y-58221912D01*
X125242437Y-58188439D01*
X125168277Y-58158195D01*
X125117136Y-58136030D01*
X125105584Y-58130417D01*
X125062301Y-58116206D01*
X124993498Y-58102272D01*
X124931407Y-58093700D01*
X124834527Y-58078440D01*
X124799884Y-58070750D01*
X124989167Y-58070750D01*
X124999750Y-58081333D01*
X125010334Y-58070750D01*
X124999750Y-58060166D01*
X124989167Y-58070750D01*
X124799884Y-58070750D01*
X124727722Y-58054732D01*
X124666824Y-58037697D01*
G36*
X126534334Y-56504416D02*
G01*
X126523750Y-56515000D01*
X126513167Y-56504416D01*
X126523750Y-56493833D01*
X126534334Y-56504416D01*
G37*
X126534334Y-56504416D02*
X126523750Y-56515000D01*
X126513167Y-56504416D01*
X126523750Y-56493833D01*
X126534334Y-56504416D01*
G36*
X125823477Y-57581865D02*
G01*
X125787579Y-57599211D01*
X125723660Y-57624545D01*
X125637819Y-57655267D01*
X125634750Y-57656319D01*
X125534239Y-57691823D01*
X125441609Y-57726460D01*
X125368330Y-57755833D01*
X125330795Y-57772870D01*
X125289440Y-57790521D01*
X125273524Y-57789263D01*
X125275297Y-57784385D01*
X125306941Y-57758497D01*
X125369478Y-57725078D01*
X125453005Y-57687896D01*
X125547617Y-57650720D01*
X125643412Y-57617319D01*
X125730485Y-57591461D01*
X125798932Y-57576915D01*
X125825250Y-57575109D01*
X125823477Y-57581865D01*
G37*
X125823477Y-57581865D02*
X125787579Y-57599211D01*
X125723660Y-57624545D01*
X125637819Y-57655267D01*
X125634750Y-57656319D01*
X125534239Y-57691823D01*
X125441609Y-57726460D01*
X125368330Y-57755833D01*
X125330795Y-57772870D01*
X125289440Y-57790521D01*
X125273524Y-57789263D01*
X125275297Y-57784385D01*
X125306941Y-57758497D01*
X125369478Y-57725078D01*
X125453005Y-57687896D01*
X125547617Y-57650720D01*
X125643412Y-57617319D01*
X125730485Y-57591461D01*
X125798932Y-57576915D01*
X125825250Y-57575109D01*
X125823477Y-57581865D01*
G36*
X125322789Y-57622290D02*
G01*
X125327737Y-57628011D01*
X125297340Y-57631222D01*
X125274917Y-57631495D01*
X125233926Y-57629411D01*
X125227707Y-57624630D01*
X125238122Y-57621862D01*
X125293274Y-57618455D01*
X125322789Y-57622290D01*
G37*
X125322789Y-57622290D02*
X125327737Y-57628011D01*
X125297340Y-57631222D01*
X125274917Y-57631495D01*
X125233926Y-57629411D01*
X125227707Y-57624630D01*
X125238122Y-57621862D01*
X125293274Y-57618455D01*
X125322789Y-57622290D01*
G36*
X125532332Y-57598964D02*
G01*
X125527874Y-57606508D01*
X125507750Y-57615666D01*
X125451999Y-57630319D01*
X125412500Y-57633857D01*
X125377335Y-57632368D01*
X125381793Y-57624824D01*
X125401917Y-57615666D01*
X125457668Y-57601013D01*
X125497167Y-57597475D01*
X125532332Y-57598964D01*
G37*
X125532332Y-57598964D02*
X125527874Y-57606508D01*
X125507750Y-57615666D01*
X125451999Y-57630319D01*
X125412500Y-57633857D01*
X125377335Y-57632368D01*
X125381793Y-57624824D01*
X125401917Y-57615666D01*
X125457668Y-57601013D01*
X125497167Y-57597475D01*
X125532332Y-57598964D01*
G36*
X125172611Y-57601555D02*
G01*
X125169706Y-57614139D01*
X125158500Y-57615666D01*
X125141078Y-57607922D01*
X125144389Y-57601555D01*
X125169509Y-57599022D01*
X125172611Y-57601555D01*
G37*
X125172611Y-57601555D02*
X125169706Y-57614139D01*
X125158500Y-57615666D01*
X125141078Y-57607922D01*
X125144389Y-57601555D01*
X125169509Y-57599022D01*
X125172611Y-57601555D01*
G36*
X125109111Y-57580388D02*
G01*
X125106206Y-57592972D01*
X125095000Y-57594500D01*
X125077578Y-57586755D01*
X125080889Y-57580388D01*
X125106009Y-57577855D01*
X125109111Y-57580388D01*
G37*
X125109111Y-57580388D02*
X125106206Y-57592972D01*
X125095000Y-57594500D01*
X125077578Y-57586755D01*
X125080889Y-57580388D01*
X125106009Y-57577855D01*
X125109111Y-57580388D01*
G36*
X125581834Y-57583916D02*
G01*
X125571250Y-57594500D01*
X125560667Y-57583916D01*
X125571250Y-57573333D01*
X125581834Y-57583916D01*
G37*
X125581834Y-57583916D02*
X125571250Y-57594500D01*
X125560667Y-57583916D01*
X125571250Y-57573333D01*
X125581834Y-57583916D01*
G36*
X125052667Y-57562750D02*
G01*
X125042084Y-57573333D01*
X125031500Y-57562750D01*
X125042084Y-57552166D01*
X125052667Y-57562750D01*
G37*
X125052667Y-57562750D02*
X125042084Y-57573333D01*
X125031500Y-57562750D01*
X125042084Y-57552166D01*
X125052667Y-57562750D01*
G36*
X125010334Y-57541583D02*
G01*
X124999750Y-57552166D01*
X124989167Y-57541583D01*
X124999750Y-57531000D01*
X125010334Y-57541583D01*
G37*
X125010334Y-57541583D02*
X124999750Y-57552166D01*
X124989167Y-57541583D01*
X124999750Y-57531000D01*
X125010334Y-57541583D01*
G36*
X126061989Y-56920283D02*
G01*
X126118711Y-56934642D01*
X126148624Y-56950116D01*
X126187782Y-56983503D01*
X126187983Y-57002430D01*
X126148596Y-57007820D01*
X126110695Y-57005432D01*
X126069498Y-57003437D01*
X126035663Y-57010182D01*
X126000221Y-57031069D01*
X125954206Y-57071496D01*
X125888648Y-57136866D01*
X125883154Y-57142456D01*
X125810473Y-57214107D01*
X125738493Y-57281146D01*
X125679024Y-57332706D01*
X125661209Y-57346694D01*
X125606603Y-57396105D01*
X125583836Y-57443373D01*
X125581834Y-57466137D01*
X125570639Y-57516959D01*
X125548352Y-57539318D01*
X125496424Y-57548229D01*
X125423618Y-57548474D01*
X125350462Y-57540208D01*
X125338417Y-57537733D01*
X125298429Y-57526904D01*
X125231497Y-57507001D01*
X125150951Y-57482005D01*
X125137334Y-57477685D01*
X125034502Y-57450867D01*
X124914481Y-57428200D01*
X124802410Y-57414393D01*
X124797382Y-57414014D01*
X124711837Y-57406277D01*
X124641449Y-57397094D01*
X124597758Y-57388072D01*
X124590922Y-57385257D01*
X124598394Y-57373619D01*
X124640249Y-57355370D01*
X124709574Y-57333214D01*
X124756819Y-57320365D01*
X124841058Y-57300003D01*
X124908820Y-57286169D01*
X124950490Y-57280700D01*
X124958724Y-57281834D01*
X124945229Y-57291789D01*
X124899751Y-57308367D01*
X124831472Y-57328313D01*
X124816512Y-57332259D01*
X124663549Y-57371932D01*
X124746983Y-57386746D01*
X124818757Y-57395769D01*
X124905956Y-57401813D01*
X124946834Y-57403031D01*
X125039217Y-57410094D01*
X125139228Y-57426280D01*
X125179667Y-57435750D01*
X125273208Y-57454469D01*
X125375488Y-57465766D01*
X125416365Y-57467248D01*
X125486954Y-57465123D01*
X125526357Y-57456066D01*
X125545583Y-57436616D01*
X125550069Y-57425212D01*
X125574359Y-57390097D01*
X125622463Y-57345000D01*
X125662142Y-57315050D01*
X125745345Y-57256139D01*
X125796938Y-57214938D01*
X125821518Y-57187225D01*
X125823685Y-57168776D01*
X125822917Y-57167390D01*
X125829481Y-57152097D01*
X125842655Y-57150000D01*
X125871935Y-57136120D01*
X125907996Y-57101975D01*
X125942346Y-57058799D01*
X125966495Y-57017832D01*
X125971952Y-56990310D01*
X125966910Y-56985553D01*
X125943823Y-56959964D01*
X125941667Y-56947152D01*
X125959644Y-56926341D01*
X126004359Y-56917450D01*
X126061989Y-56920283D01*
G37*
X126061989Y-56920283D02*
X126118711Y-56934642D01*
X126148624Y-56950116D01*
X126187782Y-56983503D01*
X126187983Y-57002430D01*
X126148596Y-57007820D01*
X126110695Y-57005432D01*
X126069498Y-57003437D01*
X126035663Y-57010182D01*
X126000221Y-57031069D01*
X125954206Y-57071496D01*
X125888648Y-57136866D01*
X125883154Y-57142456D01*
X125810473Y-57214107D01*
X125738493Y-57281146D01*
X125679024Y-57332706D01*
X125661209Y-57346694D01*
X125606603Y-57396105D01*
X125583836Y-57443373D01*
X125581834Y-57466137D01*
X125570639Y-57516959D01*
X125548352Y-57539318D01*
X125496424Y-57548229D01*
X125423618Y-57548474D01*
X125350462Y-57540208D01*
X125338417Y-57537733D01*
X125298429Y-57526904D01*
X125231497Y-57507001D01*
X125150951Y-57482005D01*
X125137334Y-57477685D01*
X125034502Y-57450867D01*
X124914481Y-57428200D01*
X124802410Y-57414393D01*
X124797382Y-57414014D01*
X124711837Y-57406277D01*
X124641449Y-57397094D01*
X124597758Y-57388072D01*
X124590922Y-57385257D01*
X124598394Y-57373619D01*
X124640249Y-57355370D01*
X124709574Y-57333214D01*
X124756819Y-57320365D01*
X124841058Y-57300003D01*
X124908820Y-57286169D01*
X124950490Y-57280700D01*
X124958724Y-57281834D01*
X124945229Y-57291789D01*
X124899751Y-57308367D01*
X124831472Y-57328313D01*
X124816512Y-57332259D01*
X124663549Y-57371932D01*
X124746983Y-57386746D01*
X124818757Y-57395769D01*
X124905956Y-57401813D01*
X124946834Y-57403031D01*
X125039217Y-57410094D01*
X125139228Y-57426280D01*
X125179667Y-57435750D01*
X125273208Y-57454469D01*
X125375488Y-57465766D01*
X125416365Y-57467248D01*
X125486954Y-57465123D01*
X125526357Y-57456066D01*
X125545583Y-57436616D01*
X125550069Y-57425212D01*
X125574359Y-57390097D01*
X125622463Y-57345000D01*
X125662142Y-57315050D01*
X125745345Y-57256139D01*
X125796938Y-57214938D01*
X125821518Y-57187225D01*
X125823685Y-57168776D01*
X125822917Y-57167390D01*
X125829481Y-57152097D01*
X125842655Y-57150000D01*
X125871935Y-57136120D01*
X125907996Y-57101975D01*
X125942346Y-57058799D01*
X125966495Y-57017832D01*
X125971952Y-56990310D01*
X125966910Y-56985553D01*
X125943823Y-56959964D01*
X125941667Y-56947152D01*
X125959644Y-56926341D01*
X126004359Y-56917450D01*
X126061989Y-56920283D01*
G36*
X125666500Y-57541583D02*
G01*
X125655917Y-57552166D01*
X125645334Y-57541583D01*
X125655917Y-57531000D01*
X125666500Y-57541583D01*
G37*
X125666500Y-57541583D02*
X125655917Y-57552166D01*
X125645334Y-57541583D01*
X125655917Y-57531000D01*
X125666500Y-57541583D01*
G36*
X124318499Y-57099359D02*
G01*
X124354513Y-57107759D01*
X124410477Y-57126032D01*
X124436315Y-57140447D01*
X124429189Y-57147014D01*
X124386259Y-57141743D01*
X124377349Y-57139859D01*
X124330046Y-57135983D01*
X124304018Y-57145521D01*
X124310422Y-57172064D01*
X124345119Y-57213214D01*
X124400324Y-57261429D01*
X124468251Y-57309171D01*
X124481167Y-57317096D01*
X124521919Y-57344175D01*
X124537036Y-57359903D01*
X124534084Y-57361508D01*
X124503788Y-57351387D01*
X124454448Y-57326187D01*
X124438834Y-57317096D01*
X124372131Y-57271675D01*
X124309336Y-57220804D01*
X124304806Y-57216633D01*
X124244862Y-57160583D01*
X124193786Y-57224083D01*
X124160492Y-57271868D01*
X124143260Y-57309080D01*
X124142605Y-57314041D01*
X124130086Y-57338036D01*
X124104872Y-57334043D01*
X124087388Y-57310660D01*
X124089075Y-57264076D01*
X124116362Y-57206585D01*
X124160598Y-57152159D01*
X124206705Y-57117885D01*
X124261452Y-57097628D01*
X124318499Y-57099359D01*
G37*
X124318499Y-57099359D02*
X124354513Y-57107759D01*
X124410477Y-57126032D01*
X124436315Y-57140447D01*
X124429189Y-57147014D01*
X124386259Y-57141743D01*
X124377349Y-57139859D01*
X124330046Y-57135983D01*
X124304018Y-57145521D01*
X124310422Y-57172064D01*
X124345119Y-57213214D01*
X124400324Y-57261429D01*
X124468251Y-57309171D01*
X124481167Y-57317096D01*
X124521919Y-57344175D01*
X124537036Y-57359903D01*
X124534084Y-57361508D01*
X124503788Y-57351387D01*
X124454448Y-57326187D01*
X124438834Y-57317096D01*
X124372131Y-57271675D01*
X124309336Y-57220804D01*
X124304806Y-57216633D01*
X124244862Y-57160583D01*
X124193786Y-57224083D01*
X124160492Y-57271868D01*
X124143260Y-57309080D01*
X124142605Y-57314041D01*
X124130086Y-57338036D01*
X124104872Y-57334043D01*
X124087388Y-57310660D01*
X124089075Y-57264076D01*
X124116362Y-57206585D01*
X124160598Y-57152159D01*
X124206705Y-57117885D01*
X124261452Y-57097628D01*
X124318499Y-57099359D01*
G36*
X125705386Y-57200709D02*
G01*
X125674485Y-57216972D01*
X125624167Y-57236471D01*
X125556491Y-57264154D01*
X125504223Y-57292438D01*
X125484250Y-57309008D01*
X125447449Y-57327854D01*
X125378580Y-57336855D01*
X125286754Y-57335988D01*
X125181082Y-57325228D01*
X125095250Y-57310026D01*
X125031202Y-57293999D01*
X125006838Y-57281015D01*
X125017409Y-57270691D01*
X125066392Y-57268181D01*
X125097612Y-57278397D01*
X125139493Y-57291518D01*
X125208465Y-57304105D01*
X125286792Y-57313159D01*
X125371362Y-57317975D01*
X125425430Y-57314185D01*
X125460195Y-57300475D01*
X125471696Y-57291478D01*
X125523778Y-57256180D01*
X125593034Y-57223074D01*
X125661032Y-57199945D01*
X125702862Y-57193879D01*
X125705386Y-57200709D01*
G37*
X125705386Y-57200709D02*
X125674485Y-57216972D01*
X125624167Y-57236471D01*
X125556491Y-57264154D01*
X125504223Y-57292438D01*
X125484250Y-57309008D01*
X125447449Y-57327854D01*
X125378580Y-57336855D01*
X125286754Y-57335988D01*
X125181082Y-57325228D01*
X125095250Y-57310026D01*
X125031202Y-57293999D01*
X125006838Y-57281015D01*
X125017409Y-57270691D01*
X125066392Y-57268181D01*
X125097612Y-57278397D01*
X125139493Y-57291518D01*
X125208465Y-57304105D01*
X125286792Y-57313159D01*
X125371362Y-57317975D01*
X125425430Y-57314185D01*
X125460195Y-57300475D01*
X125471696Y-57291478D01*
X125523778Y-57256180D01*
X125593034Y-57223074D01*
X125661032Y-57199945D01*
X125702862Y-57193879D01*
X125705386Y-57200709D01*
G36*
X125433276Y-56509097D02*
G01*
X125443401Y-56533491D01*
X125466493Y-56564333D01*
X125487406Y-56564672D01*
X125530079Y-56567505D01*
X125588930Y-56594267D01*
X125652261Y-56637026D01*
X125708377Y-56687851D01*
X125745578Y-56738808D01*
X125746250Y-56740193D01*
X125767736Y-56793137D01*
X125768147Y-56830582D01*
X125750476Y-56869271D01*
X125707467Y-56916182D01*
X125655917Y-56945101D01*
X125602214Y-56968314D01*
X125573522Y-57001374D01*
X125562368Y-57056747D01*
X125560991Y-57103455D01*
X125557368Y-57162737D01*
X125540898Y-57195836D01*
X125502352Y-57218746D01*
X125491875Y-57223223D01*
X125365977Y-57261066D01*
X125258486Y-57262052D01*
X125206228Y-57246196D01*
X125142460Y-57208873D01*
X125082458Y-57160522D01*
X125080252Y-57158342D01*
X125043370Y-57125042D01*
X125015896Y-57113733D01*
X125098412Y-57113733D01*
X125103562Y-57125562D01*
X125124875Y-57148286D01*
X125137127Y-57143624D01*
X125137334Y-57140665D01*
X125122299Y-57122762D01*
X125112896Y-57116228D01*
X125098412Y-57113733D01*
X125015896Y-57113733D01*
X125010257Y-57111412D01*
X124964180Y-57113826D01*
X124916534Y-57122857D01*
X124820326Y-57133202D01*
X124752370Y-57116714D01*
X124706476Y-57071178D01*
X124692177Y-57042582D01*
X124683123Y-56973378D01*
X124699940Y-56882374D01*
X124740138Y-56779197D01*
X124778694Y-56708404D01*
X124812780Y-56660427D01*
X124831040Y-56649403D01*
X124831046Y-56672127D01*
X124810369Y-56725396D01*
X124803008Y-56740490D01*
X124751117Y-56855553D01*
X124725786Y-56943240D01*
X124725938Y-57008242D01*
X124735579Y-57034354D01*
X124752942Y-57060503D01*
X124776879Y-57073942D01*
X124818723Y-57077228D01*
X124889808Y-57072918D01*
X124902001Y-57071916D01*
X124987072Y-57067699D01*
X125048593Y-57074034D01*
X125104634Y-57093732D01*
X125133216Y-57107881D01*
X125190638Y-57135697D01*
X125231046Y-57144305D01*
X125274356Y-57135196D01*
X125311597Y-57121226D01*
X125365798Y-57102123D01*
X125400821Y-57093884D01*
X125406550Y-57094661D01*
X125398012Y-57108028D01*
X125360970Y-57125316D01*
X125308506Y-57142525D01*
X125253703Y-57155657D01*
X125209642Y-57160712D01*
X125195956Y-57159035D01*
X125166105Y-57155424D01*
X125167682Y-57168898D01*
X125199022Y-57185207D01*
X125256827Y-57191529D01*
X125326525Y-57188274D01*
X125393545Y-57175853D01*
X125431986Y-57161452D01*
X125478720Y-57123128D01*
X125509024Y-57059320D01*
X125515602Y-57035662D01*
X125532389Y-56965970D01*
X125537388Y-56930664D01*
X125529822Y-56923253D01*
X125508915Y-56937245D01*
X125504285Y-56941033D01*
X125481409Y-56957853D01*
X125482119Y-56946862D01*
X125497248Y-56917223D01*
X125520057Y-56886360D01*
X125534227Y-56890764D01*
X125559752Y-56915371D01*
X125570160Y-56917166D01*
X125615013Y-56901211D01*
X125662972Y-56862941D01*
X125698896Y-56816748D01*
X125708834Y-56785353D01*
X125693537Y-56746712D01*
X125655089Y-56695333D01*
X125604655Y-56642650D01*
X125553397Y-56600097D01*
X125512481Y-56579106D01*
X125506859Y-56578500D01*
X125484305Y-56581170D01*
X125478464Y-56595747D01*
X125489451Y-56632082D01*
X125508028Y-56677679D01*
X125526655Y-56727975D01*
X125533509Y-56758604D01*
X125532679Y-56761710D01*
X125521367Y-56747743D01*
X125498723Y-56704043D01*
X125469601Y-56639992D01*
X125468945Y-56638472D01*
X125441750Y-56571537D01*
X125424595Y-56521529D01*
X125421186Y-56499258D01*
X125421194Y-56499250D01*
X125433276Y-56509097D01*
G37*
X125433276Y-56509097D02*
X125443401Y-56533491D01*
X125466493Y-56564333D01*
X125487406Y-56564672D01*
X125530079Y-56567505D01*
X125588930Y-56594267D01*
X125652261Y-56637026D01*
X125708377Y-56687851D01*
X125745578Y-56738808D01*
X125746250Y-56740193D01*
X125767736Y-56793137D01*
X125768147Y-56830582D01*
X125750476Y-56869271D01*
X125707467Y-56916182D01*
X125655917Y-56945101D01*
X125602214Y-56968314D01*
X125573522Y-57001374D01*
X125562368Y-57056747D01*
X125560991Y-57103455D01*
X125557368Y-57162737D01*
X125540898Y-57195836D01*
X125502352Y-57218746D01*
X125491875Y-57223223D01*
X125365977Y-57261066D01*
X125258486Y-57262052D01*
X125206228Y-57246196D01*
X125142460Y-57208873D01*
X125082458Y-57160522D01*
X125080252Y-57158342D01*
X125043370Y-57125042D01*
X125015896Y-57113733D01*
X125098412Y-57113733D01*
X125103562Y-57125562D01*
X125124875Y-57148286D01*
X125137127Y-57143624D01*
X125137334Y-57140665D01*
X125122299Y-57122762D01*
X125112896Y-57116228D01*
X125098412Y-57113733D01*
X125015896Y-57113733D01*
X125010257Y-57111412D01*
X124964180Y-57113826D01*
X124916534Y-57122857D01*
X124820326Y-57133202D01*
X124752370Y-57116714D01*
X124706476Y-57071178D01*
X124692177Y-57042582D01*
X124683123Y-56973378D01*
X124699940Y-56882374D01*
X124740138Y-56779197D01*
X124778694Y-56708404D01*
X124812780Y-56660427D01*
X124831040Y-56649403D01*
X124831046Y-56672127D01*
X124810369Y-56725396D01*
X124803008Y-56740490D01*
X124751117Y-56855553D01*
X124725786Y-56943240D01*
X124725938Y-57008242D01*
X124735579Y-57034354D01*
X124752942Y-57060503D01*
X124776879Y-57073942D01*
X124818723Y-57077228D01*
X124889808Y-57072918D01*
X124902001Y-57071916D01*
X124987072Y-57067699D01*
X125048593Y-57074034D01*
X125104634Y-57093732D01*
X125133216Y-57107881D01*
X125190638Y-57135697D01*
X125231046Y-57144305D01*
X125274356Y-57135196D01*
X125311597Y-57121226D01*
X125365798Y-57102123D01*
X125400821Y-57093884D01*
X125406550Y-57094661D01*
X125398012Y-57108028D01*
X125360970Y-57125316D01*
X125308506Y-57142525D01*
X125253703Y-57155657D01*
X125209642Y-57160712D01*
X125195956Y-57159035D01*
X125166105Y-57155424D01*
X125167682Y-57168898D01*
X125199022Y-57185207D01*
X125256827Y-57191529D01*
X125326525Y-57188274D01*
X125393545Y-57175853D01*
X125431986Y-57161452D01*
X125478720Y-57123128D01*
X125509024Y-57059320D01*
X125515602Y-57035662D01*
X125532389Y-56965970D01*
X125537388Y-56930664D01*
X125529822Y-56923253D01*
X125508915Y-56937245D01*
X125504285Y-56941033D01*
X125481409Y-56957853D01*
X125482119Y-56946862D01*
X125497248Y-56917223D01*
X125520057Y-56886360D01*
X125534227Y-56890764D01*
X125559752Y-56915371D01*
X125570160Y-56917166D01*
X125615013Y-56901211D01*
X125662972Y-56862941D01*
X125698896Y-56816748D01*
X125708834Y-56785353D01*
X125693537Y-56746712D01*
X125655089Y-56695333D01*
X125604655Y-56642650D01*
X125553397Y-56600097D01*
X125512481Y-56579106D01*
X125506859Y-56578500D01*
X125484305Y-56581170D01*
X125478464Y-56595747D01*
X125489451Y-56632082D01*
X125508028Y-56677679D01*
X125526655Y-56727975D01*
X125533509Y-56758604D01*
X125532679Y-56761710D01*
X125521367Y-56747743D01*
X125498723Y-56704043D01*
X125469601Y-56639992D01*
X125468945Y-56638472D01*
X125441750Y-56571537D01*
X125424595Y-56521529D01*
X125421186Y-56499258D01*
X125421194Y-56499250D01*
X125433276Y-56509097D01*
G36*
X125786445Y-57178222D02*
G01*
X125783539Y-57190805D01*
X125772334Y-57192333D01*
X125754911Y-57184588D01*
X125758222Y-57178222D01*
X125783342Y-57175688D01*
X125786445Y-57178222D01*
G37*
X125786445Y-57178222D02*
X125783539Y-57190805D01*
X125772334Y-57192333D01*
X125754911Y-57184588D01*
X125758222Y-57178222D01*
X125783342Y-57175688D01*
X125786445Y-57178222D01*
G36*
X124649786Y-56725821D02*
G01*
X124651513Y-56728305D01*
X124648540Y-56750860D01*
X124610718Y-56777733D01*
X124558911Y-56801794D01*
X124464052Y-56844980D01*
X124362820Y-56898154D01*
X124243479Y-56967621D01*
X124192117Y-56998879D01*
X124110750Y-57048842D01*
X124153084Y-56999528D01*
X124224262Y-56927256D01*
X124307239Y-56859580D01*
X124394892Y-56800378D01*
X124480096Y-56753524D01*
X124555729Y-56722896D01*
X124614667Y-56712370D01*
X124649786Y-56725821D01*
G37*
X124649786Y-56725821D02*
X124651513Y-56728305D01*
X124648540Y-56750860D01*
X124610718Y-56777733D01*
X124558911Y-56801794D01*
X124464052Y-56844980D01*
X124362820Y-56898154D01*
X124243479Y-56967621D01*
X124192117Y-56998879D01*
X124110750Y-57048842D01*
X124153084Y-56999528D01*
X124224262Y-56927256D01*
X124307239Y-56859580D01*
X124394892Y-56800378D01*
X124480096Y-56753524D01*
X124555729Y-56722896D01*
X124614667Y-56712370D01*
X124649786Y-56725821D01*
G36*
X124949738Y-56885416D02*
G01*
X124981974Y-56928942D01*
X125027843Y-56974736D01*
X125028470Y-56975269D01*
X125060745Y-57006344D01*
X125068925Y-57022326D01*
X125066914Y-57022894D01*
X125042234Y-57009240D01*
X125001861Y-56975001D01*
X124987539Y-56961128D01*
X124948657Y-56915768D01*
X124927587Y-56878546D01*
X124926310Y-56871169D01*
X124934530Y-56864499D01*
X124949738Y-56885416D01*
G37*
X124949738Y-56885416D02*
X124981974Y-56928942D01*
X125027843Y-56974736D01*
X125028470Y-56975269D01*
X125060745Y-57006344D01*
X125068925Y-57022326D01*
X125066914Y-57022894D01*
X125042234Y-57009240D01*
X125001861Y-56975001D01*
X124987539Y-56961128D01*
X124948657Y-56915768D01*
X124927587Y-56878546D01*
X124926310Y-56871169D01*
X124934530Y-56864499D01*
X124949738Y-56885416D01*
G36*
X126280334Y-56885416D02*
G01*
X126269750Y-56896000D01*
X126259167Y-56885416D01*
X126269750Y-56874833D01*
X126280334Y-56885416D01*
G37*
X126280334Y-56885416D02*
X126269750Y-56896000D01*
X126259167Y-56885416D01*
X126269750Y-56874833D01*
X126280334Y-56885416D01*
G36*
X125560667Y-56843083D02*
G01*
X125550084Y-56853666D01*
X125539500Y-56843083D01*
X125550084Y-56832500D01*
X125560667Y-56843083D01*
G37*
X125560667Y-56843083D02*
X125550084Y-56853666D01*
X125539500Y-56843083D01*
X125550084Y-56832500D01*
X125560667Y-56843083D01*
G36*
X125902750Y-56635461D02*
G01*
X125977206Y-56657308D01*
X126050295Y-56687523D01*
X126069833Y-56697594D01*
X126128755Y-56733651D01*
X126183800Y-56773885D01*
X126227385Y-56811636D01*
X126251928Y-56840243D01*
X126249846Y-56853044D01*
X126246981Y-56853196D01*
X126217822Y-56840992D01*
X126174950Y-56812267D01*
X126174500Y-56811921D01*
X126133341Y-56787246D01*
X126067719Y-56759194D01*
X125972527Y-56725867D01*
X125842662Y-56685368D01*
X125798792Y-56672308D01*
X125774136Y-56649259D01*
X125772334Y-56639787D01*
X125790196Y-56624734D01*
X125837041Y-56623948D01*
X125902750Y-56635461D01*
G37*
X125902750Y-56635461D02*
X125977206Y-56657308D01*
X126050295Y-56687523D01*
X126069833Y-56697594D01*
X126128755Y-56733651D01*
X126183800Y-56773885D01*
X126227385Y-56811636D01*
X126251928Y-56840243D01*
X126249846Y-56853044D01*
X126246981Y-56853196D01*
X126217822Y-56840992D01*
X126174950Y-56812267D01*
X126174500Y-56811921D01*
X126133341Y-56787246D01*
X126067719Y-56759194D01*
X125972527Y-56725867D01*
X125842662Y-56685368D01*
X125798792Y-56672308D01*
X125774136Y-56649259D01*
X125772334Y-56639787D01*
X125790196Y-56624734D01*
X125837041Y-56623948D01*
X125902750Y-56635461D01*
G36*
X124940637Y-56721621D02*
G01*
X124944045Y-56776774D01*
X124940210Y-56806288D01*
X124934489Y-56811236D01*
X124931278Y-56780839D01*
X124931005Y-56758416D01*
X124933089Y-56717425D01*
X124937869Y-56711206D01*
X124940637Y-56721621D01*
G37*
X124940637Y-56721621D02*
X124944045Y-56776774D01*
X124940210Y-56806288D01*
X124934489Y-56811236D01*
X124931278Y-56780839D01*
X124931005Y-56758416D01*
X124933089Y-56717425D01*
X124937869Y-56711206D01*
X124940637Y-56721621D01*
G36*
X124946095Y-56443301D02*
G01*
X124957496Y-56477395D01*
X124964728Y-56523327D01*
X124964462Y-56565885D01*
X124963466Y-56571534D01*
X124955112Y-56580306D01*
X124943891Y-56550559D01*
X124939060Y-56528712D01*
X124931306Y-56474232D01*
X124932033Y-56439962D01*
X124933855Y-56436256D01*
X124946095Y-56443301D01*
G37*
X124946095Y-56443301D02*
X124957496Y-56477395D01*
X124964728Y-56523327D01*
X124964462Y-56565885D01*
X124963466Y-56571534D01*
X124955112Y-56580306D01*
X124943891Y-56550559D01*
X124939060Y-56528712D01*
X124931306Y-56474232D01*
X124932033Y-56439962D01*
X124933855Y-56436256D01*
X124946095Y-56443301D01*
G36*
X124939778Y-56373888D02*
G01*
X124942311Y-56399008D01*
X124939778Y-56402111D01*
X124927194Y-56399205D01*
X124925667Y-56388000D01*
X124933411Y-56370577D01*
X124939778Y-56373888D01*
G37*
X124939778Y-56373888D02*
X124942311Y-56399008D01*
X124939778Y-56402111D01*
X124927194Y-56399205D01*
X124925667Y-56388000D01*
X124933411Y-56370577D01*
X124939778Y-56373888D01*
G36*
X124130119Y-56242339D02*
G01*
X124108488Y-56252771D01*
X124064623Y-56269520D01*
X124002337Y-56294933D01*
X123978459Y-56304996D01*
X123925582Y-56325472D01*
X123893237Y-56334085D01*
X123888500Y-56332728D01*
X123906294Y-56318083D01*
X123950979Y-56294995D01*
X124009512Y-56268957D01*
X124068848Y-56245460D01*
X124115943Y-56229997D01*
X124137577Y-56227855D01*
X124130119Y-56242339D01*
G37*
X124130119Y-56242339D02*
X124108488Y-56252771D01*
X124064623Y-56269520D01*
X124002337Y-56294933D01*
X123978459Y-56304996D01*
X123925582Y-56325472D01*
X123893237Y-56334085D01*
X123888500Y-56332728D01*
X123906294Y-56318083D01*
X123950979Y-56294995D01*
X124009512Y-56268957D01*
X124068848Y-56245460D01*
X124115943Y-56229997D01*
X124137577Y-56227855D01*
X124130119Y-56242339D01*
G36*
X123782667Y-56313916D02*
G01*
X123772084Y-56324500D01*
X123761500Y-56313916D01*
X123772084Y-56303333D01*
X123782667Y-56313916D01*
G37*
X123782667Y-56313916D02*
X123772084Y-56324500D01*
X123761500Y-56313916D01*
X123772084Y-56303333D01*
X123782667Y-56313916D01*
G36*
X123825000Y-56292750D02*
G01*
X123814417Y-56303333D01*
X123803834Y-56292750D01*
X123814417Y-56282166D01*
X123825000Y-56292750D01*
G37*
X123825000Y-56292750D02*
X123814417Y-56303333D01*
X123803834Y-56292750D01*
X123814417Y-56282166D01*
X123825000Y-56292750D01*
G36*
X123867334Y-56271583D02*
G01*
X123856750Y-56282166D01*
X123846167Y-56271583D01*
X123856750Y-56261000D01*
X123867334Y-56271583D01*
G37*
X123867334Y-56271583D02*
X123856750Y-56282166D01*
X123846167Y-56271583D01*
X123856750Y-56261000D01*
X123867334Y-56271583D01*
G36*
X124071897Y-56184673D02*
G01*
X124074200Y-56203404D01*
X124040999Y-56223094D01*
X124028050Y-56226865D01*
X123970939Y-56241692D01*
X123938092Y-56250645D01*
X123927067Y-56250854D01*
X123950573Y-56237108D01*
X123957792Y-56233596D01*
X123994215Y-56210211D01*
X124002548Y-56191711D01*
X124001889Y-56190944D01*
X124007435Y-56179652D01*
X124033139Y-56176333D01*
X124071897Y-56184673D01*
G37*
X124071897Y-56184673D02*
X124074200Y-56203404D01*
X124040999Y-56223094D01*
X124028050Y-56226865D01*
X123970939Y-56241692D01*
X123938092Y-56250645D01*
X123927067Y-56250854D01*
X123950573Y-56237108D01*
X123957792Y-56233596D01*
X123994215Y-56210211D01*
X124002548Y-56191711D01*
X124001889Y-56190944D01*
X124007435Y-56179652D01*
X124033139Y-56176333D01*
X124071897Y-56184673D01*
G36*
X124454268Y-56227045D02*
G01*
X124447955Y-56236665D01*
X124426486Y-56238162D01*
X124403901Y-56232992D01*
X124413698Y-56225374D01*
X124446779Y-56222850D01*
X124454268Y-56227045D01*
G37*
X124454268Y-56227045D02*
X124447955Y-56236665D01*
X124426486Y-56238162D01*
X124403901Y-56232992D01*
X124413698Y-56225374D01*
X124446779Y-56222850D01*
X124454268Y-56227045D01*
G36*
X124523500Y-56208083D02*
G01*
X124512917Y-56218666D01*
X124502334Y-56208083D01*
X124512917Y-56197500D01*
X124523500Y-56208083D01*
G37*
X124523500Y-56208083D02*
X124512917Y-56218666D01*
X124502334Y-56208083D01*
X124512917Y-56197500D01*
X124523500Y-56208083D01*
G36*
X124157934Y-56184711D02*
G01*
X124151621Y-56194332D01*
X124130153Y-56195828D01*
X124107567Y-56190659D01*
X124117365Y-56183040D01*
X124150446Y-56180517D01*
X124157934Y-56184711D01*
G37*
X124157934Y-56184711D02*
X124151621Y-56194332D01*
X124130153Y-56195828D01*
X124107567Y-56190659D01*
X124117365Y-56183040D01*
X124150446Y-56180517D01*
X124157934Y-56184711D01*
G36*
X124145922Y-56024970D02*
G01*
X124183706Y-55989674D01*
X124269500Y-55989674D01*
X124281594Y-55998206D01*
X124301762Y-55985408D01*
X124323951Y-55959526D01*
X124324337Y-55948947D01*
X124300835Y-55948494D01*
X124276399Y-55969853D01*
X124269500Y-55989674D01*
X124183706Y-55989674D01*
X124212843Y-55962456D01*
X124151213Y-55988820D01*
X124094117Y-56018100D01*
X124052542Y-56046123D01*
X124022923Y-56062969D01*
X124015500Y-56052970D01*
X124033692Y-56029760D01*
X124081268Y-55997880D01*
X124147729Y-55962852D01*
X124222576Y-55930200D01*
X124295312Y-55905447D01*
X124296599Y-55905091D01*
X124386367Y-55894140D01*
X124462215Y-55907987D01*
X124513084Y-55925622D01*
X124539740Y-55940475D01*
X124540949Y-55944356D01*
X124549114Y-55965832D01*
X124577426Y-56008881D01*
X124604713Y-56044972D01*
X124675343Y-56134150D01*
X124717198Y-56086450D01*
X124744022Y-56061536D01*
X124751377Y-56067793D01*
X124750770Y-56070500D01*
X124727995Y-56102356D01*
X124682801Y-56141457D01*
X124630767Y-56176379D01*
X124587470Y-56195700D01*
X124578578Y-56196749D01*
X124575914Y-56187796D01*
X124599771Y-56170291D01*
X124630967Y-56140176D01*
X124631659Y-56112926D01*
X124603519Y-56101758D01*
X124591277Y-56103198D01*
X124556324Y-56107016D01*
X124489302Y-56111952D01*
X124400435Y-56117319D01*
X124317125Y-56121622D01*
X124204543Y-56125848D01*
X124130557Y-56124450D01*
X124091585Y-56115407D01*
X124084044Y-56096695D01*
X124101129Y-56071114D01*
X124186636Y-56071114D01*
X124205212Y-56088629D01*
X124241031Y-56091666D01*
X124279687Y-56089554D01*
X124281046Y-56079470D01*
X124512199Y-56079470D01*
X124529680Y-56090599D01*
X124557097Y-56091666D01*
X124595234Y-56088462D01*
X124597716Y-56073069D01*
X124584998Y-56054625D01*
X124560648Y-56022203D01*
X124552371Y-56010478D01*
X124540721Y-56020737D01*
X124524470Y-56047520D01*
X124512199Y-56079470D01*
X124281046Y-56079470D01*
X124281507Y-56076057D01*
X124258464Y-56048833D01*
X124226420Y-56021614D01*
X124205713Y-56028517D01*
X124202591Y-56032958D01*
X124186636Y-56071114D01*
X124101129Y-56071114D01*
X124104351Y-56066291D01*
X124145922Y-56024970D01*
G37*
X124145922Y-56024970D02*
X124183706Y-55989674D01*
X124269500Y-55989674D01*
X124281594Y-55998206D01*
X124301762Y-55985408D01*
X124323951Y-55959526D01*
X124324337Y-55948947D01*
X124300835Y-55948494D01*
X124276399Y-55969853D01*
X124269500Y-55989674D01*
X124183706Y-55989674D01*
X124212843Y-55962456D01*
X124151213Y-55988820D01*
X124094117Y-56018100D01*
X124052542Y-56046123D01*
X124022923Y-56062969D01*
X124015500Y-56052970D01*
X124033692Y-56029760D01*
X124081268Y-55997880D01*
X124147729Y-55962852D01*
X124222576Y-55930200D01*
X124295312Y-55905447D01*
X124296599Y-55905091D01*
X124386367Y-55894140D01*
X124462215Y-55907987D01*
X124513084Y-55925622D01*
X124539740Y-55940475D01*
X124540949Y-55944356D01*
X124549114Y-55965832D01*
X124577426Y-56008881D01*
X124604713Y-56044972D01*
X124675343Y-56134150D01*
X124717198Y-56086450D01*
X124744022Y-56061536D01*
X124751377Y-56067793D01*
X124750770Y-56070500D01*
X124727995Y-56102356D01*
X124682801Y-56141457D01*
X124630767Y-56176379D01*
X124587470Y-56195700D01*
X124578578Y-56196749D01*
X124575914Y-56187796D01*
X124599771Y-56170291D01*
X124630967Y-56140176D01*
X124631659Y-56112926D01*
X124603519Y-56101758D01*
X124591277Y-56103198D01*
X124556324Y-56107016D01*
X124489302Y-56111952D01*
X124400435Y-56117319D01*
X124317125Y-56121622D01*
X124204543Y-56125848D01*
X124130557Y-56124450D01*
X124091585Y-56115407D01*
X124084044Y-56096695D01*
X124101129Y-56071114D01*
X124186636Y-56071114D01*
X124205212Y-56088629D01*
X124241031Y-56091666D01*
X124279687Y-56089554D01*
X124281046Y-56079470D01*
X124512199Y-56079470D01*
X124529680Y-56090599D01*
X124557097Y-56091666D01*
X124595234Y-56088462D01*
X124597716Y-56073069D01*
X124584998Y-56054625D01*
X124560648Y-56022203D01*
X124552371Y-56010478D01*
X124540721Y-56020737D01*
X124524470Y-56047520D01*
X124512199Y-56079470D01*
X124281046Y-56079470D01*
X124281507Y-56076057D01*
X124258464Y-56048833D01*
X124226420Y-56021614D01*
X124205713Y-56028517D01*
X124202591Y-56032958D01*
X124186636Y-56071114D01*
X124101129Y-56071114D01*
X124104351Y-56066291D01*
X124145922Y-56024970D01*
G36*
X124650500Y-56017583D02*
G01*
X124639917Y-56028166D01*
X124629334Y-56017583D01*
X124639917Y-56007000D01*
X124650500Y-56017583D01*
G37*
X124650500Y-56017583D02*
X124639917Y-56028166D01*
X124629334Y-56017583D01*
X124639917Y-56007000D01*
X124650500Y-56017583D01*
G36*
X124452945Y-55865888D02*
G01*
X124450039Y-55878472D01*
X124438834Y-55880000D01*
X124421411Y-55872255D01*
X124424722Y-55865888D01*
X124449842Y-55863355D01*
X124452945Y-55865888D01*
G37*
X124452945Y-55865888D02*
X124450039Y-55878472D01*
X124438834Y-55880000D01*
X124421411Y-55872255D01*
X124424722Y-55865888D01*
X124449842Y-55863355D01*
X124452945Y-55865888D01*
G36*
X125407043Y-55881785D02*
G01*
X125403279Y-55797597D01*
X125454834Y-55797597D01*
X125466427Y-55815942D01*
X125489657Y-55807527D01*
X125504408Y-55785827D01*
X125503468Y-55764350D01*
X125485506Y-55766925D01*
X125458173Y-55787765D01*
X125454834Y-55797597D01*
X125403279Y-55797597D01*
X125401917Y-55767153D01*
X125592417Y-55665247D01*
X125507750Y-55680336D01*
X125439647Y-55694840D01*
X125381460Y-55711036D01*
X125374081Y-55713629D01*
X125321152Y-55729429D01*
X125298769Y-55728417D01*
X125310776Y-55712552D01*
X125338417Y-55695438D01*
X125381683Y-55680171D01*
X125446424Y-55666843D01*
X125522712Y-55656263D01*
X125600620Y-55649240D01*
X125670218Y-55646583D01*
X125721581Y-55649099D01*
X125744779Y-55657598D01*
X125744263Y-55662379D01*
X125754357Y-55680411D01*
X125794733Y-55702000D01*
X125820652Y-55711274D01*
X125868783Y-55729886D01*
X125882002Y-55743465D01*
X125874296Y-55747445D01*
X125832188Y-55743693D01*
X125777221Y-55723693D01*
X125771787Y-55720967D01*
X125719879Y-55697367D01*
X125697140Y-55699382D01*
X125697121Y-55729745D01*
X125702055Y-55750533D01*
X125722195Y-55786580D01*
X125762991Y-55789907D01*
X125764716Y-55789585D01*
X125802779Y-55784846D01*
X125814667Y-55787198D01*
X125797085Y-55799145D01*
X125750204Y-55824807D01*
X125682822Y-55859439D01*
X125654628Y-55873492D01*
X125577205Y-55913365D01*
X125534202Y-55940296D01*
X125521067Y-55957877D01*
X125532920Y-55969554D01*
X125549141Y-55979420D01*
X125525642Y-55977583D01*
X125514339Y-55975497D01*
X125468182Y-55974312D01*
X125444298Y-55985755D01*
X125416390Y-55998983D01*
X125364465Y-56004311D01*
X125353043Y-56004117D01*
X125311723Y-56000602D01*
X125310644Y-55994939D01*
X125322502Y-55992067D01*
X125355633Y-55979232D01*
X125353343Y-55952247D01*
X125348215Y-55942033D01*
X125338175Y-55910274D01*
X125345021Y-55901166D01*
X125367710Y-55917884D01*
X125387933Y-55948791D01*
X125401428Y-55970325D01*
X125407802Y-55962593D01*
X125408165Y-55940857D01*
X125439167Y-55940857D01*
X125454672Y-55930712D01*
X125457460Y-55927977D01*
X125474179Y-55900225D01*
X125471912Y-55890023D01*
X125456167Y-55896375D01*
X125445611Y-55916128D01*
X125439167Y-55940857D01*
X125408165Y-55940857D01*
X125408505Y-55920503D01*
X125407043Y-55881785D01*
G37*
X125407043Y-55881785D02*
X125403279Y-55797597D01*
X125454834Y-55797597D01*
X125466427Y-55815942D01*
X125489657Y-55807527D01*
X125504408Y-55785827D01*
X125503468Y-55764350D01*
X125485506Y-55766925D01*
X125458173Y-55787765D01*
X125454834Y-55797597D01*
X125403279Y-55797597D01*
X125401917Y-55767153D01*
X125592417Y-55665247D01*
X125507750Y-55680336D01*
X125439647Y-55694840D01*
X125381460Y-55711036D01*
X125374081Y-55713629D01*
X125321152Y-55729429D01*
X125298769Y-55728417D01*
X125310776Y-55712552D01*
X125338417Y-55695438D01*
X125381683Y-55680171D01*
X125446424Y-55666843D01*
X125522712Y-55656263D01*
X125600620Y-55649240D01*
X125670218Y-55646583D01*
X125721581Y-55649099D01*
X125744779Y-55657598D01*
X125744263Y-55662379D01*
X125754357Y-55680411D01*
X125794733Y-55702000D01*
X125820652Y-55711274D01*
X125868783Y-55729886D01*
X125882002Y-55743465D01*
X125874296Y-55747445D01*
X125832188Y-55743693D01*
X125777221Y-55723693D01*
X125771787Y-55720967D01*
X125719879Y-55697367D01*
X125697140Y-55699382D01*
X125697121Y-55729745D01*
X125702055Y-55750533D01*
X125722195Y-55786580D01*
X125762991Y-55789907D01*
X125764716Y-55789585D01*
X125802779Y-55784846D01*
X125814667Y-55787198D01*
X125797085Y-55799145D01*
X125750204Y-55824807D01*
X125682822Y-55859439D01*
X125654628Y-55873492D01*
X125577205Y-55913365D01*
X125534202Y-55940296D01*
X125521067Y-55957877D01*
X125532920Y-55969554D01*
X125549141Y-55979420D01*
X125525642Y-55977583D01*
X125514339Y-55975497D01*
X125468182Y-55974312D01*
X125444298Y-55985755D01*
X125416390Y-55998983D01*
X125364465Y-56004311D01*
X125353043Y-56004117D01*
X125311723Y-56000602D01*
X125310644Y-55994939D01*
X125322502Y-55992067D01*
X125355633Y-55979232D01*
X125353343Y-55952247D01*
X125348215Y-55942033D01*
X125338175Y-55910274D01*
X125345021Y-55901166D01*
X125367710Y-55917884D01*
X125387933Y-55948791D01*
X125401428Y-55970325D01*
X125407802Y-55962593D01*
X125408165Y-55940857D01*
X125439167Y-55940857D01*
X125454672Y-55930712D01*
X125457460Y-55927977D01*
X125474179Y-55900225D01*
X125471912Y-55890023D01*
X125456167Y-55896375D01*
X125445611Y-55916128D01*
X125439167Y-55940857D01*
X125408165Y-55940857D01*
X125408505Y-55920503D01*
X125407043Y-55881785D01*
G36*
X126042312Y-55780762D02*
G01*
X126057547Y-55788456D01*
X126031004Y-55792934D01*
X126026334Y-55793202D01*
X125972009Y-55804225D01*
X125941667Y-55818536D01*
X125928522Y-55832301D01*
X125950607Y-55832373D01*
X125973417Y-55828152D01*
X126012572Y-55822457D01*
X126014392Y-55829953D01*
X126005167Y-55836986D01*
X125961133Y-55849575D01*
X125918886Y-55847338D01*
X125857293Y-55846369D01*
X125806551Y-55857895D01*
X125767476Y-55868537D01*
X125761604Y-55859069D01*
X125761618Y-55859047D01*
X125790203Y-55840068D01*
X125846029Y-55818545D01*
X125914523Y-55798543D01*
X125981111Y-55784127D01*
X126031220Y-55779361D01*
X126042312Y-55780762D01*
G37*
X126042312Y-55780762D02*
X126057547Y-55788456D01*
X126031004Y-55792934D01*
X126026334Y-55793202D01*
X125972009Y-55804225D01*
X125941667Y-55818536D01*
X125928522Y-55832301D01*
X125950607Y-55832373D01*
X125973417Y-55828152D01*
X126012572Y-55822457D01*
X126014392Y-55829953D01*
X126005167Y-55836986D01*
X125961133Y-55849575D01*
X125918886Y-55847338D01*
X125857293Y-55846369D01*
X125806551Y-55857895D01*
X125767476Y-55868537D01*
X125761604Y-55859069D01*
X125761618Y-55859047D01*
X125790203Y-55840068D01*
X125846029Y-55818545D01*
X125914523Y-55798543D01*
X125981111Y-55784127D01*
X126031220Y-55779361D01*
X126042312Y-55780762D01*
G36*
X125349000Y-55848250D02*
G01*
X125338417Y-55858833D01*
X125327834Y-55848250D01*
X125338417Y-55837666D01*
X125349000Y-55848250D01*
G37*
X125349000Y-55848250D02*
X125338417Y-55858833D01*
X125327834Y-55848250D01*
X125338417Y-55837666D01*
X125349000Y-55848250D01*
G36*
X125793500Y-55043916D02*
G01*
X125782917Y-55054500D01*
X125772334Y-55043916D01*
X125782917Y-55033333D01*
X125793500Y-55043916D01*
G37*
X125793500Y-55043916D02*
X125782917Y-55054500D01*
X125772334Y-55043916D01*
X125782917Y-55033333D01*
X125793500Y-55043916D01*
D12*
%TO.C,JP1*%
X123130000Y-44450000D02*
X125790000Y-44450000D01*
X125790000Y-44450000D02*
X125790000Y-49590000D01*
X123130000Y-43180000D02*
X123130000Y-41850000D01*
X123130000Y-49590000D02*
X125790000Y-49590000D01*
X123130000Y-44450000D02*
X123130000Y-49590000D01*
X123130000Y-41850000D02*
X124460000Y-41850000D01*
%TO.C,D1*%
X126020000Y-63690000D02*
X126020000Y-63534000D01*
X126020000Y-66006000D02*
X126020000Y-65850000D01*
X125500961Y-63690000D02*
G75*
G03*
X123418870Y-63690163I-1040961J-1080000D01*
G01*
X122787665Y-65848608D02*
G75*
G03*
X126020000Y-66005516I1672335J1078608D01*
G01*
X126020000Y-63534484D02*
G75*
G03*
X122787665Y-63691392I-1560000J-1235516D01*
G01*
X123418870Y-65849837D02*
G75*
G03*
X125500961Y-65850000I1041130J1079837D01*
G01*
%TO.C,J1*%
X111820000Y-67370000D02*
X110490000Y-67370000D01*
X111820000Y-64770000D02*
X111820000Y-62170000D01*
X109160000Y-64770000D02*
X109160000Y-62170000D01*
X111820000Y-64770000D02*
X109160000Y-64770000D01*
X111820000Y-62170000D02*
X109160000Y-62170000D01*
X111820000Y-66040000D02*
X111820000Y-67370000D01*
%TO.C,J2*%
X111820000Y-46990000D02*
X111820000Y-49590000D01*
X109160000Y-44390000D02*
X110490000Y-44390000D01*
X109160000Y-46990000D02*
X109160000Y-49590000D01*
X109160000Y-45720000D02*
X109160000Y-44390000D01*
X109160000Y-46990000D02*
X111820000Y-46990000D01*
X109160000Y-49590000D02*
X111820000Y-49590000D01*
%TO.C,RV1*%
X115205000Y-50970000D02*
X107910000Y-50970000D01*
X107910000Y-59460000D02*
X100910000Y-59460000D01*
X100910000Y-59460000D02*
X100910000Y-52220000D01*
X87910000Y-58960000D02*
X87910000Y-52720000D01*
X115205000Y-60710000D02*
X115205000Y-50970000D01*
X115205000Y-60710000D02*
X107910000Y-60710000D01*
X100910000Y-58960000D02*
X87910000Y-58960000D01*
X100910000Y-52720000D02*
X87910000Y-52720000D01*
X107910000Y-60710000D02*
X107910000Y-50970000D01*
X107910000Y-52220000D02*
X100910000Y-52220000D01*
%TO.C,D2*%
X120940000Y-63690000D02*
X120940000Y-63534000D01*
X120940000Y-66006000D02*
X120940000Y-65850000D01*
X120420961Y-63690000D02*
G75*
G03*
X118338870Y-63690163I-1040961J-1080000D01*
G01*
X117707665Y-65848608D02*
G75*
G03*
X120940000Y-66005516I1672335J1078608D01*
G01*
X118338870Y-65849837D02*
G75*
G03*
X120420961Y-65850000I1041130J1079837D01*
G01*
X120940000Y-63534484D02*
G75*
G03*
X117707665Y-63691392I-1560000J-1235516D01*
G01*
%TD*%
%LPC*%
D13*
%TO.C,JP1*%
X124460000Y-43180000D03*
D14*
X124460000Y-45720000D03*
X124460000Y-48260000D03*
%TD*%
D15*
%TO.C,D1*%
X125730000Y-64770000D03*
D16*
X123190000Y-64770000D03*
%TD*%
D13*
%TO.C,J1*%
X110490000Y-66040000D03*
D14*
X110490000Y-63500000D03*
%TD*%
D13*
%TO.C,J2*%
X110490000Y-45720000D03*
D14*
X110490000Y-48260000D03*
%TD*%
D17*
%TO.C,RV1*%
X113030000Y-53340000D03*
D16*
X113030000Y-55840000D03*
X113030000Y-58340000D03*
%TD*%
D15*
%TO.C,D2*%
X120650000Y-64770000D03*
D16*
X118110000Y-64770000D03*
%TD*%
D18*
%TO.C,J3*%
X140970000Y-44610000D03*
D19*
X140970000Y-46610000D03*
X140970000Y-48610000D03*
X140970000Y-50610000D03*
X140970000Y-52610000D03*
X140970000Y-54610000D03*
X140970000Y-56610000D03*
X140970000Y-58610000D03*
X140970000Y-60610000D03*
X140970000Y-62610000D03*
X140970000Y-64610000D03*
%TD*%
D20*
X123190000Y-58420000D03*
X135255000Y-64135000D03*
X135165500Y-53975000D03*
X109855000Y-42545000D03*
X125909503Y-48260000D03*
X135890000Y-43180000D03*
X117475000Y-57785000D03*
X109855000Y-55880000D03*
X128270000Y-59690000D03*
X137160000Y-50800000D03*
X137121076Y-53301076D03*
X130810000Y-48260000D03*
X135851076Y-49568924D03*
X135890000Y-58420000D03*
M02*
