%TF.GenerationSoftware,KiCad,Pcbnew,(6.0.6)*%
%TF.CreationDate,2022-08-05T15:31:58+01:00*%
%TF.ProjectId,c64 tape interface,63363420-7461-4706-9520-696e74657266,rev?*%
%TF.SameCoordinates,Original*%
%TF.FileFunction,Copper,L1,Top*%
%TF.FilePolarity,Positive*%
%FSLAX46Y46*%
G04 Gerber Fmt 4.6, Leading zero omitted, Abs format (unit mm)*
G04 Created by KiCad (PCBNEW (6.0.6)) date 2022-08-05 15:31:58*
%MOMM*%
%LPD*%
G01*
G04 APERTURE LIST*
G04 Aperture macros list*
%AMRoundRect*
0 Rectangle with rounded corners*
0 $1 Rounding radius*
0 $2 $3 $4 $5 $6 $7 $8 $9 X,Y pos of 4 corners*
0 Add a 4 corners polygon primitive as box body*
4,1,4,$2,$3,$4,$5,$6,$7,$8,$9,$2,$3,0*
0 Add four circle primitives for the rounded corners*
1,1,$1+$1,$2,$3*
1,1,$1+$1,$4,$5*
1,1,$1+$1,$6,$7*
1,1,$1+$1,$8,$9*
0 Add four rect primitives between the rounded corners*
20,1,$1+$1,$2,$3,$4,$5,0*
20,1,$1+$1,$4,$5,$6,$7,0*
20,1,$1+$1,$6,$7,$8,$9,0*
20,1,$1+$1,$8,$9,$2,$3,0*%
G04 Aperture macros list end*
%TA.AperFunction,ComponentPad*%
%ADD10R,1.700000X1.700000*%
%TD*%
%TA.AperFunction,ComponentPad*%
%ADD11O,1.700000X1.700000*%
%TD*%
%TA.AperFunction,ComponentPad*%
%ADD12R,1.800000X1.800000*%
%TD*%
%TA.AperFunction,ComponentPad*%
%ADD13C,1.800000*%
%TD*%
%TA.AperFunction,ComponentPad*%
%ADD14RoundRect,0.450000X0.450000X0.450000X-0.450000X0.450000X-0.450000X-0.450000X0.450000X-0.450000X0*%
%TD*%
%TA.AperFunction,ComponentPad*%
%ADD15R,1.350000X1.350000*%
%TD*%
%TA.AperFunction,ComponentPad*%
%ADD16O,1.350000X1.350000*%
%TD*%
%TA.AperFunction,ViaPad*%
%ADD17C,0.800000*%
%TD*%
%TA.AperFunction,Conductor*%
%ADD18C,0.250000*%
%TD*%
G04 APERTURE END LIST*
D10*
%TO.P,JP1,1,1*%
%TO.N,Net-(JP1-Pad1)*%
X124460000Y-43180000D03*
D11*
%TO.P,JP1,2,2*%
%TO.N,Net-(J3-Pad5)*%
X124460000Y-45720000D03*
%TO.P,JP1,3,3*%
%TO.N,Net-(JP1-Pad3)*%
X124460000Y-48260000D03*
%TD*%
D12*
%TO.P,D1,1,K*%
%TO.N,+5V*%
X125730000Y-64770000D03*
D13*
%TO.P,D1,2,A*%
%TO.N,Net-(D1-Pad2)*%
X123190000Y-64770000D03*
%TD*%
D10*
%TO.P,J1,1,In*%
%TO.N,Net-(C1-Pad2)*%
X110490000Y-66040000D03*
D11*
%TO.P,J1,2,Ext*%
%TO.N,GND*%
X110490000Y-63500000D03*
%TD*%
D10*
%TO.P,J2,1,In*%
%TO.N,Net-(C2-Pad2)*%
X110490000Y-45720000D03*
D11*
%TO.P,J2,2,Ext*%
%TO.N,GND*%
X110490000Y-48260000D03*
%TD*%
D14*
%TO.P,RV1,1,1*%
%TO.N,Net-(C2-Pad1)*%
X113030000Y-53340000D03*
D13*
%TO.P,RV1,2,2*%
%TO.N,Net-(R2-Pad1)*%
X113030000Y-55840000D03*
%TO.P,RV1,3,3*%
%TO.N,GND*%
X113030000Y-58340000D03*
%TD*%
D12*
%TO.P,D2,1,K*%
%TO.N,Net-(D2-Pad1)*%
X120650000Y-64770000D03*
D13*
%TO.P,D2,2,A*%
%TO.N,Net-(D2-Pad2)*%
X118110000Y-64770000D03*
%TD*%
D15*
%TO.P,J3,1,Pin_1*%
%TO.N,GND*%
X140970000Y-44610000D03*
D16*
%TO.P,J3,2,Pin_2*%
%TO.N,unconnected-(J3-Pad2)*%
X140970000Y-46610000D03*
%TO.P,J3,3,Pin_3*%
%TO.N,Net-(J3-Pad3)*%
X140970000Y-48610000D03*
%TO.P,J3,4,Pin_4*%
%TO.N,unconnected-(J3-Pad4)*%
X140970000Y-50610000D03*
%TO.P,J3,5,Pin_5*%
%TO.N,Net-(J3-Pad5)*%
X140970000Y-52610000D03*
%TO.P,J3,6,Pin_6*%
%TO.N,unconnected-(J3-Pad6)*%
X140970000Y-54610000D03*
%TO.P,J3,7,Pin_7*%
%TO.N,Net-(J3-Pad7)*%
X140970000Y-56610000D03*
%TO.P,J3,8,Pin_8*%
%TO.N,unconnected-(J3-Pad8)*%
X140970000Y-58610000D03*
%TO.P,J3,9,Pin_9*%
%TO.N,+5V*%
X140970000Y-60610000D03*
%TO.P,J3,10,Pin_10*%
%TO.N,unconnected-(J3-Pad10)*%
X140970000Y-62610000D03*
%TO.P,J3,11,Pin_11*%
%TO.N,GND*%
X140970000Y-64610000D03*
%TD*%
D17*
%TO.N,GND*%
X123190000Y-58420000D03*
X135255000Y-64135000D03*
X135165500Y-53975000D03*
X109855000Y-42545000D03*
X125909503Y-48260000D03*
X135890000Y-43180000D03*
X117475000Y-57785000D03*
X109855000Y-55880000D03*
%TO.N,+5V*%
X128270000Y-59690000D03*
%TO.N,Net-(J3-Pad5)*%
X137160000Y-50800000D03*
%TO.N,Net-(J3-Pad7)*%
X137121076Y-53301076D03*
%TO.N,Net-(JP1-Pad1)*%
X130810000Y-48260000D03*
%TO.N,Net-(R6-Pad1)*%
X135851076Y-49568924D03*
X135890000Y-58420000D03*
%TD*%
D18*
%TO.N,GND*%
X140377347Y-44610000D02*
X140970000Y-44610000D01*
X135126076Y-49469167D02*
X135126076Y-53907699D01*
X139365626Y-45029068D02*
X135551504Y-48843190D01*
X135165500Y-53975000D02*
X135145788Y-53955288D01*
X135209146Y-48985000D02*
X128237652Y-48985000D01*
X135267885Y-49126809D02*
X135551504Y-48843190D01*
X126487347Y-48260000D02*
X125909503Y-48260000D01*
X135267899Y-49126823D02*
G75*
G03*
X135209146Y-48985000I-58799J58723D01*
G01*
X135551488Y-48843174D02*
G75*
G02*
X135209146Y-48985000I-342388J342374D01*
G01*
X128237652Y-48985019D02*
G75*
G02*
X127362501Y-48622499I48J1237719D01*
G01*
X135267911Y-49126835D02*
G75*
G03*
X135126076Y-49469167I342289J-342365D01*
G01*
X140377347Y-44610036D02*
G75*
G03*
X139365626Y-45029068I-47J-1430764D01*
G01*
X135145783Y-53955293D02*
G75*
G02*
X135126076Y-53907699I47617J47593D01*
G01*
X127362465Y-48622535D02*
G75*
G03*
X126487347Y-48260000I-875165J-875065D01*
G01*
%TO.N,+5V*%
X128270000Y-59690000D02*
X126628025Y-61331974D01*
X125730000Y-63500000D02*
X125730000Y-64770000D01*
X128270000Y-59690000D02*
X139399461Y-59690000D01*
X140510000Y-60150000D02*
X140970000Y-60610000D01*
X125729985Y-63500000D02*
G75*
G02*
X126628026Y-61331975I3066015J0D01*
G01*
X139399461Y-59690016D02*
G75*
G02*
X140510000Y-60150000I39J-1570484D01*
G01*
%TO.N,Net-(J3-Pad5)*%
X138262893Y-51902893D02*
X137160000Y-50800000D01*
X139970000Y-52610000D02*
X140970000Y-52610000D01*
X139970000Y-52610003D02*
G75*
G02*
X138262894Y-51902892I0J2414203D01*
G01*
%TO.N,Net-(J3-Pad7)*%
X137121076Y-53301076D02*
X137391076Y-53301076D01*
X137851994Y-53491994D02*
X140970000Y-56610000D01*
X137852003Y-53491985D02*
G75*
G03*
X137391076Y-53301076I-460903J-460915D01*
G01*
%TO.N,Net-(JP1-Pad1)*%
X125095000Y-43180000D02*
X124460000Y-43180000D01*
X130810000Y-48260000D02*
X126179012Y-43629012D01*
X126179007Y-43629017D02*
G75*
G03*
X125095000Y-43180000I-1084007J-1083983D01*
G01*
%TO.N,Net-(R6-Pad1)*%
X135851076Y-49568924D02*
X135870538Y-49588386D01*
X135890000Y-49635371D02*
X135890000Y-58420000D01*
X135870535Y-49588389D02*
G75*
G02*
X135890000Y-49635371I-47035J-47011D01*
G01*
%TD*%
%TA.AperFunction,Conductor*%
%TO.N,+5V*%
G36*
X128451808Y-59333881D02*
G01*
X128506828Y-59362527D01*
X128514005Y-59366263D01*
X128514534Y-59366556D01*
X128573938Y-59401496D01*
X128574214Y-59401666D01*
X128626809Y-59434881D01*
X128626811Y-59434884D01*
X128626812Y-59434883D01*
X128675640Y-59465738D01*
X128723647Y-59493523D01*
X128723849Y-59493620D01*
X128723855Y-59493623D01*
X128754233Y-59508182D01*
X128773935Y-59517625D01*
X128829610Y-59537435D01*
X128829931Y-59537509D01*
X128829929Y-59537509D01*
X128893475Y-59552271D01*
X128893478Y-59552271D01*
X128893777Y-59552341D01*
X128894086Y-59552379D01*
X128894090Y-59552380D01*
X128938113Y-59557837D01*
X128969538Y-59561733D01*
X129016068Y-59563413D01*
X129048722Y-59564593D01*
X129056866Y-59568316D01*
X129060000Y-59576285D01*
X129060000Y-59803715D01*
X129056573Y-59811988D01*
X129048722Y-59815407D01*
X129025541Y-59816244D01*
X128969538Y-59818266D01*
X128938113Y-59822162D01*
X128894090Y-59827619D01*
X128894086Y-59827620D01*
X128893777Y-59827658D01*
X128893478Y-59827728D01*
X128893475Y-59827728D01*
X128855442Y-59836563D01*
X128829610Y-59842564D01*
X128773935Y-59862374D01*
X128773660Y-59862506D01*
X128723855Y-59886376D01*
X128723849Y-59886379D01*
X128723647Y-59886476D01*
X128675640Y-59914261D01*
X128626812Y-59945116D01*
X128574214Y-59978333D01*
X128573938Y-59978503D01*
X128523260Y-60008311D01*
X128514534Y-60013443D01*
X128514005Y-60013736D01*
X128451809Y-60046119D01*
X128442889Y-60046900D01*
X128438298Y-60044175D01*
X128070000Y-59690000D01*
X128369934Y-59401567D01*
X128438297Y-59335826D01*
X128446636Y-59332561D01*
X128451808Y-59333881D01*
G37*
%TD.AperFunction*%
%TD*%
%TA.AperFunction,Conductor*%
%TO.N,Net-(R6-Pad1)*%
G36*
X135841241Y-49377761D02*
G01*
X136219688Y-49702698D01*
X136223732Y-49710687D01*
X136222916Y-49715952D01*
X136194969Y-49785228D01*
X136194729Y-49785782D01*
X136164219Y-49851425D01*
X136164053Y-49851768D01*
X136134608Y-49909684D01*
X136134534Y-49909747D01*
X136134567Y-49909764D01*
X136106800Y-49963341D01*
X136081497Y-50015670D01*
X136059315Y-50070086D01*
X136040916Y-50129927D01*
X136040859Y-50130207D01*
X136040857Y-50130215D01*
X136034489Y-50161514D01*
X136026957Y-50198530D01*
X136018099Y-50279232D01*
X136018092Y-50279460D01*
X136018091Y-50279469D01*
X136015365Y-50364048D01*
X136011673Y-50372206D01*
X136003671Y-50375371D01*
X135776281Y-50375371D01*
X135768008Y-50371944D01*
X135764589Y-50364097D01*
X135764588Y-50364048D01*
X135761743Y-50285944D01*
X135760927Y-50279469D01*
X135752325Y-50211275D01*
X135752324Y-50211270D01*
X135752285Y-50210960D01*
X135737093Y-50147467D01*
X135716631Y-50092513D01*
X135691367Y-50043146D01*
X135661767Y-49996414D01*
X135628298Y-49949366D01*
X135599264Y-49909747D01*
X135591483Y-49899129D01*
X135591354Y-49898949D01*
X135551760Y-49842717D01*
X135551487Y-49842312D01*
X135513867Y-49783844D01*
X135512272Y-49775032D01*
X135514538Y-49770244D01*
X135557585Y-49715952D01*
X135824451Y-49379369D01*
X135832276Y-49375015D01*
X135841241Y-49377761D01*
G37*
%TD.AperFunction*%
%TD*%
%TA.AperFunction,Conductor*%
%TO.N,Net-(J3-Pad5)*%
G36*
X137529443Y-50668566D02*
G01*
X137537647Y-50672154D01*
X137540373Y-50676747D01*
X137561458Y-50743637D01*
X137561624Y-50744217D01*
X137578899Y-50810843D01*
X137578987Y-50811202D01*
X137592699Y-50871910D01*
X137592698Y-50871910D01*
X137592700Y-50871914D01*
X137605407Y-50928254D01*
X137619706Y-50981846D01*
X137619783Y-50982065D01*
X137619784Y-50982068D01*
X137638118Y-51034155D01*
X137638121Y-51034163D01*
X137638222Y-51034449D01*
X137663583Y-51087824D01*
X137663756Y-51088102D01*
X137663760Y-51088109D01*
X137698251Y-51143474D01*
X137698415Y-51143737D01*
X137698601Y-51143975D01*
X137698604Y-51143980D01*
X137745195Y-51203756D01*
X137745201Y-51203763D01*
X137745346Y-51203949D01*
X137759254Y-51218899D01*
X137799315Y-51261963D01*
X137802441Y-51270354D01*
X137799022Y-51278205D01*
X137638205Y-51439022D01*
X137629932Y-51442449D01*
X137621963Y-51439315D01*
X137591318Y-51410807D01*
X137563949Y-51385346D01*
X137563763Y-51385201D01*
X137563756Y-51385195D01*
X137503980Y-51338604D01*
X137503975Y-51338601D01*
X137503737Y-51338415D01*
X137503474Y-51338251D01*
X137448109Y-51303760D01*
X137448102Y-51303756D01*
X137447824Y-51303583D01*
X137394449Y-51278222D01*
X137394163Y-51278121D01*
X137394155Y-51278118D01*
X137342068Y-51259784D01*
X137342065Y-51259783D01*
X137341846Y-51259706D01*
X137288254Y-51245407D01*
X137231914Y-51232700D01*
X137231910Y-51232697D01*
X137231910Y-51232699D01*
X137171202Y-51218987D01*
X137170843Y-51218899D01*
X137104217Y-51201624D01*
X137103637Y-51201458D01*
X137036747Y-51180373D01*
X137029886Y-51174617D01*
X137028566Y-51169443D01*
X137018817Y-50670744D01*
X137022082Y-50662405D01*
X137030744Y-50658817D01*
X137529443Y-50668566D01*
G37*
%TD.AperFunction*%
%TD*%
%TA.AperFunction,Conductor*%
%TO.N,Net-(R6-Pad1)*%
G36*
X136011988Y-57633427D02*
G01*
X136015407Y-57641278D01*
X136018266Y-57720461D01*
X136027658Y-57796222D01*
X136042564Y-57860389D01*
X136062374Y-57916064D01*
X136086476Y-57966352D01*
X136114261Y-58014359D01*
X136114304Y-58014427D01*
X136114310Y-58014437D01*
X136145116Y-58063187D01*
X136145118Y-58063190D01*
X136178320Y-58115763D01*
X136178513Y-58116078D01*
X136213443Y-58175465D01*
X136213736Y-58175994D01*
X136246119Y-58238191D01*
X136246900Y-58247112D01*
X136244175Y-58251702D01*
X135898433Y-58611231D01*
X135890229Y-58614819D01*
X135881567Y-58611231D01*
X135535826Y-58251703D01*
X135532561Y-58243364D01*
X135533881Y-58238190D01*
X135566263Y-58175994D01*
X135566556Y-58175465D01*
X135601486Y-58116078D01*
X135601679Y-58115763D01*
X135634881Y-58063190D01*
X135634884Y-58063188D01*
X135634883Y-58063187D01*
X135665689Y-58014437D01*
X135665695Y-58014427D01*
X135665738Y-58014359D01*
X135693523Y-57966352D01*
X135717625Y-57916064D01*
X135737435Y-57860389D01*
X135752341Y-57796222D01*
X135761733Y-57720461D01*
X135764593Y-57641278D01*
X135768316Y-57633134D01*
X135776285Y-57630000D01*
X136003715Y-57630000D01*
X136011988Y-57633427D01*
G37*
%TD.AperFunction*%
%TD*%
%TA.AperFunction,Conductor*%
%TO.N,+5V*%
G36*
X140124507Y-59714745D02*
G01*
X140124585Y-59714768D01*
X140124596Y-59714771D01*
X140187854Y-59733063D01*
X140265590Y-59755542D01*
X140265713Y-59755572D01*
X140265723Y-59755575D01*
X140311029Y-59766738D01*
X140388055Y-59785717D01*
X140388154Y-59785738D01*
X140388160Y-59785739D01*
X140497331Y-59808479D01*
X140497339Y-59808480D01*
X140497394Y-59808492D01*
X140599104Y-59827093D01*
X140698541Y-59844719D01*
X140698723Y-59844752D01*
X140801423Y-59864632D01*
X140801794Y-59864710D01*
X140913164Y-59890038D01*
X140913626Y-59890153D01*
X141039307Y-59924175D01*
X141039773Y-59924312D01*
X141177578Y-59967824D01*
X141184435Y-59973583D01*
X141185750Y-59978641D01*
X141203463Y-60590186D01*
X141210531Y-60834231D01*
X141207345Y-60842600D01*
X141198718Y-60846269D01*
X140343171Y-60837596D01*
X140334933Y-60834086D01*
X140332061Y-60829183D01*
X140297576Y-60711327D01*
X140297304Y-60710189D01*
X140274959Y-60590540D01*
X140274849Y-60589832D01*
X140260752Y-60476177D01*
X140248805Y-60369142D01*
X140232865Y-60269487D01*
X140206746Y-60177616D01*
X140164262Y-60093934D01*
X140099229Y-60018848D01*
X140026832Y-59967824D01*
X140005942Y-59953101D01*
X140005939Y-59953099D01*
X140005459Y-59952761D01*
X139886666Y-59900439D01*
X139880476Y-59893969D01*
X139880338Y-59885869D01*
X139887740Y-59864710D01*
X139955513Y-59670957D01*
X139961479Y-59664280D01*
X139970231Y-59663713D01*
X140124507Y-59714745D01*
G37*
%TD.AperFunction*%
%TD*%
%TA.AperFunction,Conductor*%
%TO.N,Net-(J3-Pad7)*%
G36*
X137410081Y-53023959D02*
G01*
X137463290Y-53073387D01*
X137463297Y-53073393D01*
X137463452Y-53073537D01*
X137518260Y-53116862D01*
X137518440Y-53116983D01*
X137518447Y-53116988D01*
X137569624Y-53151359D01*
X137569788Y-53151469D01*
X137619485Y-53180616D01*
X137619571Y-53180663D01*
X137619578Y-53180667D01*
X137668795Y-53207565D01*
X137668870Y-53207607D01*
X137718952Y-53235456D01*
X137719369Y-53235699D01*
X137771738Y-53267719D01*
X137772343Y-53268116D01*
X137819877Y-53301497D01*
X137828548Y-53307587D01*
X137829218Y-53308095D01*
X137890808Y-53358321D01*
X137891422Y-53358858D01*
X137951417Y-53415180D01*
X137955102Y-53423339D01*
X137951681Y-53431981D01*
X137791004Y-53592658D01*
X137782731Y-53596085D01*
X137775234Y-53593367D01*
X137738294Y-53562535D01*
X137728760Y-53554577D01*
X137676977Y-53528580D01*
X137676173Y-53528430D01*
X137676169Y-53528429D01*
X137627974Y-53519455D01*
X137627973Y-53519455D01*
X137627173Y-53519306D01*
X137626365Y-53519381D01*
X137626364Y-53519381D01*
X137579055Y-53523776D01*
X137579052Y-53523777D01*
X137578434Y-53523834D01*
X137529841Y-53539244D01*
X137529484Y-53539413D01*
X137529479Y-53539415D01*
X137497453Y-53554577D01*
X137480476Y-53562614D01*
X137480328Y-53562696D01*
X137480317Y-53562702D01*
X137441844Y-53584113D01*
X137429423Y-53591025D01*
X137425307Y-53593367D01*
X137375964Y-53621441D01*
X137375575Y-53621653D01*
X137318993Y-53651069D01*
X137318169Y-53651457D01*
X137264899Y-53673937D01*
X137255945Y-53673996D01*
X137251406Y-53670699D01*
X136931413Y-53291198D01*
X136928700Y-53282665D01*
X136932816Y-53274712D01*
X136934768Y-53273379D01*
X137396528Y-53022253D01*
X137405433Y-53021311D01*
X137410081Y-53023959D01*
G37*
%TD.AperFunction*%
%TD*%
%TA.AperFunction,Conductor*%
%TO.N,+5V*%
G36*
X125970216Y-62645842D02*
G01*
X125977143Y-62651515D01*
X125978207Y-62659771D01*
X125923120Y-62889233D01*
X125904409Y-63093360D01*
X125904453Y-63093873D01*
X125904453Y-63093879D01*
X125915447Y-63221992D01*
X125919509Y-63269330D01*
X125963279Y-63425060D01*
X125963479Y-63425487D01*
X125963482Y-63425494D01*
X126015867Y-63537123D01*
X126030576Y-63568467D01*
X126116259Y-63707465D01*
X126215184Y-63849972D01*
X126322081Y-64003715D01*
X126322330Y-64004089D01*
X126422199Y-64161422D01*
X126431971Y-64176817D01*
X126432398Y-64177547D01*
X126535964Y-64370193D01*
X126536863Y-64379102D01*
X126534092Y-64383843D01*
X125738433Y-65211231D01*
X125730229Y-65214819D01*
X125721567Y-65211231D01*
X124925907Y-64383843D01*
X124925721Y-64383650D01*
X124922457Y-64375312D01*
X124923687Y-64370315D01*
X125027865Y-64161662D01*
X125027988Y-64161422D01*
X125124332Y-63979081D01*
X125124424Y-63978911D01*
X125211453Y-63820574D01*
X125211476Y-63820533D01*
X125291388Y-63676524D01*
X125291414Y-63676477D01*
X125349384Y-63568746D01*
X125366282Y-63537344D01*
X125366288Y-63537332D01*
X125366342Y-63537232D01*
X125438423Y-63393184D01*
X125509815Y-63234721D01*
X125582682Y-63052229D01*
X125640226Y-62889649D01*
X125659148Y-62836190D01*
X125659153Y-62836176D01*
X125659182Y-62836093D01*
X125737988Y-62587703D01*
X125743756Y-62580853D01*
X125752525Y-62580041D01*
X125970216Y-62645842D01*
G37*
%TD.AperFunction*%
%TD*%
%TA.AperFunction,Conductor*%
%TO.N,+5V*%
G36*
X128402407Y-60009661D02*
G01*
X128402364Y-60011868D01*
X128401434Y-60059443D01*
X128397846Y-60067647D01*
X128393253Y-60070373D01*
X128326376Y-60091454D01*
X128325795Y-60091621D01*
X128259126Y-60108907D01*
X128258775Y-60108992D01*
X128198090Y-60122698D01*
X128198090Y-60122697D01*
X128198087Y-60122698D01*
X128141745Y-60135407D01*
X128088153Y-60149706D01*
X128087934Y-60149783D01*
X128087931Y-60149784D01*
X128035844Y-60168118D01*
X128035836Y-60168121D01*
X128035550Y-60168222D01*
X127982175Y-60193582D01*
X127981897Y-60193755D01*
X127981890Y-60193759D01*
X127926525Y-60228250D01*
X127926262Y-60228414D01*
X127926024Y-60228600D01*
X127926019Y-60228603D01*
X127866243Y-60275194D01*
X127866236Y-60275200D01*
X127866050Y-60275345D01*
X127836807Y-60302550D01*
X127808037Y-60329314D01*
X127799646Y-60332440D01*
X127791795Y-60329021D01*
X127630977Y-60168204D01*
X127627550Y-60159931D01*
X127630683Y-60151964D01*
X127684653Y-60093949D01*
X127684798Y-60093763D01*
X127684804Y-60093756D01*
X127731395Y-60033980D01*
X127731398Y-60033975D01*
X127731584Y-60033737D01*
X127731748Y-60033474D01*
X127766239Y-59978109D01*
X127766243Y-59978102D01*
X127766416Y-59977824D01*
X127791777Y-59924449D01*
X127791878Y-59924163D01*
X127791881Y-59924155D01*
X127810215Y-59872068D01*
X127810216Y-59872065D01*
X127810293Y-59871846D01*
X127824592Y-59818254D01*
X127837299Y-59761914D01*
X127837302Y-59761910D01*
X127837300Y-59761910D01*
X127851012Y-59701202D01*
X127851100Y-59700843D01*
X127868375Y-59634218D01*
X127868541Y-59633637D01*
X127889627Y-59566746D01*
X127895383Y-59559886D01*
X127900557Y-59558566D01*
X128010092Y-59556424D01*
X128411421Y-59548579D01*
X128402407Y-60009661D01*
G37*
%TD.AperFunction*%
%TD*%
%TA.AperFunction,Conductor*%
%TO.N,Net-(J3-Pad7)*%
G36*
X140115585Y-55578055D02*
G01*
X140223842Y-55676424D01*
X140224090Y-55676649D01*
X140331072Y-55753344D01*
X140331420Y-55753527D01*
X140331424Y-55753530D01*
X140430878Y-55805976D01*
X140431248Y-55806171D01*
X140431641Y-55806312D01*
X140431644Y-55806313D01*
X140469074Y-55819714D01*
X140527588Y-55840663D01*
X140588530Y-55854507D01*
X140622854Y-55862304D01*
X140622858Y-55862305D01*
X140623066Y-55862352D01*
X140623280Y-55862384D01*
X140623282Y-55862384D01*
X140634829Y-55864090D01*
X140720652Y-55876770D01*
X140823186Y-55889434D01*
X140823437Y-55889468D01*
X140866011Y-55895802D01*
X140933685Y-55905872D01*
X140934389Y-55905999D01*
X141055313Y-55931625D01*
X141056244Y-55931863D01*
X141183345Y-55969936D01*
X141190286Y-55975592D01*
X141191685Y-55980913D01*
X141195334Y-56167588D01*
X141208410Y-56836483D01*
X141205145Y-56844822D01*
X141196483Y-56848410D01*
X140827900Y-56841205D01*
X140340913Y-56831685D01*
X140332710Y-56828097D01*
X140329935Y-56823344D01*
X140291863Y-56696244D01*
X140291625Y-56695313D01*
X140265999Y-56574389D01*
X140265872Y-56573685D01*
X140249470Y-56463455D01*
X140249431Y-56463167D01*
X140236781Y-56360744D01*
X140236770Y-56360652D01*
X140222352Y-56263066D01*
X140200663Y-56167588D01*
X140166171Y-56071248D01*
X140113344Y-55971072D01*
X140066694Y-55905999D01*
X140036842Y-55864359D01*
X140036841Y-55864357D01*
X140036649Y-55864090D01*
X140035026Y-55862304D01*
X139938055Y-55755585D01*
X139935027Y-55747158D01*
X139938441Y-55739444D01*
X140099444Y-55578441D01*
X140107717Y-55575014D01*
X140115585Y-55578055D01*
G37*
%TD.AperFunction*%
%TD*%
%TA.AperFunction,Conductor*%
%TO.N,Net-(J3-Pad5)*%
G36*
X140681875Y-52008366D02*
G01*
X141129716Y-52439033D01*
X141298731Y-52601567D01*
X141302319Y-52609771D01*
X141298731Y-52618433D01*
X141276625Y-52639691D01*
X140681683Y-53211818D01*
X140673344Y-53215083D01*
X140668417Y-53213888D01*
X140664201Y-53211818D01*
X140510151Y-53136193D01*
X140369011Y-53065492D01*
X140245254Y-53003352D01*
X140131781Y-52947730D01*
X140131770Y-52947725D01*
X140131741Y-52947711D01*
X140060557Y-52914698D01*
X140021490Y-52896580D01*
X140021443Y-52896560D01*
X140021432Y-52896555D01*
X139907357Y-52847893D01*
X139907282Y-52847861D01*
X139907215Y-52847835D01*
X139907195Y-52847827D01*
X139782168Y-52799570D01*
X139782157Y-52799566D01*
X139782056Y-52799527D01*
X139638711Y-52749534D01*
X139571497Y-52728123D01*
X139470233Y-52695866D01*
X139470202Y-52695856D01*
X139470147Y-52695839D01*
X139280394Y-52639691D01*
X139273433Y-52634058D01*
X139272468Y-52625243D01*
X139335190Y-52406783D01*
X139340767Y-52399777D01*
X139349075Y-52398613D01*
X139523665Y-52439033D01*
X139578563Y-52444450D01*
X139681345Y-52454592D01*
X139681350Y-52454592D01*
X139681815Y-52454638D01*
X139751129Y-52450419D01*
X139818118Y-52446341D01*
X139818122Y-52446340D01*
X139818622Y-52446310D01*
X139819114Y-52446193D01*
X139939549Y-52417548D01*
X139939555Y-52417546D01*
X139940005Y-52417439D01*
X140051880Y-52371411D01*
X140160166Y-52311615D01*
X140270780Y-52241437D01*
X140389477Y-52164373D01*
X140389771Y-52164188D01*
X140522379Y-52083667D01*
X140522981Y-52083326D01*
X140556059Y-52065828D01*
X140668295Y-52006457D01*
X140677209Y-52005618D01*
X140681875Y-52008366D01*
G37*
%TD.AperFunction*%
%TD*%
%TA.AperFunction,Conductor*%
%TO.N,Net-(JP1-Pad1)*%
G36*
X130348037Y-47620685D02*
G01*
X130378812Y-47649314D01*
X130406050Y-47674653D01*
X130406236Y-47674798D01*
X130406243Y-47674804D01*
X130466019Y-47721395D01*
X130466024Y-47721398D01*
X130466262Y-47721584D01*
X130466523Y-47721747D01*
X130466525Y-47721748D01*
X130521890Y-47756239D01*
X130521897Y-47756243D01*
X130522175Y-47756416D01*
X130575550Y-47781777D01*
X130575836Y-47781878D01*
X130575844Y-47781881D01*
X130627931Y-47800215D01*
X130628153Y-47800293D01*
X130681745Y-47814592D01*
X130738085Y-47827299D01*
X130738089Y-47827302D01*
X130738089Y-47827300D01*
X130798797Y-47841012D01*
X130799156Y-47841100D01*
X130865781Y-47858375D01*
X130866362Y-47858541D01*
X130933254Y-47879627D01*
X130940114Y-47885383D01*
X130941434Y-47890557D01*
X130951183Y-48389256D01*
X130947918Y-48397595D01*
X130939256Y-48401183D01*
X130440557Y-48391434D01*
X130432353Y-48387846D01*
X130429627Y-48383254D01*
X130408541Y-48316362D01*
X130408375Y-48315781D01*
X130391100Y-48249156D01*
X130391012Y-48248797D01*
X130377300Y-48188089D01*
X130377301Y-48188089D01*
X130377299Y-48188085D01*
X130364623Y-48131883D01*
X130364592Y-48131745D01*
X130350293Y-48078153D01*
X130350215Y-48077931D01*
X130331881Y-48025844D01*
X130331878Y-48025836D01*
X130331777Y-48025550D01*
X130306416Y-47972175D01*
X130306243Y-47971897D01*
X130306239Y-47971890D01*
X130271748Y-47916525D01*
X130271747Y-47916523D01*
X130271584Y-47916262D01*
X130247516Y-47885383D01*
X130224804Y-47856243D01*
X130224798Y-47856236D01*
X130224653Y-47856050D01*
X130186085Y-47814592D01*
X130170685Y-47798037D01*
X130167559Y-47789646D01*
X130170978Y-47781795D01*
X130331795Y-47620978D01*
X130340068Y-47617551D01*
X130348037Y-47620685D01*
G37*
%TD.AperFunction*%
%TD*%
%TA.AperFunction,Conductor*%
%TO.N,Net-(JP1-Pad1)*%
G36*
X125017050Y-42537829D02*
G01*
X125148486Y-42647758D01*
X125267741Y-42744017D01*
X125267772Y-42744041D01*
X125373438Y-42826332D01*
X125373445Y-42826337D01*
X125470774Y-42899926D01*
X125564894Y-42969981D01*
X125564907Y-42969991D01*
X125661019Y-43041739D01*
X125661108Y-43041807D01*
X125764172Y-43120288D01*
X125764308Y-43120392D01*
X125879857Y-43211085D01*
X125880006Y-43211205D01*
X126012924Y-43319085D01*
X126013065Y-43319201D01*
X126159777Y-43442134D01*
X126163918Y-43450074D01*
X126161178Y-43458679D01*
X126064552Y-43572357D01*
X126013790Y-43632077D01*
X126005821Y-43636161D01*
X125998173Y-43634090D01*
X125868898Y-43543757D01*
X125868895Y-43543755D01*
X125868299Y-43543339D01*
X125742114Y-43495774D01*
X125663330Y-43491778D01*
X125625825Y-43489876D01*
X125624956Y-43489832D01*
X125624113Y-43490044D01*
X125624111Y-43490044D01*
X125514058Y-43517695D01*
X125514054Y-43517696D01*
X125513443Y-43517850D01*
X125404191Y-43572167D01*
X125403907Y-43572355D01*
X125403903Y-43572357D01*
X125320431Y-43627531D01*
X125293816Y-43645123D01*
X125293708Y-43645202D01*
X125179028Y-43728987D01*
X125178904Y-43729077D01*
X125056467Y-43816089D01*
X125055843Y-43816503D01*
X124922658Y-43898875D01*
X124921539Y-43899485D01*
X124781314Y-43966342D01*
X124772372Y-43966809D01*
X124767573Y-43963597D01*
X124342452Y-43490044D01*
X124045392Y-43159140D01*
X124042415Y-43150695D01*
X124046282Y-43142619D01*
X124047842Y-43141438D01*
X124676012Y-42743989D01*
X125003290Y-42536918D01*
X125012113Y-42535390D01*
X125017050Y-42537829D01*
G37*
%TD.AperFunction*%
%TD*%
%TA.AperFunction,Conductor*%
%TO.N,+5V*%
G36*
X140124507Y-59714745D02*
G01*
X140124585Y-59714768D01*
X140124596Y-59714771D01*
X140187854Y-59733063D01*
X140265590Y-59755542D01*
X140265713Y-59755572D01*
X140265723Y-59755575D01*
X140311029Y-59766738D01*
X140388055Y-59785717D01*
X140388154Y-59785738D01*
X140388160Y-59785739D01*
X140497331Y-59808479D01*
X140497339Y-59808480D01*
X140497394Y-59808492D01*
X140599104Y-59827093D01*
X140698541Y-59844719D01*
X140698723Y-59844752D01*
X140801423Y-59864632D01*
X140801794Y-59864710D01*
X140913164Y-59890038D01*
X140913626Y-59890153D01*
X141039307Y-59924175D01*
X141039773Y-59924312D01*
X141177578Y-59967824D01*
X141184435Y-59973583D01*
X141185750Y-59978641D01*
X141203463Y-60590186D01*
X141210531Y-60834231D01*
X141207345Y-60842600D01*
X141198718Y-60846269D01*
X140343171Y-60837596D01*
X140334933Y-60834086D01*
X140332061Y-60829183D01*
X140297576Y-60711327D01*
X140297304Y-60710189D01*
X140274959Y-60590540D01*
X140274849Y-60589832D01*
X140260752Y-60476177D01*
X140248805Y-60369142D01*
X140232865Y-60269487D01*
X140206746Y-60177616D01*
X140164262Y-60093934D01*
X140099229Y-60018848D01*
X140026832Y-59967824D01*
X140005942Y-59953101D01*
X140005939Y-59953099D01*
X140005459Y-59952761D01*
X139886666Y-59900439D01*
X139880476Y-59893969D01*
X139880338Y-59885869D01*
X139887740Y-59864710D01*
X139955513Y-59670957D01*
X139961479Y-59664280D01*
X139970231Y-59663713D01*
X140124507Y-59714745D01*
G37*
%TD.AperFunction*%
%TD*%
%TA.AperFunction,Conductor*%
%TO.N,Net-(J3-Pad5)*%
G36*
X140681875Y-52008366D02*
G01*
X141129716Y-52439033D01*
X141298731Y-52601567D01*
X141302319Y-52609771D01*
X141298731Y-52618433D01*
X141276625Y-52639691D01*
X140681683Y-53211818D01*
X140673344Y-53215083D01*
X140668417Y-53213888D01*
X140664201Y-53211818D01*
X140510151Y-53136193D01*
X140369011Y-53065492D01*
X140245254Y-53003352D01*
X140131781Y-52947730D01*
X140131770Y-52947725D01*
X140131741Y-52947711D01*
X140060557Y-52914698D01*
X140021490Y-52896580D01*
X140021443Y-52896560D01*
X140021432Y-52896555D01*
X139907357Y-52847893D01*
X139907282Y-52847861D01*
X139907215Y-52847835D01*
X139907195Y-52847827D01*
X139782168Y-52799570D01*
X139782157Y-52799566D01*
X139782056Y-52799527D01*
X139638711Y-52749534D01*
X139571497Y-52728123D01*
X139470233Y-52695866D01*
X139470202Y-52695856D01*
X139470147Y-52695839D01*
X139280394Y-52639691D01*
X139273433Y-52634058D01*
X139272468Y-52625243D01*
X139335190Y-52406783D01*
X139340767Y-52399777D01*
X139349075Y-52398613D01*
X139523665Y-52439033D01*
X139578563Y-52444450D01*
X139681345Y-52454592D01*
X139681350Y-52454592D01*
X139681815Y-52454638D01*
X139751129Y-52450419D01*
X139818118Y-52446341D01*
X139818122Y-52446340D01*
X139818622Y-52446310D01*
X139819114Y-52446193D01*
X139939549Y-52417548D01*
X139939555Y-52417546D01*
X139940005Y-52417439D01*
X140051880Y-52371411D01*
X140160166Y-52311615D01*
X140270780Y-52241437D01*
X140389477Y-52164373D01*
X140389771Y-52164188D01*
X140522379Y-52083667D01*
X140522981Y-52083326D01*
X140556059Y-52065828D01*
X140668295Y-52006457D01*
X140677209Y-52005618D01*
X140681875Y-52008366D01*
G37*
%TD.AperFunction*%
%TD*%
%TA.AperFunction,Conductor*%
%TO.N,Net-(J3-Pad7)*%
G36*
X140115585Y-55578055D02*
G01*
X140223842Y-55676424D01*
X140224090Y-55676649D01*
X140331072Y-55753344D01*
X140331420Y-55753527D01*
X140331424Y-55753530D01*
X140430878Y-55805976D01*
X140431248Y-55806171D01*
X140431641Y-55806312D01*
X140431644Y-55806313D01*
X140469074Y-55819714D01*
X140527588Y-55840663D01*
X140588530Y-55854507D01*
X140622854Y-55862304D01*
X140622858Y-55862305D01*
X140623066Y-55862352D01*
X140623280Y-55862384D01*
X140623282Y-55862384D01*
X140634829Y-55864090D01*
X140720652Y-55876770D01*
X140823186Y-55889434D01*
X140823437Y-55889468D01*
X140866011Y-55895802D01*
X140933685Y-55905872D01*
X140934389Y-55905999D01*
X141055313Y-55931625D01*
X141056244Y-55931863D01*
X141183345Y-55969936D01*
X141190286Y-55975592D01*
X141191685Y-55980913D01*
X141195334Y-56167588D01*
X141208410Y-56836483D01*
X141205145Y-56844822D01*
X141196483Y-56848410D01*
X140827900Y-56841205D01*
X140340913Y-56831685D01*
X140332710Y-56828097D01*
X140329935Y-56823344D01*
X140291863Y-56696244D01*
X140291625Y-56695313D01*
X140265999Y-56574389D01*
X140265872Y-56573685D01*
X140249470Y-56463455D01*
X140249431Y-56463167D01*
X140236781Y-56360744D01*
X140236770Y-56360652D01*
X140222352Y-56263066D01*
X140200663Y-56167588D01*
X140166171Y-56071248D01*
X140113344Y-55971072D01*
X140066694Y-55905999D01*
X140036842Y-55864359D01*
X140036841Y-55864357D01*
X140036649Y-55864090D01*
X140035026Y-55862304D01*
X139938055Y-55755585D01*
X139935027Y-55747158D01*
X139938441Y-55739444D01*
X140099444Y-55578441D01*
X140107717Y-55575014D01*
X140115585Y-55578055D01*
G37*
%TD.AperFunction*%
%TD*%
%TA.AperFunction,Conductor*%
%TO.N,GND*%
G36*
X142943621Y-41168502D02*
G01*
X142990114Y-41222158D01*
X143001500Y-41274500D01*
X143001500Y-67945500D01*
X142981498Y-68013621D01*
X142927842Y-68060114D01*
X142875500Y-68071500D01*
X108584500Y-68071500D01*
X108516379Y-68051498D01*
X108469886Y-67997842D01*
X108458500Y-67945500D01*
X108458500Y-66938134D01*
X109131500Y-66938134D01*
X109138255Y-67000316D01*
X109189385Y-67136705D01*
X109276739Y-67253261D01*
X109393295Y-67340615D01*
X109529684Y-67391745D01*
X109591866Y-67398500D01*
X111388134Y-67398500D01*
X111450316Y-67391745D01*
X111586705Y-67340615D01*
X111703261Y-67253261D01*
X111790615Y-67136705D01*
X111841745Y-67000316D01*
X111848500Y-66938134D01*
X111848500Y-65141866D01*
X111841745Y-65079684D01*
X111790615Y-64943295D01*
X111703261Y-64826739D01*
X111586705Y-64739385D01*
X111576259Y-64735469D01*
X116697095Y-64735469D01*
X116697392Y-64740622D01*
X116697392Y-64740625D01*
X116704735Y-64867973D01*
X116710427Y-64966697D01*
X116711564Y-64971743D01*
X116711565Y-64971749D01*
X116734222Y-65072285D01*
X116761346Y-65192642D01*
X116763288Y-65197424D01*
X116763289Y-65197428D01*
X116795958Y-65277882D01*
X116848484Y-65407237D01*
X116969501Y-65604719D01*
X117121147Y-65779784D01*
X117299349Y-65927730D01*
X117499322Y-66044584D01*
X117715694Y-66127209D01*
X117720760Y-66128240D01*
X117720761Y-66128240D01*
X117773846Y-66139040D01*
X117942656Y-66173385D01*
X118072089Y-66178131D01*
X118168949Y-66181683D01*
X118168953Y-66181683D01*
X118174113Y-66181872D01*
X118179233Y-66181216D01*
X118179235Y-66181216D01*
X118253166Y-66171745D01*
X118403847Y-66152442D01*
X118408795Y-66150957D01*
X118408802Y-66150956D01*
X118620747Y-66087369D01*
X118625690Y-66085886D01*
X118706236Y-66046427D01*
X118829049Y-65986262D01*
X118829052Y-65986260D01*
X118833684Y-65983991D01*
X119022243Y-65849494D01*
X119067309Y-65804585D01*
X119129681Y-65770669D01*
X119200487Y-65775857D01*
X119257249Y-65818503D01*
X119274231Y-65849607D01*
X119299385Y-65916705D01*
X119386739Y-66033261D01*
X119503295Y-66120615D01*
X119639684Y-66171745D01*
X119701866Y-66178500D01*
X121598134Y-66178500D01*
X121660316Y-66171745D01*
X121796705Y-66120615D01*
X121913261Y-66033261D01*
X122000615Y-65916705D01*
X122025180Y-65851178D01*
X122067822Y-65794414D01*
X122134383Y-65769714D01*
X122203732Y-65784921D01*
X122223647Y-65798464D01*
X122288724Y-65852492D01*
X122379349Y-65927730D01*
X122579322Y-66044584D01*
X122795694Y-66127209D01*
X122800760Y-66128240D01*
X122800761Y-66128240D01*
X122853846Y-66139040D01*
X123022656Y-66173385D01*
X123152089Y-66178131D01*
X123248949Y-66181683D01*
X123248953Y-66181683D01*
X123254113Y-66181872D01*
X123259233Y-66181216D01*
X123259235Y-66181216D01*
X123333166Y-66171745D01*
X123483847Y-66152442D01*
X123488795Y-66150957D01*
X123488802Y-66150956D01*
X123700747Y-66087369D01*
X123705690Y-66085886D01*
X123786236Y-66046427D01*
X123909049Y-65986262D01*
X123909052Y-65986260D01*
X123913684Y-65983991D01*
X124102243Y-65849494D01*
X124147309Y-65804585D01*
X124209681Y-65770669D01*
X124280487Y-65775857D01*
X124337249Y-65818503D01*
X124354231Y-65849607D01*
X124379385Y-65916705D01*
X124466739Y-66033261D01*
X124583295Y-66120615D01*
X124719684Y-66171745D01*
X124781866Y-66178500D01*
X126678134Y-66178500D01*
X126740316Y-66171745D01*
X126876705Y-66120615D01*
X126993261Y-66033261D01*
X127080615Y-65916705D01*
X127131745Y-65780316D01*
X127138500Y-65718134D01*
X127138500Y-64876962D01*
X139817158Y-64876962D01*
X139848656Y-65000985D01*
X139852497Y-65011832D01*
X139938685Y-65198789D01*
X139944436Y-65208750D01*
X140063254Y-65376873D01*
X140070720Y-65385615D01*
X140218191Y-65529275D01*
X140227124Y-65536509D01*
X140398299Y-65650884D01*
X140408409Y-65656374D01*
X140597566Y-65737642D01*
X140608499Y-65741194D01*
X140698332Y-65761521D01*
X140712405Y-65760632D01*
X140716000Y-65751233D01*
X140716000Y-65750512D01*
X141224000Y-65750512D01*
X141227966Y-65764018D01*
X141241883Y-65766011D01*
X141252817Y-65763386D01*
X141447763Y-65697210D01*
X141458272Y-65692531D01*
X141637882Y-65591944D01*
X141647375Y-65585420D01*
X141805653Y-65453782D01*
X141813782Y-65445653D01*
X141945420Y-65287375D01*
X141951944Y-65277882D01*
X142052531Y-65098272D01*
X142057210Y-65087763D01*
X142123386Y-64892817D01*
X142126017Y-64881857D01*
X142124040Y-64867992D01*
X142110474Y-64864000D01*
X141242115Y-64864000D01*
X141226876Y-64868475D01*
X141225671Y-64869865D01*
X141224000Y-64877548D01*
X141224000Y-65750512D01*
X140716000Y-65750512D01*
X140716000Y-64882115D01*
X140711525Y-64866876D01*
X140710135Y-64865671D01*
X140702452Y-64864000D01*
X139831981Y-64864000D01*
X139818450Y-64867973D01*
X139817158Y-64876962D01*
X127138500Y-64876962D01*
X127138500Y-63821866D01*
X127131745Y-63759684D01*
X127080615Y-63623295D01*
X126993261Y-63506739D01*
X126876705Y-63419385D01*
X126740316Y-63368255D01*
X126678134Y-63361500D01*
X126580738Y-63361500D01*
X126512617Y-63341498D01*
X126466673Y-63289027D01*
X126450569Y-63254710D01*
X126443334Y-63235277D01*
X126443027Y-63234183D01*
X126430201Y-63188549D01*
X126425964Y-63165236D01*
X126420881Y-63105991D01*
X126420946Y-63083720D01*
X126430259Y-62982106D01*
X126433214Y-62964193D01*
X126477234Y-62780834D01*
X126477238Y-62780815D01*
X126477520Y-62779641D01*
X126479744Y-62768470D01*
X126482239Y-62758208D01*
X126498036Y-62703378D01*
X126502700Y-62690050D01*
X126601682Y-62451091D01*
X126607812Y-62438360D01*
X126732921Y-62211997D01*
X126740439Y-62200034D01*
X126890100Y-61989108D01*
X126898910Y-61978060D01*
X126912675Y-61962658D01*
X126971115Y-61897265D01*
X127048565Y-61810600D01*
X127065811Y-61794599D01*
X127068483Y-61792549D01*
X127068487Y-61792545D01*
X127074512Y-61787922D01*
X127096496Y-61760482D01*
X127105735Y-61750168D01*
X128126383Y-60729521D01*
X128143659Y-60715088D01*
X128154097Y-60707847D01*
X128157796Y-60705281D01*
X128195381Y-60670316D01*
X128203731Y-60663202D01*
X128208619Y-60659392D01*
X128253598Y-60637028D01*
X128262106Y-60634758D01*
X128266853Y-60633589D01*
X128311078Y-60623613D01*
X128311320Y-60623558D01*
X128311448Y-60623529D01*
X128371779Y-60609904D01*
X128371835Y-60609891D01*
X128371897Y-60609877D01*
X128379634Y-60608067D01*
X128379985Y-60607982D01*
X128381285Y-60607656D01*
X128387607Y-60606071D01*
X128387657Y-60606058D01*
X128388005Y-60605971D01*
X128388333Y-60605886D01*
X128454286Y-60588786D01*
X128454345Y-60588770D01*
X128454674Y-60588685D01*
X128454982Y-60588601D01*
X128455049Y-60588583D01*
X128462036Y-60586673D01*
X128467649Y-60585139D01*
X128468230Y-60584972D01*
X128480754Y-60581199D01*
X128481123Y-60581083D01*
X128481161Y-60581071D01*
X128544154Y-60561214D01*
X128547631Y-60560118D01*
X128549055Y-60559481D01*
X128552288Y-60558794D01*
X128645840Y-60517142D01*
X128655392Y-60513349D01*
X128684701Y-60503073D01*
X128684715Y-60503067D01*
X128688950Y-60501582D01*
X128701673Y-60494958D01*
X128750782Y-60469389D01*
X128750833Y-60469362D01*
X128751146Y-60469199D01*
X128762806Y-60462936D01*
X128763335Y-60462643D01*
X128774869Y-60456058D01*
X128834273Y-60421118D01*
X128843239Y-60415721D01*
X128843515Y-60415551D01*
X128848403Y-60412502D01*
X128901001Y-60379285D01*
X128901121Y-60379209D01*
X128939442Y-60354994D01*
X128943591Y-60352483D01*
X128951252Y-60348049D01*
X128998850Y-60332062D01*
X129005011Y-60331299D01*
X129015951Y-60330425D01*
X129059644Y-60328848D01*
X129065839Y-60328624D01*
X129065842Y-60328624D01*
X129067250Y-60328573D01*
X129068640Y-60328461D01*
X129068652Y-60328460D01*
X129104926Y-60325529D01*
X129112803Y-60324893D01*
X129112902Y-60324866D01*
X129128537Y-60323500D01*
X139349457Y-60323500D01*
X139365900Y-60324578D01*
X139392794Y-60328118D01*
X139408073Y-60326431D01*
X139431782Y-60326058D01*
X139536178Y-60334272D01*
X139555699Y-60337363D01*
X139600216Y-60348050D01*
X139647329Y-60359360D01*
X139708899Y-60394711D01*
X139741583Y-60457737D01*
X139743139Y-60467901D01*
X139746899Y-60501582D01*
X139750421Y-60533139D01*
X139751157Y-60539384D01*
X139765254Y-60653039D01*
X139767437Y-60668667D01*
X139767547Y-60669375D01*
X139770186Y-60684809D01*
X139770255Y-60685180D01*
X139770264Y-60685229D01*
X139777043Y-60721527D01*
X139792531Y-60804458D01*
X139797872Y-60829561D01*
X139798144Y-60830699D01*
X139804740Y-60855532D01*
X139804949Y-60856247D01*
X139804957Y-60856275D01*
X139815500Y-60892305D01*
X139839225Y-60973388D01*
X139840757Y-60976939D01*
X139842065Y-60980568D01*
X139841839Y-60980649D01*
X139846323Y-60993831D01*
X139849605Y-61006753D01*
X139940668Y-61204285D01*
X139944001Y-61209001D01*
X140062022Y-61375996D01*
X140066204Y-61381914D01*
X140070346Y-61385949D01*
X140209741Y-61521741D01*
X140244579Y-61583602D01*
X140240442Y-61654478D01*
X140204899Y-61706726D01*
X140107842Y-61791842D01*
X139973181Y-61962658D01*
X139871905Y-62155154D01*
X139870192Y-62160671D01*
X139813098Y-62344542D01*
X139807403Y-62362882D01*
X139781837Y-62578887D01*
X139796063Y-62795933D01*
X139797484Y-62801529D01*
X139797485Y-62801534D01*
X139838796Y-62964193D01*
X139849605Y-63006753D01*
X139940668Y-63204285D01*
X139944001Y-63209001D01*
X140052038Y-63361869D01*
X140066204Y-63381914D01*
X140210102Y-63522093D01*
X140244938Y-63583952D01*
X140240801Y-63654828D01*
X140205256Y-63707077D01*
X140112552Y-63788376D01*
X140104630Y-63796724D01*
X139977180Y-63958394D01*
X139970909Y-63968050D01*
X139875060Y-64150229D01*
X139870655Y-64160863D01*
X139815436Y-64338700D01*
X139815218Y-64352799D01*
X139821950Y-64356000D01*
X142109485Y-64356000D01*
X142123016Y-64352027D01*
X142124185Y-64343892D01*
X142080725Y-64189794D01*
X142076603Y-64179055D01*
X141985549Y-63994417D01*
X141979538Y-63984608D01*
X141856360Y-63819651D01*
X141848671Y-63811111D01*
X141730691Y-63702052D01*
X141694246Y-63641123D01*
X141696527Y-63570163D01*
X141735650Y-63512653D01*
X141749231Y-63501358D01*
X141810446Y-63450446D01*
X141949532Y-63283213D01*
X142055813Y-63093435D01*
X142057669Y-63087968D01*
X142057671Y-63087963D01*
X142123874Y-62892935D01*
X142123875Y-62892930D01*
X142125730Y-62887466D01*
X142156941Y-62672205D01*
X142158570Y-62610000D01*
X142138667Y-62393400D01*
X142079626Y-62184055D01*
X141983423Y-61988974D01*
X141941304Y-61932569D01*
X141856733Y-61819315D01*
X141856732Y-61819314D01*
X141853280Y-61814691D01*
X141848855Y-61810600D01*
X141731078Y-61701729D01*
X141694633Y-61640800D01*
X141696914Y-61569840D01*
X141736038Y-61512330D01*
X141806008Y-61454137D01*
X141810446Y-61450446D01*
X141949532Y-61283213D01*
X142041102Y-61119703D01*
X142052989Y-61098478D01*
X142052990Y-61098476D01*
X142055813Y-61093435D01*
X142057669Y-61087968D01*
X142057671Y-61087963D01*
X142123874Y-60892935D01*
X142123875Y-60892930D01*
X142125730Y-60887466D01*
X142156941Y-60672205D01*
X142158570Y-60610000D01*
X142138667Y-60393400D01*
X142122211Y-60335049D01*
X142081195Y-60189619D01*
X142079626Y-60184055D01*
X141983423Y-59988974D01*
X141853280Y-59814691D01*
X141731078Y-59701729D01*
X141694633Y-59640800D01*
X141696914Y-59569840D01*
X141736038Y-59512330D01*
X141739355Y-59509572D01*
X141810446Y-59450446D01*
X141949532Y-59283213D01*
X142038313Y-59124684D01*
X142052989Y-59098478D01*
X142052990Y-59098476D01*
X142055813Y-59093435D01*
X142057669Y-59087968D01*
X142057671Y-59087963D01*
X142123874Y-58892935D01*
X142123875Y-58892930D01*
X142125730Y-58887466D01*
X142156941Y-58672205D01*
X142158570Y-58610000D01*
X142138667Y-58393400D01*
X142124556Y-58343364D01*
X142081195Y-58189619D01*
X142079626Y-58184055D01*
X141983423Y-57988974D01*
X141973333Y-57975461D01*
X141856733Y-57819315D01*
X141856732Y-57819314D01*
X141853280Y-57814691D01*
X141825487Y-57788999D01*
X141749207Y-57718487D01*
X141731078Y-57701729D01*
X141694633Y-57640800D01*
X141696914Y-57569840D01*
X141736038Y-57512330D01*
X141806008Y-57454137D01*
X141810446Y-57450446D01*
X141949532Y-57283213D01*
X142055813Y-57093435D01*
X142057669Y-57087968D01*
X142057671Y-57087963D01*
X142123874Y-56892935D01*
X142123875Y-56892930D01*
X142125730Y-56887466D01*
X142156941Y-56672205D01*
X142158570Y-56610000D01*
X142138667Y-56393400D01*
X142130636Y-56364922D01*
X142081195Y-56189619D01*
X142079626Y-56184055D01*
X141983423Y-55988974D01*
X141853280Y-55814691D01*
X141848882Y-55810625D01*
X141731078Y-55701729D01*
X141694633Y-55640800D01*
X141696914Y-55569840D01*
X141736038Y-55512330D01*
X141806008Y-55454137D01*
X141810446Y-55450446D01*
X141949532Y-55283213D01*
X142028672Y-55141899D01*
X142052989Y-55098478D01*
X142052990Y-55098476D01*
X142055813Y-55093435D01*
X142057669Y-55087968D01*
X142057671Y-55087963D01*
X142123874Y-54892935D01*
X142123875Y-54892930D01*
X142125730Y-54887466D01*
X142156941Y-54672205D01*
X142158570Y-54610000D01*
X142138667Y-54393400D01*
X142079626Y-54184055D01*
X141983423Y-53988974D01*
X141962244Y-53960611D01*
X141856733Y-53819315D01*
X141856732Y-53819314D01*
X141853280Y-53814691D01*
X141767414Y-53735317D01*
X141731078Y-53701729D01*
X141694633Y-53640800D01*
X141696914Y-53569840D01*
X141736038Y-53512330D01*
X141794610Y-53463617D01*
X141810446Y-53450446D01*
X141949532Y-53283213D01*
X142055813Y-53093435D01*
X142057669Y-53087968D01*
X142057671Y-53087963D01*
X142123874Y-52892935D01*
X142123875Y-52892930D01*
X142125730Y-52887466D01*
X142156941Y-52672205D01*
X142158570Y-52610000D01*
X142138667Y-52393400D01*
X142129976Y-52362582D01*
X142081195Y-52189619D01*
X142079626Y-52184055D01*
X141983423Y-51988974D01*
X141938966Y-51929438D01*
X141856733Y-51819315D01*
X141856732Y-51819314D01*
X141853280Y-51814691D01*
X141765536Y-51733581D01*
X141756679Y-51725394D01*
X141731078Y-51701729D01*
X141694633Y-51640800D01*
X141696914Y-51569840D01*
X141736038Y-51512330D01*
X141776275Y-51478866D01*
X141810446Y-51450446D01*
X141949532Y-51283213D01*
X142055813Y-51093435D01*
X142057669Y-51087968D01*
X142057671Y-51087963D01*
X142123874Y-50892935D01*
X142123875Y-50892930D01*
X142125730Y-50887466D01*
X142156941Y-50672205D01*
X142158570Y-50610000D01*
X142138667Y-50393400D01*
X142119794Y-50326479D01*
X142098431Y-50250733D01*
X142079626Y-50184055D01*
X141983423Y-49988974D01*
X141951485Y-49946203D01*
X141856733Y-49819315D01*
X141856732Y-49819314D01*
X141853280Y-49814691D01*
X141799671Y-49765135D01*
X141731078Y-49701729D01*
X141694633Y-49640800D01*
X141696914Y-49569840D01*
X141736038Y-49512330D01*
X141806008Y-49454137D01*
X141810446Y-49450446D01*
X141949532Y-49283213D01*
X142055813Y-49093435D01*
X142057669Y-49087968D01*
X142057671Y-49087963D01*
X142123874Y-48892935D01*
X142123875Y-48892930D01*
X142125730Y-48887466D01*
X142156941Y-48672205D01*
X142158570Y-48610000D01*
X142138667Y-48393400D01*
X142134335Y-48378038D01*
X142090204Y-48221562D01*
X142079626Y-48184055D01*
X141983423Y-47988974D01*
X141861632Y-47825875D01*
X141856733Y-47819315D01*
X141856732Y-47819314D01*
X141853280Y-47814691D01*
X141820739Y-47784610D01*
X141731078Y-47701729D01*
X141694633Y-47640800D01*
X141696914Y-47569840D01*
X141736038Y-47512330D01*
X141806008Y-47454137D01*
X141810446Y-47450446D01*
X141949532Y-47283213D01*
X142039758Y-47122104D01*
X142052989Y-47098478D01*
X142052990Y-47098476D01*
X142055813Y-47093435D01*
X142057669Y-47087968D01*
X142057671Y-47087963D01*
X142123874Y-46892935D01*
X142123875Y-46892930D01*
X142125730Y-46887466D01*
X142156941Y-46672205D01*
X142158570Y-46610000D01*
X142138667Y-46393400D01*
X142079626Y-46184055D01*
X141983423Y-45988974D01*
X141979967Y-45984346D01*
X141979964Y-45984341D01*
X141904166Y-45882834D01*
X141879434Y-45816285D01*
X141894609Y-45746929D01*
X141929559Y-45706620D01*
X142000724Y-45653285D01*
X142013285Y-45640724D01*
X142089786Y-45538649D01*
X142098324Y-45523054D01*
X142143478Y-45402606D01*
X142147105Y-45387351D01*
X142152631Y-45336486D01*
X142153000Y-45329672D01*
X142153000Y-44882115D01*
X142148525Y-44866876D01*
X142147135Y-44865671D01*
X142139452Y-44864000D01*
X139805116Y-44864000D01*
X139789877Y-44868475D01*
X139788672Y-44869865D01*
X139787001Y-44877548D01*
X139787001Y-45329669D01*
X139787371Y-45336490D01*
X139792895Y-45387352D01*
X139796521Y-45402604D01*
X139841676Y-45523054D01*
X139850214Y-45538649D01*
X139926715Y-45640724D01*
X139939275Y-45653284D01*
X140010578Y-45706722D01*
X140053094Y-45763581D01*
X140058120Y-45834400D01*
X140033964Y-45885555D01*
X139973181Y-45962658D01*
X139871905Y-46155154D01*
X139807403Y-46362882D01*
X139781837Y-46578887D01*
X139796063Y-46795933D01*
X139797484Y-46801529D01*
X139797485Y-46801534D01*
X139829117Y-46926081D01*
X139849605Y-47006753D01*
X139852022Y-47011996D01*
X139879567Y-47071745D01*
X139940668Y-47204285D01*
X139944001Y-47209001D01*
X140054108Y-47364798D01*
X140066204Y-47381914D01*
X140070346Y-47385949D01*
X140209741Y-47521741D01*
X140244579Y-47583602D01*
X140240442Y-47654478D01*
X140204899Y-47706726D01*
X140107842Y-47791842D01*
X140104270Y-47796373D01*
X140085091Y-47820702D01*
X139973181Y-47962658D01*
X139871905Y-48155154D01*
X139870192Y-48160671D01*
X139826599Y-48301063D01*
X139807403Y-48362882D01*
X139781837Y-48578887D01*
X139796063Y-48795933D01*
X139797484Y-48801529D01*
X139797485Y-48801534D01*
X139821215Y-48894969D01*
X139849605Y-49006753D01*
X139940668Y-49204285D01*
X139944001Y-49209001D01*
X140011261Y-49304171D01*
X140066204Y-49381914D01*
X140070346Y-49385949D01*
X140209741Y-49521741D01*
X140244579Y-49583602D01*
X140240442Y-49654478D01*
X140204899Y-49706726D01*
X140107842Y-49791842D01*
X140104270Y-49796373D01*
X139990665Y-49940480D01*
X139973181Y-49962658D01*
X139871905Y-50155154D01*
X139870192Y-50160671D01*
X139818707Y-50326479D01*
X139807403Y-50362882D01*
X139781837Y-50578887D01*
X139796063Y-50795933D01*
X139797484Y-50801529D01*
X139797485Y-50801534D01*
X139831541Y-50935626D01*
X139849605Y-51006753D01*
X139940668Y-51204285D01*
X140066204Y-51381914D01*
X140188706Y-51501250D01*
X140223543Y-51563109D01*
X140219406Y-51633985D01*
X140177607Y-51691373D01*
X140166181Y-51699202D01*
X140138578Y-51715963D01*
X140123254Y-51725268D01*
X140116289Y-51729573D01*
X140116170Y-51729648D01*
X140116158Y-51729655D01*
X140116088Y-51729700D01*
X140115995Y-51729758D01*
X140109853Y-51733685D01*
X140109561Y-51733875D01*
X140109506Y-51733910D01*
X139994007Y-51808898D01*
X139992895Y-51809612D01*
X139901506Y-51867593D01*
X139894912Y-51871500D01*
X139835655Y-51904221D01*
X139822689Y-51910443D01*
X139791097Y-51923441D01*
X139772313Y-51929498D01*
X139753655Y-51933936D01*
X139732153Y-51937123D01*
X139701514Y-51938988D01*
X139681487Y-51938612D01*
X139615243Y-51932076D01*
X139599196Y-51929438D01*
X139573293Y-51923441D01*
X139464894Y-51898345D01*
X139457159Y-51896882D01*
X139440081Y-51892391D01*
X139296376Y-51843610D01*
X139281148Y-51837303D01*
X139087048Y-51741583D01*
X139072775Y-51733342D01*
X138892842Y-51613113D01*
X138879766Y-51603080D01*
X138741179Y-51481542D01*
X138724295Y-51463515D01*
X138723462Y-51462429D01*
X138723461Y-51462428D01*
X138718838Y-51456403D01*
X138691405Y-51434425D01*
X138681091Y-51425186D01*
X138199525Y-50943620D01*
X138185092Y-50926344D01*
X138177849Y-50915902D01*
X138177844Y-50915895D01*
X138175285Y-50912207D01*
X138140318Y-50874620D01*
X138133196Y-50866260D01*
X138129390Y-50861377D01*
X138107026Y-50816397D01*
X138104753Y-50807877D01*
X138103582Y-50803120D01*
X138093617Y-50758937D01*
X138093606Y-50758885D01*
X138093582Y-50758780D01*
X138079911Y-50698255D01*
X138079869Y-50698068D01*
X138077722Y-50688949D01*
X138077634Y-50688590D01*
X138075963Y-50681963D01*
X138058688Y-50615337D01*
X138055302Y-50602923D01*
X138055136Y-50602343D01*
X138051203Y-50589260D01*
X138030118Y-50522370D01*
X138022220Y-50504706D01*
X138014302Y-50487000D01*
X138009493Y-50474503D01*
X138005319Y-50461657D01*
X137994527Y-50428444D01*
X137899040Y-50263056D01*
X137887945Y-50250733D01*
X137775675Y-50126045D01*
X137775674Y-50126044D01*
X137771253Y-50121134D01*
X137616752Y-50008882D01*
X137610724Y-50006198D01*
X137610722Y-50006197D01*
X137448319Y-49933891D01*
X137448318Y-49933891D01*
X137442288Y-49931206D01*
X137333405Y-49908062D01*
X137261944Y-49892872D01*
X137261939Y-49892872D01*
X137255487Y-49891500D01*
X137064513Y-49891500D01*
X137058061Y-49892872D01*
X137058056Y-49892872D01*
X136922309Y-49921727D01*
X136888058Y-49929007D01*
X136817267Y-49923605D01*
X136760635Y-49880788D01*
X136736141Y-49814151D01*
X136741429Y-49771640D01*
X136741204Y-49771592D01*
X136741760Y-49768974D01*
X136742028Y-49766823D01*
X136742577Y-49765135D01*
X136742578Y-49765130D01*
X136744618Y-49758852D01*
X136750097Y-49706727D01*
X136763890Y-49575489D01*
X136764580Y-49568924D01*
X136756409Y-49491181D01*
X136745308Y-49385559D01*
X136745308Y-49385557D01*
X136744618Y-49378996D01*
X136685603Y-49197368D01*
X136590116Y-49031980D01*
X136572123Y-49011996D01*
X136466751Y-48894969D01*
X136466750Y-48894968D01*
X136462329Y-48890058D01*
X136307828Y-48777806D01*
X136301800Y-48775122D01*
X136301798Y-48775121D01*
X136139395Y-48702815D01*
X136139394Y-48702815D01*
X136133364Y-48700130D01*
X136019273Y-48675879D01*
X135953020Y-48661796D01*
X135953015Y-48661796D01*
X135946563Y-48660424D01*
X135755589Y-48660424D01*
X135749137Y-48661796D01*
X135749132Y-48661796D01*
X135682879Y-48675879D01*
X135568788Y-48700130D01*
X135562758Y-48702815D01*
X135562757Y-48702815D01*
X135400354Y-48775121D01*
X135400352Y-48775122D01*
X135394324Y-48777806D01*
X135239823Y-48890058D01*
X135235402Y-48894968D01*
X135235401Y-48894969D01*
X135130030Y-49011996D01*
X135112036Y-49031980D01*
X135016549Y-49197368D01*
X134957534Y-49378996D01*
X134956844Y-49385557D01*
X134956844Y-49385559D01*
X134945743Y-49491181D01*
X134937572Y-49568924D01*
X134938262Y-49575489D01*
X134952056Y-49706727D01*
X134957534Y-49758852D01*
X135016549Y-49940480D01*
X135019852Y-49946202D01*
X135019853Y-49946203D01*
X135061899Y-50019029D01*
X135067365Y-50029624D01*
X135082034Y-50061698D01*
X135119654Y-50120166D01*
X135119854Y-50120470D01*
X135119890Y-50120525D01*
X135123526Y-50126045D01*
X135125690Y-50129330D01*
X135125963Y-50129735D01*
X135131906Y-50138361D01*
X135171629Y-50194773D01*
X135177294Y-50202658D01*
X135177433Y-50202848D01*
X135177481Y-50202914D01*
X135211470Y-50249294D01*
X135212509Y-50250733D01*
X135226588Y-50270524D01*
X135249834Y-50338978D01*
X135250717Y-50363218D01*
X135251429Y-50382784D01*
X135255115Y-50428273D01*
X135255133Y-50428339D01*
X135256500Y-50443969D01*
X135256500Y-57583395D01*
X135254489Y-57605815D01*
X135251428Y-57622743D01*
X135251266Y-57627232D01*
X135249575Y-57674035D01*
X135248701Y-57684977D01*
X135247939Y-57691128D01*
X135231950Y-57738747D01*
X135227516Y-57746408D01*
X135225005Y-57750557D01*
X135200790Y-57788878D01*
X135200717Y-57788993D01*
X135167513Y-57841569D01*
X135167403Y-57841746D01*
X135167340Y-57841846D01*
X135163849Y-57847459D01*
X135163828Y-57847493D01*
X135163635Y-57847808D01*
X135158871Y-57855743D01*
X135158742Y-57855963D01*
X135158713Y-57856011D01*
X135124059Y-57914929D01*
X135123941Y-57915130D01*
X135117356Y-57926664D01*
X135117063Y-57927193D01*
X135110797Y-57938858D01*
X135078415Y-58001054D01*
X135075221Y-58009416D01*
X135073349Y-58014315D01*
X135064766Y-58032347D01*
X135055473Y-58048444D01*
X134996458Y-58230072D01*
X134995768Y-58236633D01*
X134995768Y-58236635D01*
X134982499Y-58362882D01*
X134976496Y-58420000D01*
X134977186Y-58426565D01*
X134993802Y-58584653D01*
X134996458Y-58609928D01*
X135055473Y-58791556D01*
X135058776Y-58797278D01*
X135058777Y-58797279D01*
X135099319Y-58867500D01*
X135116057Y-58936496D01*
X135092836Y-59003587D01*
X135037029Y-59047474D01*
X134990200Y-59056500D01*
X129106605Y-59056500D01*
X129084185Y-59054489D01*
X129073567Y-59052569D01*
X129071676Y-59052227D01*
X129071675Y-59052227D01*
X129067257Y-59051428D01*
X129048886Y-59050764D01*
X129015964Y-59049575D01*
X129005022Y-59048701D01*
X128998871Y-59047939D01*
X128951252Y-59031950D01*
X128943591Y-59027516D01*
X128939438Y-59025003D01*
X128917490Y-59011134D01*
X128901121Y-59000790D01*
X128901001Y-59000714D01*
X128848403Y-58967497D01*
X128843515Y-58964448D01*
X128843239Y-58964278D01*
X128834273Y-58958881D01*
X128774869Y-58923941D01*
X128763335Y-58917356D01*
X128762806Y-58917063D01*
X128751138Y-58910796D01*
X128750827Y-58910634D01*
X128750774Y-58910606D01*
X128692154Y-58880087D01*
X128688941Y-58878414D01*
X128634584Y-58857646D01*
X128628314Y-58855055D01*
X128558319Y-58823891D01*
X128558317Y-58823890D01*
X128552288Y-58821206D01*
X128433389Y-58795933D01*
X128371944Y-58782872D01*
X128371939Y-58782872D01*
X128365487Y-58781500D01*
X128174513Y-58781500D01*
X128168061Y-58782872D01*
X128168056Y-58782872D01*
X128106611Y-58795933D01*
X127987712Y-58821206D01*
X127981682Y-58823891D01*
X127981681Y-58823891D01*
X127819278Y-58896197D01*
X127819276Y-58896198D01*
X127813248Y-58898882D01*
X127658747Y-59011134D01*
X127654326Y-59016044D01*
X127654325Y-59016045D01*
X127618078Y-59056302D01*
X127530960Y-59153056D01*
X127527659Y-59158774D01*
X127458728Y-59278166D01*
X127435473Y-59318444D01*
X127433432Y-59324726D01*
X127418142Y-59371783D01*
X127411866Y-59387442D01*
X127401833Y-59408309D01*
X127401828Y-59408322D01*
X127399884Y-59412365D01*
X127378798Y-59479256D01*
X127374798Y-59492568D01*
X127374632Y-59493149D01*
X127371312Y-59505336D01*
X127354037Y-59571961D01*
X127352365Y-59578590D01*
X127352277Y-59578949D01*
X127350130Y-59588069D01*
X127336418Y-59648777D01*
X127336331Y-59648757D01*
X127336291Y-59648916D01*
X127336382Y-59648937D01*
X127326417Y-59693120D01*
X127325244Y-59697884D01*
X127322971Y-59706402D01*
X127300615Y-59751368D01*
X127296808Y-59756253D01*
X127289680Y-59764620D01*
X127254713Y-59802208D01*
X127225107Y-59837019D01*
X127225057Y-59837107D01*
X127214963Y-59849133D01*
X126218259Y-60845836D01*
X126204815Y-60857502D01*
X126189639Y-60868896D01*
X126189631Y-60868903D01*
X126186337Y-60871376D01*
X126176788Y-60880726D01*
X126170692Y-60888501D01*
X126164443Y-60895868D01*
X125961196Y-61117667D01*
X125961178Y-61117689D01*
X125959332Y-61119703D01*
X125762667Y-61375996D01*
X125761189Y-61378316D01*
X125630406Y-61583602D01*
X125589089Y-61648455D01*
X125587822Y-61650889D01*
X125587819Y-61650894D01*
X125530770Y-61760482D01*
X125439917Y-61935006D01*
X125438868Y-61937539D01*
X125325182Y-62211997D01*
X125316288Y-62233468D01*
X125315465Y-62236077D01*
X125315465Y-62236078D01*
X125265754Y-62393739D01*
X125259042Y-62410655D01*
X125248531Y-62432414D01*
X125247171Y-62436700D01*
X125247170Y-62436703D01*
X125172907Y-62670774D01*
X125171586Y-62674711D01*
X125102856Y-62868895D01*
X125101094Y-62873578D01*
X125038066Y-63031427D01*
X125035929Y-63036459D01*
X124975591Y-63170389D01*
X124973391Y-63175018D01*
X124917026Y-63287659D01*
X124914911Y-63291885D01*
X124866539Y-63343853D01*
X124802231Y-63361500D01*
X124781866Y-63361500D01*
X124719684Y-63368255D01*
X124583295Y-63419385D01*
X124466739Y-63506739D01*
X124379385Y-63623295D01*
X124376233Y-63631703D01*
X124376232Y-63631705D01*
X124355538Y-63686906D01*
X124312897Y-63743671D01*
X124246335Y-63768371D01*
X124176986Y-63753164D01*
X124154167Y-63736666D01*
X124153887Y-63736358D01*
X124050282Y-63654536D01*
X123976177Y-63596011D01*
X123976172Y-63596008D01*
X123972123Y-63592810D01*
X123967607Y-63590317D01*
X123967604Y-63590315D01*
X123773879Y-63483373D01*
X123773875Y-63483371D01*
X123769355Y-63480876D01*
X123764486Y-63479152D01*
X123764482Y-63479150D01*
X123555903Y-63405288D01*
X123555899Y-63405287D01*
X123551028Y-63403562D01*
X123545935Y-63402655D01*
X123545932Y-63402654D01*
X123328095Y-63363851D01*
X123328089Y-63363850D01*
X123323006Y-63362945D01*
X123250096Y-63362054D01*
X123096581Y-63360179D01*
X123096579Y-63360179D01*
X123091411Y-63360116D01*
X122862464Y-63395150D01*
X122642314Y-63467106D01*
X122637726Y-63469494D01*
X122637722Y-63469496D01*
X122441461Y-63571663D01*
X122436872Y-63574052D01*
X122432739Y-63577155D01*
X122432736Y-63577157D01*
X122255790Y-63710012D01*
X122251655Y-63713117D01*
X122234170Y-63731414D01*
X122172646Y-63766844D01*
X122101733Y-63763387D01*
X122043947Y-63722141D01*
X122025094Y-63688592D01*
X122003768Y-63631705D01*
X122003767Y-63631703D01*
X122000615Y-63623295D01*
X121913261Y-63506739D01*
X121796705Y-63419385D01*
X121660316Y-63368255D01*
X121598134Y-63361500D01*
X119701866Y-63361500D01*
X119639684Y-63368255D01*
X119503295Y-63419385D01*
X119386739Y-63506739D01*
X119299385Y-63623295D01*
X119296233Y-63631703D01*
X119296232Y-63631705D01*
X119275538Y-63686906D01*
X119232897Y-63743671D01*
X119166335Y-63768371D01*
X119096986Y-63753164D01*
X119074167Y-63736666D01*
X119073887Y-63736358D01*
X118970282Y-63654536D01*
X118896177Y-63596011D01*
X118896172Y-63596008D01*
X118892123Y-63592810D01*
X118887607Y-63590317D01*
X118887604Y-63590315D01*
X118693879Y-63483373D01*
X118693875Y-63483371D01*
X118689355Y-63480876D01*
X118684486Y-63479152D01*
X118684482Y-63479150D01*
X118475903Y-63405288D01*
X118475899Y-63405287D01*
X118471028Y-63403562D01*
X118465935Y-63402655D01*
X118465932Y-63402654D01*
X118248095Y-63363851D01*
X118248089Y-63363850D01*
X118243006Y-63362945D01*
X118170096Y-63362054D01*
X118016581Y-63360179D01*
X118016579Y-63360179D01*
X118011411Y-63360116D01*
X117782464Y-63395150D01*
X117562314Y-63467106D01*
X117557726Y-63469494D01*
X117557722Y-63469496D01*
X117361461Y-63571663D01*
X117356872Y-63574052D01*
X117352739Y-63577155D01*
X117352736Y-63577157D01*
X117175790Y-63710012D01*
X117171655Y-63713117D01*
X117011639Y-63880564D01*
X116881119Y-64071899D01*
X116783602Y-64281981D01*
X116721707Y-64505169D01*
X116697095Y-64735469D01*
X111576259Y-64735469D01*
X111467687Y-64694767D01*
X111410923Y-64652125D01*
X111386223Y-64585564D01*
X111401430Y-64516215D01*
X111422977Y-64487535D01*
X111524052Y-64386812D01*
X111530730Y-64378965D01*
X111655003Y-64206020D01*
X111660313Y-64197183D01*
X111754670Y-64006267D01*
X111758469Y-63996672D01*
X111820377Y-63792910D01*
X111822555Y-63782837D01*
X111823986Y-63771962D01*
X111821775Y-63757778D01*
X111808617Y-63754000D01*
X109173225Y-63754000D01*
X109159694Y-63757973D01*
X109158257Y-63767966D01*
X109188565Y-63902446D01*
X109191645Y-63912275D01*
X109271770Y-64109603D01*
X109276413Y-64118794D01*
X109387694Y-64300388D01*
X109393777Y-64308699D01*
X109533213Y-64469667D01*
X109540577Y-64476879D01*
X109545522Y-64480985D01*
X109585156Y-64539889D01*
X109586653Y-64610870D01*
X109549537Y-64671392D01*
X109509264Y-64695910D01*
X109401705Y-64736232D01*
X109401704Y-64736233D01*
X109393295Y-64739385D01*
X109276739Y-64826739D01*
X109189385Y-64943295D01*
X109138255Y-65079684D01*
X109131500Y-65141866D01*
X109131500Y-66938134D01*
X108458500Y-66938134D01*
X108458500Y-63234183D01*
X109154389Y-63234183D01*
X109155912Y-63242607D01*
X109168292Y-63246000D01*
X110217885Y-63246000D01*
X110233124Y-63241525D01*
X110234329Y-63240135D01*
X110236000Y-63232452D01*
X110236000Y-63227885D01*
X110744000Y-63227885D01*
X110748475Y-63243124D01*
X110749865Y-63244329D01*
X110757548Y-63246000D01*
X111808344Y-63246000D01*
X111821875Y-63242027D01*
X111823180Y-63232947D01*
X111781214Y-63065875D01*
X111777894Y-63056124D01*
X111692972Y-62860814D01*
X111688105Y-62851739D01*
X111572426Y-62672926D01*
X111566136Y-62664757D01*
X111422806Y-62507240D01*
X111415273Y-62500215D01*
X111248139Y-62368222D01*
X111239552Y-62362517D01*
X111053117Y-62259599D01*
X111043705Y-62255369D01*
X110842959Y-62184280D01*
X110832988Y-62181646D01*
X110761837Y-62168972D01*
X110748540Y-62170432D01*
X110744000Y-62184989D01*
X110744000Y-63227885D01*
X110236000Y-63227885D01*
X110236000Y-62183102D01*
X110232082Y-62169758D01*
X110217806Y-62167771D01*
X110179324Y-62173660D01*
X110169288Y-62176051D01*
X109966868Y-62242212D01*
X109957359Y-62246209D01*
X109768463Y-62344542D01*
X109759738Y-62350036D01*
X109589433Y-62477905D01*
X109581726Y-62484748D01*
X109434590Y-62638717D01*
X109428104Y-62646727D01*
X109308098Y-62822649D01*
X109303000Y-62831623D01*
X109213338Y-63024783D01*
X109209775Y-63034470D01*
X109154389Y-63234183D01*
X108458500Y-63234183D01*
X108458500Y-61352026D01*
X108470445Y-61298477D01*
X108514668Y-61204285D01*
X108521281Y-61190200D01*
X108538500Y-61079614D01*
X108538500Y-59501406D01*
X112233423Y-59501406D01*
X112238704Y-59508461D01*
X112415080Y-59611527D01*
X112424363Y-59615974D01*
X112631003Y-59694883D01*
X112640901Y-59697759D01*
X112857653Y-59741857D01*
X112867883Y-59743076D01*
X113088914Y-59751182D01*
X113099223Y-59750714D01*
X113318623Y-59722608D01*
X113328688Y-59720468D01*
X113540557Y-59656905D01*
X113550152Y-59653144D01*
X113748778Y-59555838D01*
X113757636Y-59550559D01*
X113815097Y-59509572D01*
X113823497Y-59498874D01*
X113816510Y-59485721D01*
X113042811Y-58712021D01*
X113028868Y-58704408D01*
X113027034Y-58704539D01*
X113020420Y-58708790D01*
X112240180Y-59489031D01*
X112233423Y-59501406D01*
X108538500Y-59501406D01*
X108538500Y-58310638D01*
X111617893Y-58310638D01*
X111630627Y-58531468D01*
X111632061Y-58541670D01*
X111680685Y-58757439D01*
X111683773Y-58767292D01*
X111766986Y-58972220D01*
X111771634Y-58981421D01*
X111860097Y-59125781D01*
X111870553Y-59135242D01*
X111879331Y-59131458D01*
X112657979Y-58352811D01*
X112664356Y-58341132D01*
X113394408Y-58341132D01*
X113394539Y-58342966D01*
X113398790Y-58349580D01*
X114176307Y-59127096D01*
X114188313Y-59133652D01*
X114200052Y-59124684D01*
X114238010Y-59071859D01*
X114243321Y-59063020D01*
X114341318Y-58864737D01*
X114345117Y-58855142D01*
X114409415Y-58643517D01*
X114411594Y-58633436D01*
X114440702Y-58412338D01*
X114441221Y-58405663D01*
X114442744Y-58343364D01*
X114442550Y-58336646D01*
X114424279Y-58114400D01*
X114422596Y-58104238D01*
X114368710Y-57889708D01*
X114365389Y-57879953D01*
X114277193Y-57677118D01*
X114272315Y-57668020D01*
X114199224Y-57555038D01*
X114188538Y-57545835D01*
X114178973Y-57550238D01*
X113402021Y-58327189D01*
X113394408Y-58341132D01*
X112664356Y-58341132D01*
X112665592Y-58338868D01*
X112665461Y-58337034D01*
X112661210Y-58330420D01*
X111883862Y-57553073D01*
X111872330Y-57546776D01*
X111860048Y-57556399D01*
X111804467Y-57637877D01*
X111799379Y-57646833D01*
X111706252Y-57847459D01*
X111702689Y-57857146D01*
X111643581Y-58070280D01*
X111641650Y-58080400D01*
X111618145Y-58300349D01*
X111617893Y-58310638D01*
X108538500Y-58310638D01*
X108538500Y-55805469D01*
X111617095Y-55805469D01*
X111617392Y-55810622D01*
X111617392Y-55810625D01*
X111623067Y-55909041D01*
X111630427Y-56036697D01*
X111631564Y-56041743D01*
X111631565Y-56041749D01*
X111662468Y-56178872D01*
X111681346Y-56262642D01*
X111683288Y-56267424D01*
X111683289Y-56267428D01*
X111732182Y-56387836D01*
X111768484Y-56477237D01*
X111889501Y-56674719D01*
X112041147Y-56849784D01*
X112195160Y-56977648D01*
X112219349Y-56997730D01*
X112218250Y-56999053D01*
X112257845Y-57048576D01*
X112265162Y-57119195D01*
X112242226Y-57171711D01*
X112235508Y-57180712D01*
X112242251Y-57193040D01*
X113017189Y-57967979D01*
X113031132Y-57975592D01*
X113032966Y-57975461D01*
X113039580Y-57971210D01*
X113818994Y-57191795D01*
X113826011Y-57178944D01*
X113816320Y-57165643D01*
X113792371Y-57098808D01*
X113808358Y-57029634D01*
X113844988Y-56988865D01*
X113875501Y-56967100D01*
X113942243Y-56919494D01*
X114106303Y-56756005D01*
X114241458Y-56567917D01*
X114255735Y-56539031D01*
X114341784Y-56364922D01*
X114341785Y-56364920D01*
X114344078Y-56360280D01*
X114411408Y-56138671D01*
X114441640Y-55909041D01*
X114443327Y-55840000D01*
X114431959Y-55701729D01*
X114424773Y-55614318D01*
X114424772Y-55614312D01*
X114424349Y-55609167D01*
X114384481Y-55450446D01*
X114369184Y-55389544D01*
X114369183Y-55389540D01*
X114367925Y-55384533D01*
X114365866Y-55379797D01*
X114277630Y-55176868D01*
X114277628Y-55176865D01*
X114275570Y-55172131D01*
X114149764Y-54977665D01*
X113993887Y-54806358D01*
X113989830Y-54803154D01*
X113986047Y-54799626D01*
X113987163Y-54798430D01*
X113950319Y-54746457D01*
X113947091Y-54675533D01*
X113982720Y-54614124D01*
X114000117Y-54600307D01*
X114004700Y-54597286D01*
X114010357Y-54594328D01*
X114015300Y-54590297D01*
X114015304Y-54590294D01*
X114156317Y-54475286D01*
X114161257Y-54471257D01*
X114224756Y-54393400D01*
X114280296Y-54325301D01*
X114280297Y-54325300D01*
X114284328Y-54320357D01*
X114374543Y-54147792D01*
X114428216Y-53960611D01*
X114438500Y-53845384D01*
X114438500Y-52834616D01*
X114435197Y-52797601D01*
X114428749Y-52725362D01*
X114428216Y-52719389D01*
X114374543Y-52532208D01*
X114284328Y-52359643D01*
X114161257Y-52208743D01*
X114010357Y-52085672D01*
X113837792Y-51995457D01*
X113650611Y-51941784D01*
X113615070Y-51938612D01*
X113538177Y-51931749D01*
X113538171Y-51931749D01*
X113535384Y-51931500D01*
X112524616Y-51931500D01*
X112521829Y-51931749D01*
X112521823Y-51931749D01*
X112444930Y-51938612D01*
X112409389Y-51941784D01*
X112222208Y-51995457D01*
X112049643Y-52085672D01*
X111898743Y-52208743D01*
X111775672Y-52359643D01*
X111685457Y-52532208D01*
X111631784Y-52719389D01*
X111631251Y-52725362D01*
X111624804Y-52797601D01*
X111621500Y-52834616D01*
X111621500Y-53845384D01*
X111631784Y-53960611D01*
X111685457Y-54147792D01*
X111775672Y-54320357D01*
X111779703Y-54325300D01*
X111779704Y-54325301D01*
X111835244Y-54393400D01*
X111898743Y-54471257D01*
X111903683Y-54475286D01*
X112044695Y-54590293D01*
X112044697Y-54590294D01*
X112049643Y-54594328D01*
X112055300Y-54597285D01*
X112060512Y-54600722D01*
X112106371Y-54654920D01*
X112115649Y-54725308D01*
X112082245Y-54792964D01*
X111986711Y-54892935D01*
X111931639Y-54950564D01*
X111928725Y-54954836D01*
X111928724Y-54954837D01*
X111913152Y-54977665D01*
X111801119Y-55141899D01*
X111703602Y-55351981D01*
X111641707Y-55575169D01*
X111617095Y-55805469D01*
X108538500Y-55805469D01*
X108538500Y-50603487D01*
X108527380Y-50525836D01*
X108524354Y-50504706D01*
X108524353Y-50504703D01*
X108523080Y-50495813D01*
X108469800Y-50378631D01*
X108458500Y-50326479D01*
X108458500Y-48527966D01*
X109158257Y-48527966D01*
X109188565Y-48662446D01*
X109191645Y-48672275D01*
X109271770Y-48869603D01*
X109276413Y-48878794D01*
X109387694Y-49060388D01*
X109393777Y-49068699D01*
X109533213Y-49229667D01*
X109540580Y-49236883D01*
X109704434Y-49372916D01*
X109712881Y-49378831D01*
X109896756Y-49486279D01*
X109906042Y-49490729D01*
X110105001Y-49566703D01*
X110114899Y-49569579D01*
X110218250Y-49590606D01*
X110232299Y-49589410D01*
X110236000Y-49579065D01*
X110236000Y-49578517D01*
X110744000Y-49578517D01*
X110748064Y-49592359D01*
X110761478Y-49594393D01*
X110768184Y-49593534D01*
X110778262Y-49591392D01*
X110982255Y-49530191D01*
X110991842Y-49526433D01*
X111183095Y-49432739D01*
X111191945Y-49427464D01*
X111365328Y-49303792D01*
X111373200Y-49297139D01*
X111524052Y-49146812D01*
X111530730Y-49138965D01*
X111655003Y-48966020D01*
X111660313Y-48957183D01*
X111754670Y-48766267D01*
X111758469Y-48756672D01*
X111820377Y-48552910D01*
X111822555Y-48542837D01*
X111823986Y-48531962D01*
X111821775Y-48517778D01*
X111808617Y-48514000D01*
X110762115Y-48514000D01*
X110746876Y-48518475D01*
X110745671Y-48519865D01*
X110744000Y-48527548D01*
X110744000Y-49578517D01*
X110236000Y-49578517D01*
X110236000Y-48532115D01*
X110231525Y-48516876D01*
X110230135Y-48515671D01*
X110222452Y-48514000D01*
X109173225Y-48514000D01*
X109159694Y-48517973D01*
X109158257Y-48527966D01*
X108458500Y-48527966D01*
X108458500Y-48226695D01*
X123097251Y-48226695D01*
X123097548Y-48231848D01*
X123097548Y-48231851D01*
X123105058Y-48362092D01*
X123110110Y-48449715D01*
X123111247Y-48454761D01*
X123111248Y-48454767D01*
X123129923Y-48537633D01*
X123159222Y-48667639D01*
X123243266Y-48874616D01*
X123252729Y-48890058D01*
X123353072Y-49053803D01*
X123359987Y-49065088D01*
X123506250Y-49233938D01*
X123582376Y-49297139D01*
X123673412Y-49372718D01*
X123678126Y-49376632D01*
X123871000Y-49489338D01*
X124079692Y-49569030D01*
X124084760Y-49570061D01*
X124084763Y-49570062D01*
X124151315Y-49583602D01*
X124298597Y-49613567D01*
X124303772Y-49613757D01*
X124303774Y-49613757D01*
X124516673Y-49621564D01*
X124516677Y-49621564D01*
X124521837Y-49621753D01*
X124526957Y-49621097D01*
X124526959Y-49621097D01*
X124738288Y-49594025D01*
X124738289Y-49594025D01*
X124743416Y-49593368D01*
X124748366Y-49591883D01*
X124952429Y-49530661D01*
X124952434Y-49530659D01*
X124957384Y-49529174D01*
X125157994Y-49430896D01*
X125339860Y-49301173D01*
X125353422Y-49287659D01*
X125437721Y-49203653D01*
X125498096Y-49143489D01*
X125507670Y-49130166D01*
X125625435Y-48966277D01*
X125628453Y-48962077D01*
X125638006Y-48942749D01*
X125725136Y-48766453D01*
X125725137Y-48766451D01*
X125727430Y-48761811D01*
X125768914Y-48625271D01*
X125790865Y-48553023D01*
X125790865Y-48553021D01*
X125792370Y-48548069D01*
X125821529Y-48326590D01*
X125823156Y-48260000D01*
X125804852Y-48037361D01*
X125750431Y-47820702D01*
X125661354Y-47615840D01*
X125594390Y-47512330D01*
X125542822Y-47432617D01*
X125542820Y-47432614D01*
X125540014Y-47428277D01*
X125389670Y-47263051D01*
X125385619Y-47259852D01*
X125385615Y-47259848D01*
X125218414Y-47127800D01*
X125218410Y-47127798D01*
X125214359Y-47124598D01*
X125173053Y-47101796D01*
X125123084Y-47051364D01*
X125108312Y-46981921D01*
X125133428Y-46915516D01*
X125160780Y-46888909D01*
X125204603Y-46857650D01*
X125339860Y-46761173D01*
X125498096Y-46603489D01*
X125557594Y-46520689D01*
X125625435Y-46426277D01*
X125628453Y-46422077D01*
X125654874Y-46368619D01*
X125725136Y-46226453D01*
X125725137Y-46226451D01*
X125727430Y-46221811D01*
X125792370Y-46008069D01*
X125821529Y-45786590D01*
X125823156Y-45720000D01*
X125804852Y-45497361D01*
X125750431Y-45280702D01*
X125661354Y-45075840D01*
X125540014Y-44888277D01*
X125534407Y-44882115D01*
X125392798Y-44726488D01*
X125361746Y-44662642D01*
X125370141Y-44592143D01*
X125415317Y-44537375D01*
X125441761Y-44523706D01*
X125548297Y-44483767D01*
X125556705Y-44480615D01*
X125673261Y-44393261D01*
X125746367Y-44295716D01*
X125803223Y-44253204D01*
X125874041Y-44248178D01*
X125936285Y-44282189D01*
X127870952Y-46216857D01*
X129770477Y-48116382D01*
X129784910Y-48133658D01*
X129794715Y-48147792D01*
X129829675Y-48185372D01*
X129836801Y-48193736D01*
X129840610Y-48198623D01*
X129862973Y-48243602D01*
X129865246Y-48252122D01*
X129866417Y-48256880D01*
X129876340Y-48300879D01*
X129876380Y-48301055D01*
X129876382Y-48301063D01*
X129876417Y-48301219D01*
X129890130Y-48361931D01*
X129892277Y-48371050D01*
X129892365Y-48371409D01*
X129894037Y-48378038D01*
X129911312Y-48444663D01*
X129911406Y-48445008D01*
X129914457Y-48456206D01*
X129914632Y-48456850D01*
X129914798Y-48457431D01*
X129918797Y-48470741D01*
X129939883Y-48537633D01*
X129942256Y-48542939D01*
X129955691Y-48572980D01*
X129960502Y-48585481D01*
X129975473Y-48631556D01*
X130070960Y-48796944D01*
X130075378Y-48801851D01*
X130075379Y-48801852D01*
X130159222Y-48894969D01*
X130198747Y-48938866D01*
X130353248Y-49051118D01*
X130359276Y-49053802D01*
X130359278Y-49053803D01*
X130521681Y-49126109D01*
X130527712Y-49128794D01*
X130612480Y-49146812D01*
X130708056Y-49167128D01*
X130708061Y-49167128D01*
X130714513Y-49168500D01*
X130905487Y-49168500D01*
X130911939Y-49167128D01*
X130911944Y-49167128D01*
X131007520Y-49146812D01*
X131092288Y-49128794D01*
X131098319Y-49126109D01*
X131260722Y-49053803D01*
X131260724Y-49053802D01*
X131266752Y-49051118D01*
X131421253Y-48938866D01*
X131460778Y-48894969D01*
X131544621Y-48801852D01*
X131544622Y-48801851D01*
X131549040Y-48796944D01*
X131623199Y-48668497D01*
X131641223Y-48637279D01*
X131641224Y-48637277D01*
X131644527Y-48631556D01*
X131703542Y-48449928D01*
X131712811Y-48361744D01*
X131722814Y-48266565D01*
X131723504Y-48260000D01*
X131717053Y-48198623D01*
X131704232Y-48076635D01*
X131704232Y-48076633D01*
X131703542Y-48070072D01*
X131644527Y-47888444D01*
X131549040Y-47723056D01*
X131474977Y-47640800D01*
X131425675Y-47586045D01*
X131425674Y-47586044D01*
X131421253Y-47581134D01*
X131266752Y-47468882D01*
X131260724Y-47466198D01*
X131260722Y-47466197D01*
X131098325Y-47393894D01*
X131098326Y-47393894D01*
X131092288Y-47391206D01*
X131088876Y-47390481D01*
X131087633Y-47389883D01*
X131083337Y-47388529D01*
X131083335Y-47388528D01*
X131021119Y-47368916D01*
X131021099Y-47368910D01*
X131020741Y-47368797D01*
X131018290Y-47368060D01*
X131007855Y-47364925D01*
X131007799Y-47364909D01*
X131007431Y-47364798D01*
X131006850Y-47364632D01*
X131006524Y-47364543D01*
X131006491Y-47364534D01*
X130995008Y-47361406D01*
X130994663Y-47361312D01*
X130928038Y-47344037D01*
X130927980Y-47344022D01*
X130921585Y-47342409D01*
X130921527Y-47342395D01*
X130921409Y-47342365D01*
X130921050Y-47342277D01*
X130911930Y-47340130D01*
X130851222Y-47326418D01*
X130851242Y-47326331D01*
X130851083Y-47326291D01*
X130851062Y-47326382D01*
X130806876Y-47316416D01*
X130802122Y-47315246D01*
X130793602Y-47312973D01*
X130748623Y-47290610D01*
X130743736Y-47286801D01*
X130735372Y-47279675D01*
X130721608Y-47266870D01*
X130697792Y-47244715D01*
X130696103Y-47243278D01*
X130681964Y-47231253D01*
X130662992Y-47215117D01*
X130662900Y-47215064D01*
X130650874Y-47204970D01*
X127783790Y-44337885D01*
X139787000Y-44337885D01*
X139791475Y-44353124D01*
X139792865Y-44354329D01*
X139800548Y-44356000D01*
X140697885Y-44356000D01*
X140713124Y-44351525D01*
X140714329Y-44350135D01*
X140716000Y-44342452D01*
X140716000Y-44337885D01*
X141224000Y-44337885D01*
X141228475Y-44353124D01*
X141229865Y-44354329D01*
X141237548Y-44356000D01*
X142134884Y-44356000D01*
X142150123Y-44351525D01*
X142151328Y-44350135D01*
X142152999Y-44342452D01*
X142152999Y-43890331D01*
X142152629Y-43883510D01*
X142147105Y-43832648D01*
X142143479Y-43817396D01*
X142098324Y-43696946D01*
X142089786Y-43681351D01*
X142013285Y-43579276D01*
X142000724Y-43566715D01*
X141898649Y-43490214D01*
X141883054Y-43481676D01*
X141762606Y-43436522D01*
X141747351Y-43432895D01*
X141696486Y-43427369D01*
X141689672Y-43427000D01*
X141242115Y-43427000D01*
X141226876Y-43431475D01*
X141225671Y-43432865D01*
X141224000Y-43440548D01*
X141224000Y-44337885D01*
X140716000Y-44337885D01*
X140716000Y-43445116D01*
X140711525Y-43429877D01*
X140710135Y-43428672D01*
X140702452Y-43427001D01*
X140250331Y-43427001D01*
X140243510Y-43427371D01*
X140192648Y-43432895D01*
X140177396Y-43436521D01*
X140056946Y-43481676D01*
X140041351Y-43490214D01*
X139939276Y-43566715D01*
X139926715Y-43579276D01*
X139850214Y-43681351D01*
X139841676Y-43696946D01*
X139796522Y-43817394D01*
X139792895Y-43832649D01*
X139787369Y-43883514D01*
X139787000Y-43890328D01*
X139787000Y-44337885D01*
X127783790Y-44337885D01*
X126665147Y-43219242D01*
X126653481Y-43205798D01*
X126642095Y-43190633D01*
X126642090Y-43190627D01*
X126639610Y-43187324D01*
X126630259Y-43177775D01*
X126618207Y-43168324D01*
X126612004Y-43163129D01*
X126518063Y-43079177D01*
X126508178Y-43069305D01*
X126489576Y-43048542D01*
X126342864Y-42925609D01*
X126342824Y-42925576D01*
X126342781Y-42925540D01*
X126336807Y-42920613D01*
X126336770Y-42920583D01*
X126336666Y-42920497D01*
X126203458Y-42812381D01*
X126196902Y-42807148D01*
X126081353Y-42716455D01*
X126075402Y-42711855D01*
X125972202Y-42633270D01*
X125968291Y-42630321D01*
X125872090Y-42558505D01*
X125871507Y-42558071D01*
X125869254Y-42556394D01*
X125826560Y-42499669D01*
X125818500Y-42455329D01*
X125818500Y-42281866D01*
X125811745Y-42219684D01*
X125760615Y-42083295D01*
X125673261Y-41966739D01*
X125556705Y-41879385D01*
X125420316Y-41828255D01*
X125358134Y-41821500D01*
X123561866Y-41821500D01*
X123499684Y-41828255D01*
X123363295Y-41879385D01*
X123246739Y-41966739D01*
X123159385Y-42083295D01*
X123108255Y-42219684D01*
X123101500Y-42281866D01*
X123101500Y-44078134D01*
X123108255Y-44140316D01*
X123159385Y-44276705D01*
X123246739Y-44393261D01*
X123363295Y-44480615D01*
X123371704Y-44483767D01*
X123371705Y-44483768D01*
X123480451Y-44524535D01*
X123537216Y-44567176D01*
X123561916Y-44633738D01*
X123546709Y-44703087D01*
X123527316Y-44729568D01*
X123400629Y-44862138D01*
X123397715Y-44866410D01*
X123397714Y-44866411D01*
X123385409Y-44884450D01*
X123274743Y-45046680D01*
X123180688Y-45249305D01*
X123120989Y-45464570D01*
X123097251Y-45686695D01*
X123097548Y-45691848D01*
X123097548Y-45691851D01*
X123104631Y-45814691D01*
X123110110Y-45909715D01*
X123111247Y-45914761D01*
X123111248Y-45914767D01*
X123122041Y-45962658D01*
X123159222Y-46127639D01*
X123243266Y-46334616D01*
X123359987Y-46525088D01*
X123506250Y-46693938D01*
X123678126Y-46836632D01*
X123748595Y-46877811D01*
X123751445Y-46879476D01*
X123800169Y-46931114D01*
X123813240Y-47000897D01*
X123786509Y-47066669D01*
X123746055Y-47100027D01*
X123733607Y-47106507D01*
X123729474Y-47109610D01*
X123729471Y-47109612D01*
X123559100Y-47237530D01*
X123554965Y-47240635D01*
X123514080Y-47283419D01*
X123416100Y-47385949D01*
X123400629Y-47402138D01*
X123397715Y-47406410D01*
X123397714Y-47406411D01*
X123365158Y-47454137D01*
X123274743Y-47586680D01*
X123180688Y-47789305D01*
X123120989Y-48004570D01*
X123097251Y-48226695D01*
X108458500Y-48226695D01*
X108458500Y-46618134D01*
X109131500Y-46618134D01*
X109138255Y-46680316D01*
X109189385Y-46816705D01*
X109276739Y-46933261D01*
X109393295Y-47020615D01*
X109401704Y-47023767D01*
X109401705Y-47023768D01*
X109510960Y-47064726D01*
X109567725Y-47107367D01*
X109592425Y-47173929D01*
X109577218Y-47243278D01*
X109557825Y-47269759D01*
X109434590Y-47398717D01*
X109428104Y-47406727D01*
X109308098Y-47582649D01*
X109303000Y-47591623D01*
X109213338Y-47784783D01*
X109209775Y-47794470D01*
X109154389Y-47994183D01*
X109155912Y-48002607D01*
X109168292Y-48006000D01*
X111808344Y-48006000D01*
X111821875Y-48002027D01*
X111823180Y-47992947D01*
X111781214Y-47825875D01*
X111777894Y-47816124D01*
X111692972Y-47620814D01*
X111688105Y-47611739D01*
X111572426Y-47432926D01*
X111566136Y-47424757D01*
X111422293Y-47266677D01*
X111391241Y-47202831D01*
X111399635Y-47132333D01*
X111444812Y-47077564D01*
X111471256Y-47063895D01*
X111578297Y-47023767D01*
X111586705Y-47020615D01*
X111703261Y-46933261D01*
X111790615Y-46816705D01*
X111841745Y-46680316D01*
X111848500Y-46618134D01*
X111848500Y-44821866D01*
X111841745Y-44759684D01*
X111790615Y-44623295D01*
X111703261Y-44506739D01*
X111586705Y-44419385D01*
X111450316Y-44368255D01*
X111388134Y-44361500D01*
X109591866Y-44361500D01*
X109529684Y-44368255D01*
X109393295Y-44419385D01*
X109276739Y-44506739D01*
X109189385Y-44623295D01*
X109138255Y-44759684D01*
X109131500Y-44821866D01*
X109131500Y-46618134D01*
X108458500Y-46618134D01*
X108458500Y-41274500D01*
X108478502Y-41206379D01*
X108532158Y-41159886D01*
X108584500Y-41148500D01*
X142875500Y-41148500D01*
X142943621Y-41168502D01*
G37*
%TD.AperFunction*%
%TD*%
M02*
