%TF.GenerationSoftware,KiCad,Pcbnew,(6.0.6)*%
%TF.CreationDate,2022-08-05T15:31:58+01:00*%
%TF.ProjectId,c64 tape interface,63363420-7461-4706-9520-696e74657266,rev?*%
%TF.SameCoordinates,Original*%
%TF.FileFunction,Copper,L2,Bot*%
%TF.FilePolarity,Positive*%
%FSLAX46Y46*%
G04 Gerber Fmt 4.6, Leading zero omitted, Abs format (unit mm)*
G04 Created by KiCad (PCBNEW (6.0.6)) date 2022-08-05 15:31:58*
%MOMM*%
%LPD*%
G01*
G04 APERTURE LIST*
G04 Aperture macros list*
%AMRoundRect*
0 Rectangle with rounded corners*
0 $1 Rounding radius*
0 $2 $3 $4 $5 $6 $7 $8 $9 X,Y pos of 4 corners*
0 Add a 4 corners polygon primitive as box body*
4,1,4,$2,$3,$4,$5,$6,$7,$8,$9,$2,$3,0*
0 Add four circle primitives for the rounded corners*
1,1,$1+$1,$2,$3*
1,1,$1+$1,$4,$5*
1,1,$1+$1,$6,$7*
1,1,$1+$1,$8,$9*
0 Add four rect primitives between the rounded corners*
20,1,$1+$1,$2,$3,$4,$5,0*
20,1,$1+$1,$4,$5,$6,$7,0*
20,1,$1+$1,$6,$7,$8,$9,0*
20,1,$1+$1,$8,$9,$2,$3,0*%
G04 Aperture macros list end*
%TA.AperFunction,ComponentPad*%
%ADD10R,1.700000X1.700000*%
%TD*%
%TA.AperFunction,ComponentPad*%
%ADD11O,1.700000X1.700000*%
%TD*%
%TA.AperFunction,ComponentPad*%
%ADD12R,1.800000X1.800000*%
%TD*%
%TA.AperFunction,ComponentPad*%
%ADD13C,1.800000*%
%TD*%
%TA.AperFunction,ComponentPad*%
%ADD14RoundRect,0.450000X0.450000X0.450000X-0.450000X0.450000X-0.450000X-0.450000X0.450000X-0.450000X0*%
%TD*%
%TA.AperFunction,SMDPad,CuDef*%
%ADD15RoundRect,0.250000X0.350000X0.450000X-0.350000X0.450000X-0.350000X-0.450000X0.350000X-0.450000X0*%
%TD*%
%TA.AperFunction,SMDPad,CuDef*%
%ADD16RoundRect,0.250000X0.337500X0.475000X-0.337500X0.475000X-0.337500X-0.475000X0.337500X-0.475000X0*%
%TD*%
%TA.AperFunction,SMDPad,CuDef*%
%ADD17RoundRect,0.250000X-0.450000X0.350000X-0.450000X-0.350000X0.450000X-0.350000X0.450000X0.350000X0*%
%TD*%
%TA.AperFunction,SMDPad,CuDef*%
%ADD18RoundRect,0.150000X0.150000X-0.825000X0.150000X0.825000X-0.150000X0.825000X-0.150000X-0.825000X0*%
%TD*%
%TA.AperFunction,SMDPad,CuDef*%
%ADD19RoundRect,0.250000X0.450000X-0.350000X0.450000X0.350000X-0.450000X0.350000X-0.450000X-0.350000X0*%
%TD*%
%TA.AperFunction,SMDPad,CuDef*%
%ADD20RoundRect,0.250000X-0.350000X-0.450000X0.350000X-0.450000X0.350000X0.450000X-0.350000X0.450000X0*%
%TD*%
%TA.AperFunction,ComponentPad*%
%ADD21R,1.350000X1.350000*%
%TD*%
%TA.AperFunction,ComponentPad*%
%ADD22O,1.350000X1.350000*%
%TD*%
%TA.AperFunction,SMDPad,CuDef*%
%ADD23RoundRect,0.150000X-0.825000X-0.150000X0.825000X-0.150000X0.825000X0.150000X-0.825000X0.150000X0*%
%TD*%
%TA.AperFunction,SMDPad,CuDef*%
%ADD24RoundRect,0.250000X-0.337500X-0.475000X0.337500X-0.475000X0.337500X0.475000X-0.337500X0.475000X0*%
%TD*%
%TA.AperFunction,ViaPad*%
%ADD25C,0.800000*%
%TD*%
%TA.AperFunction,Conductor*%
%ADD26C,0.250000*%
%TD*%
G04 APERTURE END LIST*
D10*
%TO.P,JP1,1,1*%
%TO.N,Net-(JP1-Pad1)*%
X124460000Y-43180000D03*
D11*
%TO.P,JP1,2,2*%
%TO.N,Net-(J3-Pad5)*%
X124460000Y-45720000D03*
%TO.P,JP1,3,3*%
%TO.N,Net-(JP1-Pad3)*%
X124460000Y-48260000D03*
%TD*%
D12*
%TO.P,D1,1,K*%
%TO.N,+5V*%
X125730000Y-64770000D03*
D13*
%TO.P,D1,2,A*%
%TO.N,Net-(D1-Pad2)*%
X123190000Y-64770000D03*
%TD*%
D10*
%TO.P,J1,1,In*%
%TO.N,Net-(C1-Pad2)*%
X110490000Y-66040000D03*
D11*
%TO.P,J1,2,Ext*%
%TO.N,GND*%
X110490000Y-63500000D03*
%TD*%
D10*
%TO.P,J2,1,In*%
%TO.N,Net-(C2-Pad2)*%
X110490000Y-45720000D03*
D11*
%TO.P,J2,2,Ext*%
%TO.N,GND*%
X110490000Y-48260000D03*
%TD*%
D14*
%TO.P,RV1,1,1*%
%TO.N,Net-(C2-Pad1)*%
X113030000Y-53340000D03*
D13*
%TO.P,RV1,2,2*%
%TO.N,Net-(R2-Pad1)*%
X113030000Y-55840000D03*
%TO.P,RV1,3,3*%
%TO.N,GND*%
X113030000Y-58340000D03*
%TD*%
D12*
%TO.P,D2,1,K*%
%TO.N,Net-(D2-Pad1)*%
X120650000Y-64770000D03*
D13*
%TO.P,D2,2,A*%
%TO.N,Net-(D2-Pad2)*%
X118110000Y-64770000D03*
%TD*%
D15*
%TO.P,R6,1*%
%TO.N,Net-(R6-Pad1)*%
X125460000Y-62230000D03*
%TO.P,R6,2*%
%TO.N,Net-(D1-Pad2)*%
X123460000Y-62230000D03*
%TD*%
D16*
%TO.P,C5,1*%
%TO.N,Net-(C5-Pad1)*%
X121687500Y-52070000D03*
%TO.P,C5,2*%
%TO.N,Net-(C5-Pad2)*%
X119612500Y-52070000D03*
%TD*%
D17*
%TO.P,R7,1*%
%TO.N,+5V*%
X128270000Y-64040000D03*
%TO.P,R7,2*%
%TO.N,Net-(D2-Pad2)*%
X128270000Y-66040000D03*
%TD*%
D18*
%TO.P,U2,1*%
%TO.N,Net-(C5-Pad1)*%
X121285000Y-49465000D03*
%TO.P,U2,2,-*%
%TO.N,Net-(C5-Pad2)*%
X120015000Y-49465000D03*
%TO.P,U2,3,+*%
%TO.N,GND*%
X118745000Y-49465000D03*
%TO.P,U2,4,V-*%
X117475000Y-49465000D03*
%TO.P,U2,5,+*%
X117475000Y-44515000D03*
%TO.P,U2,6,-*%
%TO.N,Net-(U2-Pad6)*%
X118745000Y-44515000D03*
%TO.P,U2,7*%
X120015000Y-44515000D03*
%TO.P,U2,8,V+*%
%TO.N,+5V*%
X121285000Y-44515000D03*
%TD*%
D16*
%TO.P,C3,1*%
%TO.N,GND*%
X130345000Y-58420000D03*
%TO.P,C3,2*%
%TO.N,+5V*%
X128270000Y-58420000D03*
%TD*%
D19*
%TO.P,R2,1*%
%TO.N,Net-(R2-Pad1)*%
X116840000Y-54340000D03*
%TO.P,R2,2*%
%TO.N,Net-(C5-Pad2)*%
X116840000Y-52340000D03*
%TD*%
D20*
%TO.P,R8,1*%
%TO.N,Net-(C1-Pad1)*%
X118380000Y-60960000D03*
%TO.P,R8,2*%
%TO.N,Net-(J3-Pad3)*%
X120380000Y-60960000D03*
%TD*%
D16*
%TO.P,C2,1*%
%TO.N,Net-(C2-Pad1)*%
X115337500Y-45720000D03*
%TO.P,C2,2*%
%TO.N,Net-(C2-Pad2)*%
X113262500Y-45720000D03*
%TD*%
D21*
%TO.P,J3,1,Pin_1*%
%TO.N,GND*%
X140970000Y-44610000D03*
D22*
%TO.P,J3,2,Pin_2*%
%TO.N,unconnected-(J3-Pad2)*%
X140970000Y-46610000D03*
%TO.P,J3,3,Pin_3*%
%TO.N,Net-(J3-Pad3)*%
X140970000Y-48610000D03*
%TO.P,J3,4,Pin_4*%
%TO.N,unconnected-(J3-Pad4)*%
X140970000Y-50610000D03*
%TO.P,J3,5,Pin_5*%
%TO.N,Net-(J3-Pad5)*%
X140970000Y-52610000D03*
%TO.P,J3,6,Pin_6*%
%TO.N,unconnected-(J3-Pad6)*%
X140970000Y-54610000D03*
%TO.P,J3,7,Pin_7*%
%TO.N,Net-(J3-Pad7)*%
X140970000Y-56610000D03*
%TO.P,J3,8,Pin_8*%
%TO.N,unconnected-(J3-Pad8)*%
X140970000Y-58610000D03*
%TO.P,J3,9,Pin_9*%
%TO.N,+5V*%
X140970000Y-60610000D03*
%TO.P,J3,10,Pin_10*%
%TO.N,unconnected-(J3-Pad10)*%
X140970000Y-62610000D03*
%TO.P,J3,11,Pin_11*%
%TO.N,GND*%
X140970000Y-64610000D03*
%TD*%
D20*
%TO.P,R3,1*%
%TO.N,Net-(C5-Pad2)*%
X119650000Y-54610000D03*
%TO.P,R3,2*%
%TO.N,Net-(C5-Pad1)*%
X121650000Y-54610000D03*
%TD*%
D23*
%TO.P,U1,1,VCC*%
%TO.N,+5V*%
X128335000Y-56515000D03*
%TO.P,U1,2*%
%TO.N,Net-(U1-Pad2)*%
X128335000Y-55245000D03*
%TO.P,U1,3*%
%TO.N,Net-(R4-Pad2)*%
X128335000Y-53975000D03*
%TO.P,U1,4*%
%TO.N,Net-(JP1-Pad1)*%
X128335000Y-52705000D03*
%TO.P,U1,5*%
%TO.N,Net-(U1-Pad2)*%
X128335000Y-51435000D03*
%TO.P,U1,6*%
%TO.N,Net-(JP1-Pad3)*%
X128335000Y-50165000D03*
%TO.P,U1,7*%
%TO.N,Net-(JP1-Pad1)*%
X128335000Y-48895000D03*
%TO.P,U1,8,VSS*%
%TO.N,GND*%
X128335000Y-47625000D03*
%TO.P,U1,9*%
%TO.N,Net-(C5-Pad1)*%
X133285000Y-47625000D03*
%TO.P,U1,10*%
%TO.N,Net-(R6-Pad1)*%
X133285000Y-48895000D03*
%TO.P,U1,11*%
%TO.N,Net-(J3-Pad7)*%
X133285000Y-50165000D03*
%TO.P,U1,12*%
%TO.N,Net-(D2-Pad1)*%
X133285000Y-51435000D03*
%TO.P,U1,13*%
%TO.N,N/C*%
X133285000Y-52705000D03*
%TO.P,U1,14*%
%TO.N,GND*%
X133285000Y-53975000D03*
%TO.P,U1,15*%
%TO.N,unconnected-(U1-Pad15)*%
X133285000Y-55245000D03*
%TO.P,U1,16*%
%TO.N,N/C*%
X133285000Y-56515000D03*
%TD*%
D20*
%TO.P,R4,1*%
%TO.N,Net-(C5-Pad1)*%
X123460000Y-54610000D03*
%TO.P,R4,2*%
%TO.N,Net-(R4-Pad2)*%
X125460000Y-54610000D03*
%TD*%
D16*
%TO.P,C1,1*%
%TO.N,Net-(C1-Pad1)*%
X115337500Y-66040000D03*
%TO.P,C1,2*%
%TO.N,Net-(C1-Pad2)*%
X113262500Y-66040000D03*
%TD*%
D20*
%TO.P,R1,1*%
%TO.N,GND*%
X113300000Y-63500000D03*
%TO.P,R1,2*%
%TO.N,Net-(C1-Pad1)*%
X115300000Y-63500000D03*
%TD*%
%TO.P,R5,1*%
%TO.N,Net-(R4-Pad2)*%
X123460000Y-52070000D03*
%TO.P,R5,2*%
%TO.N,Net-(JP1-Pad1)*%
X125460000Y-52070000D03*
%TD*%
D24*
%TO.P,C4,1*%
%TO.N,GND*%
X113262500Y-60960000D03*
%TO.P,C4,2*%
%TO.N,Net-(C1-Pad1)*%
X115337500Y-60960000D03*
%TD*%
D25*
%TO.N,GND*%
X123190000Y-58420000D03*
X135255000Y-64135000D03*
X135165500Y-53975000D03*
X109855000Y-42545000D03*
X125909503Y-48260000D03*
X135890000Y-43180000D03*
X117475000Y-57785000D03*
X109855000Y-55880000D03*
%TO.N,+5V*%
X128270000Y-59690000D03*
%TO.N,Net-(J3-Pad5)*%
X137160000Y-50800000D03*
%TO.N,Net-(J3-Pad7)*%
X137121076Y-53301076D03*
%TO.N,Net-(JP1-Pad1)*%
X130810000Y-48260000D03*
%TO.N,Net-(R6-Pad1)*%
X135851076Y-49568924D03*
X135890000Y-58420000D03*
%TD*%
D26*
%TO.N,Net-(JP1-Pad1)*%
X128334999Y-52705000D02*
X127958248Y-52705000D01*
X128617563Y-52705000D02*
X128429187Y-52705000D01*
%TO.N,+5V*%
X120967504Y-47942504D02*
G75*
G03*
X121285000Y-47175987I-766504J766504D01*
G01*
X120650006Y-48709012D02*
G75*
G02*
X120967500Y-47942500I1083994J12D01*
G01*
%TO.N,GND*%
X117617500Y-49465000D02*
G75*
G02*
X117475000Y-49322500I0J142500D01*
G01*
X118570000Y-49465000D02*
G75*
G02*
X118745000Y-49640000I0J-175000D01*
G01*
X133855000Y-53975000D02*
X133285000Y-53975000D01*
X117617500Y-49465000D02*
X118570000Y-49465000D01*
%TO.N,+5V*%
X122966248Y-56580000D02*
X128224038Y-56580000D01*
X121328428Y-55901571D02*
G75*
G03*
X122966248Y-56580000I1637872J1637871D01*
G01*
X121285000Y-47175987D02*
X121285000Y-44515000D01*
X120650000Y-48709012D02*
X120650000Y-54263751D01*
X120650021Y-54263751D02*
G75*
G03*
X121328414Y-55901585I2316179J-49D01*
G01*
%TO.N,Net-(C1-Pad1)*%
X115364016Y-60960000D02*
X118380000Y-60960000D01*
X115300000Y-61024016D02*
X115300000Y-63473483D01*
X115337500Y-63564016D02*
X115337500Y-66040000D01*
X115318755Y-63518745D02*
G75*
G02*
X115337500Y-63564016I-45255J-45255D01*
G01*
X115318745Y-63518755D02*
G75*
G02*
X115300000Y-63473483I45255J45255D01*
G01*
X115318745Y-60978745D02*
G75*
G02*
X115364016Y-60960000I45255J-45255D01*
G01*
X115318745Y-60978745D02*
G75*
G03*
X115300000Y-61024016I45255J-45255D01*
G01*
%TO.N,Net-(C1-Pad2)*%
X110490000Y-66040000D02*
X113262500Y-66040000D01*
%TO.N,Net-(C2-Pad1)*%
X113030000Y-49659148D02*
X113030000Y-53340000D01*
X114183750Y-46873750D02*
X115337500Y-45720000D01*
X113030021Y-49659148D02*
G75*
G02*
X114183751Y-46873751I3939079J48D01*
G01*
%TO.N,Net-(C2-Pad2)*%
X110490000Y-45720000D02*
X113262500Y-45720000D01*
%TO.N,GND*%
X128017500Y-47942500D02*
X128335000Y-47625000D01*
X116824461Y-47005538D02*
X116019012Y-47810987D01*
X117475000Y-45435000D02*
X117475000Y-44515000D01*
X131987500Y-54702500D02*
X132513474Y-54176525D01*
X133285000Y-53975000D02*
X133000000Y-53975000D01*
X118745000Y-49815000D02*
X118745000Y-49640000D01*
X125909503Y-48260000D02*
X127250987Y-48260000D01*
X118497512Y-50412487D02*
X118427500Y-50482500D01*
X117475000Y-50800000D02*
X117660987Y-50800000D01*
X116019012Y-49979012D02*
X116390987Y-50350987D01*
X135165500Y-53975000D02*
X133855000Y-53975000D01*
X131260000Y-56857997D02*
X131260000Y-56458840D01*
X130802500Y-57962500D02*
X130345000Y-58420000D01*
X115569992Y-48895000D02*
G75*
G02*
X116019012Y-47810987I1533008J0D01*
G01*
X117660987Y-50799994D02*
G75*
G03*
X118427500Y-50482500I13J1083994D01*
G01*
X128017504Y-47942504D02*
G75*
G02*
X127250987Y-48260000I-766504J766504D01*
G01*
X115569993Y-48895000D02*
G75*
G03*
X116019012Y-49979012I1533007J0D01*
G01*
X117474992Y-45435000D02*
G75*
G02*
X116824461Y-47005538I-2221092J0D01*
G01*
X133000000Y-53974985D02*
G75*
G03*
X132513474Y-54176525I0J-688015D01*
G01*
X117475000Y-50800007D02*
G75*
G02*
X116390987Y-50350987I0J1533007D01*
G01*
X131260017Y-56458840D02*
G75*
G02*
X131987500Y-54702500I2483783J40D01*
G01*
X118744991Y-49815000D02*
G75*
G02*
X118497511Y-50412486I-844991J0D01*
G01*
X130802501Y-57962501D02*
G75*
G03*
X131260000Y-56857997I-1104501J1104501D01*
G01*
%TO.N,+5V*%
X128302500Y-56547500D02*
X128335000Y-56515000D01*
%TO.N,GND*%
X117475000Y-49322500D02*
X117475000Y-49180000D01*
%TO.N,+5V*%
X128270000Y-58420000D02*
X128270000Y-59690000D01*
X128270000Y-58420000D02*
X128270000Y-56625961D01*
X127905000Y-64405000D02*
X128270000Y-64040000D01*
X127023812Y-64770000D02*
X125730000Y-64770000D01*
X128269985Y-56625961D02*
G75*
G02*
X128302501Y-56547501I111015J-39D01*
G01*
%TO.N,GND*%
X117676536Y-48693485D02*
G75*
G03*
X117475000Y-49180000I486464J-486515D01*
G01*
%TO.N,+5V*%
X128270000Y-56625961D02*
G75*
G03*
X128224038Y-56580000I-46000J-39D01*
G01*
X128224038Y-56580015D02*
G75*
G03*
X128302499Y-56547499I-38J111015D01*
G01*
X127023812Y-64770004D02*
G75*
G03*
X127904999Y-64404999I-12J1246204D01*
G01*
%TO.N,Net-(C5-Pad1)*%
X121687500Y-52070000D02*
X121687500Y-50152110D01*
X132967500Y-47307500D02*
X133285000Y-47625000D01*
X121687500Y-52070000D02*
X121687500Y-54545983D01*
X121676516Y-54610000D02*
X123460000Y-54610000D01*
X125510089Y-46990000D02*
X132200987Y-46990000D01*
X122522500Y-48227500D02*
X121486250Y-49263750D01*
X132967504Y-47307496D02*
G75*
G03*
X132200987Y-46990000I-766504J-766504D01*
G01*
X121486250Y-49263750D02*
G75*
G03*
X121486250Y-49666250I201250J-201250D01*
G01*
X121668722Y-54591222D02*
G75*
G03*
X121676516Y-54610000I7778J-7778D01*
G01*
X125510089Y-46989996D02*
G75*
G03*
X122522500Y-48227500I11J-4225104D01*
G01*
X121687493Y-54545983D02*
G75*
G02*
X121668750Y-54591250I-63993J-17D01*
G01*
X121687495Y-50152110D02*
G75*
G03*
X121486250Y-49666250I-687095J10D01*
G01*
%TO.N,Net-(C5-Pad2)*%
X119747500Y-51935000D02*
X119477500Y-52205000D01*
X119151581Y-52340000D02*
X116840000Y-52340000D01*
X119612500Y-54545983D02*
X119612500Y-52260918D01*
X119747500Y-51935000D02*
X119813750Y-51868750D01*
X119631250Y-54591250D02*
X119650000Y-54610000D01*
X120015000Y-51382889D02*
X120015000Y-49465000D01*
X119813753Y-51868753D02*
G75*
G03*
X120015000Y-51382889I-485853J485853D01*
G01*
X119151581Y-52339992D02*
G75*
G03*
X119477500Y-52205000I19J460892D01*
G01*
X119631245Y-54591255D02*
G75*
G02*
X119612500Y-54545983I45255J45255D01*
G01*
X119747494Y-51934994D02*
G75*
G03*
X119612500Y-52260918I325906J-325906D01*
G01*
X119477468Y-52204968D02*
G75*
G02*
X119612500Y-52260918I55932J-55932D01*
G01*
%TO.N,Net-(D1-Pad2)*%
X123190000Y-62690918D02*
X123190000Y-64770000D01*
X123325000Y-62365000D02*
X123460000Y-62230000D01*
X123324994Y-62364994D02*
G75*
G03*
X123190000Y-62690918I325906J-325906D01*
G01*
%TO.N,Net-(D2-Pad1)*%
X129248986Y-60510000D02*
X121949759Y-60510000D01*
X120015000Y-64135000D02*
X120650000Y-64770000D01*
X119380000Y-60638032D02*
X119380000Y-62601974D01*
X133096624Y-51435000D02*
X133285000Y-51435000D01*
X129432500Y-58680866D02*
X129432500Y-60326486D01*
X120561586Y-59935000D02*
X120083032Y-59935000D01*
X132775047Y-51568201D02*
X131798562Y-52544686D01*
X130810000Y-55355287D02*
X130810000Y-54931288D01*
X119585904Y-60140904D02*
G75*
G03*
X119380000Y-60638032I497096J-497096D01*
G01*
X129378747Y-60454761D02*
G75*
G03*
X129432500Y-60325000I-129747J129761D01*
G01*
X129378754Y-60456254D02*
G75*
G02*
X129248986Y-60510000I-129754J129754D01*
G01*
X119380011Y-62601974D02*
G75*
G03*
X120015000Y-64135000I2167989J-26D01*
G01*
X121255690Y-60222483D02*
G75*
G03*
X121949759Y-60510000I694110J694083D01*
G01*
X119585904Y-60140904D02*
G75*
G02*
X120083032Y-59935000I497096J-497096D01*
G01*
X133096624Y-51435023D02*
G75*
G03*
X132775047Y-51568201I-24J-454777D01*
G01*
X121255683Y-60222490D02*
G75*
G03*
X120561586Y-59935000I-694083J-694110D01*
G01*
X130121269Y-57018096D02*
G75*
G03*
X130810000Y-55355287I-1662869J1662796D01*
G01*
X129432465Y-58680866D02*
G75*
G02*
X130121250Y-57018077I2351535J-34D01*
G01*
X130810002Y-54931288D02*
G75*
G02*
X131798563Y-52544687I3375198J-12D01*
G01*
%TO.N,Net-(D2-Pad2)*%
X120278025Y-66040000D02*
X128270000Y-66040000D01*
X118745000Y-65405000D02*
X118110000Y-64770000D01*
X118744992Y-65405008D02*
G75*
G03*
X120278025Y-66040000I1533008J1533008D01*
G01*
%TO.N,Net-(J3-Pad3)*%
X128232787Y-60960000D02*
X120380000Y-60960000D01*
X140173743Y-49406256D02*
X140970000Y-48610000D01*
X138916260Y-52530490D02*
X132080543Y-59366207D01*
X139700000Y-49705000D02*
X139700000Y-50638375D01*
X139875000Y-49529995D02*
G75*
G03*
X140173743Y-49406256I0J422495D01*
G01*
X128270000Y-60959984D02*
G75*
G03*
X132117755Y-59366206I0J5441584D01*
G01*
X139875000Y-49530000D02*
G75*
G03*
X139700000Y-49705000I0J-175000D01*
G01*
X139699968Y-50638375D02*
G75*
G02*
X138916259Y-52530489I-2675868J-25D01*
G01*
%TO.N,Net-(J3-Pad5)*%
X137160000Y-50326624D02*
X137160000Y-50800000D01*
X134620543Y-47313792D02*
X136825272Y-49518521D01*
X130772787Y-45720000D02*
X124460000Y-45720000D01*
X136825278Y-49518515D02*
G75*
G02*
X137160000Y-50326624I-808078J-808085D01*
G01*
X130772787Y-45720024D02*
G75*
G02*
X134620543Y-47313792I13J-5441576D01*
G01*
%TO.N,Net-(J3-Pad7)*%
X134232487Y-50412487D02*
X137121076Y-53301076D01*
X133635000Y-50165000D02*
X133285000Y-50165000D01*
X133635000Y-50165008D02*
G75*
G02*
X134232487Y-50412487I0J-844992D01*
G01*
%TO.N,Net-(JP1-Pad1)*%
X130810000Y-48895000D02*
X130810000Y-48260000D01*
X129725987Y-48895000D02*
X128335000Y-48895000D01*
X130810000Y-48260000D02*
X130492500Y-48577500D01*
X130175000Y-50165000D02*
X130360987Y-49979012D01*
X128334999Y-52705000D02*
X128429187Y-52705000D01*
X128617563Y-52705000D02*
X128711751Y-52705000D01*
X126095000Y-51435000D02*
X125777500Y-51752500D01*
X127628025Y-50800000D02*
X128641974Y-50800000D01*
X126544012Y-52705000D02*
X127958248Y-52705000D01*
X126544012Y-52704994D02*
G75*
G02*
X125777500Y-52387500I-12J1083994D01*
G01*
X128641974Y-50799989D02*
G75*
G03*
X130175000Y-50165000I26J2167989D01*
G01*
X129725987Y-48894994D02*
G75*
G03*
X130492500Y-48577500I13J1083994D01*
G01*
X125777501Y-51752501D02*
G75*
G03*
X125777501Y-52387499I317499J-317499D01*
G01*
X127628025Y-50800011D02*
G75*
G03*
X126095000Y-51435000I-25J-2167989D01*
G01*
X130360982Y-49979007D02*
G75*
G03*
X130810000Y-48895000I-1083982J1084007D01*
G01*
%TO.N,Net-(JP1-Pad3)*%
X127350000Y-50165000D02*
X128335000Y-50165000D01*
X125668499Y-49468499D02*
X124460000Y-48260000D01*
X125668499Y-49468499D02*
G75*
G03*
X127350000Y-50165000I1681501J1681499D01*
G01*
%TO.N,Net-(R2-Pad1)*%
X116090000Y-55090000D02*
X116840000Y-54340000D01*
X114279339Y-55840000D02*
X113030000Y-55840000D01*
X116089988Y-55089988D02*
G75*
G02*
X114279339Y-55840000I-1810688J1810688D01*
G01*
%TO.N,Net-(R4-Pad2)*%
X126544012Y-53975000D02*
X128335000Y-53975000D01*
X125142500Y-54292500D02*
X123650918Y-52800918D01*
X123460000Y-52340000D02*
X123460000Y-52070000D01*
X123459989Y-52340000D02*
G75*
G03*
X123650918Y-52800918I651811J0D01*
G01*
X126544012Y-53975006D02*
G75*
G03*
X125777500Y-54292500I-12J-1083994D01*
G01*
X125142501Y-54292499D02*
G75*
G03*
X125777499Y-54292499I317499J317502D01*
G01*
%TO.N,Net-(R6-Pad1)*%
X135514114Y-49231962D02*
X135851076Y-49568924D01*
X133673792Y-60636207D02*
X135890000Y-58420000D01*
X129826036Y-62230000D02*
X125460000Y-62230000D01*
X134700615Y-48895000D02*
X133285000Y-48895000D01*
X134700615Y-48895001D02*
G75*
G02*
X135514114Y-49231962I-15J-1150499D01*
G01*
X129826036Y-62230010D02*
G75*
G03*
X133673792Y-60636207I-36J5441610D01*
G01*
%TO.N,Net-(U1-Pad2)*%
X129635000Y-53011084D02*
X129635000Y-53998812D01*
X128523375Y-51435000D02*
X128335000Y-51435000D01*
X128620000Y-55245000D02*
X128335000Y-55245000D01*
X128844952Y-51568201D02*
X129173375Y-51896624D01*
X129106525Y-55043474D02*
X129270000Y-54880000D01*
X129269996Y-54879996D02*
G75*
G03*
X129635000Y-53998812I-881196J881196D01*
G01*
X129173370Y-51896629D02*
G75*
G02*
X129635000Y-53011084I-1114470J-1114471D01*
G01*
X128523375Y-51435024D02*
G75*
G02*
X128844952Y-51568201I25J-454776D01*
G01*
X129106536Y-55043485D02*
G75*
G02*
X128620000Y-55245000I-486536J486585D01*
G01*
%TO.N,Net-(U2-Pad6)*%
X118745000Y-44515000D02*
X120015000Y-44515000D01*
%TD*%
%TA.AperFunction,Conductor*%
%TO.N,Net-(R2-Pad1)*%
G36*
X113429816Y-55034068D02*
G01*
X113618727Y-55136311D01*
X113619493Y-55136765D01*
X113789896Y-55246551D01*
X113790299Y-55246824D01*
X113942694Y-55354728D01*
X114084282Y-55454862D01*
X114222284Y-55541313D01*
X114364111Y-55608303D01*
X114364601Y-55608437D01*
X114364602Y-55608437D01*
X114461006Y-55634733D01*
X114517174Y-55650054D01*
X114625483Y-55656826D01*
X114688319Y-55660755D01*
X114688322Y-55660755D01*
X114688883Y-55660790D01*
X114797729Y-55646449D01*
X114886190Y-55634794D01*
X114886195Y-55634793D01*
X114886650Y-55634733D01*
X114975255Y-55608437D01*
X115107354Y-55569233D01*
X115116260Y-55570164D01*
X115121668Y-55576421D01*
X115199970Y-55789952D01*
X115199601Y-55798899D01*
X115193128Y-55804921D01*
X114950123Y-55896895D01*
X114738246Y-55983104D01*
X114738181Y-55983133D01*
X114738154Y-55983144D01*
X114558966Y-56062188D01*
X114558896Y-56062219D01*
X114558815Y-56062258D01*
X114558808Y-56062261D01*
X114402755Y-56136957D01*
X114402734Y-56136967D01*
X114402645Y-56137010D01*
X114402566Y-56137051D01*
X114402549Y-56137059D01*
X114260067Y-56210245D01*
X114121734Y-56284693D01*
X113978218Y-56363123D01*
X113820152Y-56448273D01*
X113820045Y-56448329D01*
X113723977Y-56498273D01*
X113637992Y-56542975D01*
X113637861Y-56543042D01*
X113429674Y-56646341D01*
X113420741Y-56646948D01*
X113416365Y-56644293D01*
X113311095Y-56543059D01*
X112588769Y-55848433D01*
X112585181Y-55840229D01*
X112588769Y-55831567D01*
X113416139Y-55035925D01*
X113424477Y-55032660D01*
X113429816Y-55034068D01*
G37*
%TD.AperFunction*%
%TD*%
%TA.AperFunction,Conductor*%
%TO.N,Net-(J3-Pad3)*%
G36*
X139667016Y-49318480D02*
G01*
X139768997Y-49399861D01*
X139770305Y-49400149D01*
X139770307Y-49400150D01*
X139839419Y-49415367D01*
X139859973Y-49419892D01*
X139867316Y-49425017D01*
X139868883Y-49433834D01*
X139865417Y-49439893D01*
X139797721Y-49502727D01*
X139795316Y-49504448D01*
X139696134Y-49557887D01*
X139690531Y-49559287D01*
X139590929Y-49558835D01*
X139584397Y-49556806D01*
X139489604Y-49492267D01*
X139484694Y-49484779D01*
X139486518Y-49476011D01*
X139488141Y-49474104D01*
X139651672Y-49319134D01*
X139660034Y-49315930D01*
X139667016Y-49318480D01*
G37*
%TD.AperFunction*%
%TA.AperFunction,Conductor*%
G36*
X141187178Y-48375200D02*
G01*
X141190766Y-48383404D01*
X141187192Y-48392052D01*
X140517838Y-49037840D01*
X140486667Y-49067914D01*
X140478333Y-49071192D01*
X140472282Y-49069378D01*
X140397868Y-49022244D01*
X140382637Y-49012597D01*
X140286079Y-49022244D01*
X140189818Y-49085040D01*
X140189378Y-49085486D01*
X140113648Y-49162179D01*
X140105397Y-49165658D01*
X140097102Y-49162283D01*
X140093623Y-49154032D01*
X140094403Y-49149758D01*
X140119425Y-49084698D01*
X140137510Y-49037674D01*
X140142130Y-49023013D01*
X140188644Y-48875377D01*
X140188651Y-48875354D01*
X140188683Y-48875252D01*
X140236915Y-48706228D01*
X140284120Y-48540777D01*
X140284218Y-48540453D01*
X140329849Y-48396481D01*
X140335615Y-48389630D01*
X140340773Y-48388318D01*
X141178839Y-48371935D01*
X141187178Y-48375200D01*
G37*
%TD.AperFunction*%
%TD*%
%TA.AperFunction,Conductor*%
%TO.N,+5V*%
G36*
X126129838Y-63964139D02*
G01*
X126314292Y-64065426D01*
X126315064Y-64065891D01*
X126490410Y-64180836D01*
X126490765Y-64181077D01*
X126653908Y-64296917D01*
X126808413Y-64404438D01*
X126808555Y-64404523D01*
X126808565Y-64404530D01*
X126932973Y-64479430D01*
X126957947Y-64494466D01*
X127062931Y-64539374D01*
X127105736Y-64557684D01*
X127105738Y-64557685D01*
X127106335Y-64557940D01*
X127257404Y-64585801D01*
X127258248Y-64585711D01*
X127414130Y-64569079D01*
X127414132Y-64569078D01*
X127414980Y-64568988D01*
X127582890Y-64498440D01*
X127711394Y-64404329D01*
X127756335Y-64371416D01*
X127765034Y-64369292D01*
X127772027Y-64373121D01*
X127799617Y-64404438D01*
X127922140Y-64543516D01*
X127925038Y-64551988D01*
X127920706Y-64560356D01*
X127910002Y-64568988D01*
X127734710Y-64710351D01*
X127733793Y-64711021D01*
X127557608Y-64826808D01*
X127556601Y-64827399D01*
X127395148Y-64911568D01*
X127394212Y-64912004D01*
X127243185Y-64974489D01*
X127242575Y-64974722D01*
X127097566Y-65025438D01*
X127097477Y-65025468D01*
X126954812Y-65074091D01*
X126954654Y-65074145D01*
X126810039Y-65130612D01*
X126809822Y-65130719D01*
X126809815Y-65130722D01*
X126742550Y-65163859D01*
X126659617Y-65204713D01*
X126659363Y-65204874D01*
X126659354Y-65204879D01*
X126559651Y-65268066D01*
X126499283Y-65306323D01*
X126499040Y-65306517D01*
X126331512Y-65440072D01*
X126322907Y-65442549D01*
X126317868Y-65440749D01*
X125292408Y-64778019D01*
X125287320Y-64770651D01*
X125288933Y-64761842D01*
X125290649Y-64759760D01*
X126012186Y-64065891D01*
X126116099Y-63965963D01*
X126124438Y-63962698D01*
X126129838Y-63964139D01*
G37*
%TD.AperFunction*%
%TD*%
%TA.AperFunction,Conductor*%
%TO.N,Net-(C2-Pad2)*%
G36*
X110868034Y-44959102D02*
G01*
X111018744Y-45041224D01*
X111019663Y-45041781D01*
X111150713Y-45129682D01*
X111151357Y-45130149D01*
X111231073Y-45192172D01*
X111263688Y-45217548D01*
X111263984Y-45217786D01*
X111365455Y-45302167D01*
X111463741Y-45380804D01*
X111566548Y-45450978D01*
X111681726Y-45510085D01*
X111752846Y-45533953D01*
X111816721Y-45555390D01*
X111816724Y-45555391D01*
X111817127Y-45555526D01*
X111926165Y-45574983D01*
X111980241Y-45584633D01*
X111980245Y-45584633D01*
X111980601Y-45584697D01*
X111980969Y-45584716D01*
X112168904Y-45594427D01*
X112176989Y-45598276D01*
X112180000Y-45606111D01*
X112180000Y-45833889D01*
X112176573Y-45842162D01*
X112168904Y-45845573D01*
X111989259Y-45854855D01*
X111980601Y-45855302D01*
X111980245Y-45855366D01*
X111980241Y-45855366D01*
X111926165Y-45865016D01*
X111817127Y-45884473D01*
X111816724Y-45884608D01*
X111816721Y-45884609D01*
X111752846Y-45906046D01*
X111681726Y-45929914D01*
X111566548Y-45989021D01*
X111463741Y-46059195D01*
X111365455Y-46137832D01*
X111365417Y-46137864D01*
X111263984Y-46222213D01*
X111263688Y-46222451D01*
X111151357Y-46309850D01*
X111150713Y-46310317D01*
X111049073Y-46378492D01*
X111019663Y-46398218D01*
X111018744Y-46398775D01*
X110871413Y-46479057D01*
X110868034Y-46480898D01*
X110859130Y-46481847D01*
X110854326Y-46479057D01*
X110587487Y-46222451D01*
X110073769Y-45728433D01*
X110070181Y-45720229D01*
X110073769Y-45711567D01*
X110183431Y-45606111D01*
X110854326Y-44960943D01*
X110862665Y-44957678D01*
X110868034Y-44959102D01*
G37*
%TD.AperFunction*%
%TD*%
%TA.AperFunction,Conductor*%
%TO.N,Net-(R6-Pad1)*%
G36*
X135251825Y-48895177D02*
G01*
X135341292Y-48936834D01*
X135426414Y-48975859D01*
X135500042Y-49008784D01*
X135500090Y-49008805D01*
X135565547Y-49037040D01*
X135565682Y-49037097D01*
X135626523Y-49062155D01*
X135626548Y-49062165D01*
X135626565Y-49062172D01*
X135686336Y-49085554D01*
X135748361Y-49108676D01*
X135816080Y-49132997D01*
X135816113Y-49133009D01*
X135892929Y-49159978D01*
X135974651Y-49188402D01*
X135981339Y-49194357D01*
X135982505Y-49199224D01*
X135992259Y-49698180D01*
X135988994Y-49706519D01*
X135980332Y-49710107D01*
X135481693Y-49700359D01*
X135473489Y-49696771D01*
X135470740Y-49692103D01*
X135449132Y-49621894D01*
X135448954Y-49621250D01*
X135431133Y-49548896D01*
X135431065Y-49548608D01*
X135416249Y-49481141D01*
X135401413Y-49418567D01*
X135401369Y-49418381D01*
X135383309Y-49359967D01*
X135383166Y-49359648D01*
X135383163Y-49359639D01*
X135359121Y-49305870D01*
X135359120Y-49305867D01*
X135358924Y-49305430D01*
X135325071Y-49254302D01*
X135278606Y-49206113D01*
X135216388Y-49160395D01*
X135198840Y-49150937D01*
X135145005Y-49121923D01*
X135139348Y-49114982D01*
X135139959Y-49106665D01*
X135185766Y-49008784D01*
X135236289Y-48900825D01*
X135242900Y-48894784D01*
X135251825Y-48895177D01*
G37*
%TD.AperFunction*%
%TD*%
%TA.AperFunction,Conductor*%
%TO.N,Net-(D2-Pad1)*%
G36*
X119638924Y-63336607D02*
G01*
X119644716Y-63342254D01*
X119722794Y-63505957D01*
X119817020Y-63630582D01*
X119922431Y-63715131D01*
X119923089Y-63715432D01*
X119923092Y-63715434D01*
X120005584Y-63753196D01*
X120038714Y-63768362D01*
X120039257Y-63768493D01*
X120039262Y-63768495D01*
X120100876Y-63783393D01*
X120165558Y-63799034D01*
X120165897Y-63799076D01*
X120165904Y-63799077D01*
X120302502Y-63815885D01*
X120302517Y-63815887D01*
X120302651Y-63815903D01*
X120302790Y-63815914D01*
X120302798Y-63815915D01*
X120384201Y-63822462D01*
X120449567Y-63827720D01*
X120449753Y-63827736D01*
X120483890Y-63831122D01*
X120605941Y-63843229D01*
X120606733Y-63843335D01*
X120702475Y-63859492D01*
X120771698Y-63871174D01*
X120772906Y-63871445D01*
X120938907Y-63918160D01*
X120945943Y-63923700D01*
X120947436Y-63929221D01*
X120955711Y-64408080D01*
X120966976Y-65060004D01*
X120967265Y-65076755D01*
X120963982Y-65085086D01*
X120955313Y-65088654D01*
X119807553Y-65063610D01*
X119799357Y-65060004D01*
X119796653Y-65055438D01*
X119737336Y-64867707D01*
X119737155Y-64867073D01*
X119694010Y-64697896D01*
X119693869Y-64697272D01*
X119664211Y-64547078D01*
X119664125Y-64546587D01*
X119642852Y-64408080D01*
X119642820Y-64407859D01*
X119624845Y-64273771D01*
X119605118Y-64137221D01*
X119605100Y-64137095D01*
X119578500Y-63990749D01*
X119539947Y-63827554D01*
X119484344Y-63640327D01*
X119410423Y-63432653D01*
X119410878Y-63423711D01*
X119417262Y-63417805D01*
X119514861Y-63380437D01*
X119629973Y-63336364D01*
X119638924Y-63336607D01*
G37*
%TD.AperFunction*%
%TD*%
%TA.AperFunction,Conductor*%
%TO.N,Net-(JP1-Pad1)*%
G36*
X130947595Y-48122082D02*
G01*
X130951183Y-48130744D01*
X130951064Y-48136857D01*
X130941270Y-48637846D01*
X130854238Y-48667913D01*
X130779315Y-48693631D01*
X130713158Y-48716448D01*
X130652430Y-48737813D01*
X130593788Y-48759176D01*
X130533894Y-48781987D01*
X130469408Y-48807694D01*
X130396988Y-48837747D01*
X130313297Y-48873596D01*
X130225673Y-48912008D01*
X130216721Y-48912191D01*
X130210276Y-48906024D01*
X130180081Y-48837747D01*
X130118334Y-48698126D01*
X130118122Y-48689174D01*
X130123665Y-48682998D01*
X130191863Y-48647778D01*
X130251318Y-48604842D01*
X130295346Y-48558935D01*
X130295653Y-48558459D01*
X130326780Y-48510172D01*
X130326783Y-48510166D01*
X130327050Y-48509752D01*
X130349530Y-48456988D01*
X130365889Y-48400336D01*
X130365925Y-48400171D01*
X130365929Y-48400156D01*
X130379230Y-48339490D01*
X130379242Y-48339434D01*
X130392621Y-48274295D01*
X130392697Y-48273954D01*
X130393407Y-48270957D01*
X130409175Y-48204350D01*
X130409363Y-48203653D01*
X130429682Y-48136857D01*
X130435369Y-48129939D01*
X130440647Y-48128564D01*
X130455383Y-48128276D01*
X130749878Y-48122519D01*
X130867903Y-48120212D01*
X130911742Y-48119355D01*
X130939256Y-48118817D01*
X130947595Y-48122082D01*
G37*
%TD.AperFunction*%
%TD*%
%TA.AperFunction,Conductor*%
%TO.N,Net-(R6-Pad1)*%
G36*
X136027595Y-58282082D02*
G01*
X136031183Y-58290744D01*
X136021434Y-58789443D01*
X136017846Y-58797647D01*
X136013253Y-58800373D01*
X135946367Y-58821457D01*
X135945811Y-58821617D01*
X135879130Y-58838906D01*
X135878797Y-58838987D01*
X135818089Y-58852699D01*
X135818089Y-58852698D01*
X135818085Y-58852700D01*
X135761745Y-58865407D01*
X135708153Y-58879706D01*
X135707934Y-58879783D01*
X135707931Y-58879784D01*
X135655844Y-58898118D01*
X135655836Y-58898121D01*
X135655550Y-58898222D01*
X135602175Y-58923583D01*
X135601897Y-58923756D01*
X135601890Y-58923760D01*
X135546525Y-58958251D01*
X135546262Y-58958415D01*
X135546024Y-58958601D01*
X135546019Y-58958604D01*
X135486243Y-59005195D01*
X135486236Y-59005201D01*
X135486050Y-59005346D01*
X135456807Y-59032551D01*
X135428037Y-59059315D01*
X135419646Y-59062441D01*
X135411795Y-59059022D01*
X135250977Y-58898204D01*
X135247550Y-58889931D01*
X135250683Y-58881964D01*
X135304653Y-58823949D01*
X135304798Y-58823763D01*
X135304804Y-58823756D01*
X135351395Y-58763980D01*
X135351398Y-58763975D01*
X135351584Y-58763737D01*
X135351748Y-58763474D01*
X135386239Y-58708109D01*
X135386243Y-58708102D01*
X135386416Y-58707824D01*
X135411777Y-58654449D01*
X135411878Y-58654163D01*
X135411881Y-58654155D01*
X135430215Y-58602068D01*
X135430216Y-58602065D01*
X135430293Y-58601846D01*
X135444592Y-58548254D01*
X135457299Y-58491914D01*
X135457302Y-58491910D01*
X135457300Y-58491910D01*
X135471012Y-58431202D01*
X135471100Y-58430843D01*
X135488375Y-58364218D01*
X135488541Y-58363637D01*
X135509627Y-58296746D01*
X135515383Y-58289886D01*
X135520557Y-58288566D01*
X136019256Y-58278817D01*
X136027595Y-58282082D01*
G37*
%TD.AperFunction*%
%TD*%
%TA.AperFunction,Conductor*%
%TO.N,Net-(C1-Pad2)*%
G36*
X110868034Y-65279102D02*
G01*
X111018744Y-65361224D01*
X111019663Y-65361781D01*
X111150713Y-65449682D01*
X111151357Y-65450149D01*
X111231073Y-65512172D01*
X111263688Y-65537548D01*
X111263984Y-65537786D01*
X111365455Y-65622167D01*
X111463741Y-65700804D01*
X111566548Y-65770978D01*
X111681726Y-65830085D01*
X111752846Y-65853953D01*
X111816721Y-65875390D01*
X111816724Y-65875391D01*
X111817127Y-65875526D01*
X111926165Y-65894983D01*
X111980241Y-65904633D01*
X111980245Y-65904633D01*
X111980601Y-65904697D01*
X111980969Y-65904716D01*
X112168904Y-65914427D01*
X112176989Y-65918276D01*
X112180000Y-65926111D01*
X112180000Y-66153889D01*
X112176573Y-66162162D01*
X112168904Y-66165573D01*
X111989259Y-66174855D01*
X111980601Y-66175302D01*
X111980245Y-66175366D01*
X111980241Y-66175366D01*
X111926165Y-66185016D01*
X111817127Y-66204473D01*
X111816724Y-66204608D01*
X111816721Y-66204609D01*
X111752846Y-66226046D01*
X111681726Y-66249914D01*
X111566548Y-66309021D01*
X111463741Y-66379195D01*
X111365455Y-66457832D01*
X111365417Y-66457864D01*
X111263984Y-66542213D01*
X111263688Y-66542451D01*
X111151357Y-66629850D01*
X111150713Y-66630317D01*
X111049073Y-66698491D01*
X111019663Y-66718218D01*
X111018744Y-66718775D01*
X110871413Y-66799057D01*
X110868034Y-66800898D01*
X110859130Y-66801847D01*
X110854326Y-66799057D01*
X110587487Y-66542451D01*
X110073769Y-66048433D01*
X110070181Y-66040229D01*
X110073769Y-66031567D01*
X110183431Y-65926111D01*
X110854326Y-65280943D01*
X110862665Y-65277678D01*
X110868034Y-65279102D01*
G37*
%TD.AperFunction*%
%TD*%
%TA.AperFunction,Conductor*%
%TO.N,+5V*%
G36*
X128391988Y-58903427D02*
G01*
X128395407Y-58911278D01*
X128398266Y-58990461D01*
X128407658Y-59066222D01*
X128422564Y-59130389D01*
X128442374Y-59186064D01*
X128466476Y-59236352D01*
X128494261Y-59284359D01*
X128494304Y-59284427D01*
X128494310Y-59284437D01*
X128525116Y-59333187D01*
X128525118Y-59333190D01*
X128558320Y-59385763D01*
X128558513Y-59386078D01*
X128593443Y-59445465D01*
X128593736Y-59445994D01*
X128626119Y-59508191D01*
X128626900Y-59517112D01*
X128624175Y-59521702D01*
X128278433Y-59881231D01*
X128270229Y-59884819D01*
X128261567Y-59881231D01*
X127915826Y-59521703D01*
X127912561Y-59513364D01*
X127913881Y-59508190D01*
X127946263Y-59445994D01*
X127946556Y-59445465D01*
X127981486Y-59386078D01*
X127981679Y-59385763D01*
X128014881Y-59333190D01*
X128014884Y-59333188D01*
X128014883Y-59333187D01*
X128045689Y-59284437D01*
X128045695Y-59284427D01*
X128045738Y-59284359D01*
X128073523Y-59236352D01*
X128097625Y-59186064D01*
X128117435Y-59130389D01*
X128132341Y-59066222D01*
X128141733Y-58990461D01*
X128144593Y-58911278D01*
X128148316Y-58903134D01*
X128156285Y-58900000D01*
X128383715Y-58900000D01*
X128391988Y-58903427D01*
G37*
%TD.AperFunction*%
%TD*%
%TA.AperFunction,Conductor*%
%TO.N,Net-(JP1-Pad1)*%
G36*
X130818433Y-48068769D02*
G01*
X130866208Y-48118450D01*
X130866209Y-48118450D01*
X131161941Y-48425974D01*
X131164411Y-48428543D01*
X131167676Y-48436882D01*
X131166559Y-48441646D01*
X131164674Y-48445641D01*
X131122795Y-48534392D01*
X131084441Y-48621436D01*
X131053125Y-48699425D01*
X131027038Y-48772299D01*
X131004367Y-48843996D01*
X130983301Y-48918457D01*
X130962031Y-48999621D01*
X130962018Y-48999671D01*
X130938747Y-49091414D01*
X130938744Y-49091427D01*
X130911630Y-49197814D01*
X130911620Y-49197812D01*
X130911610Y-49197889D01*
X130895028Y-49261130D01*
X130881859Y-49311354D01*
X130876446Y-49318487D01*
X130867524Y-49319690D01*
X130648203Y-49261130D01*
X130641094Y-49255685D01*
X130639805Y-49247262D01*
X130662766Y-49145025D01*
X130662767Y-49145019D01*
X130662827Y-49144752D01*
X130669367Y-49091427D01*
X130674770Y-49047368D01*
X130674770Y-49047362D01*
X130674814Y-49047006D01*
X130674678Y-48961684D01*
X130663797Y-48885476D01*
X130643548Y-48815074D01*
X130615309Y-48747169D01*
X130580458Y-48678454D01*
X130540371Y-48605618D01*
X130496426Y-48525355D01*
X130450000Y-48434355D01*
X130801567Y-48068769D01*
X130809771Y-48065181D01*
X130818433Y-48068769D01*
G37*
%TD.AperFunction*%
%TD*%
%TA.AperFunction,Conductor*%
%TO.N,Net-(J3-Pad7)*%
G36*
X136659113Y-52661761D02*
G01*
X136689888Y-52690390D01*
X136717126Y-52715729D01*
X136717312Y-52715874D01*
X136717319Y-52715880D01*
X136777095Y-52762471D01*
X136777100Y-52762474D01*
X136777338Y-52762660D01*
X136777599Y-52762823D01*
X136777601Y-52762824D01*
X136832966Y-52797315D01*
X136832973Y-52797319D01*
X136833251Y-52797492D01*
X136886626Y-52822853D01*
X136886912Y-52822954D01*
X136886920Y-52822957D01*
X136939007Y-52841291D01*
X136939229Y-52841369D01*
X136992821Y-52855668D01*
X137049161Y-52868375D01*
X137049165Y-52868378D01*
X137049165Y-52868376D01*
X137109873Y-52882088D01*
X137110232Y-52882176D01*
X137176857Y-52899451D01*
X137177438Y-52899617D01*
X137244330Y-52920703D01*
X137251190Y-52926459D01*
X137252510Y-52931633D01*
X137262259Y-53430332D01*
X137258994Y-53438671D01*
X137250332Y-53442259D01*
X136751633Y-53432510D01*
X136743429Y-53428922D01*
X136740703Y-53424330D01*
X136719617Y-53357438D01*
X136719451Y-53356857D01*
X136702176Y-53290232D01*
X136702088Y-53289873D01*
X136688376Y-53229165D01*
X136688377Y-53229165D01*
X136688375Y-53229161D01*
X136675699Y-53172959D01*
X136675668Y-53172821D01*
X136661369Y-53119229D01*
X136661291Y-53119007D01*
X136642957Y-53066920D01*
X136642954Y-53066912D01*
X136642853Y-53066626D01*
X136617492Y-53013251D01*
X136617319Y-53012973D01*
X136617315Y-53012966D01*
X136582824Y-52957601D01*
X136582823Y-52957599D01*
X136582660Y-52957338D01*
X136558592Y-52926459D01*
X136535880Y-52897319D01*
X136535874Y-52897312D01*
X136535729Y-52897126D01*
X136497161Y-52855668D01*
X136481761Y-52839113D01*
X136478635Y-52830722D01*
X136482054Y-52822871D01*
X136642871Y-52662054D01*
X136651144Y-52658627D01*
X136659113Y-52661761D01*
G37*
%TD.AperFunction*%
%TD*%
%TA.AperFunction,Conductor*%
%TO.N,Net-(JP1-Pad3)*%
G36*
X124493149Y-47966003D02*
G01*
X125254354Y-47980883D01*
X125262557Y-47984471D01*
X125265347Y-47989275D01*
X125313845Y-48153912D01*
X125314101Y-48154956D01*
X125315857Y-48163867D01*
X125315978Y-48167656D01*
X125303821Y-48260000D01*
X125324459Y-48416762D01*
X125324754Y-48417474D01*
X125368371Y-48522775D01*
X125369213Y-48526181D01*
X125374492Y-48583588D01*
X125388386Y-48708691D01*
X125411461Y-48831006D01*
X125451109Y-48954245D01*
X125483073Y-49018499D01*
X125514523Y-49081722D01*
X125514526Y-49081727D01*
X125514721Y-49082119D01*
X125609686Y-49218340D01*
X125609931Y-49218611D01*
X125609932Y-49218613D01*
X125735957Y-49358370D01*
X125738952Y-49366809D01*
X125735541Y-49374478D01*
X125574478Y-49535541D01*
X125566205Y-49538968D01*
X125558370Y-49535957D01*
X125418613Y-49409932D01*
X125418611Y-49409931D01*
X125418340Y-49409686D01*
X125282119Y-49314721D01*
X125281727Y-49314526D01*
X125281722Y-49314523D01*
X125218499Y-49283073D01*
X125154245Y-49251109D01*
X125053237Y-49218613D01*
X125031349Y-49211571D01*
X125031344Y-49211570D01*
X125031006Y-49211461D01*
X124941248Y-49194528D01*
X124908909Y-49188427D01*
X124908906Y-49188426D01*
X124908691Y-49188386D01*
X124908487Y-49188363D01*
X124908478Y-49188362D01*
X124783615Y-49174495D01*
X124783588Y-49174492D01*
X124706979Y-49167447D01*
X124652172Y-49162407D01*
X124651794Y-49162366D01*
X124510571Y-49144739D01*
X124509758Y-49144608D01*
X124354956Y-49114101D01*
X124353912Y-49113845D01*
X124247437Y-49082480D01*
X124189274Y-49065346D01*
X124182307Y-49059722D01*
X124180883Y-49054353D01*
X124171681Y-48583588D01*
X124163281Y-48153912D01*
X124159718Y-47971645D01*
X124162983Y-47963306D01*
X124171645Y-47959718D01*
X124493149Y-47966003D01*
G37*
%TD.AperFunction*%
%TD*%
%TA.AperFunction,Conductor*%
%TO.N,Net-(D1-Pad2)*%
G36*
X123312170Y-62983427D02*
G01*
X123315581Y-62991088D01*
X123326084Y-63191538D01*
X123357455Y-63364781D01*
X123406289Y-63508108D01*
X123406496Y-63508504D01*
X123406498Y-63508510D01*
X123436903Y-63566848D01*
X123469765Y-63629901D01*
X123545059Y-63738537D01*
X123545188Y-63738696D01*
X123545194Y-63738704D01*
X123629348Y-63842399D01*
X123719701Y-63949738D01*
X123719919Y-63950006D01*
X123770148Y-64013964D01*
X123813358Y-64068986D01*
X123813855Y-64069668D01*
X123907652Y-64208682D01*
X123908222Y-64209619D01*
X123995888Y-64370169D01*
X123996845Y-64379072D01*
X123994053Y-64383884D01*
X123198433Y-65211231D01*
X123190229Y-65214819D01*
X123181567Y-65211231D01*
X122385947Y-64383885D01*
X122382683Y-64375547D01*
X122384112Y-64370169D01*
X122471777Y-64209619D01*
X122472347Y-64208682D01*
X122566144Y-64069668D01*
X122566641Y-64068986D01*
X122609851Y-64013964D01*
X122660080Y-63950006D01*
X122660298Y-63949738D01*
X122750651Y-63842399D01*
X122834805Y-63738704D01*
X122834811Y-63738696D01*
X122834940Y-63738537D01*
X122910234Y-63629901D01*
X122943096Y-63566848D01*
X122973501Y-63508510D01*
X122973503Y-63508504D01*
X122973710Y-63508108D01*
X123022544Y-63364781D01*
X123053915Y-63191538D01*
X123064419Y-62991088D01*
X123068274Y-62983005D01*
X123076103Y-62980000D01*
X123303897Y-62980000D01*
X123312170Y-62983427D01*
G37*
%TD.AperFunction*%
%TD*%
%TA.AperFunction,Conductor*%
%TO.N,Net-(D2-Pad2)*%
G36*
X118176972Y-64459193D02*
G01*
X118950779Y-64472564D01*
X118958992Y-64476133D01*
X118961840Y-64481093D01*
X119008552Y-64647085D01*
X119008826Y-64648307D01*
X119036665Y-64813264D01*
X119036771Y-64814056D01*
X119052264Y-64970232D01*
X119052281Y-64970429D01*
X119064098Y-65117344D01*
X119080969Y-65254437D01*
X119111642Y-65381280D01*
X119164875Y-65497562D01*
X119249424Y-65602971D01*
X119250002Y-65603408D01*
X119250003Y-65603409D01*
X119323816Y-65659217D01*
X119374049Y-65697197D01*
X119434580Y-65726067D01*
X119537753Y-65775275D01*
X119543745Y-65781929D01*
X119543643Y-65790018D01*
X119509175Y-65880044D01*
X119487866Y-65935701D01*
X119462203Y-66002728D01*
X119456044Y-66009229D01*
X119447354Y-66009568D01*
X119239678Y-65935647D01*
X119052451Y-65880044D01*
X118889254Y-65841493D01*
X118889116Y-65841468D01*
X118889102Y-65841465D01*
X118743057Y-65814921D01*
X118743053Y-65814920D01*
X118742908Y-65814894D01*
X118606231Y-65795150D01*
X118606226Y-65795149D01*
X118472150Y-65777177D01*
X118471928Y-65777145D01*
X118333414Y-65755873D01*
X118332923Y-65755787D01*
X118182728Y-65726129D01*
X118182104Y-65725988D01*
X118069208Y-65697197D01*
X118012921Y-65682843D01*
X118012297Y-65682664D01*
X117933930Y-65657903D01*
X117824562Y-65623347D01*
X117817706Y-65617587D01*
X117816390Y-65612446D01*
X117808586Y-65254774D01*
X117791346Y-64464687D01*
X117794591Y-64456342D01*
X117803245Y-64452735D01*
X118176972Y-64459193D01*
G37*
%TD.AperFunction*%
%TD*%
%TA.AperFunction,Conductor*%
%TO.N,Net-(C2-Pad1)*%
G36*
X113152170Y-51553427D02*
G01*
X113155581Y-51561088D01*
X113166084Y-51761538D01*
X113197455Y-51934781D01*
X113246289Y-52078108D01*
X113246496Y-52078504D01*
X113246498Y-52078510D01*
X113276903Y-52136848D01*
X113309765Y-52199901D01*
X113385059Y-52308537D01*
X113385188Y-52308696D01*
X113385194Y-52308704D01*
X113469348Y-52412399D01*
X113559701Y-52519738D01*
X113559919Y-52520006D01*
X113610148Y-52583964D01*
X113653358Y-52638986D01*
X113653855Y-52639668D01*
X113747652Y-52778682D01*
X113748222Y-52779619D01*
X113835888Y-52940169D01*
X113836845Y-52949072D01*
X113834053Y-52953884D01*
X113038433Y-53781231D01*
X113030229Y-53784819D01*
X113021567Y-53781231D01*
X112225947Y-52953885D01*
X112222683Y-52945547D01*
X112224112Y-52940169D01*
X112311777Y-52779619D01*
X112312347Y-52778682D01*
X112406144Y-52639668D01*
X112406641Y-52638986D01*
X112449851Y-52583964D01*
X112500080Y-52520006D01*
X112500298Y-52519738D01*
X112590651Y-52412399D01*
X112674805Y-52308704D01*
X112674811Y-52308696D01*
X112674940Y-52308537D01*
X112750234Y-52199901D01*
X112783096Y-52136848D01*
X112813501Y-52078510D01*
X112813503Y-52078504D01*
X112813710Y-52078108D01*
X112862544Y-51934781D01*
X112893915Y-51761538D01*
X112904419Y-51561088D01*
X112908274Y-51553005D01*
X112916103Y-51550000D01*
X113143897Y-51550000D01*
X113152170Y-51553427D01*
G37*
%TD.AperFunction*%
%TD*%
%TA.AperFunction,Conductor*%
%TO.N,Net-(J3-Pad5)*%
G36*
X124838034Y-44959102D02*
G01*
X124988744Y-45041224D01*
X124989663Y-45041781D01*
X125120713Y-45129682D01*
X125121357Y-45130149D01*
X125201073Y-45192172D01*
X125233688Y-45217548D01*
X125233984Y-45217786D01*
X125335455Y-45302167D01*
X125433741Y-45380804D01*
X125536548Y-45450978D01*
X125651726Y-45510085D01*
X125722846Y-45533953D01*
X125786721Y-45555390D01*
X125786724Y-45555391D01*
X125787127Y-45555526D01*
X125896165Y-45574983D01*
X125950241Y-45584633D01*
X125950245Y-45584633D01*
X125950601Y-45584697D01*
X125950969Y-45584716D01*
X126138904Y-45594427D01*
X126146989Y-45598276D01*
X126150000Y-45606111D01*
X126150000Y-45833889D01*
X126146573Y-45842162D01*
X126138904Y-45845573D01*
X125959259Y-45854855D01*
X125950601Y-45855302D01*
X125950245Y-45855366D01*
X125950241Y-45855366D01*
X125896165Y-45865016D01*
X125787127Y-45884473D01*
X125786724Y-45884608D01*
X125786721Y-45884609D01*
X125722846Y-45906046D01*
X125651726Y-45929914D01*
X125536548Y-45989021D01*
X125433741Y-46059195D01*
X125335455Y-46137832D01*
X125335417Y-46137864D01*
X125233984Y-46222213D01*
X125233688Y-46222451D01*
X125121357Y-46309850D01*
X125120713Y-46310317D01*
X125019073Y-46378492D01*
X124989663Y-46398218D01*
X124988744Y-46398775D01*
X124841413Y-46479057D01*
X124838034Y-46480898D01*
X124829130Y-46481847D01*
X124824326Y-46479057D01*
X124557487Y-46222451D01*
X124043769Y-45728433D01*
X124040181Y-45720229D01*
X124043769Y-45711567D01*
X124153431Y-45606111D01*
X124824326Y-44960943D01*
X124832665Y-44957678D01*
X124838034Y-44959102D01*
G37*
%TD.AperFunction*%
%TD*%
%TA.AperFunction,Conductor*%
%TO.N,Net-(J3-Pad5)*%
G36*
X137206108Y-49896264D02*
G01*
X137212154Y-49902836D01*
X137246068Y-49995143D01*
X137278798Y-50082556D01*
X137278815Y-50082599D01*
X137307682Y-50157498D01*
X137307710Y-50157570D01*
X137334181Y-50223610D01*
X137334193Y-50223639D01*
X137352432Y-50267057D01*
X137359640Y-50284217D01*
X137385441Y-50342759D01*
X137412986Y-50402718D01*
X137443667Y-50467550D01*
X137478875Y-50540707D01*
X137516377Y-50618161D01*
X137516449Y-50618310D01*
X137516970Y-50627250D01*
X137514351Y-50631519D01*
X137168433Y-50991231D01*
X137160229Y-50994819D01*
X137151567Y-50991231D01*
X136805870Y-50631749D01*
X136802605Y-50623410D01*
X136803963Y-50618165D01*
X136838154Y-50553629D01*
X136838487Y-50553043D01*
X136876963Y-50489561D01*
X136877102Y-50489338D01*
X136914262Y-50431456D01*
X136948090Y-50376836D01*
X136976621Y-50323041D01*
X136976744Y-50322720D01*
X136976748Y-50322712D01*
X136997780Y-50267984D01*
X136997954Y-50267532D01*
X137010187Y-50207771D01*
X137011421Y-50141221D01*
X136999754Y-50065344D01*
X136999638Y-50064958D01*
X136999636Y-50064951D01*
X136976478Y-49988183D01*
X136977369Y-49979273D01*
X136983667Y-49973813D01*
X137106325Y-49929039D01*
X137197162Y-49895881D01*
X137206108Y-49896264D01*
G37*
%TD.AperFunction*%
%TD*%
%TA.AperFunction,Conductor*%
%TO.N,Net-(J3-Pad3)*%
G36*
X139667016Y-49318480D02*
G01*
X139768997Y-49399861D01*
X139770305Y-49400149D01*
X139770307Y-49400150D01*
X139839419Y-49415367D01*
X139859973Y-49419892D01*
X139867316Y-49425017D01*
X139868883Y-49433834D01*
X139865417Y-49439893D01*
X139797721Y-49502727D01*
X139795316Y-49504448D01*
X139696134Y-49557887D01*
X139690531Y-49559287D01*
X139590929Y-49558835D01*
X139584397Y-49556806D01*
X139489604Y-49492267D01*
X139484694Y-49484779D01*
X139486518Y-49476011D01*
X139488141Y-49474104D01*
X139651672Y-49319134D01*
X139660034Y-49315930D01*
X139667016Y-49318480D01*
G37*
%TD.AperFunction*%
%TA.AperFunction,Conductor*%
G36*
X141187178Y-48375200D02*
G01*
X141190766Y-48383404D01*
X141187192Y-48392052D01*
X140517838Y-49037840D01*
X140486667Y-49067914D01*
X140478333Y-49071192D01*
X140472282Y-49069378D01*
X140397868Y-49022244D01*
X140382637Y-49012597D01*
X140286079Y-49022244D01*
X140189818Y-49085040D01*
X140189378Y-49085486D01*
X140113648Y-49162179D01*
X140105397Y-49165658D01*
X140097102Y-49162283D01*
X140093623Y-49154032D01*
X140094403Y-49149758D01*
X140119425Y-49084698D01*
X140137510Y-49037674D01*
X140142130Y-49023013D01*
X140188644Y-48875377D01*
X140188651Y-48875354D01*
X140188683Y-48875252D01*
X140236915Y-48706228D01*
X140284120Y-48540777D01*
X140284218Y-48540453D01*
X140329849Y-48396481D01*
X140335615Y-48389630D01*
X140340773Y-48388318D01*
X141178839Y-48371935D01*
X141187178Y-48375200D01*
G37*
%TD.AperFunction*%
%TD*%
%TA.AperFunction,Conductor*%
%TO.N,GND*%
G36*
X142943621Y-41168502D02*
G01*
X142990114Y-41222158D01*
X143001500Y-41274500D01*
X143001500Y-67945500D01*
X142981498Y-68013621D01*
X142927842Y-68060114D01*
X142875500Y-68071500D01*
X108584500Y-68071500D01*
X108516379Y-68051498D01*
X108469886Y-67997842D01*
X108458500Y-67945500D01*
X108458500Y-66938134D01*
X109131500Y-66938134D01*
X109138255Y-67000316D01*
X109189385Y-67136705D01*
X109276739Y-67253261D01*
X109393295Y-67340615D01*
X109529684Y-67391745D01*
X109591866Y-67398500D01*
X111388134Y-67398500D01*
X111450316Y-67391745D01*
X111586705Y-67340615D01*
X111703261Y-67253261D01*
X111790615Y-67136705D01*
X111841745Y-67000316D01*
X111848500Y-66938134D01*
X111848500Y-66826210D01*
X111868502Y-66758089D01*
X111922158Y-66711596D01*
X111934442Y-66706747D01*
X111935830Y-66706281D01*
X111953747Y-66701705D01*
X112031428Y-66687844D01*
X112047057Y-66686053D01*
X112084449Y-66684121D01*
X112153510Y-66700581D01*
X112202710Y-66751766D01*
X112210474Y-66770078D01*
X112225058Y-66813791D01*
X112233450Y-66838946D01*
X112326522Y-66989348D01*
X112451697Y-67114305D01*
X112457927Y-67118145D01*
X112457928Y-67118146D01*
X112595090Y-67202694D01*
X112602262Y-67207115D01*
X112682005Y-67233564D01*
X112763611Y-67260632D01*
X112763613Y-67260632D01*
X112770139Y-67262797D01*
X112776975Y-67263497D01*
X112776978Y-67263498D01*
X112820031Y-67267909D01*
X112874600Y-67273500D01*
X113650400Y-67273500D01*
X113653646Y-67273163D01*
X113653650Y-67273163D01*
X113749308Y-67263238D01*
X113749312Y-67263237D01*
X113756166Y-67262526D01*
X113762702Y-67260345D01*
X113762704Y-67260345D01*
X113894806Y-67216272D01*
X113923946Y-67206550D01*
X114074348Y-67113478D01*
X114199305Y-66988303D01*
X114201906Y-66984084D01*
X114259030Y-66943583D01*
X114329953Y-66940351D01*
X114391365Y-66975976D01*
X114397922Y-66983530D01*
X114401522Y-66989348D01*
X114526697Y-67114305D01*
X114532927Y-67118145D01*
X114532928Y-67118146D01*
X114670090Y-67202694D01*
X114677262Y-67207115D01*
X114757005Y-67233564D01*
X114838611Y-67260632D01*
X114838613Y-67260632D01*
X114845139Y-67262797D01*
X114851975Y-67263497D01*
X114851978Y-67263498D01*
X114895031Y-67267909D01*
X114949600Y-67273500D01*
X115725400Y-67273500D01*
X115728646Y-67273163D01*
X115728650Y-67273163D01*
X115824308Y-67263238D01*
X115824312Y-67263237D01*
X115831166Y-67262526D01*
X115837702Y-67260345D01*
X115837704Y-67260345D01*
X115969806Y-67216272D01*
X115998946Y-67206550D01*
X116149348Y-67113478D01*
X116274305Y-66988303D01*
X116347524Y-66869521D01*
X116363275Y-66843968D01*
X116363276Y-66843966D01*
X116367115Y-66837738D01*
X116408175Y-66713946D01*
X116420632Y-66676389D01*
X116420632Y-66676387D01*
X116422797Y-66669861D01*
X116433500Y-66565400D01*
X116433500Y-65514600D01*
X116427190Y-65453782D01*
X116423238Y-65415692D01*
X116423237Y-65415688D01*
X116422526Y-65408834D01*
X116418014Y-65395308D01*
X116368868Y-65248002D01*
X116366550Y-65241054D01*
X116273478Y-65090652D01*
X116148303Y-64965695D01*
X116030883Y-64893316D01*
X115983391Y-64840545D01*
X115971000Y-64786057D01*
X115971000Y-64713575D01*
X115991002Y-64645454D01*
X116030697Y-64606431D01*
X116118120Y-64552332D01*
X116124348Y-64548478D01*
X116249305Y-64423303D01*
X116253146Y-64417072D01*
X116338275Y-64278968D01*
X116338276Y-64278966D01*
X116342115Y-64272738D01*
X116397797Y-64104861D01*
X116408500Y-64000400D01*
X116408500Y-62999600D01*
X116407612Y-62991043D01*
X116398238Y-62900692D01*
X116398237Y-62900688D01*
X116397526Y-62893834D01*
X116388912Y-62868013D01*
X116343868Y-62733002D01*
X116341550Y-62726054D01*
X116248478Y-62575652D01*
X116123303Y-62450695D01*
X116117072Y-62446854D01*
X115993384Y-62370611D01*
X115945890Y-62317838D01*
X115933500Y-62263351D01*
X115933500Y-62236387D01*
X115953502Y-62168266D01*
X115999730Y-62127816D01*
X115998946Y-62126550D01*
X116143120Y-62037332D01*
X116149348Y-62033478D01*
X116193775Y-61988974D01*
X116269134Y-61913483D01*
X116274305Y-61908303D01*
X116282151Y-61895574D01*
X116363275Y-61763968D01*
X116363276Y-61763966D01*
X116367115Y-61757738D01*
X116392955Y-61679833D01*
X116433386Y-61621473D01*
X116498950Y-61594236D01*
X116512548Y-61593500D01*
X117200803Y-61593500D01*
X117268924Y-61613502D01*
X117315417Y-61667158D01*
X117320326Y-61679623D01*
X117338450Y-61733946D01*
X117342301Y-61740170D01*
X117342302Y-61740171D01*
X117357028Y-61763968D01*
X117431522Y-61884348D01*
X117556697Y-62009305D01*
X117562927Y-62013145D01*
X117562928Y-62013146D01*
X117700090Y-62097694D01*
X117707262Y-62102115D01*
X117769674Y-62122816D01*
X117868611Y-62155632D01*
X117868613Y-62155632D01*
X117875139Y-62157797D01*
X117881975Y-62158497D01*
X117881978Y-62158498D01*
X117925031Y-62162909D01*
X117979600Y-62168500D01*
X118620500Y-62168500D01*
X118688621Y-62188502D01*
X118735114Y-62242158D01*
X118746500Y-62294500D01*
X118746500Y-62547971D01*
X118745243Y-62565727D01*
X118742944Y-62581880D01*
X118741987Y-62588602D01*
X118741847Y-62601966D01*
X118742342Y-62606056D01*
X118742342Y-62606058D01*
X118743471Y-62615387D01*
X118744231Y-62624342D01*
X118756206Y-62868153D01*
X118756635Y-62876896D01*
X118797022Y-63149178D01*
X118797774Y-63152181D01*
X118797775Y-63152185D01*
X118819805Y-63240135D01*
X118836170Y-63305468D01*
X118841621Y-63327232D01*
X118838770Y-63398172D01*
X118798019Y-63456308D01*
X118732306Y-63483184D01*
X118677337Y-63476620D01*
X118475903Y-63405288D01*
X118475899Y-63405287D01*
X118471028Y-63403562D01*
X118465935Y-63402655D01*
X118465932Y-63402654D01*
X118248095Y-63363851D01*
X118248089Y-63363850D01*
X118243006Y-63362945D01*
X118170096Y-63362054D01*
X118016581Y-63360179D01*
X118016579Y-63360179D01*
X118011411Y-63360116D01*
X117782464Y-63395150D01*
X117562314Y-63467106D01*
X117557726Y-63469494D01*
X117557722Y-63469496D01*
X117361461Y-63571663D01*
X117356872Y-63574052D01*
X117352739Y-63577155D01*
X117352736Y-63577157D01*
X117175790Y-63710012D01*
X117171655Y-63713117D01*
X117011639Y-63880564D01*
X116881119Y-64071899D01*
X116783602Y-64281981D01*
X116721707Y-64505169D01*
X116697095Y-64735469D01*
X116697392Y-64740622D01*
X116697392Y-64740625D01*
X116705140Y-64874995D01*
X116710427Y-64966697D01*
X116711564Y-64971743D01*
X116711565Y-64971749D01*
X116738371Y-65090695D01*
X116761346Y-65192642D01*
X116763288Y-65197424D01*
X116763289Y-65197428D01*
X116846540Y-65402450D01*
X116848484Y-65407237D01*
X116969501Y-65604719D01*
X117121147Y-65779784D01*
X117299349Y-65927730D01*
X117499322Y-66044584D01*
X117504150Y-66046428D01*
X117504159Y-66046432D01*
X117631995Y-66095249D01*
X117641716Y-66099437D01*
X117665800Y-66111036D01*
X117665811Y-66111040D01*
X117669855Y-66112988D01*
X117857590Y-66172305D01*
X117857949Y-66172413D01*
X117857971Y-66172420D01*
X117864851Y-66174493D01*
X117870705Y-66176257D01*
X117871329Y-66176436D01*
X117886030Y-66180418D01*
X117886425Y-66180519D01*
X117886445Y-66180524D01*
X117929729Y-66191562D01*
X118055213Y-66223563D01*
X118055579Y-66223651D01*
X118068526Y-66226764D01*
X118068549Y-66226769D01*
X118068926Y-66226860D01*
X118069550Y-66227001D01*
X118069848Y-66227064D01*
X118069916Y-66227079D01*
X118078876Y-66228975D01*
X118083251Y-66229901D01*
X118083665Y-66229983D01*
X118083715Y-66229993D01*
X118154675Y-66244005D01*
X118233446Y-66259559D01*
X118233757Y-66259617D01*
X118233804Y-66259626D01*
X118239991Y-66260778D01*
X118244331Y-66261587D01*
X118244822Y-66261673D01*
X118245183Y-66261732D01*
X118245269Y-66261747D01*
X118250251Y-66262565D01*
X118255468Y-66263423D01*
X118393982Y-66284695D01*
X118398667Y-66285392D01*
X118398889Y-66285424D01*
X118403929Y-66286125D01*
X118435830Y-66290401D01*
X118534747Y-66303661D01*
X118536020Y-66303838D01*
X118622860Y-66316382D01*
X118658013Y-66321460D01*
X118662487Y-66322190D01*
X118772366Y-66342160D01*
X118781002Y-66343730D01*
X118787437Y-66345074D01*
X118916745Y-66375620D01*
X118923629Y-66377453D01*
X119063525Y-66419000D01*
X119077152Y-66423047D01*
X119083532Y-66425128D01*
X119273766Y-66492840D01*
X119273773Y-66492842D01*
X119275160Y-66493336D01*
X119322000Y-66507532D01*
X119325865Y-66507935D01*
X119340708Y-66512063D01*
X119378430Y-66525560D01*
X119460898Y-66555068D01*
X119460907Y-66555071D01*
X119463806Y-66556108D01*
X119648894Y-66602468D01*
X119727812Y-66622236D01*
X119727816Y-66622237D01*
X119730819Y-66622989D01*
X120003102Y-66663376D01*
X120006187Y-66663528D01*
X120006192Y-66663528D01*
X120195336Y-66672817D01*
X120195248Y-66674615D01*
X120197995Y-66674266D01*
X120197995Y-66673500D01*
X120206149Y-66673500D01*
X120212328Y-66673652D01*
X120217913Y-66673926D01*
X120239649Y-66674994D01*
X120251197Y-66676096D01*
X120264668Y-66678013D01*
X120270883Y-66678078D01*
X120273898Y-66678110D01*
X120273903Y-66678110D01*
X120278032Y-66678153D01*
X120308934Y-66674413D01*
X120324073Y-66673500D01*
X127033219Y-66673500D01*
X127101340Y-66693502D01*
X127140363Y-66733197D01*
X127221522Y-66864348D01*
X127346697Y-66989305D01*
X127352927Y-66993145D01*
X127352928Y-66993146D01*
X127490090Y-67077694D01*
X127497262Y-67082115D01*
X127576196Y-67108296D01*
X127658611Y-67135632D01*
X127658613Y-67135632D01*
X127665139Y-67137797D01*
X127671975Y-67138497D01*
X127671978Y-67138498D01*
X127715031Y-67142909D01*
X127769600Y-67148500D01*
X128770400Y-67148500D01*
X128773646Y-67148163D01*
X128773650Y-67148163D01*
X128869308Y-67138238D01*
X128869312Y-67138237D01*
X128876166Y-67137526D01*
X128882702Y-67135345D01*
X128882704Y-67135345D01*
X129014806Y-67091272D01*
X129043946Y-67081550D01*
X129194348Y-66988478D01*
X129319305Y-66863303D01*
X129412115Y-66712738D01*
X129462052Y-66562183D01*
X129465632Y-66551389D01*
X129465632Y-66551387D01*
X129467797Y-66544861D01*
X129478500Y-66440400D01*
X129478500Y-65639600D01*
X129474424Y-65600318D01*
X129468238Y-65540692D01*
X129468237Y-65540688D01*
X129467526Y-65533834D01*
X129440819Y-65453782D01*
X129415634Y-65378294D01*
X129411550Y-65366054D01*
X129318478Y-65215652D01*
X129231891Y-65129216D01*
X129197812Y-65066934D01*
X129202815Y-64996114D01*
X129231736Y-64951025D01*
X129305670Y-64876962D01*
X139817158Y-64876962D01*
X139848656Y-65000985D01*
X139852497Y-65011832D01*
X139938685Y-65198789D01*
X139944436Y-65208750D01*
X140063254Y-65376873D01*
X140070720Y-65385615D01*
X140218191Y-65529275D01*
X140227124Y-65536509D01*
X140398299Y-65650884D01*
X140408409Y-65656374D01*
X140597566Y-65737642D01*
X140608499Y-65741194D01*
X140698332Y-65761521D01*
X140712405Y-65760632D01*
X140716000Y-65751233D01*
X140716000Y-65750512D01*
X141224000Y-65750512D01*
X141227966Y-65764018D01*
X141241883Y-65766011D01*
X141252817Y-65763386D01*
X141447763Y-65697210D01*
X141458272Y-65692531D01*
X141637882Y-65591944D01*
X141647375Y-65585420D01*
X141805653Y-65453782D01*
X141813782Y-65445653D01*
X141945420Y-65287375D01*
X141951944Y-65277882D01*
X142052531Y-65098272D01*
X142057210Y-65087763D01*
X142123386Y-64892817D01*
X142126017Y-64881857D01*
X142124040Y-64867992D01*
X142110474Y-64864000D01*
X141242115Y-64864000D01*
X141226876Y-64868475D01*
X141225671Y-64869865D01*
X141224000Y-64877548D01*
X141224000Y-65750512D01*
X140716000Y-65750512D01*
X140716000Y-64882115D01*
X140711525Y-64866876D01*
X140710135Y-64865671D01*
X140702452Y-64864000D01*
X139831981Y-64864000D01*
X139818450Y-64867973D01*
X139817158Y-64876962D01*
X129305670Y-64876962D01*
X129314134Y-64868483D01*
X129319305Y-64863303D01*
X129337418Y-64833919D01*
X129408275Y-64718968D01*
X129408276Y-64718966D01*
X129412115Y-64712738D01*
X129447375Y-64606431D01*
X129465632Y-64551389D01*
X129465632Y-64551387D01*
X129467797Y-64544861D01*
X129478500Y-64440400D01*
X129478500Y-63639600D01*
X129477681Y-63631704D01*
X129468238Y-63540692D01*
X129468237Y-63540688D01*
X129467526Y-63533834D01*
X129460460Y-63512653D01*
X129420757Y-63393652D01*
X129411550Y-63366054D01*
X129318478Y-63215652D01*
X129193303Y-63090695D01*
X129188583Y-63087785D01*
X129147944Y-63030463D01*
X129144713Y-62959540D01*
X129180339Y-62898129D01*
X129243511Y-62865728D01*
X129267099Y-62863500D01*
X129772044Y-62863500D01*
X129789797Y-62864757D01*
X129808592Y-62867432D01*
X129808595Y-62867432D01*
X129812676Y-62868013D01*
X129819181Y-62868081D01*
X129821912Y-62868110D01*
X129821916Y-62868110D01*
X129826040Y-62868153D01*
X129830133Y-62867658D01*
X129830803Y-62867621D01*
X129840397Y-62866871D01*
X130045998Y-62859526D01*
X130259705Y-62851892D01*
X130261944Y-62851651D01*
X130261948Y-62851651D01*
X130405969Y-62836166D01*
X130691160Y-62805503D01*
X130948255Y-62759117D01*
X131116002Y-62728852D01*
X131116011Y-62728850D01*
X131118206Y-62728454D01*
X131504696Y-62629806D01*
X131536494Y-62621690D01*
X131536497Y-62621689D01*
X131538668Y-62621135D01*
X131950402Y-62484096D01*
X131952462Y-62483243D01*
X131952472Y-62483239D01*
X132349246Y-62318889D01*
X132349251Y-62318887D01*
X132351312Y-62318033D01*
X132364957Y-62311203D01*
X132647525Y-62169758D01*
X132739353Y-62123792D01*
X133112548Y-61902365D01*
X133132542Y-61888483D01*
X133467161Y-61656153D01*
X133467165Y-61656150D01*
X133468997Y-61654878D01*
X133806882Y-61382593D01*
X133808521Y-61381067D01*
X133808528Y-61381061D01*
X134102140Y-61107700D01*
X134111611Y-61099772D01*
X134112187Y-61099278D01*
X134115485Y-61096801D01*
X134125033Y-61087450D01*
X134144250Y-61062942D01*
X134154308Y-61051595D01*
X135746382Y-59459522D01*
X135763654Y-59445093D01*
X135777796Y-59435282D01*
X135815381Y-59400317D01*
X135823736Y-59393199D01*
X135828627Y-59389387D01*
X135873597Y-59367028D01*
X135882115Y-59364755D01*
X135886880Y-59363582D01*
X135930926Y-59353648D01*
X135931063Y-59353617D01*
X135931219Y-59353582D01*
X135936567Y-59352374D01*
X135991931Y-59339869D01*
X135992189Y-59339809D01*
X135992261Y-59339792D01*
X135999944Y-59337990D01*
X136000001Y-59337976D01*
X136000164Y-59337938D01*
X136000497Y-59337857D01*
X136008008Y-59335970D01*
X136008336Y-59335885D01*
X136074258Y-59318793D01*
X136074290Y-59318784D01*
X136074689Y-59318681D01*
X136087818Y-59315091D01*
X136088374Y-59314931D01*
X136088693Y-59314835D01*
X136088723Y-59314826D01*
X136100412Y-59311302D01*
X136100452Y-59311290D01*
X136100746Y-59311201D01*
X136167632Y-59290117D01*
X136169053Y-59289482D01*
X136172288Y-59288794D01*
X136208547Y-59272651D01*
X136340722Y-59213803D01*
X136340724Y-59213802D01*
X136346752Y-59211118D01*
X136501253Y-59098866D01*
X136533529Y-59063020D01*
X136624621Y-58961852D01*
X136624622Y-58961851D01*
X136629040Y-58956944D01*
X136687816Y-58855142D01*
X136721223Y-58797279D01*
X136721224Y-58797278D01*
X136724527Y-58791556D01*
X136783542Y-58609928D01*
X136786199Y-58584653D01*
X136802814Y-58426565D01*
X136803504Y-58420000D01*
X136799186Y-58378916D01*
X136784232Y-58236635D01*
X136784232Y-58236633D01*
X136783542Y-58230072D01*
X136724527Y-58048444D01*
X136710073Y-58023408D01*
X136635705Y-57894600D01*
X136629040Y-57883056D01*
X136596989Y-57847459D01*
X136505675Y-57746045D01*
X136505674Y-57746044D01*
X136501253Y-57741134D01*
X136373653Y-57648427D01*
X136352094Y-57632763D01*
X136352093Y-57632762D01*
X136346752Y-57628882D01*
X136340724Y-57626198D01*
X136340722Y-57626197D01*
X136178319Y-57553891D01*
X136178318Y-57553891D01*
X136172288Y-57551206D01*
X136078887Y-57531353D01*
X135991944Y-57512872D01*
X135991939Y-57512872D01*
X135985487Y-57511500D01*
X135794513Y-57511500D01*
X135788061Y-57512872D01*
X135788056Y-57512872D01*
X135701113Y-57531353D01*
X135607712Y-57551206D01*
X135601682Y-57553891D01*
X135601681Y-57553891D01*
X135439278Y-57626197D01*
X135439276Y-57626198D01*
X135433248Y-57628882D01*
X135427907Y-57632762D01*
X135427906Y-57632763D01*
X135406347Y-57648427D01*
X135278747Y-57741134D01*
X135274326Y-57746044D01*
X135274325Y-57746045D01*
X135183012Y-57847459D01*
X135150960Y-57883056D01*
X135144295Y-57894600D01*
X135069928Y-58023408D01*
X135055473Y-58048444D01*
X135053432Y-58054726D01*
X135038142Y-58101783D01*
X135031866Y-58117442D01*
X135021833Y-58138309D01*
X135021828Y-58138322D01*
X135019884Y-58142365D01*
X135018534Y-58146647D01*
X135018533Y-58146650D01*
X135011369Y-58169377D01*
X134998798Y-58209256D01*
X134994798Y-58222568D01*
X134994632Y-58223149D01*
X134991312Y-58235336D01*
X134974037Y-58301961D01*
X134972365Y-58308590D01*
X134972277Y-58308949D01*
X134970130Y-58318069D01*
X134956418Y-58378777D01*
X134956331Y-58378757D01*
X134956291Y-58378916D01*
X134956382Y-58378937D01*
X134950354Y-58405663D01*
X134946417Y-58423120D01*
X134945244Y-58427884D01*
X134942971Y-58436402D01*
X134920615Y-58481368D01*
X134916808Y-58486253D01*
X134909680Y-58494620D01*
X134874713Y-58532208D01*
X134845107Y-58567019D01*
X134845057Y-58567107D01*
X134834964Y-58579131D01*
X133261211Y-60152884D01*
X133248820Y-60163751D01*
X133227301Y-60180263D01*
X133212677Y-60198516D01*
X133199877Y-60212254D01*
X133079305Y-60323710D01*
X132959345Y-60434600D01*
X132952248Y-60441160D01*
X132944728Y-60447583D01*
X132656014Y-60675185D01*
X132648024Y-60680990D01*
X132613095Y-60704329D01*
X132342344Y-60885239D01*
X132333908Y-60890408D01*
X132013167Y-61070032D01*
X132004352Y-61074524D01*
X131670490Y-61228437D01*
X131661350Y-61232223D01*
X131316444Y-61359467D01*
X131307035Y-61362524D01*
X131093436Y-61422766D01*
X130953213Y-61462314D01*
X130943606Y-61464620D01*
X130822985Y-61488614D01*
X130583037Y-61536343D01*
X130573266Y-61537890D01*
X130208180Y-61581104D01*
X130198326Y-61581880D01*
X130130042Y-61584564D01*
X130054542Y-61587530D01*
X129985688Y-61570218D01*
X129937125Y-61518429D01*
X129924270Y-61448606D01*
X129951204Y-61382917D01*
X130009803Y-61342076D01*
X130394361Y-61214083D01*
X130795270Y-61048023D01*
X131114986Y-60887986D01*
X131181312Y-60854786D01*
X131181320Y-60854781D01*
X131183311Y-60853785D01*
X131556508Y-60632360D01*
X131912957Y-60384876D01*
X131914703Y-60383469D01*
X131914711Y-60383463D01*
X132249096Y-60114001D01*
X132249099Y-60113998D01*
X132250843Y-60112593D01*
X132307275Y-60060054D01*
X132546100Y-59837702D01*
X132555525Y-59829814D01*
X132556147Y-59829280D01*
X132559446Y-59826803D01*
X132568995Y-59817452D01*
X132584271Y-59797971D01*
X132632469Y-59736502D01*
X132663607Y-59696791D01*
X132668745Y-59685412D01*
X132694487Y-59648167D01*
X139326031Y-53016623D01*
X139339471Y-53004959D01*
X139354665Y-52993551D01*
X139354669Y-52993547D01*
X139357962Y-52991075D01*
X139360903Y-52988195D01*
X139360910Y-52988189D01*
X139364560Y-52984614D01*
X139364561Y-52984612D01*
X139367511Y-52981724D01*
X139370477Y-52977941D01*
X139376255Y-52971090D01*
X139581236Y-52744920D01*
X139641803Y-52707878D01*
X139712782Y-52709460D01*
X139771637Y-52749166D01*
X139796720Y-52798520D01*
X139848183Y-53001156D01*
X139848185Y-53001161D01*
X139849605Y-53006753D01*
X139852022Y-53011996D01*
X139872379Y-53056154D01*
X139940668Y-53204285D01*
X140066204Y-53381914D01*
X140185891Y-53498507D01*
X140209741Y-53521741D01*
X140244579Y-53583602D01*
X140240442Y-53654478D01*
X140204899Y-53706726D01*
X140107842Y-53791842D01*
X140104270Y-53796373D01*
X139991359Y-53939600D01*
X139973181Y-53962658D01*
X139970493Y-53967767D01*
X139961770Y-53984347D01*
X139871905Y-54155154D01*
X139870192Y-54160671D01*
X139820608Y-54320357D01*
X139807403Y-54362882D01*
X139781837Y-54578887D01*
X139796063Y-54795933D01*
X139797484Y-54801529D01*
X139797485Y-54801534D01*
X139834759Y-54948299D01*
X139849605Y-55006753D01*
X139852022Y-55011996D01*
X139906849Y-55130926D01*
X139940668Y-55204285D01*
X139944001Y-55209001D01*
X140062730Y-55376998D01*
X140066204Y-55381914D01*
X140070346Y-55385949D01*
X140209741Y-55521741D01*
X140244579Y-55583602D01*
X140240442Y-55654478D01*
X140204899Y-55706726D01*
X140107842Y-55791842D01*
X140104270Y-55796373D01*
X139989560Y-55941882D01*
X139973181Y-55962658D01*
X139871905Y-56155154D01*
X139870192Y-56160671D01*
X139809734Y-56355376D01*
X139807403Y-56362882D01*
X139781837Y-56578887D01*
X139796063Y-56795933D01*
X139797484Y-56801529D01*
X139797485Y-56801534D01*
X139827823Y-56920988D01*
X139849605Y-57006753D01*
X139940668Y-57204285D01*
X139947253Y-57213603D01*
X140044541Y-57351261D01*
X140066204Y-57381914D01*
X140070346Y-57385949D01*
X140209741Y-57521741D01*
X140244579Y-57583602D01*
X140240442Y-57654478D01*
X140204899Y-57706726D01*
X140107842Y-57791842D01*
X140104270Y-57796373D01*
X140029368Y-57891386D01*
X139973181Y-57962658D01*
X139970493Y-57967767D01*
X139968682Y-57971210D01*
X139871905Y-58155154D01*
X139870192Y-58160671D01*
X139813464Y-58343364D01*
X139807403Y-58362882D01*
X139781837Y-58578887D01*
X139796063Y-58795933D01*
X139797484Y-58801529D01*
X139797485Y-58801534D01*
X139835503Y-58951226D01*
X139849605Y-59006753D01*
X139852022Y-59011996D01*
X139903972Y-59124684D01*
X139940668Y-59204285D01*
X139944001Y-59209001D01*
X140055684Y-59367028D01*
X140066204Y-59381914D01*
X140070346Y-59385949D01*
X140117844Y-59432219D01*
X140205042Y-59517163D01*
X140209741Y-59521741D01*
X140244579Y-59583602D01*
X140240442Y-59654478D01*
X140204899Y-59706726D01*
X140107842Y-59791842D01*
X140104270Y-59796373D01*
X140013494Y-59911522D01*
X139973181Y-59962658D01*
X139871905Y-60155154D01*
X139870192Y-60160671D01*
X139818929Y-60325764D01*
X139807403Y-60362882D01*
X139781837Y-60578887D01*
X139796063Y-60795933D01*
X139797484Y-60801529D01*
X139797485Y-60801534D01*
X139848184Y-61001158D01*
X139849605Y-61006753D01*
X139940668Y-61204285D01*
X139944001Y-61209001D01*
X140051551Y-61361180D01*
X140066204Y-61381914D01*
X140070346Y-61385949D01*
X140209741Y-61521741D01*
X140244579Y-61583602D01*
X140240442Y-61654478D01*
X140204899Y-61706726D01*
X140107842Y-61791842D01*
X140104270Y-61796373D01*
X140011948Y-61913483D01*
X139973181Y-61962658D01*
X139970493Y-61967767D01*
X139946618Y-62013146D01*
X139871905Y-62155154D01*
X139870192Y-62160671D01*
X139809529Y-62356036D01*
X139807403Y-62362882D01*
X139781837Y-62578887D01*
X139796063Y-62795933D01*
X139797484Y-62801529D01*
X139797485Y-62801534D01*
X139847353Y-62997885D01*
X139849605Y-63006753D01*
X139852022Y-63011996D01*
X139919244Y-63157812D01*
X139940668Y-63204285D01*
X139945779Y-63211517D01*
X140060759Y-63374209D01*
X140066204Y-63381914D01*
X140210102Y-63522093D01*
X140244938Y-63583952D01*
X140240801Y-63654828D01*
X140205256Y-63707077D01*
X140112552Y-63788376D01*
X140104630Y-63796724D01*
X139977180Y-63958394D01*
X139970909Y-63968050D01*
X139875060Y-64150229D01*
X139870655Y-64160863D01*
X139815436Y-64338700D01*
X139815218Y-64352799D01*
X139821950Y-64356000D01*
X142109485Y-64356000D01*
X142123016Y-64352027D01*
X142124185Y-64343892D01*
X142080725Y-64189794D01*
X142076603Y-64179055D01*
X141985549Y-63994417D01*
X141979538Y-63984608D01*
X141856360Y-63819651D01*
X141848671Y-63811111D01*
X141730691Y-63702052D01*
X141694246Y-63641123D01*
X141696527Y-63570163D01*
X141735650Y-63512653D01*
X141749231Y-63501358D01*
X141810446Y-63450446D01*
X141949532Y-63283213D01*
X142040290Y-63121153D01*
X142052989Y-63098478D01*
X142052990Y-63098476D01*
X142055813Y-63093435D01*
X142057669Y-63087968D01*
X142057671Y-63087963D01*
X142123874Y-62892935D01*
X142123875Y-62892930D01*
X142125730Y-62887466D01*
X142156941Y-62672205D01*
X142158570Y-62610000D01*
X142138667Y-62393400D01*
X142125005Y-62344956D01*
X142093822Y-62234392D01*
X142079626Y-62184055D01*
X141983423Y-61988974D01*
X141927827Y-61914521D01*
X141856733Y-61819315D01*
X141856732Y-61819314D01*
X141853280Y-61814691D01*
X141791669Y-61757738D01*
X141731078Y-61701729D01*
X141694633Y-61640800D01*
X141696914Y-61569840D01*
X141736038Y-61512330D01*
X141806008Y-61454137D01*
X141810446Y-61450446D01*
X141949532Y-61283213D01*
X142055813Y-61093435D01*
X142057669Y-61087968D01*
X142057671Y-61087963D01*
X142123874Y-60892935D01*
X142123875Y-60892930D01*
X142125730Y-60887466D01*
X142156941Y-60672205D01*
X142158570Y-60610000D01*
X142138667Y-60393400D01*
X142135865Y-60383463D01*
X142081195Y-60189619D01*
X142079626Y-60184055D01*
X141983423Y-59988974D01*
X141910458Y-59891261D01*
X141856733Y-59819315D01*
X141856732Y-59819314D01*
X141853280Y-59814691D01*
X141835193Y-59797971D01*
X141731078Y-59701729D01*
X141694633Y-59640800D01*
X141696914Y-59569840D01*
X141736038Y-59512330D01*
X141742878Y-59506642D01*
X141810446Y-59450446D01*
X141949532Y-59283213D01*
X142050597Y-59102749D01*
X142052989Y-59098478D01*
X142052990Y-59098476D01*
X142055813Y-59093435D01*
X142057669Y-59087968D01*
X142057671Y-59087963D01*
X142123874Y-58892935D01*
X142123875Y-58892930D01*
X142125730Y-58887466D01*
X142156941Y-58672205D01*
X142158570Y-58610000D01*
X142138667Y-58393400D01*
X142124556Y-58343364D01*
X142090753Y-58223508D01*
X142079626Y-58184055D01*
X141983423Y-57988974D01*
X141973333Y-57975461D01*
X141856733Y-57819315D01*
X141856732Y-57819314D01*
X141853280Y-57814691D01*
X141832838Y-57795794D01*
X141731078Y-57701729D01*
X141694633Y-57640800D01*
X141696914Y-57569840D01*
X141736038Y-57512330D01*
X141763751Y-57489282D01*
X141810446Y-57450446D01*
X141949532Y-57283213D01*
X142055813Y-57093435D01*
X142057669Y-57087968D01*
X142057671Y-57087963D01*
X142123874Y-56892935D01*
X142123875Y-56892930D01*
X142125730Y-56887466D01*
X142156941Y-56672205D01*
X142158570Y-56610000D01*
X142138667Y-56393400D01*
X142079626Y-56184055D01*
X141983423Y-55988974D01*
X141950627Y-55945054D01*
X141856733Y-55819315D01*
X141856732Y-55819314D01*
X141853280Y-55814691D01*
X141848882Y-55810625D01*
X141731078Y-55701729D01*
X141694633Y-55640800D01*
X141696914Y-55569840D01*
X141736038Y-55512330D01*
X141744382Y-55505391D01*
X141810446Y-55450446D01*
X141949532Y-55283213D01*
X142027728Y-55143585D01*
X142052989Y-55098478D01*
X142052990Y-55098476D01*
X142055813Y-55093435D01*
X142057669Y-55087968D01*
X142057671Y-55087963D01*
X142123874Y-54892935D01*
X142123875Y-54892930D01*
X142125730Y-54887466D01*
X142156941Y-54672205D01*
X142158570Y-54610000D01*
X142138667Y-54393400D01*
X142079626Y-54184055D01*
X141983423Y-53988974D01*
X141962244Y-53960611D01*
X141856733Y-53819315D01*
X141856732Y-53819314D01*
X141853280Y-53814691D01*
X141731078Y-53701729D01*
X141694633Y-53640800D01*
X141696914Y-53569840D01*
X141736038Y-53512330D01*
X141736201Y-53512195D01*
X141810446Y-53450446D01*
X141949532Y-53283213D01*
X142031620Y-53136634D01*
X142052989Y-53098478D01*
X142052990Y-53098476D01*
X142055813Y-53093435D01*
X142057669Y-53087968D01*
X142057671Y-53087963D01*
X142123874Y-52892935D01*
X142123875Y-52892930D01*
X142125730Y-52887466D01*
X142156941Y-52672205D01*
X142158570Y-52610000D01*
X142138667Y-52393400D01*
X142136335Y-52385129D01*
X142081195Y-52189619D01*
X142079626Y-52184055D01*
X141983423Y-51988974D01*
X141937076Y-51926907D01*
X141856733Y-51819315D01*
X141856732Y-51819314D01*
X141853280Y-51814691D01*
X141845074Y-51807105D01*
X141740006Y-51709982D01*
X141731078Y-51701729D01*
X141694633Y-51640800D01*
X141696914Y-51569840D01*
X141736038Y-51512330D01*
X141776275Y-51478866D01*
X141810446Y-51450446D01*
X141949532Y-51283213D01*
X142031312Y-51137185D01*
X142052989Y-51098478D01*
X142052990Y-51098476D01*
X142055813Y-51093435D01*
X142057669Y-51087968D01*
X142057671Y-51087963D01*
X142123874Y-50892935D01*
X142123875Y-50892930D01*
X142125730Y-50887466D01*
X142156941Y-50672205D01*
X142158570Y-50610000D01*
X142138667Y-50393400D01*
X142135312Y-50381502D01*
X142081195Y-50189619D01*
X142079626Y-50184055D01*
X141983423Y-49988974D01*
X141968415Y-49968875D01*
X141856733Y-49819315D01*
X141856732Y-49819314D01*
X141853280Y-49814691D01*
X141847756Y-49809584D01*
X141731078Y-49701729D01*
X141694633Y-49640800D01*
X141696914Y-49569840D01*
X141736038Y-49512330D01*
X141741910Y-49507447D01*
X141810446Y-49450446D01*
X141949532Y-49283213D01*
X142027943Y-49143200D01*
X142052989Y-49098478D01*
X142052990Y-49098476D01*
X142055813Y-49093435D01*
X142057669Y-49087968D01*
X142057671Y-49087963D01*
X142123874Y-48892935D01*
X142123875Y-48892930D01*
X142125730Y-48887466D01*
X142156941Y-48672205D01*
X142158570Y-48610000D01*
X142138667Y-48393400D01*
X142079626Y-48184055D01*
X141983423Y-47988974D01*
X141925368Y-47911228D01*
X141856733Y-47819315D01*
X141856732Y-47819314D01*
X141853280Y-47814691D01*
X141844674Y-47806735D01*
X141731078Y-47701729D01*
X141694633Y-47640800D01*
X141696914Y-47569840D01*
X141736038Y-47512330D01*
X141776976Y-47478283D01*
X141810446Y-47450446D01*
X141949532Y-47283213D01*
X142026891Y-47145079D01*
X142052989Y-47098478D01*
X142052990Y-47098476D01*
X142055813Y-47093435D01*
X142057669Y-47087968D01*
X142057671Y-47087963D01*
X142123874Y-46892935D01*
X142123875Y-46892930D01*
X142125730Y-46887466D01*
X142156941Y-46672205D01*
X142158570Y-46610000D01*
X142138667Y-46393400D01*
X142130955Y-46366053D01*
X142081195Y-46189619D01*
X142079626Y-46184055D01*
X141983423Y-45988974D01*
X141979967Y-45984346D01*
X141979964Y-45984341D01*
X141904166Y-45882834D01*
X141879434Y-45816285D01*
X141894609Y-45746929D01*
X141929559Y-45706620D01*
X142000724Y-45653285D01*
X142013285Y-45640724D01*
X142089786Y-45538649D01*
X142098324Y-45523054D01*
X142143478Y-45402606D01*
X142147105Y-45387351D01*
X142152631Y-45336486D01*
X142153000Y-45329672D01*
X142153000Y-44882115D01*
X142148525Y-44866876D01*
X142147135Y-44865671D01*
X142139452Y-44864000D01*
X139805116Y-44864000D01*
X139789877Y-44868475D01*
X139788672Y-44869865D01*
X139787001Y-44877548D01*
X139787001Y-45329669D01*
X139787371Y-45336490D01*
X139792895Y-45387352D01*
X139796521Y-45402604D01*
X139841676Y-45523054D01*
X139850214Y-45538649D01*
X139926715Y-45640724D01*
X139939275Y-45653284D01*
X140010578Y-45706722D01*
X140053094Y-45763581D01*
X140058120Y-45834400D01*
X140033964Y-45885555D01*
X139982090Y-45951357D01*
X139973181Y-45962658D01*
X139871905Y-46155154D01*
X139870192Y-46160671D01*
X139809385Y-46356500D01*
X139807403Y-46362882D01*
X139781837Y-46578887D01*
X139796063Y-46795933D01*
X139797484Y-46801529D01*
X139797485Y-46801534D01*
X139841160Y-46973502D01*
X139849605Y-47006753D01*
X139852022Y-47011996D01*
X139912148Y-47142421D01*
X139940668Y-47204285D01*
X139944001Y-47209001D01*
X140058243Y-47370649D01*
X140066204Y-47381914D01*
X140173858Y-47486785D01*
X140209741Y-47521741D01*
X140244579Y-47583602D01*
X140240442Y-47654478D01*
X140204899Y-47706726D01*
X140107842Y-47791842D01*
X140104270Y-47796373D01*
X140084659Y-47821250D01*
X139973181Y-47962658D01*
X139871905Y-48155154D01*
X139870193Y-48160668D01*
X139856577Y-48204517D01*
X139849718Y-48221923D01*
X139840347Y-48241336D01*
X139838991Y-48245615D01*
X139838988Y-48245622D01*
X139812711Y-48328530D01*
X139794716Y-48385308D01*
X139792709Y-48391787D01*
X139792611Y-48392111D01*
X139790325Y-48399892D01*
X139790240Y-48400191D01*
X139743127Y-48565317D01*
X139743125Y-48565322D01*
X139699364Y-48718678D01*
X139661438Y-48778695D01*
X139606080Y-48806980D01*
X139480690Y-48835429D01*
X139480686Y-48835430D01*
X139476306Y-48836424D01*
X139470942Y-48838479D01*
X139469530Y-48839020D01*
X139469520Y-48839024D01*
X139467944Y-48839628D01*
X139417776Y-48861996D01*
X139412729Y-48865567D01*
X139412725Y-48865569D01*
X139302133Y-48943811D01*
X139302129Y-48943814D01*
X139298460Y-48946410D01*
X139134929Y-49101380D01*
X139110219Y-49127446D01*
X139101855Y-49136270D01*
X139097093Y-49141293D01*
X139095470Y-49143200D01*
X139076533Y-49171004D01*
X139044396Y-49218190D01*
X139033610Y-49234026D01*
X139030921Y-49241442D01*
X139030920Y-49241443D01*
X138994702Y-49341314D01*
X138983781Y-49371427D01*
X138981957Y-49380195D01*
X138971216Y-49489495D01*
X138972409Y-49497284D01*
X138990885Y-49617911D01*
X138993344Y-49633968D01*
X138997162Y-49642129D01*
X139054628Y-49764965D01*
X139066500Y-49818357D01*
X139066500Y-50588362D01*
X139065422Y-50604808D01*
X139063537Y-50619129D01*
X139061882Y-50631698D01*
X139062716Y-50639249D01*
X139064020Y-50651063D01*
X139064583Y-50671955D01*
X139054728Y-50847474D01*
X139054025Y-50859988D01*
X139052444Y-50874020D01*
X139031632Y-50996522D01*
X139016452Y-51085870D01*
X139013308Y-51099645D01*
X138953824Y-51306129D01*
X138949157Y-51319466D01*
X138866931Y-51517984D01*
X138860801Y-51530714D01*
X138756863Y-51718783D01*
X138749346Y-51730747D01*
X138625005Y-51905995D01*
X138616196Y-51917041D01*
X138495704Y-52051878D01*
X138478461Y-52067879D01*
X138469760Y-52074555D01*
X138460854Y-52085672D01*
X138447782Y-52101989D01*
X138438541Y-52112305D01*
X137919226Y-52631620D01*
X137856914Y-52665646D01*
X137786099Y-52660581D01*
X137742319Y-52630801D01*
X137741656Y-52631537D01*
X137736748Y-52627117D01*
X137732329Y-52622210D01*
X137715524Y-52610000D01*
X137583170Y-52513839D01*
X137583169Y-52513838D01*
X137577828Y-52509958D01*
X137571800Y-52507274D01*
X137571798Y-52507273D01*
X137409401Y-52434970D01*
X137409402Y-52434970D01*
X137403364Y-52432282D01*
X137399952Y-52431557D01*
X137398709Y-52430959D01*
X137394413Y-52429605D01*
X137394411Y-52429604D01*
X137332195Y-52409992D01*
X137332175Y-52409986D01*
X137331817Y-52409873D01*
X137329366Y-52409136D01*
X137318931Y-52406001D01*
X137318875Y-52405985D01*
X137318507Y-52405874D01*
X137317926Y-52405708D01*
X137317600Y-52405619D01*
X137317567Y-52405610D01*
X137306084Y-52402482D01*
X137305739Y-52402388D01*
X137239114Y-52385113D01*
X137239056Y-52385098D01*
X137232661Y-52383485D01*
X137232603Y-52383471D01*
X137232485Y-52383441D01*
X137232126Y-52383353D01*
X137223006Y-52381206D01*
X137162298Y-52367494D01*
X137162318Y-52367407D01*
X137162159Y-52367367D01*
X137162138Y-52367458D01*
X137117952Y-52357492D01*
X137113198Y-52356322D01*
X137104678Y-52354049D01*
X137059699Y-52331686D01*
X137054812Y-52327877D01*
X137046448Y-52320751D01*
X137009886Y-52286738D01*
X137008868Y-52285791D01*
X136998395Y-52276883D01*
X136993040Y-52272329D01*
X136974068Y-52256193D01*
X136973976Y-52256140D01*
X136961950Y-52246046D01*
X136386360Y-51670456D01*
X136375399Y-51650383D01*
X136369499Y-51648772D01*
X136346495Y-51630591D01*
X135862602Y-51146697D01*
X135301150Y-50585245D01*
X135267124Y-50522933D01*
X135272189Y-50452117D01*
X135314736Y-50395282D01*
X135381256Y-50370471D01*
X135441493Y-50381043D01*
X135503655Y-50408719D01*
X135562075Y-50434729D01*
X135568788Y-50437718D01*
X135636530Y-50452117D01*
X135749132Y-50476052D01*
X135749137Y-50476052D01*
X135755589Y-50477424D01*
X135946563Y-50477424D01*
X135953015Y-50476052D01*
X135953020Y-50476052D01*
X136112828Y-50442083D01*
X136123018Y-50439917D01*
X136193809Y-50445319D01*
X136250441Y-50488136D01*
X136274935Y-50554773D01*
X136269647Y-50597286D01*
X136269871Y-50597334D01*
X136269318Y-50599937D01*
X136269049Y-50602097D01*
X136268498Y-50603793D01*
X136266458Y-50610072D01*
X136265768Y-50616633D01*
X136265768Y-50616635D01*
X136253038Y-50737760D01*
X136246496Y-50800000D01*
X136247186Y-50806565D01*
X136264154Y-50968002D01*
X136266458Y-50989928D01*
X136325473Y-51171556D01*
X136420960Y-51336944D01*
X136425378Y-51341851D01*
X136425379Y-51341852D01*
X136529226Y-51457186D01*
X136535736Y-51470750D01*
X136535840Y-51470773D01*
X136549516Y-51479425D01*
X136697906Y-51587237D01*
X136703248Y-51591118D01*
X136709276Y-51593802D01*
X136709278Y-51593803D01*
X136871681Y-51666109D01*
X136877712Y-51668794D01*
X136971113Y-51688647D01*
X137058056Y-51707128D01*
X137058061Y-51707128D01*
X137064513Y-51708500D01*
X137255487Y-51708500D01*
X137261939Y-51707128D01*
X137261944Y-51707128D01*
X137348888Y-51688647D01*
X137442288Y-51668794D01*
X137448319Y-51666109D01*
X137610722Y-51593803D01*
X137610724Y-51593802D01*
X137616752Y-51591118D01*
X137631367Y-51580500D01*
X137685180Y-51541402D01*
X137771253Y-51478866D01*
X137793519Y-51454137D01*
X137894621Y-51341852D01*
X137894622Y-51341851D01*
X137899040Y-51336944D01*
X137994527Y-51171556D01*
X138053542Y-50989928D01*
X138055847Y-50968002D01*
X138072814Y-50806565D01*
X138073504Y-50800000D01*
X138066962Y-50737760D01*
X138054232Y-50616635D01*
X138054232Y-50616633D01*
X138053542Y-50610072D01*
X137994527Y-50428444D01*
X137989952Y-50420520D01*
X137982134Y-50402812D01*
X137981657Y-50403002D01*
X137979986Y-50398812D01*
X137978624Y-50394533D01*
X137976669Y-50390494D01*
X137976666Y-50390488D01*
X137941298Y-50317443D01*
X137907172Y-50246533D01*
X137907015Y-50246205D01*
X137878737Y-50186451D01*
X137878139Y-50185169D01*
X137854090Y-50132818D01*
X137853289Y-50131038D01*
X137849604Y-50122677D01*
X137831743Y-50082152D01*
X137830949Y-50080307D01*
X137809660Y-50029624D01*
X137808874Y-50027709D01*
X137793347Y-49988974D01*
X137785878Y-49970340D01*
X137785303Y-49968875D01*
X137759095Y-49900874D01*
X137758666Y-49899747D01*
X137736141Y-49839592D01*
X137727572Y-49816708D01*
X137727345Y-49816093D01*
X137694734Y-49727332D01*
X137694734Y-49727331D01*
X137694152Y-49725748D01*
X137676799Y-49685281D01*
X137672701Y-49675726D01*
X137673059Y-49675572D01*
X137668700Y-49665680D01*
X137663138Y-49649295D01*
X137663137Y-49649294D01*
X137661814Y-49645395D01*
X137657970Y-49637599D01*
X137625164Y-49571076D01*
X137558825Y-49436551D01*
X137429457Y-49242937D01*
X137426743Y-49239843D01*
X137426739Y-49239837D01*
X137339244Y-49140069D01*
X137335909Y-49136267D01*
X137333405Y-49133231D01*
X137329814Y-49127159D01*
X137317364Y-49114709D01*
X137311726Y-49108690D01*
X137301413Y-49096930D01*
X137295388Y-49089510D01*
X137288345Y-49080131D01*
X137285863Y-49076825D01*
X137276512Y-49067277D01*
X137252010Y-49048065D01*
X137240661Y-49038006D01*
X135106670Y-46904014D01*
X135095006Y-46890573D01*
X135083610Y-46875395D01*
X135083608Y-46875393D01*
X135081132Y-46872095D01*
X135071782Y-46862546D01*
X135068541Y-46860005D01*
X135068221Y-46859718D01*
X135060615Y-46853215D01*
X135001466Y-46798146D01*
X134753629Y-46567405D01*
X134751893Y-46566006D01*
X134751886Y-46566000D01*
X134417481Y-46296524D01*
X134417472Y-46296517D01*
X134415743Y-46295124D01*
X134059293Y-46047640D01*
X133686097Y-45826216D01*
X133684106Y-45825220D01*
X133684098Y-45825215D01*
X133407365Y-45686695D01*
X133298055Y-45631979D01*
X132897146Y-45465919D01*
X132487773Y-45329669D01*
X132487542Y-45329592D01*
X132485411Y-45328883D01*
X132483239Y-45328329D01*
X132483230Y-45328326D01*
X132281305Y-45276789D01*
X132064950Y-45221569D01*
X132062753Y-45221173D01*
X132062741Y-45221170D01*
X131640132Y-45144925D01*
X131640133Y-45144925D01*
X131637904Y-45144523D01*
X131206449Y-45098138D01*
X130803506Y-45083749D01*
X130790251Y-45082571D01*
X130786149Y-45081987D01*
X130778742Y-45081909D01*
X130776905Y-45081890D01*
X130776903Y-45081890D01*
X130772785Y-45081847D01*
X130768695Y-45082342D01*
X130768694Y-45082342D01*
X130766810Y-45082570D01*
X130741878Y-45085587D01*
X130726743Y-45086500D01*
X126202518Y-45086500D01*
X126178174Y-45084126D01*
X126169820Y-45082481D01*
X126165402Y-45081611D01*
X126017058Y-45073946D01*
X126001427Y-45072155D01*
X125923750Y-45058294D01*
X125905796Y-45053706D01*
X125860766Y-45038594D01*
X125843326Y-45031241D01*
X125806544Y-45012365D01*
X125793038Y-45004333D01*
X125743281Y-44970370D01*
X125735599Y-44964688D01*
X125713471Y-44946984D01*
X125660913Y-44904933D01*
X125659133Y-44903481D01*
X125562309Y-44822964D01*
X125562055Y-44822757D01*
X125561982Y-44822696D01*
X125555892Y-44817716D01*
X125555753Y-44817602D01*
X125555457Y-44817364D01*
X125555338Y-44817270D01*
X125555209Y-44817167D01*
X125549300Y-44812494D01*
X125549239Y-44812446D01*
X125549015Y-44812269D01*
X125441663Y-44728744D01*
X125400182Y-44671126D01*
X125396436Y-44600228D01*
X125431616Y-44538560D01*
X125474808Y-44511317D01*
X125548295Y-44483768D01*
X125548296Y-44483767D01*
X125556705Y-44480615D01*
X125673261Y-44393261D01*
X125714763Y-44337885D01*
X139787000Y-44337885D01*
X139791475Y-44353124D01*
X139792865Y-44354329D01*
X139800548Y-44356000D01*
X140697885Y-44356000D01*
X140713124Y-44351525D01*
X140714329Y-44350135D01*
X140716000Y-44342452D01*
X140716000Y-44337885D01*
X141224000Y-44337885D01*
X141228475Y-44353124D01*
X141229865Y-44354329D01*
X141237548Y-44356000D01*
X142134884Y-44356000D01*
X142150123Y-44351525D01*
X142151328Y-44350135D01*
X142152999Y-44342452D01*
X142152999Y-43890331D01*
X142152629Y-43883510D01*
X142147105Y-43832648D01*
X142143479Y-43817396D01*
X142098324Y-43696946D01*
X142089786Y-43681351D01*
X142013285Y-43579276D01*
X142000724Y-43566715D01*
X141898649Y-43490214D01*
X141883054Y-43481676D01*
X141762606Y-43436522D01*
X141747351Y-43432895D01*
X141696486Y-43427369D01*
X141689672Y-43427000D01*
X141242115Y-43427000D01*
X141226876Y-43431475D01*
X141225671Y-43432865D01*
X141224000Y-43440548D01*
X141224000Y-44337885D01*
X140716000Y-44337885D01*
X140716000Y-43445116D01*
X140711525Y-43429877D01*
X140710135Y-43428672D01*
X140702452Y-43427001D01*
X140250331Y-43427001D01*
X140243510Y-43427371D01*
X140192648Y-43432895D01*
X140177396Y-43436521D01*
X140056946Y-43481676D01*
X140041351Y-43490214D01*
X139939276Y-43566715D01*
X139926715Y-43579276D01*
X139850214Y-43681351D01*
X139841676Y-43696946D01*
X139796522Y-43817394D01*
X139792895Y-43832649D01*
X139787369Y-43883514D01*
X139787000Y-43890328D01*
X139787000Y-44337885D01*
X125714763Y-44337885D01*
X125760615Y-44276705D01*
X125811745Y-44140316D01*
X125818500Y-44078134D01*
X125818500Y-42281866D01*
X125811745Y-42219684D01*
X125760615Y-42083295D01*
X125673261Y-41966739D01*
X125556705Y-41879385D01*
X125420316Y-41828255D01*
X125358134Y-41821500D01*
X123561866Y-41821500D01*
X123499684Y-41828255D01*
X123363295Y-41879385D01*
X123246739Y-41966739D01*
X123159385Y-42083295D01*
X123108255Y-42219684D01*
X123101500Y-42281866D01*
X123101500Y-44078134D01*
X123108255Y-44140316D01*
X123159385Y-44276705D01*
X123246739Y-44393261D01*
X123363295Y-44480615D01*
X123371704Y-44483767D01*
X123371705Y-44483768D01*
X123480451Y-44524535D01*
X123537216Y-44567176D01*
X123561916Y-44633738D01*
X123546709Y-44703087D01*
X123527316Y-44729568D01*
X123437806Y-44823235D01*
X123400629Y-44862138D01*
X123397715Y-44866410D01*
X123397714Y-44866411D01*
X123372446Y-44903453D01*
X123274743Y-45046680D01*
X123230944Y-45141038D01*
X123193563Y-45221569D01*
X123180688Y-45249305D01*
X123120989Y-45464570D01*
X123097251Y-45686695D01*
X123097548Y-45691848D01*
X123097548Y-45691851D01*
X123106690Y-45850400D01*
X123110110Y-45909715D01*
X123111247Y-45914761D01*
X123111248Y-45914767D01*
X123130075Y-45998307D01*
X123159222Y-46127639D01*
X123208338Y-46248598D01*
X123227799Y-46296524D01*
X123243266Y-46334616D01*
X123261347Y-46364121D01*
X123348419Y-46506210D01*
X123359987Y-46525088D01*
X123363367Y-46528990D01*
X123455223Y-46635031D01*
X123484706Y-46699617D01*
X123474591Y-46769889D01*
X123428090Y-46823538D01*
X123412737Y-46831955D01*
X123304888Y-46881674D01*
X123304879Y-46881678D01*
X123302633Y-46882714D01*
X123300478Y-46883921D01*
X123300466Y-46883927D01*
X123194560Y-46943238D01*
X122969524Y-47069265D01*
X122967459Y-47070645D01*
X122967457Y-47070646D01*
X122656882Y-47278166D01*
X122652079Y-47281375D01*
X122561620Y-47352687D01*
X122388942Y-47488816D01*
X122352253Y-47517739D01*
X122350439Y-47519416D01*
X122350433Y-47519421D01*
X122240747Y-47620814D01*
X122126682Y-47726255D01*
X122095645Y-47754945D01*
X122085765Y-47763183D01*
X122084112Y-47764424D01*
X122084105Y-47764430D01*
X122080806Y-47766907D01*
X122071258Y-47776258D01*
X122068717Y-47779499D01*
X122068714Y-47779502D01*
X122068334Y-47779987D01*
X122068184Y-47780094D01*
X122065963Y-47782574D01*
X122065408Y-47782077D01*
X122010559Y-47821250D01*
X121939648Y-47824726D01*
X121878113Y-47789314D01*
X121845493Y-47726255D01*
X121849870Y-47661736D01*
X121854388Y-47648427D01*
X121863541Y-47621462D01*
X121907462Y-47400643D01*
X121908690Y-47381914D01*
X121912954Y-47316843D01*
X121916090Y-47268987D01*
X121916637Y-47263271D01*
X121918500Y-47256017D01*
X121918500Y-47236331D01*
X121918770Y-47228093D01*
X121919542Y-47216310D01*
X121920528Y-47206808D01*
X121923013Y-47189343D01*
X121923153Y-47175979D01*
X121919413Y-47145076D01*
X121918500Y-47129939D01*
X121918500Y-45839950D01*
X121938502Y-45771829D01*
X121949059Y-45758729D01*
X121948989Y-45758675D01*
X121953845Y-45752415D01*
X121959453Y-45746807D01*
X121963489Y-45739983D01*
X121963491Y-45739980D01*
X122040108Y-45610427D01*
X122044145Y-45603601D01*
X122046415Y-45595790D01*
X122084352Y-45465205D01*
X122090562Y-45443831D01*
X122093500Y-45406502D01*
X122093500Y-43623498D01*
X122093307Y-43621042D01*
X122091067Y-43592579D01*
X122091066Y-43592574D01*
X122090562Y-43586169D01*
X122047086Y-43436521D01*
X122046357Y-43434012D01*
X122046356Y-43434010D01*
X122044145Y-43426399D01*
X122027107Y-43397589D01*
X121963491Y-43290020D01*
X121963489Y-43290017D01*
X121959453Y-43283193D01*
X121841807Y-43165547D01*
X121834983Y-43161511D01*
X121834980Y-43161509D01*
X121705427Y-43084892D01*
X121705428Y-43084892D01*
X121698601Y-43080855D01*
X121690990Y-43078644D01*
X121690988Y-43078643D01*
X121603142Y-43053122D01*
X121538831Y-43034438D01*
X121532426Y-43033934D01*
X121532421Y-43033933D01*
X121503958Y-43031693D01*
X121503950Y-43031693D01*
X121501502Y-43031500D01*
X121068498Y-43031500D01*
X121066050Y-43031693D01*
X121066042Y-43031693D01*
X121037579Y-43033933D01*
X121037574Y-43033934D01*
X121031169Y-43034438D01*
X120966858Y-43053122D01*
X120879012Y-43078643D01*
X120879010Y-43078644D01*
X120871399Y-43080855D01*
X120728193Y-43165547D01*
X120725511Y-43168229D01*
X120661139Y-43193502D01*
X120591516Y-43179600D01*
X120575688Y-43169428D01*
X120571807Y-43165547D01*
X120428601Y-43080855D01*
X120420990Y-43078644D01*
X120420988Y-43078643D01*
X120333142Y-43053122D01*
X120268831Y-43034438D01*
X120262426Y-43033934D01*
X120262421Y-43033933D01*
X120233958Y-43031693D01*
X120233950Y-43031693D01*
X120231502Y-43031500D01*
X119798498Y-43031500D01*
X119796050Y-43031693D01*
X119796042Y-43031693D01*
X119767579Y-43033933D01*
X119767574Y-43033934D01*
X119761169Y-43034438D01*
X119696858Y-43053122D01*
X119609012Y-43078643D01*
X119609010Y-43078644D01*
X119601399Y-43080855D01*
X119458193Y-43165547D01*
X119455511Y-43168229D01*
X119391139Y-43193502D01*
X119321516Y-43179600D01*
X119305688Y-43169428D01*
X119301807Y-43165547D01*
X119158601Y-43080855D01*
X119150990Y-43078644D01*
X119150988Y-43078643D01*
X119063142Y-43053122D01*
X118998831Y-43034438D01*
X118992426Y-43033934D01*
X118992421Y-43033933D01*
X118963958Y-43031693D01*
X118963950Y-43031693D01*
X118961502Y-43031500D01*
X118528498Y-43031500D01*
X118526050Y-43031693D01*
X118526042Y-43031693D01*
X118497579Y-43033933D01*
X118497574Y-43033934D01*
X118491169Y-43034438D01*
X118426858Y-43053122D01*
X118339012Y-43078643D01*
X118339010Y-43078644D01*
X118331399Y-43080855D01*
X118188193Y-43165547D01*
X118185253Y-43168487D01*
X118120729Y-43193821D01*
X118051106Y-43179920D01*
X118032360Y-43167871D01*
X118024677Y-43161911D01*
X117895221Y-43085352D01*
X117880790Y-43079107D01*
X117746395Y-43040061D01*
X117732294Y-43040101D01*
X117729000Y-43047370D01*
X117729000Y-45976878D01*
X117732973Y-45990409D01*
X117740871Y-45991544D01*
X117880790Y-45950893D01*
X117895221Y-45944648D01*
X118024676Y-45868090D01*
X118032364Y-45862126D01*
X118098449Y-45836179D01*
X118168072Y-45850080D01*
X118184158Y-45860418D01*
X118188193Y-45864453D01*
X118331399Y-45949145D01*
X118339010Y-45951356D01*
X118339012Y-45951357D01*
X118391231Y-45966528D01*
X118491169Y-45995562D01*
X118497574Y-45996066D01*
X118497579Y-45996067D01*
X118526042Y-45998307D01*
X118526050Y-45998307D01*
X118528498Y-45998500D01*
X118961502Y-45998500D01*
X118963950Y-45998307D01*
X118963958Y-45998307D01*
X118992421Y-45996067D01*
X118992426Y-45996066D01*
X118998831Y-45995562D01*
X119098769Y-45966528D01*
X119150988Y-45951357D01*
X119150990Y-45951356D01*
X119158601Y-45949145D01*
X119301807Y-45864453D01*
X119304489Y-45861771D01*
X119368861Y-45836498D01*
X119438484Y-45850400D01*
X119454312Y-45860572D01*
X119458193Y-45864453D01*
X119601399Y-45949145D01*
X119609010Y-45951356D01*
X119609012Y-45951357D01*
X119661231Y-45966528D01*
X119761169Y-45995562D01*
X119767574Y-45996066D01*
X119767579Y-45996067D01*
X119796042Y-45998307D01*
X119796050Y-45998307D01*
X119798498Y-45998500D01*
X120231502Y-45998500D01*
X120233950Y-45998307D01*
X120233958Y-45998307D01*
X120262421Y-45996067D01*
X120262426Y-45996066D01*
X120268831Y-45995562D01*
X120368769Y-45966528D01*
X120420988Y-45951357D01*
X120420990Y-45951356D01*
X120428601Y-45949145D01*
X120461363Y-45929769D01*
X120530178Y-45912311D01*
X120597509Y-45934828D01*
X120641978Y-45990173D01*
X120651500Y-46038224D01*
X120651500Y-47125976D01*
X120650422Y-47142421D01*
X120647873Y-47161780D01*
X120647873Y-47161784D01*
X120646882Y-47169312D01*
X120648075Y-47180113D01*
X120648227Y-47181491D01*
X120648382Y-47207660D01*
X120644060Y-47251544D01*
X120639243Y-47275759D01*
X120620809Y-47336526D01*
X120611361Y-47359338D01*
X120581425Y-47415344D01*
X120567707Y-47435874D01*
X120545752Y-47462626D01*
X120530441Y-47478283D01*
X120529106Y-47479429D01*
X120525806Y-47481907D01*
X120521239Y-47486380D01*
X120521008Y-47486557D01*
X120520826Y-47486785D01*
X120516258Y-47491258D01*
X120513722Y-47494493D01*
X120513717Y-47494498D01*
X120507547Y-47502368D01*
X120503124Y-47507701D01*
X120371213Y-47658115D01*
X120371209Y-47658121D01*
X120368495Y-47661215D01*
X120243412Y-47848416D01*
X120225405Y-47884931D01*
X120212437Y-47911228D01*
X120164369Y-47963477D01*
X120099431Y-47981500D01*
X119798498Y-47981500D01*
X119796050Y-47981693D01*
X119796042Y-47981693D01*
X119767579Y-47983933D01*
X119767574Y-47983934D01*
X119761169Y-47984438D01*
X119674811Y-48009527D01*
X119609012Y-48028643D01*
X119609010Y-48028644D01*
X119601399Y-48030855D01*
X119458193Y-48115547D01*
X119455253Y-48118487D01*
X119390729Y-48143821D01*
X119321106Y-48129920D01*
X119302360Y-48117871D01*
X119294677Y-48111911D01*
X119165221Y-48035352D01*
X119150790Y-48029107D01*
X119016395Y-47990061D01*
X119002294Y-47990101D01*
X118999000Y-47997370D01*
X118999000Y-49593000D01*
X118978998Y-49661121D01*
X118925342Y-49707614D01*
X118873000Y-49719000D01*
X117747115Y-49719000D01*
X117731876Y-49723475D01*
X117730671Y-49724865D01*
X117729000Y-49732548D01*
X117729000Y-50926878D01*
X117732973Y-50940409D01*
X117740871Y-50941544D01*
X117880790Y-50900893D01*
X117895221Y-50894648D01*
X118024678Y-50818088D01*
X118032770Y-50811811D01*
X118098854Y-50785861D01*
X118168477Y-50799759D01*
X118187230Y-50811811D01*
X118195322Y-50818088D01*
X118324779Y-50894648D01*
X118339210Y-50900893D01*
X118485065Y-50943269D01*
X118497667Y-50945570D01*
X118526084Y-50947807D01*
X118531014Y-50948000D01*
X118557081Y-50948000D01*
X118625202Y-50968002D01*
X118671695Y-51021658D01*
X118681799Y-51091932D01*
X118664341Y-51140116D01*
X118600079Y-51244368D01*
X118582885Y-51272262D01*
X118567228Y-51319466D01*
X118541888Y-51395866D01*
X118527203Y-51440139D01*
X118526503Y-51446975D01*
X118526502Y-51446978D01*
X118524064Y-51470773D01*
X118516500Y-51544600D01*
X118516500Y-51580500D01*
X118496498Y-51648621D01*
X118442842Y-51695114D01*
X118390500Y-51706500D01*
X118076781Y-51706500D01*
X118008660Y-51686498D01*
X117969637Y-51646803D01*
X117936840Y-51593803D01*
X117888478Y-51515652D01*
X117763303Y-51390695D01*
X117757072Y-51386854D01*
X117618968Y-51301725D01*
X117618966Y-51301724D01*
X117612738Y-51297885D01*
X117452254Y-51244655D01*
X117451389Y-51244368D01*
X117451387Y-51244368D01*
X117444861Y-51242203D01*
X117438025Y-51241503D01*
X117438022Y-51241502D01*
X117394969Y-51237091D01*
X117340400Y-51231500D01*
X116339600Y-51231500D01*
X116336354Y-51231837D01*
X116336350Y-51231837D01*
X116240692Y-51241762D01*
X116240688Y-51241763D01*
X116233834Y-51242474D01*
X116227298Y-51244655D01*
X116227296Y-51244655D01*
X116126852Y-51278166D01*
X116066054Y-51298450D01*
X115915652Y-51391522D01*
X115790695Y-51516697D01*
X115786855Y-51522927D01*
X115786854Y-51522928D01*
X115707600Y-51651502D01*
X115697885Y-51667262D01*
X115680796Y-51718783D01*
X115647452Y-51819315D01*
X115642203Y-51835139D01*
X115641503Y-51841975D01*
X115641502Y-51841978D01*
X115639002Y-51866384D01*
X115631500Y-51939600D01*
X115631500Y-52740400D01*
X115631837Y-52743646D01*
X115631837Y-52743650D01*
X115641276Y-52834616D01*
X115642474Y-52846166D01*
X115644655Y-52852702D01*
X115644655Y-52852704D01*
X115669606Y-52927490D01*
X115698450Y-53013946D01*
X115791522Y-53164348D01*
X115873301Y-53245984D01*
X115878109Y-53250784D01*
X115912188Y-53313066D01*
X115907185Y-53383886D01*
X115878264Y-53428975D01*
X115843155Y-53464145D01*
X115790695Y-53516697D01*
X115786855Y-53522927D01*
X115786854Y-53522928D01*
X115745799Y-53589532D01*
X115697885Y-53667262D01*
X115681379Y-53717027D01*
X115647452Y-53819315D01*
X115642203Y-53835139D01*
X115641503Y-53841975D01*
X115641502Y-53841978D01*
X115637091Y-53885031D01*
X115631500Y-53939600D01*
X115631500Y-54594186D01*
X115611498Y-54662307D01*
X115588578Y-54688917D01*
X115458720Y-54802801D01*
X115445644Y-54812835D01*
X115249777Y-54943709D01*
X115235504Y-54951949D01*
X115024226Y-55056142D01*
X115009001Y-55062450D01*
X114979384Y-55072503D01*
X114966027Y-55076231D01*
X114965702Y-55076303D01*
X114961257Y-55076955D01*
X114956951Y-55078233D01*
X114956946Y-55078234D01*
X114788927Y-55128098D01*
X114769538Y-55132225D01*
X114683320Y-55143585D01*
X114658998Y-55144419D01*
X114614504Y-55141637D01*
X114589211Y-55137442D01*
X114553355Y-55127662D01*
X114532698Y-55120033D01*
X114475857Y-55093185D01*
X114462779Y-55086033D01*
X114408535Y-55052052D01*
X114372027Y-55029181D01*
X114366190Y-55025294D01*
X114253367Y-54945503D01*
X114239489Y-54935688D01*
X114239431Y-54935639D01*
X114239428Y-54935644D01*
X114111213Y-54844861D01*
X114087033Y-54827740D01*
X114086874Y-54827630D01*
X114086830Y-54827599D01*
X114078442Y-54821790D01*
X114078295Y-54821688D01*
X114077892Y-54821415D01*
X114068007Y-54814884D01*
X114042793Y-54798639D01*
X114030525Y-54790735D01*
X113984093Y-54737026D01*
X113974070Y-54666740D01*
X114003637Y-54602193D01*
X114019131Y-54587172D01*
X114025993Y-54581576D01*
X114161257Y-54471257D01*
X114222295Y-54396417D01*
X114280296Y-54325301D01*
X114280297Y-54325300D01*
X114284328Y-54320357D01*
X114374543Y-54147792D01*
X114428216Y-53960611D01*
X114438500Y-53845384D01*
X114438500Y-52834616D01*
X114435279Y-52798520D01*
X114428749Y-52725362D01*
X114428216Y-52719389D01*
X114374543Y-52532208D01*
X114295560Y-52381127D01*
X114287284Y-52365297D01*
X114287283Y-52365296D01*
X114284328Y-52359643D01*
X114279958Y-52354284D01*
X114165286Y-52213683D01*
X114161257Y-52208743D01*
X114095389Y-52155022D01*
X114015301Y-52089704D01*
X114015300Y-52089703D01*
X114010357Y-52085672D01*
X114002607Y-52081620D01*
X113937884Y-52047784D01*
X113837792Y-51995457D01*
X113831655Y-51993697D01*
X113831652Y-51993696D01*
X113824911Y-51991763D01*
X113764943Y-51953758D01*
X113756091Y-51942428D01*
X113754720Y-51940449D01*
X113746542Y-51926907D01*
X113724170Y-51883981D01*
X113716638Y-51866384D01*
X113698937Y-51814432D01*
X113694220Y-51796246D01*
X113678599Y-51709982D01*
X113676756Y-51694124D01*
X113676479Y-51688831D01*
X113668378Y-51534219D01*
X113667560Y-51525425D01*
X113664526Y-51492846D01*
X113664817Y-51492819D01*
X113663500Y-51478576D01*
X113663500Y-50353984D01*
X116667001Y-50353984D01*
X116667195Y-50358920D01*
X116669430Y-50387336D01*
X116671730Y-50399931D01*
X116714107Y-50545790D01*
X116720352Y-50560221D01*
X116796911Y-50689678D01*
X116806551Y-50702104D01*
X116912896Y-50808449D01*
X116925322Y-50818089D01*
X117054779Y-50894648D01*
X117069210Y-50900893D01*
X117203605Y-50939939D01*
X117217706Y-50939899D01*
X117221000Y-50932630D01*
X117221000Y-49737115D01*
X117216525Y-49721876D01*
X117215135Y-49720671D01*
X117207452Y-49719000D01*
X116685116Y-49719000D01*
X116669877Y-49723475D01*
X116668672Y-49724865D01*
X116667001Y-49732548D01*
X116667001Y-50353984D01*
X113663500Y-50353984D01*
X113663500Y-49709159D01*
X113664578Y-49692714D01*
X113667127Y-49673355D01*
X113667127Y-49673351D01*
X113668118Y-49665823D01*
X113665891Y-49645655D01*
X113665811Y-49644927D01*
X113665202Y-49624918D01*
X113672229Y-49481844D01*
X113679132Y-49341307D01*
X113680343Y-49329008D01*
X113700533Y-49192885D01*
X116667000Y-49192885D01*
X116671475Y-49208124D01*
X116672865Y-49209329D01*
X116680548Y-49211000D01*
X117202885Y-49211000D01*
X117218124Y-49206525D01*
X117219329Y-49205135D01*
X117221000Y-49197452D01*
X117221000Y-49192885D01*
X117729000Y-49192885D01*
X117733475Y-49208124D01*
X117734865Y-49209329D01*
X117742548Y-49211000D01*
X118472885Y-49211000D01*
X118488124Y-49206525D01*
X118489329Y-49205135D01*
X118491000Y-49197452D01*
X118491000Y-48003122D01*
X118487027Y-47989591D01*
X118479129Y-47988456D01*
X118339210Y-48029107D01*
X118324779Y-48035352D01*
X118195322Y-48111912D01*
X118187230Y-48118189D01*
X118121146Y-48144139D01*
X118051523Y-48130241D01*
X118032770Y-48118189D01*
X118024678Y-48111912D01*
X117895221Y-48035352D01*
X117880790Y-48029107D01*
X117746395Y-47990061D01*
X117732294Y-47990101D01*
X117729000Y-47997370D01*
X117729000Y-49192885D01*
X117221000Y-49192885D01*
X117221000Y-48003122D01*
X117217027Y-47989591D01*
X117209129Y-47988456D01*
X117069210Y-48029107D01*
X117054779Y-48035352D01*
X116925322Y-48111911D01*
X116912896Y-48121551D01*
X116806551Y-48227896D01*
X116796911Y-48240322D01*
X116720352Y-48369779D01*
X116714107Y-48384210D01*
X116671731Y-48530065D01*
X116669430Y-48542667D01*
X116667193Y-48571084D01*
X116667000Y-48576014D01*
X116667000Y-49192885D01*
X113700533Y-49192885D01*
X113726123Y-49020362D01*
X113728534Y-49008241D01*
X113733228Y-48989504D01*
X113804347Y-48705570D01*
X113807936Y-48693738D01*
X113883867Y-48481521D01*
X113913052Y-48399953D01*
X113917783Y-48388531D01*
X113978573Y-48260000D01*
X114016942Y-48178872D01*
X114051184Y-48106473D01*
X114057013Y-48095567D01*
X114217426Y-47827933D01*
X114224296Y-47817652D01*
X114410163Y-47567039D01*
X114418007Y-47557481D01*
X114603621Y-47352687D01*
X114620275Y-47337342D01*
X114624214Y-47334319D01*
X114624217Y-47334316D01*
X114630242Y-47329693D01*
X114652224Y-47302255D01*
X114661463Y-47291941D01*
X114962999Y-46990405D01*
X115025311Y-46956379D01*
X115052094Y-46953500D01*
X115725400Y-46953500D01*
X115728646Y-46953163D01*
X115728650Y-46953163D01*
X115824308Y-46943238D01*
X115824312Y-46943237D01*
X115831166Y-46942526D01*
X115837702Y-46940345D01*
X115837704Y-46940345D01*
X115986888Y-46890573D01*
X115998946Y-46886550D01*
X116149348Y-46793478D01*
X116274305Y-46668303D01*
X116307336Y-46614717D01*
X116363275Y-46523968D01*
X116363276Y-46523966D01*
X116367115Y-46517738D01*
X116416575Y-46368619D01*
X116420632Y-46356389D01*
X116420632Y-46356387D01*
X116422797Y-46349861D01*
X116424850Y-46329829D01*
X116433172Y-46248598D01*
X116433500Y-46245400D01*
X116433500Y-45515260D01*
X116453502Y-45447139D01*
X116507158Y-45400646D01*
X116577432Y-45390542D01*
X116642012Y-45420036D01*
X116680497Y-45480106D01*
X116714107Y-45595790D01*
X116720352Y-45610221D01*
X116796911Y-45739678D01*
X116806551Y-45752104D01*
X116912896Y-45858449D01*
X116925322Y-45868089D01*
X117054779Y-45944648D01*
X117069210Y-45950893D01*
X117203605Y-45989939D01*
X117217706Y-45989899D01*
X117221000Y-45982630D01*
X117221000Y-44787115D01*
X117216525Y-44771876D01*
X117215135Y-44770671D01*
X117207452Y-44769000D01*
X116685116Y-44769000D01*
X116669877Y-44773475D01*
X116668672Y-44774865D01*
X116667001Y-44782548D01*
X116667001Y-45045814D01*
X116646999Y-45113935D01*
X116593343Y-45160428D01*
X116523069Y-45170532D01*
X116458489Y-45141038D01*
X116421477Y-45085690D01*
X116420830Y-45083749D01*
X116366550Y-44921054D01*
X116273478Y-44770652D01*
X116148303Y-44645695D01*
X116078460Y-44602643D01*
X116003968Y-44556725D01*
X116003966Y-44556724D01*
X115997738Y-44552885D01*
X115912265Y-44524535D01*
X115836389Y-44499368D01*
X115836387Y-44499368D01*
X115829861Y-44497203D01*
X115823025Y-44496503D01*
X115823022Y-44496502D01*
X115779969Y-44492091D01*
X115725400Y-44486500D01*
X114949600Y-44486500D01*
X114946354Y-44486837D01*
X114946350Y-44486837D01*
X114850692Y-44496762D01*
X114850688Y-44496763D01*
X114843834Y-44497474D01*
X114837298Y-44499655D01*
X114837296Y-44499655D01*
X114720864Y-44538500D01*
X114676054Y-44553450D01*
X114525652Y-44646522D01*
X114400695Y-44771697D01*
X114398094Y-44775916D01*
X114340970Y-44816417D01*
X114270047Y-44819649D01*
X114208635Y-44784024D01*
X114202078Y-44776470D01*
X114198478Y-44770652D01*
X114073303Y-44645695D01*
X114003460Y-44602643D01*
X113928968Y-44556725D01*
X113928966Y-44556724D01*
X113922738Y-44552885D01*
X113837265Y-44524535D01*
X113761389Y-44499368D01*
X113761387Y-44499368D01*
X113754861Y-44497203D01*
X113748025Y-44496503D01*
X113748022Y-44496502D01*
X113704969Y-44492091D01*
X113650400Y-44486500D01*
X112874600Y-44486500D01*
X112871354Y-44486837D01*
X112871350Y-44486837D01*
X112775692Y-44496762D01*
X112775688Y-44496763D01*
X112768834Y-44497474D01*
X112762298Y-44499655D01*
X112762296Y-44499655D01*
X112645864Y-44538500D01*
X112601054Y-44553450D01*
X112450652Y-44646522D01*
X112325695Y-44771697D01*
X112321855Y-44777927D01*
X112321854Y-44777928D01*
X112267026Y-44866876D01*
X112232885Y-44922262D01*
X112214081Y-44978955D01*
X112210513Y-44989712D01*
X112170082Y-45048071D01*
X112104518Y-45075308D01*
X112084419Y-45075876D01*
X112047060Y-45073946D01*
X112031427Y-45072155D01*
X111953750Y-45058294D01*
X111935832Y-45053718D01*
X111935450Y-45053590D01*
X111934447Y-45053253D01*
X111876219Y-45012636D01*
X111849193Y-44946984D01*
X111848500Y-44933789D01*
X111848500Y-44821866D01*
X111841745Y-44759684D01*
X111790615Y-44623295D01*
X111703261Y-44506739D01*
X111586705Y-44419385D01*
X111450316Y-44368255D01*
X111388134Y-44361500D01*
X109591866Y-44361500D01*
X109529684Y-44368255D01*
X109393295Y-44419385D01*
X109276739Y-44506739D01*
X109189385Y-44623295D01*
X109138255Y-44759684D01*
X109131500Y-44821866D01*
X109131500Y-46618134D01*
X109138255Y-46680316D01*
X109189385Y-46816705D01*
X109276739Y-46933261D01*
X109393295Y-47020615D01*
X109401704Y-47023767D01*
X109401705Y-47023768D01*
X109510960Y-47064726D01*
X109567725Y-47107367D01*
X109592425Y-47173929D01*
X109577218Y-47243278D01*
X109557825Y-47269759D01*
X109434590Y-47398717D01*
X109428104Y-47406727D01*
X109308098Y-47582649D01*
X109303000Y-47591623D01*
X109213338Y-47784783D01*
X109209775Y-47794470D01*
X109154389Y-47994183D01*
X109155912Y-48002607D01*
X109168292Y-48006000D01*
X111808344Y-48006000D01*
X111821875Y-48002027D01*
X111823180Y-47992947D01*
X111781214Y-47825875D01*
X111777894Y-47816124D01*
X111692972Y-47620814D01*
X111688105Y-47611739D01*
X111572426Y-47432926D01*
X111566136Y-47424757D01*
X111422293Y-47266677D01*
X111391241Y-47202831D01*
X111399635Y-47132333D01*
X111444812Y-47077564D01*
X111471256Y-47063895D01*
X111578297Y-47023767D01*
X111586705Y-47020615D01*
X111703261Y-46933261D01*
X111790615Y-46816705D01*
X111841745Y-46680316D01*
X111848500Y-46618134D01*
X111848500Y-46506210D01*
X111868502Y-46438089D01*
X111922158Y-46391596D01*
X111934442Y-46386747D01*
X111935830Y-46386281D01*
X111953747Y-46381705D01*
X112031428Y-46367844D01*
X112047057Y-46366053D01*
X112084449Y-46364121D01*
X112153510Y-46380581D01*
X112202710Y-46431766D01*
X112210473Y-46450077D01*
X112233450Y-46518946D01*
X112326522Y-46669348D01*
X112451697Y-46794305D01*
X112457927Y-46798145D01*
X112457928Y-46798146D01*
X112595090Y-46882694D01*
X112602262Y-46887115D01*
X112612688Y-46890573D01*
X112763611Y-46940632D01*
X112763613Y-46940632D01*
X112770139Y-46942797D01*
X112776975Y-46943497D01*
X112776978Y-46943498D01*
X112820031Y-46947909D01*
X112874600Y-46953500D01*
X113041433Y-46953500D01*
X113109554Y-46973502D01*
X113156047Y-47027158D01*
X113166151Y-47097432D01*
X113147701Y-47147198D01*
X113005349Y-47370649D01*
X112820978Y-47724826D01*
X112668177Y-48093725D01*
X112548111Y-48474538D01*
X112461691Y-48864366D01*
X112461330Y-48867107D01*
X112461330Y-48867108D01*
X112441928Y-49014490D01*
X112409577Y-49260243D01*
X112409457Y-49262995D01*
X112409456Y-49263005D01*
X112401480Y-49445736D01*
X112393660Y-49624918D01*
X112393354Y-49631922D01*
X112392827Y-49637595D01*
X112392881Y-49637599D01*
X112392569Y-49641700D01*
X112391987Y-49645792D01*
X112391847Y-49659156D01*
X112395009Y-49685281D01*
X112395587Y-49690058D01*
X112396500Y-49705197D01*
X112396500Y-51497211D01*
X112394108Y-51521644D01*
X112393361Y-51525425D01*
X112391623Y-51534216D01*
X112384651Y-51667262D01*
X112383244Y-51694117D01*
X112381401Y-51709971D01*
X112370830Y-51768352D01*
X112365779Y-51796247D01*
X112361063Y-51814430D01*
X112356231Y-51828611D01*
X112343361Y-51866384D01*
X112335829Y-51883981D01*
X112313457Y-51926907D01*
X112305279Y-51940449D01*
X112303908Y-51942428D01*
X112248660Y-51987018D01*
X112235088Y-51991763D01*
X112228347Y-51993696D01*
X112228341Y-51993698D01*
X112222208Y-51995457D01*
X112216556Y-51998412D01*
X112216553Y-51998413D01*
X112055297Y-52082716D01*
X112049643Y-52085672D01*
X112044700Y-52089703D01*
X112044699Y-52089704D01*
X111964611Y-52155022D01*
X111898743Y-52208743D01*
X111894714Y-52213683D01*
X111780043Y-52354284D01*
X111775672Y-52359643D01*
X111772717Y-52365296D01*
X111772716Y-52365297D01*
X111764440Y-52381127D01*
X111685457Y-52532208D01*
X111631784Y-52719389D01*
X111631251Y-52725362D01*
X111624722Y-52798520D01*
X111621500Y-52834616D01*
X111621500Y-53845384D01*
X111631784Y-53960611D01*
X111685457Y-54147792D01*
X111775672Y-54320357D01*
X111779703Y-54325300D01*
X111779704Y-54325301D01*
X111837705Y-54396417D01*
X111898743Y-54471257D01*
X111903683Y-54475286D01*
X112044695Y-54590293D01*
X112044698Y-54590295D01*
X112049643Y-54594328D01*
X112055300Y-54597285D01*
X112060512Y-54600722D01*
X112106371Y-54654920D01*
X112115649Y-54725308D01*
X112082245Y-54792964D01*
X111986711Y-54892935D01*
X111931639Y-54950564D01*
X111928725Y-54954836D01*
X111928724Y-54954837D01*
X111899500Y-54997678D01*
X111801119Y-55141899D01*
X111703602Y-55351981D01*
X111641707Y-55575169D01*
X111617095Y-55805469D01*
X111617392Y-55810622D01*
X111617392Y-55810625D01*
X111624929Y-55941337D01*
X111630427Y-56036697D01*
X111631564Y-56041743D01*
X111631565Y-56041749D01*
X111658366Y-56160671D01*
X111681346Y-56262642D01*
X111683288Y-56267424D01*
X111683289Y-56267428D01*
X111727168Y-56375489D01*
X111768484Y-56477237D01*
X111889501Y-56674719D01*
X112041147Y-56849784D01*
X112106376Y-56903938D01*
X112219349Y-56997730D01*
X112218250Y-56999053D01*
X112257845Y-57048576D01*
X112265162Y-57119195D01*
X112242226Y-57171711D01*
X112235508Y-57180712D01*
X112242251Y-57193040D01*
X113017189Y-57967979D01*
X113031132Y-57975592D01*
X113032966Y-57975461D01*
X113039580Y-57971210D01*
X113818994Y-57191795D01*
X113826605Y-57177857D01*
X113826294Y-57173518D01*
X113806445Y-57118123D01*
X113822432Y-57048950D01*
X113874562Y-56998732D01*
X113874721Y-56998651D01*
X113887067Y-56992233D01*
X114009465Y-56928601D01*
X114056905Y-56903938D01*
X114063575Y-56900408D01*
X114221748Y-56815202D01*
X114224468Y-56813726D01*
X114224633Y-56813636D01*
X114224793Y-56813549D01*
X114366343Y-56736193D01*
X114366742Y-56735976D01*
X114498042Y-56665313D01*
X114500085Y-56664239D01*
X114629339Y-56597848D01*
X114632422Y-56596319D01*
X114771662Y-56529671D01*
X114775209Y-56528040D01*
X114936981Y-56456679D01*
X114940347Y-56455252D01*
X115064872Y-56404585D01*
X115136406Y-56375479D01*
X115139267Y-56374356D01*
X115373385Y-56285746D01*
X115373410Y-56285736D01*
X115374897Y-56285173D01*
X115422805Y-56264193D01*
X115423503Y-56263709D01*
X115436938Y-56257602D01*
X115444232Y-56254992D01*
X115503164Y-56233905D01*
X115505950Y-56232587D01*
X115505958Y-56232584D01*
X115784073Y-56101043D01*
X115784081Y-56101039D01*
X115786867Y-56099721D01*
X115892016Y-56036697D01*
X116053402Y-55939965D01*
X116053403Y-55939965D01*
X116056053Y-55938376D01*
X116106168Y-55901208D01*
X116305641Y-55753268D01*
X116305644Y-55753265D01*
X116308127Y-55751424D01*
X116480951Y-55594785D01*
X116481969Y-55595909D01*
X116483472Y-55593965D01*
X116482743Y-55593161D01*
X116487263Y-55589064D01*
X116515829Y-55563173D01*
X116524776Y-55555787D01*
X116531694Y-55550593D01*
X116541242Y-55541242D01*
X116560454Y-55516740D01*
X116570513Y-55505391D01*
X116590499Y-55485405D01*
X116652811Y-55451379D01*
X116679594Y-55448500D01*
X117340400Y-55448500D01*
X117343646Y-55448163D01*
X117343650Y-55448163D01*
X117439308Y-55438238D01*
X117439312Y-55438237D01*
X117446166Y-55437526D01*
X117452702Y-55435345D01*
X117452704Y-55435345D01*
X117606998Y-55383868D01*
X117613946Y-55381550D01*
X117764348Y-55288478D01*
X117889305Y-55163303D01*
X117900945Y-55144419D01*
X117978275Y-55018968D01*
X117978276Y-55018966D01*
X117982115Y-55012738D01*
X118013883Y-54916959D01*
X118035632Y-54851389D01*
X118035632Y-54851387D01*
X118037797Y-54844861D01*
X118039177Y-54831399D01*
X118048172Y-54743598D01*
X118048500Y-54740400D01*
X118048500Y-53939600D01*
X118042534Y-53882099D01*
X118038238Y-53840692D01*
X118038237Y-53840688D01*
X118037526Y-53833834D01*
X118031140Y-53814691D01*
X117983868Y-53673002D01*
X117981550Y-53666054D01*
X117888478Y-53515652D01*
X117801891Y-53429216D01*
X117767812Y-53366934D01*
X117772815Y-53296114D01*
X117801736Y-53251025D01*
X117884134Y-53168483D01*
X117889305Y-53163303D01*
X117901016Y-53144305D01*
X117969389Y-53033384D01*
X118022162Y-52985890D01*
X118076649Y-52973500D01*
X118580354Y-52973500D01*
X118648475Y-52993502D01*
X118675893Y-53018332D01*
X118676522Y-53019348D01*
X118801697Y-53144305D01*
X118919117Y-53216684D01*
X118966609Y-53269455D01*
X118979000Y-53323943D01*
X118979000Y-53396425D01*
X118958998Y-53464546D01*
X118919304Y-53503568D01*
X118825652Y-53561522D01*
X118700695Y-53686697D01*
X118696855Y-53692927D01*
X118696854Y-53692928D01*
X118613218Y-53828611D01*
X118607885Y-53837262D01*
X118605581Y-53844209D01*
X118557565Y-53988974D01*
X118552203Y-54005139D01*
X118541500Y-54109600D01*
X118541500Y-55110400D01*
X118541837Y-55113646D01*
X118541837Y-55113650D01*
X118551731Y-55209001D01*
X118552474Y-55216166D01*
X118554655Y-55222702D01*
X118554655Y-55222704D01*
X118583526Y-55309241D01*
X118608450Y-55383946D01*
X118701522Y-55534348D01*
X118826697Y-55659305D01*
X118832927Y-55663145D01*
X118832928Y-55663146D01*
X118954344Y-55737988D01*
X118977262Y-55752115D01*
X119057005Y-55778564D01*
X119138611Y-55805632D01*
X119138613Y-55805632D01*
X119145139Y-55807797D01*
X119151975Y-55808497D01*
X119151978Y-55808498D01*
X119195031Y-55812909D01*
X119249600Y-55818500D01*
X120050400Y-55818500D01*
X120053646Y-55818163D01*
X120053650Y-55818163D01*
X120149308Y-55808238D01*
X120149312Y-55808237D01*
X120156166Y-55807526D01*
X120162702Y-55805345D01*
X120162704Y-55805345D01*
X120307195Y-55757139D01*
X120378145Y-55754555D01*
X120439228Y-55790739D01*
X120455145Y-55811886D01*
X120510665Y-55904516D01*
X120683312Y-56137306D01*
X120685388Y-56139596D01*
X120685390Y-56139599D01*
X120758111Y-56219834D01*
X120816746Y-56284528D01*
X120853418Y-56324990D01*
X120860814Y-56333948D01*
X120867820Y-56343279D01*
X120877171Y-56352828D01*
X120880421Y-56355376D01*
X120885949Y-56359711D01*
X120892817Y-56365503D01*
X121016096Y-56477237D01*
X121092703Y-56546670D01*
X121325488Y-56719317D01*
X121328144Y-56720909D01*
X121328147Y-56720911D01*
X121536638Y-56845877D01*
X121574075Y-56868316D01*
X121576861Y-56869634D01*
X121576869Y-56869638D01*
X121833274Y-56990912D01*
X121833283Y-56990916D01*
X121836068Y-56992233D01*
X122108946Y-57089874D01*
X122111951Y-57090627D01*
X122111955Y-57090628D01*
X122387080Y-57159548D01*
X122387090Y-57159550D01*
X122390080Y-57160299D01*
X122393132Y-57160752D01*
X122393133Y-57160752D01*
X122673706Y-57202377D01*
X122673716Y-57202378D01*
X122676763Y-57202830D01*
X122679844Y-57202981D01*
X122679850Y-57202982D01*
X122884410Y-57213036D01*
X122884327Y-57214726D01*
X122886218Y-57214484D01*
X122886218Y-57213500D01*
X122890764Y-57213500D01*
X122893410Y-57213565D01*
X122893901Y-57213502D01*
X122894319Y-57213523D01*
X122894954Y-57213603D01*
X122896948Y-57213652D01*
X122929756Y-57215264D01*
X122941323Y-57216370D01*
X122948780Y-57217432D01*
X122948797Y-57217433D01*
X122952870Y-57218013D01*
X122959357Y-57218081D01*
X122962108Y-57218110D01*
X122962111Y-57218110D01*
X122966234Y-57218153D01*
X122970323Y-57217658D01*
X122970327Y-57217658D01*
X122997153Y-57214412D01*
X123012288Y-57213500D01*
X127109385Y-57213500D01*
X127173521Y-57231045D01*
X127246399Y-57274145D01*
X127254013Y-57276357D01*
X127265051Y-57279564D01*
X127324887Y-57317776D01*
X127354565Y-57382272D01*
X127344662Y-57452575D01*
X127333066Y-57471617D01*
X127333195Y-57471697D01*
X127272699Y-57569840D01*
X127240385Y-57622262D01*
X127184703Y-57790139D01*
X127184003Y-57796975D01*
X127184002Y-57796978D01*
X127179591Y-57840031D01*
X127174000Y-57894600D01*
X127174000Y-58945400D01*
X127174337Y-58948646D01*
X127174337Y-58948650D01*
X127180910Y-59011996D01*
X127184974Y-59051166D01*
X127187155Y-59057702D01*
X127187155Y-59057704D01*
X127213024Y-59135242D01*
X127240950Y-59218946D01*
X127334022Y-59369348D01*
X127339205Y-59374522D01*
X127344069Y-59379378D01*
X127378147Y-59441662D01*
X127378295Y-59494418D01*
X127376458Y-59500072D01*
X127375768Y-59506638D01*
X127375767Y-59506642D01*
X127359596Y-59660501D01*
X127356496Y-59690000D01*
X127357186Y-59696565D01*
X127357186Y-59696568D01*
X127361470Y-59737331D01*
X127348697Y-59807169D01*
X127300195Y-59859015D01*
X127236160Y-59876500D01*
X121999792Y-59876500D01*
X121983342Y-59875421D01*
X121956469Y-59871882D01*
X121948921Y-59872715D01*
X121948919Y-59872715D01*
X121948911Y-59872716D01*
X121918635Y-59872398D01*
X121876138Y-59866802D01*
X121844370Y-59858288D01*
X121791067Y-59836207D01*
X121762584Y-59819762D01*
X121734181Y-59797966D01*
X121716788Y-59781503D01*
X121716258Y-59780797D01*
X121711800Y-59776245D01*
X121711625Y-59776017D01*
X121711400Y-59775837D01*
X121706907Y-59771249D01*
X121692836Y-59760216D01*
X121687544Y-59755828D01*
X121546896Y-59632488D01*
X121522181Y-59615974D01*
X121453134Y-59569840D01*
X121370858Y-59514867D01*
X121205553Y-59433351D01*
X121184670Y-59423053D01*
X121184669Y-59423053D01*
X121180973Y-59421230D01*
X121177073Y-59419906D01*
X121177070Y-59419905D01*
X120984403Y-59354508D01*
X120984400Y-59354507D01*
X120980490Y-59353180D01*
X120855262Y-59328272D01*
X120776885Y-59312683D01*
X120776880Y-59312682D01*
X120772841Y-59311879D01*
X120768731Y-59311610D01*
X120768726Y-59311609D01*
X120682624Y-59305967D01*
X120658215Y-59304368D01*
X120650666Y-59303645D01*
X120649297Y-59303472D01*
X120641616Y-59301500D01*
X120618567Y-59301500D01*
X120610334Y-59301230D01*
X120604768Y-59300866D01*
X120595265Y-59299879D01*
X120579028Y-59297568D01*
X120579018Y-59297567D01*
X120574941Y-59296987D01*
X120568788Y-59296923D01*
X120565711Y-59296890D01*
X120565706Y-59296890D01*
X120561577Y-59296847D01*
X120532856Y-59300323D01*
X120530675Y-59300587D01*
X120515536Y-59301500D01*
X120137041Y-59301500D01*
X120119282Y-59300242D01*
X120100506Y-59297569D01*
X120096425Y-59296988D01*
X120083061Y-59296847D01*
X120078972Y-59297342D01*
X120078966Y-59297342D01*
X120066219Y-59298884D01*
X120054317Y-59300324D01*
X120047436Y-59300966D01*
X119944828Y-59307687D01*
X119912334Y-59309815D01*
X119912333Y-59309815D01*
X119908228Y-59310084D01*
X119884384Y-59314826D01*
X119740425Y-59343455D01*
X119740417Y-59343457D01*
X119736385Y-59344259D01*
X119708815Y-59353617D01*
X119574376Y-59399249D01*
X119574369Y-59399252D01*
X119570474Y-59400574D01*
X119566778Y-59402397D01*
X119566777Y-59402397D01*
X119417028Y-59476241D01*
X119417023Y-59476244D01*
X119413334Y-59478063D01*
X119409912Y-59480349D01*
X119409911Y-59480350D01*
X119343114Y-59524981D01*
X119267652Y-59575402D01*
X119174197Y-59657360D01*
X119166795Y-59663369D01*
X119144219Y-59680320D01*
X119134671Y-59689671D01*
X119116944Y-59712279D01*
X119112533Y-59717596D01*
X119095339Y-59737203D01*
X119086020Y-59747829D01*
X119026067Y-59785858D01*
X118951620Y-59784346D01*
X118940920Y-59780797D01*
X118884861Y-59762203D01*
X118878025Y-59761503D01*
X118878022Y-59761502D01*
X118834597Y-59757053D01*
X118780400Y-59751500D01*
X117979600Y-59751500D01*
X117976354Y-59751837D01*
X117976350Y-59751837D01*
X117880692Y-59761762D01*
X117880688Y-59761763D01*
X117873834Y-59762474D01*
X117867298Y-59764655D01*
X117867296Y-59764655D01*
X117769796Y-59797184D01*
X117706054Y-59818450D01*
X117555652Y-59911522D01*
X117430695Y-60036697D01*
X117426855Y-60042927D01*
X117426854Y-60042928D01*
X117343057Y-60178872D01*
X117337885Y-60187262D01*
X117329596Y-60212254D01*
X117320337Y-60240168D01*
X117279906Y-60298527D01*
X117214342Y-60325764D01*
X117200744Y-60326500D01*
X116512538Y-60326500D01*
X116444417Y-60306498D01*
X116397924Y-60252842D01*
X116393014Y-60240376D01*
X116368868Y-60168002D01*
X116366550Y-60161054D01*
X116273478Y-60010652D01*
X116223235Y-59960496D01*
X116153483Y-59890866D01*
X116148303Y-59885695D01*
X116131636Y-59875421D01*
X116003968Y-59796725D01*
X116003966Y-59796724D01*
X115997738Y-59792885D01*
X115885945Y-59755805D01*
X115836389Y-59739368D01*
X115836387Y-59739368D01*
X115829861Y-59737203D01*
X115823025Y-59736503D01*
X115823022Y-59736502D01*
X115779969Y-59732091D01*
X115725400Y-59726500D01*
X114949600Y-59726500D01*
X114946354Y-59726837D01*
X114946350Y-59726837D01*
X114850692Y-59736762D01*
X114850688Y-59736763D01*
X114843834Y-59737474D01*
X114837298Y-59739655D01*
X114837296Y-59739655D01*
X114705194Y-59783728D01*
X114676054Y-59793450D01*
X114525652Y-59886522D01*
X114400695Y-60011697D01*
X114397898Y-60016235D01*
X114340647Y-60056824D01*
X114269724Y-60060054D01*
X114208313Y-60024428D01*
X114200938Y-60015932D01*
X114192902Y-60005793D01*
X114078171Y-59891261D01*
X114066760Y-59882249D01*
X113928757Y-59797184D01*
X113915574Y-59791036D01*
X113813118Y-59757053D01*
X113754758Y-59716622D01*
X113727521Y-59651058D01*
X113740054Y-59581177D01*
X113779616Y-59534882D01*
X113815095Y-59509575D01*
X113823497Y-59498874D01*
X113816510Y-59485721D01*
X113042811Y-58712021D01*
X113028868Y-58704408D01*
X113027034Y-58704539D01*
X113020420Y-58708790D01*
X112240180Y-59489031D01*
X112233423Y-59501406D01*
X112238704Y-59508461D01*
X112415080Y-59611527D01*
X112424363Y-59615974D01*
X112473665Y-59634801D01*
X112530168Y-59677788D01*
X112554461Y-59744499D01*
X112538831Y-59813754D01*
X112495020Y-59859655D01*
X112457190Y-59883065D01*
X112445792Y-59892099D01*
X112331261Y-60006829D01*
X112322249Y-60018240D01*
X112237184Y-60156243D01*
X112231037Y-60169424D01*
X112179862Y-60323710D01*
X112176995Y-60337086D01*
X112167328Y-60431438D01*
X112167000Y-60437855D01*
X112167000Y-60687885D01*
X112171475Y-60703124D01*
X112172865Y-60704329D01*
X112180548Y-60706000D01*
X113390500Y-60706000D01*
X113458621Y-60726002D01*
X113505114Y-60779658D01*
X113516500Y-60832000D01*
X113516500Y-61088000D01*
X113496498Y-61156121D01*
X113442842Y-61202614D01*
X113390500Y-61214000D01*
X112185116Y-61214000D01*
X112169877Y-61218475D01*
X112168672Y-61219865D01*
X112167001Y-61227548D01*
X112167001Y-61482095D01*
X112167338Y-61488614D01*
X112177257Y-61584206D01*
X112180149Y-61597600D01*
X112231588Y-61751784D01*
X112237761Y-61764962D01*
X112323063Y-61902807D01*
X112332099Y-61914208D01*
X112446829Y-62028739D01*
X112458240Y-62037751D01*
X112596243Y-62122816D01*
X112616057Y-62132056D01*
X112615308Y-62133662D01*
X112666062Y-62168826D01*
X112693296Y-62234392D01*
X112680759Y-62304273D01*
X112632432Y-62356282D01*
X112621476Y-62362088D01*
X112620036Y-62362762D01*
X112482193Y-62448063D01*
X112470792Y-62457099D01*
X112356261Y-62571829D01*
X112347249Y-62583240D01*
X112262184Y-62721243D01*
X112256037Y-62734424D01*
X112204862Y-62888710D01*
X112201995Y-62902086D01*
X112192328Y-62996438D01*
X112192000Y-63002855D01*
X112192000Y-63227885D01*
X112196475Y-63243124D01*
X112197865Y-63244329D01*
X112205548Y-63246000D01*
X113428000Y-63246000D01*
X113496121Y-63266002D01*
X113542614Y-63319658D01*
X113554000Y-63372000D01*
X113554000Y-63628000D01*
X113533998Y-63696121D01*
X113480342Y-63742614D01*
X113428000Y-63754000D01*
X112210116Y-63754000D01*
X112194877Y-63758475D01*
X112193672Y-63759865D01*
X112192001Y-63767548D01*
X112192001Y-63997095D01*
X112192338Y-64003614D01*
X112202257Y-64099206D01*
X112205149Y-64112600D01*
X112256588Y-64266784D01*
X112262761Y-64279962D01*
X112348063Y-64417807D01*
X112357099Y-64429208D01*
X112471829Y-64543739D01*
X112483240Y-64552751D01*
X112627475Y-64641658D01*
X112626743Y-64642846D01*
X112674078Y-64684523D01*
X112693540Y-64752800D01*
X112672999Y-64820760D01*
X112618977Y-64866826D01*
X112608416Y-64870938D01*
X112608002Y-64871132D01*
X112601054Y-64873450D01*
X112450652Y-64966522D01*
X112325695Y-65091697D01*
X112321855Y-65097927D01*
X112321854Y-65097928D01*
X112245449Y-65221880D01*
X112232885Y-65242262D01*
X112221071Y-65277882D01*
X112210513Y-65309712D01*
X112170082Y-65368071D01*
X112104518Y-65395308D01*
X112084419Y-65395876D01*
X112047060Y-65393946D01*
X112031427Y-65392155D01*
X111953750Y-65378294D01*
X111935832Y-65373718D01*
X111935450Y-65373590D01*
X111934447Y-65373253D01*
X111876219Y-65332636D01*
X111849193Y-65266984D01*
X111848500Y-65253789D01*
X111848500Y-65141866D01*
X111841745Y-65079684D01*
X111790615Y-64943295D01*
X111703261Y-64826739D01*
X111586705Y-64739385D01*
X111467687Y-64694767D01*
X111410923Y-64652125D01*
X111386223Y-64585564D01*
X111401430Y-64516215D01*
X111422977Y-64487535D01*
X111524052Y-64386812D01*
X111530730Y-64378965D01*
X111655003Y-64206020D01*
X111660313Y-64197183D01*
X111754670Y-64006267D01*
X111758469Y-63996672D01*
X111820377Y-63792910D01*
X111822555Y-63782837D01*
X111823986Y-63771962D01*
X111821775Y-63757778D01*
X111808617Y-63754000D01*
X109173225Y-63754000D01*
X109159694Y-63757973D01*
X109158257Y-63767966D01*
X109188565Y-63902446D01*
X109191645Y-63912275D01*
X109271770Y-64109603D01*
X109276413Y-64118794D01*
X109387694Y-64300388D01*
X109393777Y-64308699D01*
X109533213Y-64469667D01*
X109540577Y-64476879D01*
X109545522Y-64480985D01*
X109585156Y-64539889D01*
X109586653Y-64610870D01*
X109549537Y-64671392D01*
X109509264Y-64695910D01*
X109401705Y-64736232D01*
X109401704Y-64736233D01*
X109393295Y-64739385D01*
X109276739Y-64826739D01*
X109189385Y-64943295D01*
X109138255Y-65079684D01*
X109131500Y-65141866D01*
X109131500Y-66938134D01*
X108458500Y-66938134D01*
X108458500Y-63234183D01*
X109154389Y-63234183D01*
X109155912Y-63242607D01*
X109168292Y-63246000D01*
X110217885Y-63246000D01*
X110233124Y-63241525D01*
X110234329Y-63240135D01*
X110236000Y-63232452D01*
X110236000Y-63227885D01*
X110744000Y-63227885D01*
X110748475Y-63243124D01*
X110749865Y-63244329D01*
X110757548Y-63246000D01*
X111808344Y-63246000D01*
X111821875Y-63242027D01*
X111823180Y-63232947D01*
X111781214Y-63065875D01*
X111777894Y-63056124D01*
X111692972Y-62860814D01*
X111688105Y-62851739D01*
X111572426Y-62672926D01*
X111566136Y-62664757D01*
X111422806Y-62507240D01*
X111415273Y-62500215D01*
X111248139Y-62368222D01*
X111239552Y-62362517D01*
X111053117Y-62259599D01*
X111043705Y-62255369D01*
X110842959Y-62184280D01*
X110832988Y-62181646D01*
X110761837Y-62168972D01*
X110748540Y-62170432D01*
X110744000Y-62184989D01*
X110744000Y-63227885D01*
X110236000Y-63227885D01*
X110236000Y-62183102D01*
X110232082Y-62169758D01*
X110217806Y-62167771D01*
X110179324Y-62173660D01*
X110169288Y-62176051D01*
X109966868Y-62242212D01*
X109957359Y-62246209D01*
X109768463Y-62344542D01*
X109759738Y-62350036D01*
X109589433Y-62477905D01*
X109581726Y-62484748D01*
X109434590Y-62638717D01*
X109428104Y-62646727D01*
X109308098Y-62822649D01*
X109303000Y-62831623D01*
X109213338Y-63024783D01*
X109209775Y-63034470D01*
X109154389Y-63234183D01*
X108458500Y-63234183D01*
X108458500Y-61352026D01*
X108470445Y-61298477D01*
X108508006Y-61218475D01*
X108521281Y-61190200D01*
X108526588Y-61156121D01*
X108537752Y-61084417D01*
X108538500Y-61079614D01*
X108538500Y-58310638D01*
X111617893Y-58310638D01*
X111630627Y-58531468D01*
X111632061Y-58541670D01*
X111680685Y-58757439D01*
X111683773Y-58767292D01*
X111766986Y-58972220D01*
X111771634Y-58981421D01*
X111860097Y-59125781D01*
X111870553Y-59135242D01*
X111879331Y-59131458D01*
X112657979Y-58352811D01*
X112664356Y-58341132D01*
X113394408Y-58341132D01*
X113394539Y-58342966D01*
X113398790Y-58349580D01*
X114176307Y-59127096D01*
X114188313Y-59133652D01*
X114200052Y-59124684D01*
X114238010Y-59071859D01*
X114243321Y-59063020D01*
X114341318Y-58864737D01*
X114345117Y-58855142D01*
X114409415Y-58643517D01*
X114411594Y-58633436D01*
X114440702Y-58412338D01*
X114441221Y-58405663D01*
X114442744Y-58343364D01*
X114442550Y-58336646D01*
X114424279Y-58114400D01*
X114422596Y-58104238D01*
X114368710Y-57889708D01*
X114365389Y-57879953D01*
X114277193Y-57677118D01*
X114272315Y-57668020D01*
X114199224Y-57555038D01*
X114188538Y-57545835D01*
X114178973Y-57550238D01*
X113402021Y-58327189D01*
X113394408Y-58341132D01*
X112664356Y-58341132D01*
X112665592Y-58338868D01*
X112665461Y-58337034D01*
X112661210Y-58330420D01*
X111883862Y-57553073D01*
X111872330Y-57546776D01*
X111860048Y-57556399D01*
X111804467Y-57637877D01*
X111799379Y-57646833D01*
X111706252Y-57847459D01*
X111702689Y-57857146D01*
X111643581Y-58070280D01*
X111641650Y-58080400D01*
X111618145Y-58300349D01*
X111617893Y-58310638D01*
X108538500Y-58310638D01*
X108538500Y-50603487D01*
X108523080Y-50495813D01*
X108503213Y-50452117D01*
X108469800Y-50378631D01*
X108458500Y-50326479D01*
X108458500Y-48527966D01*
X109158257Y-48527966D01*
X109188565Y-48662446D01*
X109191645Y-48672275D01*
X109271770Y-48869603D01*
X109276413Y-48878794D01*
X109387694Y-49060388D01*
X109393777Y-49068699D01*
X109533213Y-49229667D01*
X109540580Y-49236883D01*
X109704434Y-49372916D01*
X109712881Y-49378831D01*
X109896756Y-49486279D01*
X109906042Y-49490729D01*
X110105001Y-49566703D01*
X110114899Y-49569579D01*
X110218250Y-49590606D01*
X110232299Y-49589410D01*
X110236000Y-49579065D01*
X110236000Y-49578517D01*
X110744000Y-49578517D01*
X110748064Y-49592359D01*
X110761478Y-49594393D01*
X110768184Y-49593534D01*
X110778262Y-49591392D01*
X110982255Y-49530191D01*
X110991842Y-49526433D01*
X111183095Y-49432739D01*
X111191945Y-49427464D01*
X111365328Y-49303792D01*
X111373200Y-49297139D01*
X111524052Y-49146812D01*
X111530730Y-49138965D01*
X111655003Y-48966020D01*
X111660313Y-48957183D01*
X111754670Y-48766267D01*
X111758469Y-48756672D01*
X111820377Y-48552910D01*
X111822555Y-48542837D01*
X111823986Y-48531962D01*
X111821775Y-48517778D01*
X111808617Y-48514000D01*
X110762115Y-48514000D01*
X110746876Y-48518475D01*
X110745671Y-48519865D01*
X110744000Y-48527548D01*
X110744000Y-49578517D01*
X110236000Y-49578517D01*
X110236000Y-48532115D01*
X110231525Y-48516876D01*
X110230135Y-48515671D01*
X110222452Y-48514000D01*
X109173225Y-48514000D01*
X109159694Y-48517973D01*
X109158257Y-48527966D01*
X108458500Y-48527966D01*
X108458500Y-44242885D01*
X116667000Y-44242885D01*
X116671475Y-44258124D01*
X116672865Y-44259329D01*
X116680548Y-44261000D01*
X117202885Y-44261000D01*
X117218124Y-44256525D01*
X117219329Y-44255135D01*
X117221000Y-44247452D01*
X117221000Y-43053122D01*
X117217027Y-43039591D01*
X117209129Y-43038456D01*
X117069210Y-43079107D01*
X117054779Y-43085352D01*
X116925322Y-43161911D01*
X116912896Y-43171551D01*
X116806551Y-43277896D01*
X116796911Y-43290322D01*
X116720352Y-43419779D01*
X116714107Y-43434210D01*
X116671731Y-43580065D01*
X116669430Y-43592667D01*
X116667193Y-43621084D01*
X116667000Y-43626014D01*
X116667000Y-44242885D01*
X108458500Y-44242885D01*
X108458500Y-41274500D01*
X108478502Y-41206379D01*
X108532158Y-41159886D01*
X108584500Y-41148500D01*
X142875500Y-41148500D01*
X142943621Y-41168502D01*
G37*
%TD.AperFunction*%
%TA.AperFunction,Conductor*%
G36*
X131723891Y-54079720D02*
G01*
X131779370Y-54124021D01*
X131802096Y-54191403D01*
X131802195Y-54193918D01*
X131804430Y-54222336D01*
X131806730Y-54234931D01*
X131849107Y-54380790D01*
X131855352Y-54395221D01*
X131931911Y-54524677D01*
X131937871Y-54532360D01*
X131963820Y-54598444D01*
X131949922Y-54668067D01*
X131939579Y-54684161D01*
X131935547Y-54688193D01*
X131850855Y-54831399D01*
X131804438Y-54991169D01*
X131803934Y-54997574D01*
X131803933Y-54997579D01*
X131802740Y-55012738D01*
X131801500Y-55028498D01*
X131801500Y-55461502D01*
X131801693Y-55463950D01*
X131801693Y-55463958D01*
X131803597Y-55488144D01*
X131804438Y-55498831D01*
X131821999Y-55559277D01*
X131846942Y-55645131D01*
X131850855Y-55658601D01*
X131935547Y-55801807D01*
X131938229Y-55804489D01*
X131963502Y-55868861D01*
X131949600Y-55938484D01*
X131939428Y-55954312D01*
X131935547Y-55958193D01*
X131850855Y-56101399D01*
X131804438Y-56261169D01*
X131803934Y-56267574D01*
X131803933Y-56267579D01*
X131801693Y-56296042D01*
X131801500Y-56298498D01*
X131801500Y-56731502D01*
X131801693Y-56733950D01*
X131801693Y-56733958D01*
X131803847Y-56761316D01*
X131804438Y-56768831D01*
X131850855Y-56928601D01*
X131854892Y-56935427D01*
X131931509Y-57064980D01*
X131931511Y-57064983D01*
X131935547Y-57071807D01*
X132053193Y-57189453D01*
X132060017Y-57193489D01*
X132060020Y-57193491D01*
X132167589Y-57257107D01*
X132196399Y-57274145D01*
X132204010Y-57276356D01*
X132204012Y-57276357D01*
X132242915Y-57287659D01*
X132356169Y-57320562D01*
X132362574Y-57321066D01*
X132362579Y-57321067D01*
X132391042Y-57323307D01*
X132391050Y-57323307D01*
X132393498Y-57323500D01*
X132923155Y-57323500D01*
X132991276Y-57343502D01*
X133037769Y-57397158D01*
X133047873Y-57467432D01*
X133018379Y-57532012D01*
X133012250Y-57538595D01*
X131655595Y-58895250D01*
X131593283Y-58929276D01*
X131522468Y-58924211D01*
X131465632Y-58881664D01*
X131440821Y-58815144D01*
X131440500Y-58806155D01*
X131440500Y-58692115D01*
X131436025Y-58676876D01*
X131434635Y-58675671D01*
X131426952Y-58674000D01*
X130217000Y-58674000D01*
X130148879Y-58653998D01*
X130102386Y-58600342D01*
X130091000Y-58548000D01*
X130091000Y-58417094D01*
X130093421Y-58392511D01*
X130101961Y-58349580D01*
X130118306Y-58267415D01*
X130151213Y-58204508D01*
X130212909Y-58169377D01*
X130241884Y-58166000D01*
X131422384Y-58166000D01*
X131437623Y-58161525D01*
X131438828Y-58160135D01*
X131440499Y-58152452D01*
X131440499Y-57897905D01*
X131440162Y-57891386D01*
X131430243Y-57795794D01*
X131427351Y-57782400D01*
X131375912Y-57628216D01*
X131369739Y-57615038D01*
X131284437Y-57477193D01*
X131275401Y-57465792D01*
X131160671Y-57351261D01*
X131149260Y-57342249D01*
X131011257Y-57257184D01*
X130998076Y-57251037D01*
X130979393Y-57244840D01*
X130921033Y-57204409D01*
X130893797Y-57138844D01*
X130906331Y-57068963D01*
X130917855Y-57050191D01*
X130941600Y-57018173D01*
X130943443Y-57015688D01*
X130945028Y-57013043D01*
X130945035Y-57013033D01*
X131092627Y-56766780D01*
X131092628Y-56766779D01*
X131094220Y-56764122D01*
X131219614Y-56498988D01*
X131318418Y-56222840D01*
X131335372Y-56155154D01*
X131388928Y-55941337D01*
X131388929Y-55941334D01*
X131389679Y-55938338D01*
X131390605Y-55932099D01*
X131432257Y-55651282D01*
X131432257Y-55651281D01*
X131432711Y-55648221D01*
X131435281Y-55595909D01*
X131443090Y-55436914D01*
X131444747Y-55436995D01*
X131444534Y-55435317D01*
X131443500Y-55435317D01*
X131443500Y-55431653D01*
X131443592Y-55427898D01*
X131443549Y-55427561D01*
X131443594Y-55426643D01*
X131443630Y-55426362D01*
X131443652Y-55425472D01*
X131445330Y-55391307D01*
X131446436Y-55379730D01*
X131447432Y-55372734D01*
X131447433Y-55372723D01*
X131448013Y-55368647D01*
X131448153Y-55355283D01*
X131444413Y-55324380D01*
X131443500Y-55309241D01*
X131443500Y-54981307D01*
X131444578Y-54964860D01*
X131447127Y-54945503D01*
X131447127Y-54945500D01*
X131448118Y-54937973D01*
X131445798Y-54916959D01*
X131445189Y-54896949D01*
X131452880Y-54740400D01*
X131456402Y-54668737D01*
X131457613Y-54656437D01*
X131464502Y-54610000D01*
X131495276Y-54402541D01*
X131497687Y-54390416D01*
X131553969Y-54165727D01*
X131589924Y-54104508D01*
X131653268Y-54072446D01*
X131723891Y-54079720D01*
G37*
%TD.AperFunction*%
%TA.AperFunction,Conductor*%
G36*
X134843734Y-51920685D02*
G01*
X134853907Y-51929811D01*
X136081554Y-53157458D01*
X136095986Y-53174734D01*
X136105791Y-53188868D01*
X136131871Y-53216902D01*
X136140751Y-53226448D01*
X136147875Y-53234810D01*
X136149232Y-53236550D01*
X136151686Y-53239699D01*
X136174049Y-53284678D01*
X136176322Y-53293198D01*
X136177493Y-53297956D01*
X136187416Y-53341955D01*
X136187456Y-53342131D01*
X136187458Y-53342139D01*
X136187493Y-53342295D01*
X136201206Y-53403007D01*
X136203353Y-53412126D01*
X136203441Y-53412485D01*
X136205113Y-53419114D01*
X136222388Y-53485739D01*
X136225708Y-53497926D01*
X136225874Y-53498507D01*
X136229873Y-53511817D01*
X136229986Y-53512175D01*
X136229992Y-53512195D01*
X136231082Y-53515652D01*
X136250959Y-53578709D01*
X136256513Y-53591128D01*
X136266767Y-53614056D01*
X136271578Y-53626557D01*
X136286549Y-53672632D01*
X136382036Y-53838020D01*
X136458756Y-53923226D01*
X136489473Y-53987234D01*
X136480708Y-54057687D01*
X136454214Y-54096631D01*
X135581108Y-54969738D01*
X134982596Y-55568250D01*
X134920284Y-55602275D01*
X134849469Y-55597211D01*
X134792633Y-55554664D01*
X134767822Y-55488144D01*
X134767889Y-55469274D01*
X134768306Y-55463971D01*
X134768307Y-55463958D01*
X134768500Y-55461502D01*
X134768500Y-55028498D01*
X134767260Y-55012738D01*
X134766067Y-54997579D01*
X134766066Y-54997574D01*
X134765562Y-54991169D01*
X134719145Y-54831399D01*
X134634453Y-54688193D01*
X134631513Y-54685253D01*
X134606180Y-54620734D01*
X134620079Y-54551111D01*
X134632126Y-54532364D01*
X134638090Y-54524676D01*
X134714648Y-54395221D01*
X134720893Y-54380790D01*
X134759939Y-54246395D01*
X134759899Y-54232294D01*
X134752630Y-54229000D01*
X133157000Y-54229000D01*
X133088879Y-54208998D01*
X133042386Y-54155342D01*
X133031000Y-54103000D01*
X133031000Y-53847000D01*
X133051002Y-53778879D01*
X133104658Y-53732386D01*
X133157000Y-53721000D01*
X134746878Y-53721000D01*
X134760409Y-53717027D01*
X134761544Y-53709129D01*
X134720893Y-53569210D01*
X134714648Y-53554779D01*
X134638089Y-53425323D01*
X134632129Y-53417640D01*
X134606180Y-53351556D01*
X134620078Y-53281933D01*
X134630421Y-53265839D01*
X134634453Y-53261807D01*
X134719145Y-53118601D01*
X134765562Y-52958831D01*
X134768500Y-52921502D01*
X134768500Y-52488498D01*
X134765562Y-52451169D01*
X134735070Y-52346214D01*
X134721357Y-52299012D01*
X134721356Y-52299010D01*
X134719145Y-52291399D01*
X134634453Y-52148193D01*
X134631771Y-52145511D01*
X134606498Y-52081139D01*
X134620400Y-52011516D01*
X134630572Y-51995688D01*
X134634453Y-51991807D01*
X134656360Y-51954764D01*
X134708253Y-51906314D01*
X134778103Y-51893609D01*
X134843734Y-51920685D01*
G37*
%TD.AperFunction*%
%TA.AperFunction,Conductor*%
G36*
X126794122Y-47643502D02*
G01*
X126840615Y-47697158D01*
X126852001Y-47749500D01*
X126852001Y-47838983D01*
X126852195Y-47843920D01*
X126854430Y-47872336D01*
X126856730Y-47884931D01*
X126899107Y-48030790D01*
X126905352Y-48045221D01*
X126981911Y-48174677D01*
X126987871Y-48182360D01*
X127013820Y-48248444D01*
X126999922Y-48318067D01*
X126989579Y-48334161D01*
X126985547Y-48338193D01*
X126900855Y-48481399D01*
X126898644Y-48489010D01*
X126898643Y-48489012D01*
X126889680Y-48519865D01*
X126854438Y-48641169D01*
X126853934Y-48647574D01*
X126853933Y-48647579D01*
X126851706Y-48675879D01*
X126851500Y-48678498D01*
X126851500Y-49111502D01*
X126851693Y-49113950D01*
X126851693Y-49113958D01*
X126853846Y-49141304D01*
X126854438Y-49148831D01*
X126856231Y-49155001D01*
X126856233Y-49155011D01*
X126886342Y-49258648D01*
X126886139Y-49329644D01*
X126847585Y-49389260D01*
X126782920Y-49418568D01*
X126724844Y-49413113D01*
X126690231Y-49401363D01*
X126675005Y-49395057D01*
X126485153Y-49301432D01*
X126470880Y-49293191D01*
X126294880Y-49175591D01*
X126281805Y-49165558D01*
X126210032Y-49102615D01*
X126146788Y-49047152D01*
X126129901Y-49029122D01*
X126129069Y-49028037D01*
X126129068Y-49028036D01*
X126124442Y-49022007D01*
X126121241Y-49019443D01*
X126118621Y-49016447D01*
X126117308Y-49014490D01*
X126017834Y-48904177D01*
X126008047Y-48891855D01*
X125962926Y-48827133D01*
X125953479Y-48811202D01*
X125932313Y-48768654D01*
X125925184Y-48751132D01*
X125924031Y-48747548D01*
X125912520Y-48711766D01*
X125908652Y-48696544D01*
X125904812Y-48676186D01*
X125901905Y-48660780D01*
X125897483Y-48637339D01*
X125896069Y-48627889D01*
X125885527Y-48532967D01*
X125885286Y-48530597D01*
X125880773Y-48481521D01*
X125880556Y-48479159D01*
X125867707Y-48402948D01*
X125866865Y-48399542D01*
X125864847Y-48393400D01*
X125843527Y-48328530D01*
X125843525Y-48328524D01*
X125842783Y-48326267D01*
X125839387Y-48318067D01*
X125833124Y-48302949D01*
X125824813Y-48239798D01*
X125824520Y-48239771D01*
X125824638Y-48238467D01*
X125824612Y-48238269D01*
X125824742Y-48237287D01*
X125825085Y-48234679D01*
X125827676Y-48182360D01*
X125829090Y-48153819D01*
X125829090Y-48153808D01*
X125829216Y-48151266D01*
X125829095Y-48147477D01*
X125826147Y-48121551D01*
X125822160Y-48086500D01*
X125819668Y-48064586D01*
X125817912Y-48055675D01*
X125815602Y-48045221D01*
X125812974Y-48033331D01*
X125812967Y-48033302D01*
X125812826Y-48032663D01*
X125812570Y-48031619D01*
X125806418Y-48008812D01*
X125806218Y-48008134D01*
X125806207Y-48008094D01*
X125758987Y-47847797D01*
X125758987Y-47847796D01*
X125757920Y-47844175D01*
X125756427Y-47840703D01*
X125755380Y-47837804D01*
X125751692Y-47825723D01*
X125751688Y-47825705D01*
X125751687Y-47825703D01*
X125750431Y-47820702D01*
X125741318Y-47799743D01*
X125732497Y-47729297D01*
X125763163Y-47665265D01*
X125823579Y-47627977D01*
X125856867Y-47623500D01*
X126726001Y-47623500D01*
X126794122Y-47643502D01*
G37*
%TD.AperFunction*%
%TD*%
M02*
