M48
; DRILL file {KiCad (6.0.6)} date Tue Jul 12 11:31:36 2022
; FORMAT={-:-/ absolute / inch / decimal}
; #@! TF.CreationDate,2022-07-12T11:31:36+01:00
; #@! TF.GenerationSoftware,Kicad,Pcbnew,(6.0.6)
; #@! TF.FileFunction,Plated,1,2,PTH
FMAT,2
INCH
; #@! TA.AperFunction,Plated,PTH,ViaDrill
T1C0.0157
; #@! TA.AperFunction,Plated,PTH,ComponentDrill
T2C0.0315
; #@! TA.AperFunction,Plated,PTH,ComponentDrill
T3C0.0354
; #@! TA.AperFunction,Plated,PTH,ComponentDrill
T4C0.0394
%
G90
G05
T1
X4.325Y-1.675
X4.325Y-2.2
X4.625Y-2.275
X4.85Y-2.3
X4.9571Y-1.9
X5.05Y-2.35
X5.15Y-1.9
X5.3215Y-2.125
X5.325Y-2.525
X5.3485Y-1.9515
X5.35Y-1.7
X5.35Y-2.3
X5.3985Y-2.0985
X5.4Y-2.0
T2
X5.55Y-1.7563
X5.55Y-1.835
X5.55Y-1.9138
X5.55Y-1.9925
X5.55Y-2.0713
X5.55Y-2.15
X5.55Y-2.2287
X5.55Y-2.3075
X5.55Y-2.3862
X5.55Y-2.465
X5.55Y-2.5437
T3
X4.65Y-2.55
X4.75Y-2.55
X4.85Y-2.55
X4.95Y-2.55
T4
X4.35Y-1.8
X4.35Y-1.9
X4.35Y-2.5
X4.35Y-2.6
X4.45Y-2.1
X4.45Y-2.1984
X4.45Y-2.2969
X4.9Y-1.7
X4.9Y-1.8
X4.9Y-1.9
T0
M30
