%TF.GenerationSoftware,KiCad,Pcbnew,(6.0.6)*%
%TF.CreationDate,2022-07-12T11:31:36+01:00*%
%TF.ProjectId,c64 tape interface,63363420-7461-4706-9520-696e74657266,rev?*%
%TF.SameCoordinates,Original*%
%TF.FileFunction,Soldermask,Top*%
%TF.FilePolarity,Negative*%
%FSLAX46Y46*%
G04 Gerber Fmt 4.6, Leading zero omitted, Abs format (unit mm)*
G04 Created by KiCad (PCBNEW (6.0.6)) date 2022-07-12 11:31:36*
%MOMM*%
%LPD*%
G01*
G04 APERTURE LIST*
G04 Aperture macros list*
%AMRoundRect*
0 Rectangle with rounded corners*
0 $1 Rounding radius*
0 $2 $3 $4 $5 $6 $7 $8 $9 X,Y pos of 4 corners*
0 Add a 4 corners polygon primitive as box body*
4,1,4,$2,$3,$4,$5,$6,$7,$8,$9,$2,$3,0*
0 Add four circle primitives for the rounded corners*
1,1,$1+$1,$2,$3*
1,1,$1+$1,$4,$5*
1,1,$1+$1,$6,$7*
1,1,$1+$1,$8,$9*
0 Add four rect primitives between the rounded corners*
20,1,$1+$1,$2,$3,$4,$5,0*
20,1,$1+$1,$4,$5,$6,$7,0*
20,1,$1+$1,$6,$7,$8,$9,0*
20,1,$1+$1,$8,$9,$2,$3,0*%
G04 Aperture macros list end*
%ADD10R,1.700000X1.700000*%
%ADD11O,1.700000X1.700000*%
%ADD12R,1.800000X1.800000*%
%ADD13C,1.800000*%
%ADD14RoundRect,0.450000X0.450000X0.450000X-0.450000X0.450000X-0.450000X-0.450000X0.450000X-0.450000X0*%
%ADD15R,1.350000X1.350000*%
%ADD16O,1.350000X1.350000*%
%ADD17C,0.800000*%
G04 APERTURE END LIST*
D10*
%TO.C,JP1*%
X124460000Y-43180000D03*
D11*
X124460000Y-45720000D03*
X124460000Y-48260000D03*
%TD*%
D12*
%TO.C,D1*%
X125730000Y-64770000D03*
D13*
X123190000Y-64770000D03*
%TD*%
D10*
%TO.C,J1*%
X110490000Y-66040000D03*
D11*
X110490000Y-63500000D03*
%TD*%
D10*
%TO.C,J2*%
X110490000Y-45720000D03*
D11*
X110490000Y-48260000D03*
%TD*%
D14*
%TO.C,RV1*%
X113030000Y-53340000D03*
D13*
X113030000Y-55840000D03*
X113030000Y-58340000D03*
%TD*%
D12*
%TO.C,D2*%
X120650000Y-64770000D03*
D13*
X118110000Y-64770000D03*
%TD*%
D15*
%TO.C,J3*%
X140970000Y-44610000D03*
D16*
X140970000Y-46610000D03*
X140970000Y-48610000D03*
X140970000Y-50610000D03*
X140970000Y-52610000D03*
X140970000Y-54610000D03*
X140970000Y-56610000D03*
X140970000Y-58610000D03*
X140970000Y-60610000D03*
X140970000Y-62610000D03*
X140970000Y-64610000D03*
%TD*%
D17*
X123190000Y-58420000D03*
X135255000Y-64135000D03*
X135165500Y-53975000D03*
X109855000Y-42545000D03*
X125909503Y-48260000D03*
X135890000Y-43180000D03*
X117475000Y-57785000D03*
X109855000Y-55880000D03*
X128270000Y-59690000D03*
X137160000Y-50800000D03*
X137121076Y-53301076D03*
X130810000Y-48260000D03*
X135851076Y-49568924D03*
X135890000Y-58420000D03*
M02*
